<svg width="220" height="212" viewBox="0 0 220 212" fill="none" xmlns="http://www.w3.org/2000/svg">
<g id="Illustration">
<g id="Layer 1">
<path id="Vector" d="M133.707 114.256L132.077 207.241C132.077 207.431 132.064 207.622 132.038 207.803V207.839C132.011 208.02 131.984 208.188 131.936 208.357C131.936 208.366 131.931 208.379 131.927 208.392C131.887 208.552 131.838 208.702 131.776 208.848C131.772 208.866 131.763 208.884 131.759 208.901C131.705 209.043 131.639 209.172 131.568 209.304C131.555 209.331 131.537 209.358 131.524 209.384C131.462 209.486 131.4 209.583 131.333 209.681C131.307 209.716 131.289 209.752 131.258 209.787C131.174 209.902 131.077 210.009 130.984 210.11C130.961 210.133 130.944 210.15 130.917 210.172C130.833 210.252 130.744 210.327 130.656 210.398C130.625 210.425 130.594 210.443 130.563 210.469C130.448 210.549 130.333 210.629 130.204 210.695L184.084 181.599C184.208 181.532 184.323 181.452 184.442 181.373C184.473 181.346 184.504 181.328 184.531 181.302C184.62 181.231 184.713 181.156 184.792 181.076C184.814 181.054 184.837 181.036 184.859 181.014C184.943 180.925 185.031 180.832 185.111 180.73C185.12 180.713 185.133 180.704 185.142 180.691C185.169 180.655 185.191 180.62 185.213 180.584C185.253 180.531 185.297 180.474 185.333 180.412C185.359 180.372 185.377 180.332 185.403 180.288C185.417 180.261 185.434 180.239 185.448 180.208C185.457 180.19 185.474 180.164 185.488 180.141C185.527 180.062 185.567 179.982 185.603 179.893C185.612 179.862 185.629 179.831 185.638 179.805C185.643 179.783 185.651 179.769 185.656 179.752C185.665 179.721 185.682 179.699 185.691 179.668C185.718 179.597 185.74 179.521 185.767 179.446C185.78 179.397 185.793 179.344 185.806 179.296C185.806 179.287 185.811 179.273 185.815 179.26C185.815 179.251 185.82 179.234 185.824 179.225C185.837 179.154 185.855 179.083 185.868 179.012C185.882 178.941 185.895 178.87 185.904 178.795C185.904 178.773 185.904 178.76 185.908 178.742V178.707C185.913 178.667 185.917 178.622 185.922 178.583C185.926 178.512 185.935 178.436 185.935 178.361C185.935 178.29 185.939 178.215 185.944 178.144L187.573 85.1592L133.694 114.256H133.698H133.707Z" fill="#EBE2F3" stroke="#711C8D" stroke-width="0.834246" stroke-linecap="round" stroke-linejoin="round"/>
<g id="Group" style="mix-blend-mode:multiply">
<path id="Vector_2" d="M133.707 114.256L132.077 207.241C132.077 207.431 132.064 207.622 132.038 207.803V207.839C132.011 208.02 131.984 208.188 131.936 208.357C131.936 208.366 131.931 208.379 131.927 208.392C131.887 208.552 131.838 208.702 131.776 208.848C131.772 208.866 131.763 208.884 131.759 208.901C131.705 209.043 131.639 209.172 131.568 209.304C131.555 209.331 131.537 209.358 131.524 209.384C131.462 209.486 131.4 209.583 131.333 209.681C131.307 209.716 131.289 209.752 131.258 209.787C131.174 209.902 131.077 210.009 130.984 210.11C130.961 210.133 130.944 210.15 130.917 210.172C130.833 210.252 130.744 210.327 130.656 210.398C130.625 210.425 130.594 210.443 130.563 210.469C130.448 210.549 130.333 210.629 130.204 210.695L184.084 181.599C184.208 181.532 184.323 181.452 184.442 181.373C184.473 181.346 184.504 181.328 184.531 181.302C184.62 181.231 184.713 181.156 184.792 181.076C184.814 181.054 184.837 181.036 184.859 181.014C184.943 180.925 185.031 180.832 185.111 180.73C185.12 180.713 185.133 180.704 185.142 180.691C185.169 180.655 185.191 180.62 185.213 180.584C185.253 180.531 185.297 180.474 185.333 180.412C185.359 180.372 185.377 180.332 185.403 180.288C185.417 180.261 185.434 180.239 185.448 180.208C185.457 180.19 185.474 180.164 185.488 180.141C185.527 180.062 185.567 179.982 185.603 179.893C185.612 179.862 185.629 179.831 185.638 179.805C185.643 179.783 185.651 179.769 185.656 179.752C185.665 179.721 185.682 179.699 185.691 179.668C185.718 179.597 185.74 179.521 185.767 179.446C185.78 179.397 185.793 179.344 185.806 179.296C185.806 179.287 185.811 179.273 185.815 179.26C185.815 179.251 185.82 179.234 185.824 179.225C185.837 179.154 185.855 179.083 185.868 179.012C185.882 178.941 185.895 178.87 185.904 178.795C185.904 178.773 185.904 178.76 185.908 178.742V178.707C185.913 178.667 185.917 178.622 185.922 178.583C185.926 178.512 185.935 178.436 185.935 178.361C185.935 178.29 185.939 178.215 185.944 178.144L187.573 85.1592L133.694 114.256H133.698H133.707Z" fill="#ffffff"/>
</g>
<g id="Group_2" style="mix-blend-mode:multiply">
<path id="Vector_3" d="M133.636 118.853L187.228 89.9954L187.445 86.634L133.632 115.505V118.848L133.636 118.853Z" fill="#ffffff"/>
</g>
<path id="Vector_4" d="M133.707 114.256L132.077 207.241C132.038 209.867 130.085 211.537 127.72 210.979L35.9393 189.282C33.5744 188.724 31.6922 186.142 31.7321 183.516L33.3618 90.5312L133.707 114.256Z" fill="#EBE2F3" stroke="#711C8D" stroke-width="0.834246" stroke-linecap="round" stroke-linejoin="round"/>
<path id="Vector_5" d="M130.451 100.088C132.812 100.646 134.698 103.228 134.659 105.854L134.512 115.23L31.377 90.8456L31.5231 81.4701C31.563 78.8438 33.516 77.1742 35.8809 77.7322L130.456 100.088H130.451Z" fill="#EBE2F3" stroke="#711C8D" stroke-width="0.834246" stroke-linecap="round" stroke-linejoin="round"/>
<path id="Vector_6" d="M188.534 76.5187C188.534 76.4434 188.53 76.3637 188.525 76.2884V76.2486C188.521 76.1822 188.516 76.1113 188.508 76.0493C188.499 75.9652 188.485 75.8766 188.472 75.7969V75.7659C188.459 75.6861 188.446 75.6109 188.432 75.5356C188.419 75.4691 188.401 75.4116 188.388 75.3451C188.388 75.3274 188.379 75.3053 188.375 75.2831C188.375 75.2743 188.375 75.2566 188.366 75.2477C188.335 75.137 188.304 75.0307 188.277 74.9244C188.273 74.9023 188.264 74.889 188.255 74.8713C188.242 74.827 188.224 74.7783 188.206 74.734C188.184 74.672 188.167 74.61 188.14 74.548C188.131 74.5214 188.113 74.4993 188.105 74.4683C188.065 74.3664 188.02 74.2645 187.967 74.1671C187.945 74.1228 187.932 74.083 187.914 74.0387C187.91 74.0254 187.901 74.0121 187.896 74.0032C187.79 73.7995 187.675 73.5958 187.551 73.4009C187.524 73.3611 187.498 73.3212 187.471 73.2814C187.338 73.0865 187.201 72.8916 187.042 72.7189C187.028 72.6923 187.006 72.6791 186.993 72.6569C186.9 72.5462 186.794 72.4399 186.692 72.3336C186.683 72.3248 186.67 72.307 186.661 72.2982C186.586 72.2273 186.51 72.1565 186.431 72.09C186.408 72.0768 186.395 72.059 186.377 72.0458C186.377 72.0458 186.373 72.0413 186.369 72.0369C186.289 71.966 186.205 71.8996 186.116 71.8376C186.09 71.8243 186.072 71.8022 186.045 71.7889C186.019 71.7756 186.001 71.7535 185.974 71.7402C185.943 71.7225 185.912 71.6959 185.886 71.6737C185.811 71.625 185.74 71.5763 185.664 71.532C185.656 71.5276 185.651 71.5232 185.638 71.5143C185.629 71.5099 185.611 71.501 185.602 71.4966C185.554 71.4656 185.505 71.4435 185.456 71.4124C185.39 71.377 185.319 71.3416 185.248 71.3106C185.239 71.3106 185.235 71.3062 185.221 71.3017C185.213 71.3017 185.199 71.2929 185.191 71.2884C185.142 71.2619 185.089 71.2442 185.04 71.222C184.973 71.1954 184.907 71.1689 184.845 71.1467C184.832 71.1467 184.818 71.1379 184.805 71.1334C184.792 71.1334 184.779 71.1246 184.765 71.1202C184.725 71.1069 184.686 71.0892 184.646 71.0803C184.579 71.0582 184.508 71.0404 184.446 71.0272C184.415 71.0183 184.384 71.0139 184.358 71.0006L89.7831 48.6445C89.7432 48.6357 89.7078 48.6312 89.6679 48.6179C89.597 48.6047 89.5306 48.5914 89.4598 48.5825H89.411C89.3579 48.5737 89.3003 48.5692 89.2427 48.5604C89.2073 48.5604 89.1719 48.5559 89.1365 48.5515H88.7246C88.6714 48.5515 88.6183 48.5515 88.5652 48.5604C88.543 48.5604 88.5209 48.5648 88.4987 48.5692C88.4633 48.5692 88.4279 48.5781 88.3924 48.5825C88.3614 48.5825 88.3304 48.5869 88.3083 48.5914C88.2773 48.5914 88.2552 48.6002 88.2242 48.6135C88.1799 48.6224 88.1311 48.6357 88.0824 48.6445C88.0603 48.6489 88.0382 48.6534 88.016 48.6578C87.9983 48.6622 87.9717 48.6711 87.9496 48.6799C87.8743 48.7021 87.799 48.7242 87.7237 48.7508C87.6971 48.7597 87.6794 48.7641 87.6528 48.7729C87.644 48.7729 87.6263 48.7818 87.6174 48.7862C87.5067 48.8305 87.396 48.8837 87.2897 48.9368L33.4102 78.0245C33.5164 77.9714 33.6272 77.9182 33.7379 77.8739C33.7733 77.8606 33.8087 77.8473 33.8442 77.8341C33.9195 77.8075 33.9947 77.7853 34.07 77.7588C34.1143 77.7499 34.1542 77.7322 34.2029 77.7233C34.2472 77.7145 34.2915 77.7012 34.3446 77.6923C34.3978 77.6835 34.4598 77.6702 34.5173 77.6613C34.5528 77.6613 34.5882 77.6525 34.6236 77.6481C34.6989 77.6392 34.7742 77.6348 34.8495 77.6348H35.2614C35.3499 77.6392 35.4429 77.6481 35.5315 77.6658H35.5625C35.6732 77.6791 35.7839 77.7056 35.8947 77.7322L130.47 100.088C130.611 100.124 130.744 100.164 130.881 100.208C130.895 100.208 130.908 100.217 130.921 100.221C131.05 100.265 131.183 100.323 131.307 100.376C131.315 100.376 131.324 100.385 131.338 100.389C131.462 100.451 131.59 100.513 131.71 100.584C131.718 100.589 131.736 100.598 131.745 100.606C131.86 100.677 131.975 100.748 132.086 100.828C132.113 100.841 132.13 100.863 132.157 100.877C132.272 100.956 132.383 101.045 132.489 101.133C132.511 101.147 132.524 101.169 132.542 101.182C132.635 101.257 132.719 101.337 132.803 101.421C132.91 101.523 133.012 101.634 133.105 101.745C133.127 101.767 133.144 101.784 133.158 101.807C133.308 101.984 133.45 102.174 133.583 102.369C133.609 102.409 133.636 102.449 133.663 102.489C133.787 102.683 133.902 102.883 134.008 103.091C134.035 103.144 134.057 103.202 134.088 103.259C134.132 103.361 134.176 103.459 134.225 103.565C134.26 103.649 134.296 103.742 134.327 103.826C134.34 103.87 134.362 103.919 134.376 103.968C134.42 104.105 134.46 104.238 134.495 104.38C134.495 104.397 134.504 104.42 134.508 104.442C134.544 104.583 134.575 104.725 134.593 104.862V104.885C134.619 105.04 134.637 105.19 134.646 105.345V105.372C134.655 105.531 134.659 105.695 134.659 105.854L134.513 115.23L188.392 86.1334L188.539 76.7579V76.5232H188.534V76.5187Z" fill="#EBE2F3" stroke="#711C8D" stroke-width="0.834246" stroke-linecap="round" stroke-linejoin="round"/>
<path id="Vector_7" d="M130.452 100.088L184.332 70.9919C186.692 71.55 188.579 74.1319 188.539 76.7581L134.659 105.855C134.699 103.228 132.813 100.647 130.452 100.088Z" fill="#EBE2F3"/>
<path id="Vector_8" d="M130.452 100.088L184.332 70.9919C186.692 71.55 188.579 74.1319 188.539 76.7581L134.659 105.855C134.699 103.228 132.813 100.647 130.452 100.088Z" stroke="#711C8D" stroke-width="0.834246" stroke-linecap="round" stroke-linejoin="round"/>
<path id="Vector_9" d="M94.5441 68.0202L93.2377 68.7377C93.0074 68.8617 93.0517 69.2115 93.3085 69.2735L126.466 77.5198C126.714 77.5818 126.976 77.5463 127.197 77.4223L128.712 76.5809C128.942 76.4524 128.898 76.1026 128.641 76.0406L95.2705 67.9139C95.0224 67.8519 94.77 67.8873 94.553 68.0113L94.5441 68.0202Z" fill="#2E0B39"/>
<g id="Group_3" style="mix-blend-mode:multiply">
<path id="Vector_10" d="M33.3574 91.3152V94.6013L133.442 118.853L133.645 115.23L33.3574 91.3152Z" fill="#ffffff"/>
</g>
<path id="Vector_11" d="M190.965 51.1158C186.767 51.1158 185.367 52.4577 185.367 56.4745C185.367 52.4533 183.968 51.1158 179.77 51.1158C183.968 51.1158 185.367 49.7739 185.367 45.7571C185.367 49.7783 186.767 51.1158 190.965 51.1158Z" fill="#5F376C"/>
<path id="Vector_12" d="M120.713 143.751C111.315 143.751 108.184 146.749 108.184 155.753C108.184 146.749 105.053 143.751 95.6553 143.751C105.053 143.751 108.184 140.753 108.184 131.749C108.184 140.753 111.315 143.751 120.713 143.751Z" fill="#5F376C"/>
<g id="Group_4">
<path id="Vector_13" d="M48.3267 135.77C52.5263 135.77 55.9308 132.366 55.9308 128.166C55.9308 123.967 52.5263 120.562 48.3267 120.562C44.1271 120.562 40.7227 123.967 40.7227 128.166C40.7227 132.366 44.1271 135.77 48.3267 135.77Z" fill="#ffffff" stroke="#711C8D" stroke-width="0.834246" stroke-linejoin="round"/>
<g id="Vector_14" style="mix-blend-mode:multiply">
<path d="M41.98 123.972C41.1828 125.173 40.7178 126.616 40.7178 128.162C40.7178 132.36 44.1234 135.766 48.3218 135.766C51.2714 135.766 53.8179 134.088 55.08 131.634C53.9773 132.073 52.7815 132.316 51.5238 132.316C46.6389 132.316 42.6088 128.68 41.9755 123.968L41.98 123.972Z" fill="#EBE2F3"/>
</g>
</g>
<g id="Group_5">
<path id="Vector_15" d="M154.655 34.7342C156.709 34.7342 158.375 33.0686 158.375 31.0141C158.375 28.9595 156.709 27.2939 154.655 27.2939C152.6 27.2939 150.935 28.9595 150.935 31.0141C150.935 33.0686 152.6 34.7342 154.655 34.7342Z" fill="#ffffff" stroke="#711C8D" stroke-width="0.834246" stroke-linejoin="round"/>
<g id="Vector_16" style="mix-blend-mode:multiply">
<path d="M156.222 27.6436C155.584 27.3469 154.853 27.2273 154.105 27.3381C152.072 27.6436 150.677 29.5347 150.978 31.5675C151.191 32.9935 152.192 34.1051 153.467 34.5347C153.175 34.0342 152.971 33.4718 152.878 32.8651C152.524 30.5046 153.99 28.2902 156.222 27.6436Z" fill="#EBE2F3"/>
</g>
</g>
<path id="Vector_17" d="M205.784 104.579C208.273 103.22 209.518 102.542 212.011 101.187C217.374 104.061 214.637 110.54 220 113.414C217.826 115.257 216.741 116.173 214.566 118.016C208.672 114.858 211.679 107.737 205.784 104.584V104.579Z" fill="#D9D9D9"/>
<path id="Vector_18" d="M146.355 13.4895C144.942 11.1158 144.238 9.92444 142.825 7.55066C147.506 5.45589 152.241 4.11842 156.922 2.02808C158.893 4.18485 159.876 5.26545 161.846 7.42223C156.975 10.3585 151.226 10.5533 146.355 13.494V13.4895Z" fill="#C46DE1"/>
<path id="Vector_19" d="M169.034 165.443C167.285 167.582 166.408 168.649 164.654 170.788C161.089 167.099 158.219 163.109 154.654 159.42C156.009 156.833 156.687 155.54 158.047 152.954C162.471 156.532 164.614 161.869 169.034 165.447V165.443Z" fill="#B341D9"/>
<path id="Vector_20" d="M3.46767 151.315C2.08149 148.839 1.38618 147.604 0 145.128C2.81222 139.734 9.32241 142.391 12.1346 136.997C13.9991 139.149 14.9336 140.226 16.798 142.378C13.7112 148.308 6.55447 145.385 3.46767 151.315Z" fill="#D493E9"/>
<path id="Vector_21" d="M68.8136 64.8183C66.7587 66.7625 65.7356 67.7324 63.6807 69.6766C63.2998 61.7935 53.5479 65.8104 53.167 57.9273C55.4522 56.2399 56.5948 55.3985 58.8756 53.7156C59.2343 61.1646 68.4504 57.3693 68.8091 64.8183H68.8136Z" fill="#D493E9"/>
<path id="Vector_22" d="M65.717 30.1948C62.2804 30.9211 60.562 31.2843 57.1254 32.0106C52.3645 27.4933 45.3849 28.8352 40.624 24.3179C42.3822 22.8077 43.2591 22.0549 45.0173 20.5447C50.1059 26.736 60.1236 24.4685 65.7215 30.1992L65.717 30.1948Z" fill="#E2B7F1"/>
</g>
<path id="Vector_23" d="M129.5 31.8498H101.739C106.043 19.4338 110.2 7.13363 107.928 0H135.689C137.463 7.62663 133.562 19.6753 129.5 31.8498Z" fill="#FFE66D"/>
<g id="Group_6" style="mix-blend-mode:multiply">
<path id="Vector_24" d="M130.712 28.1875C134.286 17.3009 137.282 6.86708 135.684 0.00512695H107.923C107.923 0.00512695 135.684 0.00512864 130.712 28.1875Z" fill="#ffffff"/>
</g>
</g>
</svg>
