<svg width="57" height="60" viewBox="0 0 57 60" fill="none" xmlns="http://www.w3.org/2000/svg">
<g clip-path="url(#clip0_8735_9632)">
<path d="M54.67 22.3218C50.0802 7.95769 35.7161 -2.75851 21.0221 1.13797C14.2372 3.02176 9.11082 7.86013 6.30722 14.1619C0.0368435 27.4761 6.56272 46.2698 19.1441 53.7643C41.53 67.3689 62.4967 45.9609 54.67 22.3218Z" fill="#5A2D8A"/>
<path d="M18.1662 49.5812C18.2719 49.6613 18.3776 49.7403 18.4845 49.8181C18.5379 49.8576 18.5913 49.8959 18.6447 49.9343C18.7423 50.0051 18.841 50.0748 18.9397 50.1445C18.9943 50.1828 19.0501 50.2211 19.1046 50.2595C19.208 50.3315 19.3125 50.4011 19.4171 50.4708C19.4658 50.5034 19.5134 50.5359 19.5622 50.5684C19.7144 50.6694 19.8677 50.7682 20.0221 50.8645C20.2033 50.9784 20.3857 51.0899 20.5692 51.199C20.6284 51.235 20.6888 51.2687 20.7492 51.3036C20.8734 51.3767 20.9989 51.4487 21.1243 51.5196C21.1951 51.5591 21.266 51.5985 21.338 51.6369C21.4541 51.7007 21.5714 51.7646 21.6887 51.8262C21.7631 51.8657 21.8374 51.904 21.9117 51.9435C22.0279 52.0039 22.1452 52.0631 22.2625 52.1212C22.3356 52.1583 22.41 52.1943 22.4831 52.2303C22.6074 52.2907 22.7317 52.3488 22.8571 52.4069C22.9233 52.4382 22.9907 52.4696 23.0569 52.4998C23.2137 52.5706 23.3704 52.6392 23.5284 52.7065C23.5644 52.7216 23.5992 52.7379 23.6341 52.753C23.8269 52.8343 24.0208 52.9132 24.2148 52.9899C24.2705 53.012 24.3263 53.0317 24.382 53.0538C24.5214 53.1072 24.6619 53.1606 24.8024 53.2117C24.8744 53.2384 24.9476 53.2628 25.0208 53.2884C25.1451 53.3325 25.2705 53.3755 25.3959 53.4173C25.4737 53.4428 25.5515 53.4684 25.6294 53.4928C25.7513 53.5323 25.8744 53.5706 25.9964 53.6078C26.0742 53.631 26.152 53.6554 26.231 53.6774C26.3576 53.7146 26.4853 53.7495 26.6131 53.7843C26.6862 53.804 26.7594 53.8249 26.8326 53.8435C26.9801 53.8819 27.1276 53.9179 27.2751 53.9539C27.3285 53.9666 27.3819 53.9806 27.4353 53.9933C27.6362 54.0398 27.8372 54.0839 28.0392 54.1246C28.0834 54.1339 28.1287 54.1408 28.174 54.1501C28.3308 54.1815 28.4887 54.2105 28.6467 54.2384C28.7187 54.2512 28.7918 54.2616 28.865 54.2744C28.9962 54.2953 29.1263 54.3162 29.2576 54.336C29.3377 54.3476 29.4167 54.358 29.4968 54.3685C29.6222 54.3847 29.7488 54.401 29.8743 54.4149C29.9172 54.4196 29.9602 54.4265 30.0043 54.4312C30.0543 54.437 30.1054 54.4405 30.1553 54.4463C30.2215 54.4533 30.2877 54.4591 30.3539 54.466C30.4677 54.4765 30.5827 54.4858 30.6965 54.4939C30.7581 54.4986 30.8196 54.5032 30.8812 54.5078C31.0171 54.5171 31.1541 54.5241 31.2912 54.5311C31.3295 54.5334 31.3678 54.5357 31.4073 54.5369C31.5827 54.5438 31.7569 54.5485 31.9322 54.552C31.9775 54.552 32.024 54.552 32.0693 54.552C32.1994 54.552 32.3283 54.5531 32.4584 54.552C32.5211 54.552 32.5849 54.5497 32.6477 54.5485C32.7615 54.5462 32.8753 54.5438 32.9891 54.5392C33.0553 54.5369 33.1227 54.5346 33.1889 54.5311C33.3015 54.5253 33.4153 54.5195 33.528 54.5125C33.5919 54.509 33.6558 54.5044 33.7196 54.4997C33.8451 54.4904 33.9717 54.48 34.0971 54.4684C34.147 54.4637 34.197 54.4602 34.2469 54.4556C34.4223 54.4382 34.5965 54.4184 34.7707 54.3963C34.8032 54.3929 34.8346 54.3871 34.8671 54.3836C35.0099 54.365 35.1528 54.3452 35.2956 54.3232C35.356 54.3139 35.4164 54.3034 35.4768 54.2941C35.5918 54.2756 35.7079 54.2558 35.8229 54.2349C35.8891 54.2233 35.9553 54.2105 36.0215 54.1978C36.133 54.1768 36.2445 54.1536 36.356 54.1304C36.421 54.1165 36.4861 54.1037 36.5511 54.0886C36.6696 54.063 36.788 54.0352 36.9065 54.0061C36.9622 53.9933 37.018 53.9806 37.0737 53.9666C37.2468 53.9237 37.4198 53.8784 37.5929 53.8307C37.7741 53.7808 37.9541 53.7274 38.1329 53.6728C38.1933 53.6542 38.2514 53.6345 38.3118 53.6147C38.4303 53.5776 38.5487 53.5392 38.666 53.4998C38.7357 53.4754 38.8054 53.4498 38.8751 53.4254C38.9808 53.3883 39.0853 53.3511 39.1898 53.3128C39.2641 53.2849 39.3361 53.2559 39.4105 53.228C39.5092 53.1897 39.6079 53.1525 39.7055 53.1118C39.781 53.0816 39.8553 53.0491 39.9296 53.0178C40.0237 52.9783 40.1189 52.9388 40.213 52.897C40.2885 52.8645 40.3628 52.8296 40.4371 52.7959C40.5289 52.7541 40.6206 52.7123 40.7112 52.6694C40.7867 52.6334 40.8599 52.5973 40.9342 52.5613C41.0236 52.5172 41.1131 52.4742 41.2013 52.4289C41.2757 52.3918 41.3488 52.3523 41.422 52.314C41.5091 52.2687 41.5962 52.2222 41.6822 52.1758C41.7553 52.1363 41.8285 52.0945 41.9017 52.0538C41.9864 52.0062 42.0712 51.9574 42.1548 51.9086C42.2269 51.8668 42.2989 51.8239 42.3697 51.7809C42.4533 51.7309 42.5358 51.6798 42.6182 51.6287C42.6891 51.5846 42.7588 51.5405 42.8296 51.4963C42.9109 51.4441 42.9922 51.3907 43.0735 51.3372C43.142 51.2919 43.2117 51.2455 43.2791 51.199C43.3592 51.1444 43.4394 51.0887 43.5183 51.0329C43.5857 50.9853 43.653 50.9377 43.7204 50.8901C43.7994 50.8332 43.8772 50.7751 43.955 50.717C44.02 50.6683 44.0862 50.6195 44.1513 50.5696C44.2291 50.5103 44.3069 50.4488 44.3836 50.3884C44.4463 50.3384 44.5102 50.2885 44.5729 50.2386C44.6507 50.1758 44.7262 50.112 44.8028 50.0481C44.8632 49.997 44.9248 49.947 44.9852 49.8959C45.063 49.8297 45.1385 49.7624 45.2151 49.695C45.2732 49.6439 45.3313 49.594 45.3882 49.5417C45.4671 49.4709 45.5438 49.3989 45.6216 49.3257C45.675 49.2758 45.7285 49.227 45.7807 49.177C45.8632 49.0981 45.9445 49.0179 46.0258 48.9366C46.0711 48.8913 46.1175 48.8472 46.164 48.8007C46.2267 48.738 46.2882 48.673 46.3498 48.608C46.3719 48.5836 46.3939 48.5603 46.416 48.5359C46.4392 48.5092 46.4625 48.4825 46.4857 48.4558C46.567 48.3629 46.6471 48.2712 46.7273 48.1771C46.7644 48.1329 46.8016 48.0877 46.8388 48.0435C46.9026 47.9669 46.9677 47.8891 47.0304 47.8112C47.071 47.7601 47.1117 47.7079 47.1523 47.6568C47.2104 47.5836 47.2685 47.5116 47.3242 47.4373C47.366 47.3827 47.4078 47.3269 47.4496 47.2712C47.5031 47.1992 47.5577 47.1283 47.6111 47.0563C47.6529 46.9983 47.6947 46.9402 47.7365 46.8821C47.7876 46.8113 47.8387 46.7393 47.8898 46.6673C47.9316 46.608 47.9723 46.5476 48.0129 46.4872C48.0617 46.4152 48.1116 46.3444 48.1593 46.2712C48.1999 46.2097 48.2406 46.1481 48.28 46.0866C48.3265 46.0146 48.3741 45.9426 48.4206 45.8694C48.4601 45.8067 48.4995 45.7428 48.539 45.6789C48.5843 45.6057 48.6296 45.5337 48.6738 45.4606C48.7121 45.3967 48.7504 45.3317 48.7887 45.2666C48.8317 45.1935 48.8758 45.1191 48.9188 45.0448C48.9513 44.989 48.9827 44.9333 49.014 44.8764C49.0698 44.7777 49.1244 44.679 49.179 44.5791C49.2115 44.5198 49.2428 44.4606 49.2742 44.4014C49.3265 44.3038 49.3776 44.2051 49.4287 44.1052C49.4589 44.046 49.4891 43.9879 49.5181 43.9287C49.5715 43.8218 49.6238 43.715 49.676 43.607C49.7004 43.5559 49.726 43.5048 49.7504 43.4537C49.8259 43.2946 49.899 43.1343 49.971 42.9729C50.0663 42.7603 50.1569 42.5443 50.2451 42.3283C50.2707 42.2667 50.2951 42.204 50.3195 42.1425C50.3868 41.9729 50.453 41.8022 50.5169 41.6315C50.5378 41.5757 50.5587 41.5211 50.5784 41.4654C50.6586 41.2459 50.7352 41.024 50.8096 40.8011C50.8235 40.7581 50.8374 40.714 50.8514 40.671C50.9118 40.4863 50.9687 40.3005 51.0244 40.1135C51.0442 40.0462 51.0639 39.9788 51.0837 39.9126C51.1394 39.7198 51.1928 39.5247 51.2439 39.3296C51.2544 39.2912 51.2648 39.2541 51.2741 39.2158C51.3334 38.9858 51.3891 38.7535 51.4414 38.5201C51.4553 38.4585 51.4681 38.3958 51.482 38.3343C51.5215 38.1531 51.5598 37.9696 51.5958 37.7872C51.6086 37.721 51.6225 37.6537 51.6342 37.5875C51.6783 37.3494 51.7213 37.1113 51.7584 36.8709C51.7875 36.6851 51.8153 36.4981 51.8409 36.3099C51.8409 36.3041 51.842 36.2995 51.8432 36.2937C51.8699 36.0997 51.8931 35.9058 51.9152 35.7107C51.9222 35.6479 51.928 35.5852 51.9338 35.5225C51.9477 35.3901 51.9617 35.2566 51.9733 35.1242C51.9803 35.0463 51.9861 34.9674 51.9919 34.8896C52.0012 34.7711 52.0116 34.6515 52.0197 34.533C52.0255 34.4482 52.029 34.3634 52.0337 34.2798C52.0406 34.166 52.0476 34.0522 52.0523 33.9384C52.0557 33.8513 52.0581 33.763 52.0615 33.6747C52.065 33.5632 52.0697 33.4506 52.072 33.3379C52.0743 33.2473 52.0743 33.1567 52.0755 33.0662C52.0766 32.9558 52.079 32.8455 52.079 32.7352C52.079 32.6434 52.0778 32.5505 52.0766 32.4576C52.0766 32.3484 52.0743 32.2381 52.072 32.1289C52.0697 32.0348 52.0662 31.9408 52.0639 31.8479C52.0604 31.7387 52.0569 31.6295 52.0523 31.5203C52.0476 31.4251 52.043 31.331 52.0372 31.2358C52.0313 31.1266 52.0255 31.0175 52.0174 30.9083C52.0116 30.8131 52.0035 30.7167 51.9965 30.6214C51.9884 30.5123 51.9791 30.4031 51.9698 30.2939C51.9617 30.1975 51.9512 30.1011 51.9419 30.0047C51.9315 29.8956 51.9199 29.7864 51.9082 29.6772C51.8978 29.5808 51.8862 29.4833 51.8746 29.3857C51.8618 29.2765 51.8479 29.1674 51.8328 29.0582C51.82 28.9606 51.806 28.8631 51.7921 28.7655C51.777 28.6563 51.7607 28.5472 51.7433 28.438C51.7282 28.3404 51.712 28.2417 51.6957 28.1442C51.6771 28.035 51.6585 27.9258 51.64 27.8167C51.6225 27.7179 51.604 27.6204 51.5854 27.5217C51.561 27.3893 51.5354 27.258 51.5087 27.1256C51.4994 27.0815 51.4913 27.0385 51.482 26.9944C51.4437 26.8086 51.403 26.6216 51.3601 26.4358C51.3519 26.3986 51.3426 26.3614 51.3345 26.3254C51.2985 26.1686 51.2602 26.0118 51.2207 25.8551C51.2091 25.8074 51.1975 25.7598 51.1847 25.711C51.1371 25.5241 51.0871 25.3359 51.036 25.1489C51.0291 25.1245 51.0221 25.1002 51.0151 25.0758C50.9687 24.9085 50.9211 24.7424 50.8711 24.5752C50.856 24.5253 50.8421 24.4753 50.827 24.4254C50.7701 24.2361 50.7108 24.0479 50.6505 23.8586C50.5819 23.6461 50.5099 23.4347 50.4368 23.2257C50.4147 23.1606 50.3915 23.0967 50.3682 23.0329C50.3148 22.8842 50.2614 22.7356 50.2056 22.5881C50.1801 22.5195 50.1545 22.4499 50.1278 22.3813C50.0674 22.2234 50.0059 22.0666 49.9432 21.911C49.9234 21.861 49.9037 21.8111 49.8839 21.7611C49.8015 21.5579 49.7167 21.3558 49.6296 21.1561C49.6098 21.1108 49.5889 21.0655 49.5692 21.0202C49.5007 20.8645 49.431 20.7089 49.3601 20.5545C49.3299 20.4894 49.2998 20.4232 49.2684 20.3582C49.2034 20.2176 49.136 20.0794 49.0686 19.9401C49.0396 19.8797 49.0094 19.8193 48.9804 19.7589C48.8898 19.5766 48.798 19.3942 48.704 19.2142C48.6981 19.2026 48.6923 19.191 48.6865 19.1794C48.5867 18.9889 48.4844 18.7996 48.3811 18.6114C48.3474 18.551 48.3137 18.4907 48.2789 18.4303C48.2127 18.3106 48.1453 18.1922 48.0768 18.0749C48.0385 18.0087 48.0001 17.9436 47.9618 17.8774C47.8945 17.7625 47.8259 17.6486 47.7574 17.5348C47.7191 17.4721 47.6808 17.4094 47.6424 17.3467C47.5646 17.2201 47.4856 17.0947 47.4055 16.9704C47.3753 16.9239 47.3463 16.8763 47.3161 16.8299C47.2058 16.6603 47.0954 16.4907 46.9816 16.3235C46.9584 16.2898 46.9352 16.2561 46.9119 16.2224C46.8213 16.0889 46.7296 15.9565 46.6367 15.8253C46.596 15.7683 46.5554 15.7126 46.5159 15.6557C46.4381 15.5477 46.3603 15.4397 46.2813 15.3317C46.2372 15.2713 46.1919 15.2109 46.1477 15.1516C46.0687 15.0471 45.9898 14.9426 45.9108 14.8392C45.8667 14.7823 45.8237 14.7254 45.7796 14.6697C45.689 14.5535 45.5972 14.4385 45.5043 14.3247C45.4718 14.2841 45.4393 14.2423 45.4056 14.2016C45.2802 14.0483 45.1536 13.895 45.0247 13.7452C44.9968 13.7127 44.9677 13.6802 44.9399 13.6476C44.8388 13.5303 44.7366 13.413 44.6344 13.2969C44.5891 13.2446 44.5427 13.1935 44.4962 13.1424C44.4091 13.046 44.322 12.9496 44.2337 12.8544C44.1838 12.7998 44.1339 12.7464 44.0828 12.693C43.9945 12.5989 43.9051 12.506 43.8156 12.4131C43.7669 12.3631 43.7192 12.3132 43.6705 12.2633C43.5671 12.1576 43.4637 12.0542 43.3592 11.9508C43.3244 11.916 43.2895 11.8812 43.2547 11.8475C43.1153 11.7104 42.9748 11.5757 42.8331 11.4433C42.8006 11.4119 42.7669 11.3818 42.7332 11.3516C42.6241 11.2494 42.5137 11.1483 42.4034 11.0484C42.3523 11.0031 42.3012 10.9578 42.2501 10.9125C42.1548 10.8278 42.0596 10.7441 41.9632 10.6605C41.9017 10.6071 41.8389 10.5537 41.7774 10.5014C41.717 10.4503 41.6554 10.3992 41.5951 10.3481C41.5254 10.29 41.4557 10.2331 41.386 10.1762C41.3245 10.1263 41.2629 10.0752 41.2013 10.0264C41.1317 9.9695 41.0608 9.91375 40.99 9.858C40.9331 9.81271 40.875 9.76741 40.8169 9.72328C40.6729 9.61179 40.5289 9.50261 40.3837 9.39461C40.3686 9.38299 40.3535 9.37138 40.3384 9.36092C40.1782 9.24246 40.0167 9.12748 39.8553 9.01251C39.8088 8.97999 39.7635 8.94863 39.7171 8.91611C39.5951 8.83133 39.472 8.74655 39.3478 8.66409C39.3001 8.63157 39.2514 8.59905 39.2037 8.56769C39.0388 8.45852 38.8727 8.35051 38.7067 8.24599C38.5255 8.13217 38.3431 8.02067 38.1596 7.9115C38.1004 7.8755 38.04 7.84182 37.9796 7.80698C37.8554 7.73381 37.7299 7.6618 37.6045 7.59096C37.5337 7.55147 37.4628 7.51198 37.3908 7.47366C37.2747 7.40978 37.1574 7.3459 37.0412 7.28435C36.9669 7.24486 36.8926 7.20654 36.8182 7.16705C36.7009 7.10666 36.5848 7.04743 36.4663 6.98936C36.3932 6.95335 36.3188 6.91619 36.2457 6.88018C36.1214 6.81979 35.9971 6.76172 35.8717 6.70365C35.8043 6.6723 35.7381 6.64094 35.6708 6.61074C35.514 6.5399 35.3572 6.47137 35.1992 6.40285C35.1644 6.38775 35.1284 6.37149 35.0936 6.3564C34.9008 6.2751 34.7068 6.19612 34.5117 6.11947C34.456 6.0974 34.4014 6.07766 34.3456 6.05676C34.2063 6.00333 34.0657 5.94991 33.9252 5.89881C33.852 5.87209 33.7789 5.8477 33.7057 5.82099C33.5814 5.77686 33.456 5.73389 33.3317 5.69324C33.2539 5.66769 33.1761 5.64214 33.0983 5.61659C32.9763 5.5771 32.8532 5.53877 32.7313 5.50161C32.6535 5.47838 32.5745 5.45399 32.4967 5.43192C32.3701 5.39476 32.2423 5.35992 32.1146 5.32508C32.0414 5.30533 31.9683 5.28443 31.8951 5.26585C31.7476 5.22752 31.6001 5.19152 31.4526 5.15551C31.3992 5.14274 31.3469 5.1288 31.2935 5.11719C31.0926 5.07073 30.8916 5.0266 30.6896 4.98595C30.6454 4.97666 30.6013 4.96969 30.5583 4.9604C30.4004 4.92904 30.2424 4.89884 30.0833 4.87213C30.0113 4.85936 29.9393 4.8489 29.8661 4.83729C29.7349 4.81639 29.6037 4.79548 29.4724 4.77574C29.3934 4.76412 29.3133 4.75367 29.2332 4.74322C29.1077 4.72696 28.9811 4.7107 28.8557 4.69676C28.7616 4.68631 28.6676 4.67586 28.5747 4.6654C28.5491 4.66308 28.5247 4.66076 28.4992 4.65844C28.4574 4.65495 28.4167 4.65031 28.3749 4.64682C28.2611 4.63637 28.1461 4.62708 28.0323 4.61895C28.0311 4.61895 28.0288 4.61895 28.0276 4.61895C27.9684 4.6143 27.908 4.60966 27.8488 4.60617C27.7117 4.59688 27.5747 4.58991 27.4376 4.58294C27.3993 4.58062 27.361 4.5783 27.3227 4.57714C27.1473 4.57017 26.9731 4.56552 26.7977 4.56204C26.7513 4.56204 26.706 4.56204 26.6595 4.56204C26.5306 4.56204 26.4005 4.56088 26.2716 4.56204C26.2089 4.56204 26.145 4.56436 26.0823 4.56552C25.9685 4.56785 25.8547 4.57017 25.7409 4.57482C25.7304 4.57482 25.7211 4.57482 25.7107 4.57598C25.6537 4.5783 25.5968 4.58062 25.5411 4.58294C25.4284 4.58759 25.3158 4.59456 25.202 4.60153C25.1636 4.60385 25.1265 4.60617 25.0881 4.6085C25.0626 4.60966 25.0359 4.61198 25.0103 4.61314C24.8837 4.62243 24.7583 4.63289 24.6317 4.6445C24.5818 4.64914 24.533 4.65263 24.4831 4.65727C24.3077 4.67469 24.1335 4.69444 23.9581 4.71651C23.9511 4.71651 23.943 4.71883 23.936 4.71999C23.9105 4.72347 23.8861 4.72696 23.8606 4.73044C23.7177 4.74902 23.576 4.76877 23.4332 4.79083C23.3728 4.80013 23.3124 4.81058 23.252 4.81987C23.137 4.83845 23.0209 4.8582 22.9059 4.8791C22.8397 4.89071 22.7735 4.90349 22.7073 4.91627C22.5958 4.93717 22.4855 4.9604 22.374 4.98363C22.3438 4.98943 22.3147 4.9964 22.2845 5.00221C22.2485 5.00918 22.2137 5.01731 22.1777 5.02544C22.0592 5.05099 21.9408 5.07886 21.8235 5.10673C21.7677 5.12067 21.7108 5.13345 21.6551 5.14738C21.482 5.19035 21.309 5.23565 21.1371 5.28327C20.9559 5.33321 20.777 5.38663 20.5982 5.44122C20.539 5.4598 20.4809 5.47954 20.4217 5.49812C20.3032 5.53529 20.1847 5.57362 20.0686 5.6131C19.9989 5.63633 19.9292 5.66188 19.8607 5.68743C19.7562 5.7246 19.6505 5.7606 19.5471 5.80009C19.474 5.82796 19.4008 5.85583 19.3288 5.88487C19.2301 5.92319 19.1313 5.96036 19.0338 5.99985C18.9316 6.0405 18.8317 6.08347 18.7307 6.12644C18.6738 6.15083 18.6169 6.17406 18.5611 6.19845C18.4334 6.25419 18.3068 6.31226 18.1802 6.37033C18.1511 6.38427 18.1221 6.39588 18.0931 6.40982C17.9386 6.48183 17.7853 6.55732 17.6332 6.63281C17.589 6.65487 17.5449 6.6781 17.5008 6.70133C17.4369 6.73385 17.3742 6.76637 17.3114 6.80005C17.2685 6.82328 17.2243 6.84534 17.1802 6.86857C17.1233 6.89877 17.0664 6.93129 17.0095 6.96264C16.9177 7.01258 16.826 7.06368 16.7354 7.11479C16.6738 7.14963 16.6134 7.18563 16.5531 7.22163C16.4683 7.27157 16.3823 7.32151 16.2987 7.37262C16.236 7.41094 16.1744 7.44927 16.1129 7.48759C16.0316 7.5387 15.9503 7.5898 15.869 7.6409C15.8074 7.68039 15.7459 7.72104 15.6843 7.76168C15.6054 7.81395 15.5252 7.86737 15.4474 7.92079C15.3858 7.9626 15.3255 8.00442 15.2651 8.04623C15.1873 8.10081 15.1106 8.1554 15.0339 8.20998C14.9736 8.25295 14.9143 8.29593 14.8551 8.34006C14.7784 8.39697 14.7018 8.45388 14.6263 8.51195C14.5682 8.55608 14.5102 8.60021 14.4532 8.64434C14.3766 8.70474 14.2999 8.76513 14.2245 8.82552C14.1699 8.86965 14.1141 8.91379 14.0607 8.95792C14.02 8.9916 13.9806 9.02528 13.9399 9.05896C13.919 9.07754 13.8981 9.09497 13.8784 9.11355C13.8168 9.16929 13.7564 9.22736 13.6949 9.28427C13.6333 9.34118 13.5718 9.39809 13.5114 9.45616C13.5102 9.45732 13.509 9.45848 13.5079 9.45964C13.4475 9.51771 13.3871 9.57811 13.3267 9.63734C13.2686 9.69425 13.2106 9.74999 13.1536 9.80806C13.1153 9.84755 13.077 9.88704 13.0387 9.92652C12.9597 10.0067 12.8819 10.0868 12.8041 10.1693C12.7588 10.218 12.7135 10.2668 12.6682 10.3156C12.5997 10.3899 12.53 10.4643 12.4626 10.5397C12.415 10.592 12.3685 10.6454 12.3221 10.6989C12.2582 10.772 12.1932 10.8452 12.1305 10.9195C12.0828 10.9753 12.0364 11.031 11.9899 11.0868C11.9284 11.1599 11.868 11.2343 11.8076 11.3086C11.7611 11.3655 11.7147 11.4236 11.6682 11.4816C11.609 11.556 11.5509 11.6303 11.4929 11.7058C11.4476 11.765 11.4023 11.8231 11.357 11.8835C11.2989 11.9601 11.242 12.0368 11.1862 12.1134C11.1421 12.1727 11.0991 12.2319 11.0562 12.2923C10.9993 12.3713 10.9435 12.4502 10.8889 12.5292C10.8471 12.5884 10.8053 12.6477 10.7647 12.7081C10.7089 12.7905 10.6532 12.873 10.5986 12.9554C10.5603 13.0135 10.5208 13.0716 10.4824 13.1308C10.4255 13.2191 10.3686 13.3085 10.3129 13.3979C10.278 13.4525 10.2444 13.5071 10.2095 13.5617C10.1456 13.6662 10.0829 13.7719 10.0202 13.8776C9.99582 13.9182 9.97143 13.9589 9.94704 13.9995C9.86109 14.147 9.77631 14.2945 9.69385 14.4444C9.67643 14.4757 9.66017 14.5071 9.64391 14.5373C9.57887 14.6569 9.51384 14.7765 9.45112 14.8961C9.42209 14.9507 9.39421 15.0065 9.36634 15.0622C9.3164 15.1598 9.26646 15.2573 9.21768 15.356C9.17239 15.449 9.12709 15.5419 9.08296 15.6348C9.06089 15.6812 9.03766 15.7277 9.0156 15.7753C8.94824 15.9182 8.8832 16.061 8.81932 16.205C8.74035 16.3816 8.6637 16.5604 8.58937 16.7393C8.55569 16.8206 8.52433 16.903 8.49065 16.9855C8.45116 17.0842 8.41051 17.1829 8.37218 17.2816C8.34083 17.3618 8.31179 17.4442 8.2816 17.5244C8.24327 17.6266 8.20378 17.7288 8.16778 17.831C8.13874 17.9123 8.11203 17.9936 8.08416 18.0749C8.04816 18.1794 8.01099 18.2828 7.97615 18.3885C7.94828 18.4732 7.92156 18.5592 7.89485 18.6451C7.86233 18.7473 7.82865 18.8495 7.79729 18.9517C7.77174 19.0377 7.74735 19.1236 7.7218 19.2096C7.69161 19.3141 7.66025 19.4174 7.63121 19.522C7.60683 19.6102 7.58476 19.6997 7.56153 19.7879C7.53366 19.8913 7.50578 19.9947 7.47907 20.098C7.45584 20.1898 7.43494 20.2827 7.41287 20.3744C7.38848 20.4766 7.36293 20.5777 7.3397 20.6799C7.31764 20.7751 7.29906 20.8715 7.27815 20.9667C7.25725 21.0678 7.23402 21.1677 7.21427 21.2687C7.19453 21.3651 7.17827 21.4627 7.15969 21.5591C7.14111 21.6601 7.1202 21.7611 7.10278 21.8633C7.08536 21.9597 7.07142 22.0573 7.05516 22.1549C7.03774 22.2571 7.02032 22.3604 7.00522 22.4626C6.99012 22.559 6.97851 22.6566 6.96457 22.7541C6.94948 22.8587 6.93438 22.9632 6.92044 23.0677C6.90767 23.1641 6.89837 23.2617 6.88676 23.3581C6.87399 23.4649 6.86121 23.5706 6.8496 23.6774C6.83914 23.7762 6.83101 23.8749 6.82172 23.9736C6.81243 24.0793 6.80082 24.185 6.79269 24.2907C6.78456 24.3905 6.77875 24.4904 6.77178 24.5903C6.76481 24.696 6.75552 24.8028 6.74972 24.9097C6.74391 25.0096 6.74042 25.1094 6.73578 25.2093C6.73346 25.2662 6.73113 25.322 6.72765 25.3789C6.72997 25.2999 6.7323 25.2198 6.73462 25.1408C6.7381 25.0711 6.74042 25.0003 6.74391 24.9306C6.74507 24.8923 6.74739 24.8551 6.74855 24.8168C6.7532 24.7204 6.75785 24.6228 6.76365 24.5264C6.7683 24.4509 6.77411 24.3754 6.77875 24.3011C6.78107 24.2651 6.7834 24.2291 6.78572 24.1931C6.79269 24.0967 6.79966 24.0015 6.80779 23.9062C6.81475 23.8296 6.82172 23.7518 6.82869 23.6751C6.83217 23.6414 6.8345 23.6089 6.83798 23.5752C6.84727 23.48 6.85656 23.3836 6.86702 23.2884C6.87631 23.2094 6.8856 23.1304 6.89489 23.0515C6.89837 23.0213 6.90186 22.9911 6.90534 22.9597C6.91696 22.8645 6.92741 22.7692 6.94018 22.6752C6.9518 22.5939 6.96225 22.5126 6.97387 22.4301C6.97735 22.4034 6.982 22.3767 6.98548 22.35C6.99942 22.2559 7.01219 22.1618 7.02729 22.0677C7.04123 21.9841 7.05516 21.8993 7.06794 21.8157C7.07142 21.7925 7.07607 21.7681 7.07955 21.7449C7.09465 21.6508 7.11091 21.5579 7.12717 21.465C7.14343 21.379 7.15969 21.2931 7.17595 21.2072C7.17943 21.1863 7.18408 21.1653 7.18756 21.1456C7.20498 21.0527 7.2224 20.9609 7.24099 20.868C7.25957 20.7798 7.27815 20.6915 7.29673 20.6032C7.30022 20.5846 7.30486 20.5649 7.30835 20.5463C7.32345 20.4743 7.3397 20.4023 7.35596 20.3315C7.33506 20.4186 7.31299 20.5057 7.29325 20.5928C7.27931 20.6543 7.26654 20.7147 7.2526 20.7763C7.21311 20.9586 7.17479 21.141 7.13878 21.3245C7.12601 21.3918 7.11207 21.4592 7.0993 21.5265C7.05516 21.7646 7.01219 22.0039 6.97387 22.2443C6.97387 22.2454 6.97387 22.2478 6.97387 22.2489C6.94367 22.4394 6.9158 22.6299 6.89025 22.8227C6.88444 22.8668 6.87979 22.9109 6.87399 22.9539C6.85424 23.1049 6.83566 23.2547 6.81824 23.4057C6.81011 23.4777 6.8043 23.5508 6.79617 23.6229C6.7834 23.746 6.77062 23.8691 6.75901 23.9933C6.75204 24.0746 6.74623 24.1559 6.73926 24.2372C6.72997 24.3534 6.72068 24.4684 6.71255 24.5845C6.70674 24.6704 6.70326 24.7564 6.69745 24.8435C6.69165 24.9561 6.68468 25.0676 6.67887 25.1803C6.67539 25.2697 6.67306 25.3603 6.66958 25.4497C6.6661 25.5601 6.66145 25.6692 6.65913 25.7796C6.6568 25.8713 6.6568 25.9631 6.65564 26.0537C6.65448 26.1628 6.65332 26.272 6.65332 26.3823C6.65332 26.4752 6.65448 26.5682 6.65564 26.6611C6.6568 26.7702 6.65797 26.8794 6.66029 26.9886C6.66261 27.0827 6.6661 27.1767 6.66842 27.272C6.6719 27.3811 6.67539 27.4891 6.68003 27.5983C6.68468 27.6935 6.68932 27.7888 6.69513 27.884C6.70094 27.9932 6.70674 28.1012 6.71487 28.2104C6.72068 28.3056 6.72881 28.402 6.73578 28.4984C6.74391 28.6076 6.7532 28.7156 6.76249 28.8247C6.77062 28.9211 6.78107 29.0175 6.79036 29.1151C6.80082 29.2231 6.81243 29.3323 6.82405 29.4403C6.8345 29.5378 6.84611 29.6354 6.85889 29.733C6.87166 29.841 6.8856 29.9501 6.89954 30.0581C6.91231 30.1557 6.92625 30.2544 6.94018 30.352C6.95528 30.4612 6.97154 30.5692 6.98896 30.6783C7.00406 30.7759 7.02032 30.8746 7.03658 30.9733C7.05516 31.0825 7.07375 31.1917 7.09233 31.3008C7.10975 31.3996 7.12833 31.4971 7.14691 31.5958C7.15737 31.6493 7.1655 31.7038 7.17595 31.7573C7.19105 31.8362 7.20731 31.9141 7.22357 31.993C7.23286 32.036 7.24099 32.079 7.25028 32.1231C7.2886 32.3089 7.32925 32.4948 7.37222 32.6806C7.38035 32.7189 7.38964 32.7561 7.39894 32.7944C7.43494 32.95 7.47327 33.1056 7.51159 33.2624C7.52321 33.3101 7.53598 33.3588 7.54759 33.4065C7.59521 33.5934 7.64399 33.7804 7.69625 33.9674C7.70322 33.993 7.71019 34.0185 7.71832 34.0429C7.76478 34.2078 7.81239 34.3739 7.86117 34.5388C7.87627 34.5888 7.89137 34.6387 7.90647 34.6898C7.96337 34.8779 8.02144 35.0672 8.083 35.2554C8.155 35.4795 8.23049 35.7014 8.30831 35.922C8.33386 35.9952 8.36057 36.0672 8.38728 36.1404C8.43955 36.2879 8.49297 36.4342 8.54756 36.5805C8.58007 36.6665 8.61375 36.7513 8.64627 36.8372C8.69738 36.9685 8.74848 37.0997 8.80074 37.2309C8.83674 37.3204 8.87391 37.4098 8.91107 37.4992C8.96217 37.6235 9.01444 37.7489 9.06786 37.872C9.10735 37.9626 9.14684 38.0532 9.18632 38.1426C9.23975 38.2646 9.29433 38.3854 9.34892 38.505C9.38957 38.5944 9.43138 38.6838 9.47319 38.7733C9.5301 38.894 9.587 39.0137 9.64507 39.1321C9.68688 39.2192 9.72986 39.3063 9.77283 39.3923C9.83322 39.5131 9.89477 39.6339 9.95633 39.7535C9.9993 39.8359 10.0411 39.9196 10.0841 40.0009C10.1503 40.1263 10.2176 40.2517 10.2862 40.376C10.3187 40.4352 10.35 40.4956 10.3826 40.556C10.3907 40.5711 10.4 40.5862 10.4081 40.6013C10.4673 40.7081 10.5289 40.8138 10.5893 40.9195C10.6369 41.002 10.6834 41.0856 10.731 41.1669C10.7949 41.2761 10.8599 41.3829 10.9249 41.4909C10.9714 41.5687 11.0178 41.6477 11.0655 41.7244C11.1351 41.8382 11.2072 41.9497 11.278 42.0623C11.3221 42.132 11.3663 42.2029 11.4104 42.2725C11.4929 42.4003 11.5776 42.5269 11.6613 42.6535C11.6961 42.7057 11.7298 42.7592 11.7658 42.8114C11.8866 42.9891 12.0074 43.1657 12.1316 43.3399C12.1514 43.3666 12.1711 43.3933 12.1909 43.4212C12.2954 43.5675 12.4011 43.7138 12.5079 43.8578C12.5532 43.9182 12.5997 43.9786 12.645 44.0379C12.7274 44.147 12.8099 44.2574 12.8935 44.3654C12.9469 44.4339 13.0003 44.5001 13.0538 44.5675C13.1316 44.6662 13.2094 44.7649 13.2884 44.8625C13.3453 44.9333 13.4045 45.003 13.4626 45.0727C13.5392 45.1656 13.6147 45.2573 13.6925 45.3491C13.7529 45.4211 13.8145 45.4908 13.876 45.5616C13.9527 45.6499 14.0282 45.7381 14.106 45.8253C14.1687 45.8961 14.2337 45.9658 14.2965 46.0366C14.3731 46.1214 14.4498 46.2062 14.5276 46.2898C14.5926 46.3607 14.66 46.4303 14.7262 46.5C14.804 46.5813 14.8806 46.6638 14.9585 46.7439C15.0258 46.8136 15.0943 46.8821 15.1617 46.9506C15.2395 47.0296 15.3185 47.1086 15.3975 47.1864C15.466 47.2549 15.5357 47.3211 15.6054 47.3885C15.6843 47.4651 15.7645 47.5418 15.8446 47.6173C15.9154 47.6835 15.9863 47.7497 16.0571 47.8159C16.1373 47.8902 16.2174 47.9645 16.2987 48.0377C16.3707 48.1027 16.4439 48.1678 16.5159 48.2317C16.5972 48.3037 16.6785 48.3757 16.7609 48.4465C16.79 48.4721 16.819 48.4976 16.848 48.5232C16.9084 48.5743 16.9688 48.6242 17.0292 48.6753C17.0768 48.716 17.1256 48.7566 17.1732 48.7961C17.2929 48.896 17.4136 48.9935 17.5356 49.0911C17.5588 49.1097 17.582 49.1294 17.6053 49.148C17.7505 49.263 17.8956 49.3768 18.042 49.4883C18.0838 49.5208 18.1267 49.5522 18.1686 49.5835L18.1662 49.5812Z" fill="#AA7CDA"/>
<path d="M18.1755 49.5812C18.2812 49.6613 18.3869 49.7403 18.4937 49.8181C18.5472 49.8576 18.6006 49.8959 18.654 49.9343C18.7516 50.0051 18.8503 50.0748 18.949 50.1445C19.0036 50.1828 19.0593 50.2211 19.1139 50.2595C19.2173 50.3315 19.3218 50.4011 19.4263 50.4708C19.4751 50.5034 19.5227 50.5359 19.5715 50.5684C19.7237 50.6694 19.877 50.7682 20.0314 50.8645C20.2126 50.9784 20.3949 51.0899 20.5784 51.199C20.6377 51.235 20.6981 51.2687 20.7585 51.3036C20.8827 51.3767 21.0082 51.4487 21.1336 51.5196C21.2044 51.5591 21.2753 51.5985 21.3473 51.6369C21.4634 51.7007 21.5807 51.7646 21.698 51.8262C21.7724 51.8657 21.8467 51.904 21.921 51.9435C22.0372 52.0039 22.1545 52.0631 22.2718 52.1212C22.3449 52.1583 22.4193 52.1943 22.4924 52.2303C22.6167 52.2907 22.741 52.3488 22.8664 52.4069C22.9326 52.4382 23 52.4696 23.0662 52.4998C23.2229 52.5706 23.3797 52.6392 23.5377 52.7065C23.5737 52.7216 23.6085 52.7379 23.6434 52.753C23.8362 52.8343 24.0301 52.9132 24.2241 52.9899C24.2798 53.012 24.3356 53.0317 24.3913 53.0538C24.5307 53.1072 24.6712 53.1606 24.8117 53.2117C24.8837 53.2384 24.9569 53.2628 25.0301 53.2884C25.1543 53.3325 25.2798 53.3755 25.4052 53.4173C25.483 53.4428 25.5608 53.4684 25.6386 53.4928C25.7606 53.5323 25.8837 53.5706 26.0056 53.6078C26.0835 53.631 26.1613 53.6554 26.2402 53.6774C26.3668 53.7146 26.4946 53.7495 26.6223 53.7843C26.6955 53.804 26.7687 53.8249 26.8418 53.8435C26.9893 53.8819 27.1368 53.9179 27.2843 53.9539C27.3378 53.9666 27.3912 53.9806 27.4446 53.9933C27.6455 54.0398 27.8465 54.0839 28.0485 54.1246C28.0927 54.1339 28.138 54.1408 28.1833 54.1501C28.34 54.1815 28.498 54.2105 28.6559 54.2384C28.728 54.2512 28.8011 54.2616 28.8743 54.2744C29.0055 54.2953 29.1356 54.3162 29.2668 54.336C29.347 54.3476 29.426 54.358 29.5061 54.3685C29.6315 54.3847 29.7581 54.401 29.8835 54.4149C29.9265 54.4196 29.9695 54.4265 30.0136 54.4312C30.0636 54.437 30.1147 54.4405 30.1646 54.4463C30.2308 54.4533 30.297 54.4591 30.3632 54.466C30.477 54.4765 30.592 54.4858 30.7058 54.4939C30.7674 54.4986 30.8289 54.5032 30.8905 54.5078C31.0264 54.5171 31.1634 54.5241 31.3004 54.5311C31.3388 54.5334 31.3771 54.5357 31.4166 54.5369C31.592 54.5438 31.7662 54.5485 31.9415 54.552C31.9868 54.552 32.0333 54.552 32.0786 54.552C32.2087 54.552 32.3376 54.5531 32.4676 54.552C32.5304 54.552 32.5942 54.5497 32.6569 54.5485C32.7708 54.5462 32.8846 54.5438 32.9984 54.5392C33.0646 54.5369 33.132 54.5346 33.1982 54.5311C33.3108 54.5253 33.4246 54.5195 33.5373 54.5125C33.6012 54.509 33.665 54.5044 33.7289 54.4997C33.8543 54.4904 33.9809 54.48 34.1064 54.4684C34.1563 54.4637 34.2063 54.4602 34.2562 54.4556C34.4316 54.4382 34.6058 54.4184 34.78 54.3963C34.8125 54.3929 34.8439 54.3871 34.8764 54.3836C35.0192 54.365 35.1621 54.3452 35.3049 54.3232C35.3653 54.3139 35.4257 54.3034 35.4861 54.2941C35.6011 54.2756 35.7172 54.2558 35.8322 54.2349C35.8984 54.2233 35.9646 54.2105 36.0308 54.1978C36.1423 54.1768 36.2538 54.1536 36.3653 54.1304C36.4303 54.1165 36.4954 54.1037 36.5604 54.0886C36.6789 54.063 36.7973 54.0352 36.9158 54.0061C36.9715 53.9933 37.0273 53.9806 37.083 53.9666C37.2561 53.9237 37.4291 53.8784 37.6022 53.8307C37.7833 53.7808 37.9634 53.7274 38.1422 53.6728C38.2026 53.6542 38.2607 53.6345 38.3211 53.6147C38.4395 53.5776 38.558 53.5392 38.6753 53.4998C38.745 53.4754 38.8147 53.4498 38.8844 53.4254C38.99 53.3883 39.0946 53.3511 39.1991 53.3128C39.2734 53.2849 39.3454 53.2559 39.4198 53.228C39.5185 53.1897 39.6172 53.1525 39.7148 53.1118C39.7902 53.0816 39.8646 53.0491 39.9389 53.0178C40.033 52.9783 40.1282 52.9388 40.2223 52.897C40.2978 52.8645 40.3721 52.8296 40.4464 52.7959C40.5382 52.7541 40.6299 52.7123 40.7205 52.6694C40.796 52.6334 40.8692 52.5973 40.9435 52.5613C41.0329 52.5172 41.1224 52.4742 41.2106 52.4289C41.285 52.3918 41.3581 52.3523 41.4313 52.314C41.5184 52.2687 41.6055 52.2222 41.6914 52.1758C41.7646 52.1363 41.8378 52.0945 41.9109 52.0538C41.9957 52.0062 42.0805 51.9574 42.1641 51.9086C42.2361 51.8668 42.3081 51.8239 42.379 51.7809C42.4626 51.7309 42.5451 51.6798 42.6275 51.6287C42.6984 51.5846 42.7681 51.5405 42.8389 51.4963C42.9202 51.4441 43.0015 51.3907 43.0828 51.3372C43.1513 51.2919 43.221 51.2455 43.2884 51.199C43.3685 51.1444 43.4486 51.0887 43.5276 51.0329C43.595 50.9853 43.6623 50.9377 43.7297 50.8901C43.8087 50.8332 43.8865 50.7751 43.9643 50.717C44.0293 50.6683 44.0955 50.6195 44.1606 50.5696C44.2384 50.5103 44.3162 50.4488 44.3928 50.3884C44.4556 50.3384 44.5194 50.2885 44.5822 50.2386C44.66 50.1758 44.7355 50.112 44.8121 50.0481C44.8725 49.997 44.9341 49.947 44.9945 49.8959C45.0723 49.8297 45.1478 49.7624 45.2244 49.695C45.2825 49.6439 45.3405 49.594 45.3975 49.5417C45.4764 49.4709 45.5531 49.3989 45.6309 49.3257C45.6843 49.2758 45.7377 49.227 45.79 49.177C45.8725 49.0981 45.9538 49.0179 46.0351 48.9366C46.0804 48.8913 46.1268 48.8472 46.1733 48.8007C46.236 48.738 46.2975 48.673 46.3591 48.608C46.3812 48.5836 46.4032 48.5603 46.4253 48.5359C46.4485 48.5092 46.4717 48.4825 46.495 48.4558C46.5763 48.3629 46.6564 48.2712 46.7365 48.1771C46.7737 48.1329 46.8109 48.0877 46.848 48.0435C46.9119 47.9669 46.977 47.8891 47.0397 47.8112C47.0803 47.7601 47.121 47.7079 47.1616 47.6568C47.2197 47.5836 47.2778 47.5116 47.3335 47.4373C47.3753 47.3827 47.4171 47.3269 47.4589 47.2712C47.5124 47.1992 47.5669 47.1283 47.6204 47.0563C47.6622 46.9983 47.704 46.9402 47.7458 46.8821C47.7969 46.8113 47.848 46.7393 47.8991 46.6673C47.9409 46.608 47.9816 46.5476 48.0222 46.4872C48.071 46.4152 48.1209 46.3444 48.1685 46.2712C48.2092 46.2097 48.2498 46.1481 48.2893 46.0866C48.3358 46.0146 48.3834 45.9426 48.4299 45.8694C48.4693 45.8067 48.5088 45.7428 48.5483 45.6789C48.5936 45.6057 48.6389 45.5337 48.683 45.4606C48.7214 45.3967 48.7597 45.3317 48.798 45.2666C48.841 45.1935 48.8851 45.1191 48.9281 45.0448C48.9606 44.989 48.992 44.9333 49.0233 44.8764C49.0791 44.7777 49.1337 44.679 49.1883 44.5791C49.2208 44.5198 49.2521 44.4606 49.2835 44.4014C49.3357 44.3038 49.3868 44.2051 49.438 44.1052C49.4681 44.046 49.4983 43.9879 49.5274 43.9287C49.5808 43.8218 49.6331 43.715 49.6853 43.607C49.7097 43.5559 49.7353 43.5048 49.7597 43.4537C49.8351 43.2946 49.9083 43.1343 49.9803 42.9729C50.0756 42.7603 50.1661 42.5443 50.2544 42.3283C50.28 42.2667 50.3044 42.204 50.3287 42.1425C50.3961 41.9729 50.4623 41.8022 50.5262 41.6315C50.5471 41.5757 50.568 41.5211 50.5877 41.4654C50.6679 41.2459 50.7445 41.024 50.8188 40.8011C50.8328 40.7581 50.8467 40.714 50.8607 40.671C50.9211 40.4863 50.978 40.3005 51.0337 40.1135C51.0535 40.0462 51.0732 39.9788 51.0929 39.9126C51.1487 39.7198 51.2021 39.5247 51.2532 39.3296C51.2637 39.2912 51.2741 39.2541 51.2834 39.2158C51.3426 38.9858 51.3984 38.7535 51.4506 38.5201C51.4646 38.4585 51.4774 38.3958 51.4913 38.3343C51.5308 38.1531 51.5691 37.9696 51.6051 37.7872C51.6179 37.721 51.6318 37.6537 51.6434 37.5875C51.6876 37.3494 51.7305 37.1113 51.7677 36.8709C51.7967 36.6851 51.8246 36.4981 51.8502 36.3099C51.8502 36.3041 51.8513 36.2995 51.8525 36.2937C51.8792 36.0997 51.9024 35.9058 51.9245 35.7107C51.9315 35.6479 51.9373 35.5852 51.9431 35.5225C51.957 35.3901 51.971 35.2566 51.9826 35.1242C51.9895 35.0463 51.9953 34.9674 52.0012 34.8896C52.0104 34.7711 52.0209 34.6515 52.029 34.533C52.0348 34.4482 52.0383 34.3634 52.043 34.2798C52.0499 34.166 52.0569 34.0522 52.0615 33.9384C52.065 33.8513 52.0673 33.763 52.0708 33.6747C52.0743 33.5632 52.079 33.4506 52.0813 33.3379C52.0836 33.2473 52.0836 33.1567 52.0848 33.0662C52.0859 32.9558 52.0883 32.8455 52.0883 32.7352C52.0883 32.6434 52.0871 32.5505 52.0859 32.4576C52.0859 32.3484 52.0836 32.2381 52.0813 32.1289C52.079 32.0348 52.0755 31.9408 52.0732 31.8479C52.0697 31.7387 52.0662 31.6295 52.0615 31.5203C52.0569 31.4251 52.0522 31.331 52.0464 31.2358C52.0406 31.1266 52.0348 31.0175 52.0267 30.9083C52.0209 30.8131 52.0128 30.7167 52.0058 30.6214C51.9977 30.5123 51.9884 30.4031 51.9791 30.2939C51.971 30.1975 51.9605 30.1011 51.9512 30.0047C51.9408 29.8956 51.9291 29.7864 51.9175 29.6772C51.9071 29.5808 51.8955 29.4833 51.8839 29.3857C51.8711 29.2765 51.8571 29.1674 51.842 29.0582C51.8293 28.9606 51.8153 28.8631 51.8014 28.7655C51.7863 28.6563 51.77 28.5472 51.7526 28.438C51.7375 28.3404 51.7213 28.2417 51.705 28.1442C51.6864 28.035 51.6678 27.9258 51.6493 27.8167C51.6318 27.7179 51.6132 27.6204 51.5947 27.5217C51.5703 27.3893 51.5447 27.258 51.518 27.1256C51.5087 27.0815 51.5006 27.0385 51.4913 26.9944C51.453 26.8086 51.4123 26.6216 51.3694 26.4358C51.3612 26.3986 51.3519 26.3614 51.3438 26.3254C51.3078 26.1686 51.2695 26.0118 51.23 25.8551C51.2184 25.8074 51.2068 25.7598 51.194 25.711C51.1464 25.5241 51.0964 25.3359 51.0453 25.1489C51.0384 25.1245 51.0314 25.1002 51.0244 25.0758C50.978 24.9085 50.9303 24.7424 50.8804 24.5752C50.8653 24.5253 50.8514 24.4753 50.8363 24.4254C50.7794 24.2361 50.7201 24.0479 50.6597 23.8586C50.5912 23.6461 50.5192 23.4347 50.446 23.2257C50.424 23.1606 50.4007 23.0967 50.3775 23.0329C50.3241 22.8842 50.2707 22.7356 50.2149 22.5881C50.1894 22.5195 50.1638 22.4499 50.1371 22.3813C50.0767 22.2234 50.0152 22.0666 49.9524 21.911C49.9327 21.861 49.913 21.8111 49.8932 21.7611C49.8108 21.5579 49.726 21.3558 49.6389 21.1561C49.6191 21.1108 49.5982 21.0655 49.5785 21.0202C49.51 20.8645 49.4403 20.7089 49.3694 20.5545C49.3392 20.4894 49.309 20.4232 49.2777 20.3582C49.2126 20.2176 49.1453 20.0794 49.0779 19.9401C49.0489 19.8797 49.0187 19.8193 48.9897 19.7589C48.8991 19.5766 48.8073 19.3942 48.7132 19.2142C48.7074 19.2026 48.7016 19.191 48.6958 19.1794C48.5959 18.9889 48.4937 18.7996 48.3904 18.6114C48.3567 18.551 48.323 18.4907 48.2882 18.4303C48.222 18.3106 48.1546 18.1922 48.0861 18.0749C48.0478 18.0087 48.0094 17.9436 47.9711 17.8774C47.9037 17.7625 47.8352 17.6486 47.7667 17.5348C47.7284 17.4721 47.6901 17.4094 47.6517 17.3467C47.5739 17.2201 47.4949 17.0947 47.4148 16.9704C47.3846 16.9239 47.3556 16.8763 47.3254 16.8299C47.215 16.6603 47.1047 16.4907 46.9909 16.3235C46.9677 16.2898 46.9444 16.2561 46.9212 16.2224C46.8306 16.0889 46.7389 15.9565 46.646 15.8253C46.6053 15.7683 46.5647 15.7126 46.5252 15.6557C46.4474 15.5477 46.3695 15.4397 46.2906 15.3317C46.2464 15.2713 46.2011 15.2109 46.157 15.1516C46.078 15.0471 45.9991 14.9426 45.9201 14.8392C45.8759 14.7823 45.833 14.7254 45.7888 14.6697C45.6983 14.5535 45.6065 14.4385 45.5136 14.3247C45.4811 14.2841 45.4486 14.2423 45.4149 14.2016C45.2894 14.0483 45.1629 13.895 45.0339 13.7452C45.0061 13.7127 44.977 13.6802 44.9492 13.6476C44.8481 13.5303 44.7459 13.413 44.6437 13.2969C44.5984 13.2446 44.552 13.1935 44.5055 13.1424C44.4184 13.046 44.3313 12.9496 44.243 12.8544C44.1931 12.7998 44.1432 12.7464 44.092 12.693C44.0038 12.5989 43.9144 12.506 43.8249 12.4131C43.7761 12.3631 43.7285 12.3132 43.6798 12.2633C43.5764 12.1576 43.473 12.0542 43.3685 11.9508C43.3337 11.916 43.2988 11.8812 43.264 11.8475C43.1246 11.7104 42.9841 11.5757 42.8424 11.4433C42.8099 11.4119 42.7762 11.3818 42.7425 11.3516C42.6333 11.2494 42.523 11.1483 42.4127 11.0484C42.3616 11.0031 42.3105 10.9578 42.2594 10.9125C42.1641 10.8278 42.0689 10.7441 41.9725 10.6605C41.9109 10.6071 41.8482 10.5537 41.7867 10.5014C41.7263 10.4503 41.6647 10.3992 41.6043 10.3481C41.5347 10.29 41.465 10.2331 41.3953 10.1762C41.3337 10.1263 41.2722 10.0752 41.2106 10.0264C41.1409 9.9695 41.0701 9.91375 40.9993 9.858C40.9423 9.81271 40.8843 9.76741 40.8262 9.72328C40.6822 9.61179 40.5382 9.50261 40.393 9.39461C40.3779 9.38299 40.3628 9.37138 40.3477 9.36092C40.1874 9.24246 40.026 9.12748 39.8646 9.01251C39.8181 8.97999 39.7728 8.94863 39.7264 8.91611C39.6044 8.83133 39.4813 8.74655 39.357 8.66409C39.3094 8.63157 39.2606 8.59905 39.213 8.56769C39.0481 8.45852 38.882 8.35051 38.716 8.24599C38.5348 8.13217 38.3524 8.02067 38.1689 7.9115C38.1097 7.8755 38.0493 7.84182 37.9889 7.80698C37.8646 7.73381 37.7392 7.6618 37.6138 7.59096C37.5429 7.55147 37.4721 7.51198 37.4001 7.47366C37.284 7.40978 37.1666 7.3459 37.0505 7.28435C36.9762 7.24486 36.9018 7.20654 36.8275 7.16705C36.7102 7.10666 36.5941 7.04743 36.4756 6.98936C36.4025 6.95335 36.3281 6.91619 36.255 6.88018C36.1307 6.81979 36.0064 6.76172 35.881 6.70365C35.8136 6.6723 35.7474 6.64094 35.6801 6.61074C35.5233 6.5399 35.3665 6.47137 35.2085 6.40285C35.1737 6.38775 35.1377 6.37149 35.1029 6.3564C34.9101 6.2751 34.7161 6.19612 34.521 6.11947C34.4652 6.0974 34.4107 6.07766 34.3549 6.05676C34.2155 6.00333 34.075 5.94991 33.9345 5.89881C33.8613 5.87209 33.7882 5.8477 33.715 5.82099C33.5907 5.77686 33.4653 5.73389 33.341 5.69324C33.2632 5.66769 33.1854 5.64214 33.1076 5.61659C32.9856 5.5771 32.8625 5.53877 32.7406 5.50161C32.6628 5.47838 32.5838 5.45399 32.506 5.43192C32.3794 5.39476 32.2516 5.35992 32.1239 5.32508C32.0507 5.30533 31.9775 5.28443 31.9044 5.26585C31.7569 5.22752 31.6094 5.19152 31.4619 5.15551C31.4085 5.14274 31.3562 5.1288 31.3028 5.11719C31.1018 5.07073 30.9009 5.0266 30.6988 4.98595C30.6547 4.97666 30.6106 4.96969 30.5676 4.9604C30.4097 4.92904 30.2517 4.89884 30.0926 4.87213C30.0206 4.85936 29.9486 4.8489 29.8754 4.83729C29.7442 4.81639 29.6129 4.79548 29.4817 4.77574C29.4027 4.76412 29.3226 4.75367 29.2425 4.74322C29.117 4.72696 28.9904 4.7107 28.865 4.69676C28.7709 4.68631 28.6769 4.67586 28.5839 4.6654C28.5584 4.66308 28.534 4.66076 28.5084 4.65844C28.4666 4.65495 28.426 4.65031 28.3842 4.64682C28.2704 4.63637 28.1554 4.62708 28.0416 4.61895C28.0404 4.61895 28.0381 4.61895 28.0369 4.61895C27.9777 4.6143 27.9173 4.60966 27.8581 4.60617C27.721 4.59688 27.584 4.58991 27.4469 4.58294C27.4086 4.58062 27.3703 4.5783 27.332 4.57714C27.1566 4.57017 26.9824 4.56552 26.807 4.56204C26.7606 4.56204 26.7153 4.56204 26.6688 4.56204C26.5399 4.56204 26.4098 4.56088 26.2809 4.56204C26.2182 4.56204 26.1543 4.56436 26.0916 4.56552C25.9778 4.56785 25.864 4.57017 25.7501 4.57482C25.7397 4.57482 25.7304 4.57482 25.7199 4.57598C25.663 4.5783 25.6061 4.58062 25.5504 4.58294C25.4377 4.58759 25.3251 4.59456 25.2112 4.60153C25.1729 4.60385 25.1358 4.60617 25.0974 4.6085C25.0719 4.60966 25.0452 4.61198 25.0196 4.61314C24.893 4.62243 24.7676 4.63289 24.641 4.6445C24.5911 4.64914 24.5423 4.65263 24.4923 4.65727C24.317 4.67469 24.1428 4.69444 23.9674 4.71651C23.9604 4.71651 23.9523 4.71883 23.9453 4.71999C23.9198 4.72347 23.8954 4.72696 23.8698 4.73044C23.727 4.74902 23.5853 4.76877 23.4424 4.79083C23.3821 4.80013 23.3217 4.81058 23.2613 4.81987C23.1463 4.83845 23.0301 4.8582 22.9152 4.8791C22.849 4.89071 22.7828 4.90349 22.7166 4.91627C22.6051 4.93717 22.4947 4.9604 22.3832 4.98363C22.3531 4.98943 22.324 4.9964 22.2938 5.00221C22.2578 5.00918 22.223 5.01731 22.187 5.02544C22.0685 5.05099 21.9501 5.07886 21.8327 5.10673C21.777 5.12067 21.7201 5.13345 21.6643 5.14738C21.4913 5.19035 21.3183 5.23565 21.1464 5.28327C20.9652 5.33321 20.7863 5.38663 20.6075 5.44122C20.5482 5.4598 20.4902 5.47954 20.4309 5.49812C20.3125 5.53529 20.194 5.57362 20.0779 5.6131C20.0082 5.63633 19.9385 5.66188 19.87 5.68743C19.7655 5.7246 19.6598 5.7606 19.5564 5.80009C19.4832 5.82796 19.4101 5.85583 19.3381 5.88487C19.2394 5.92319 19.1406 5.96036 19.0431 5.99985C18.9409 6.0405 18.841 6.08347 18.74 6.12644C18.683 6.15083 18.6261 6.17406 18.5704 6.19845C18.4426 6.25419 18.316 6.31226 18.1895 6.37033C18.1604 6.38427 18.1314 6.39588 18.1023 6.40982C17.9479 6.48183 17.7946 6.55732 17.6424 6.63281C17.5983 6.65487 17.5542 6.6781 17.51 6.70133C17.4462 6.73385 17.3834 6.76637 17.3207 6.80005C17.2778 6.82328 17.2336 6.84534 17.1895 6.86857C17.1326 6.89877 17.0757 6.93129 17.0188 6.96264C16.927 7.01258 16.8353 7.06368 16.7447 7.11479C16.6831 7.14963 16.6227 7.18563 16.5623 7.22163C16.4776 7.27157 16.3916 7.32151 16.308 7.37262C16.2453 7.41094 16.1837 7.44927 16.1222 7.48759C16.0409 7.5387 15.9596 7.5898 15.8783 7.6409C15.8167 7.68039 15.7552 7.72104 15.6936 7.76168C15.6146 7.81395 15.5345 7.86737 15.4567 7.92079C15.3951 7.9626 15.3347 8.00442 15.2744 8.04623C15.1965 8.10081 15.1199 8.1554 15.0432 8.20998C14.9828 8.25295 14.9236 8.29593 14.8644 8.34006C14.7877 8.39697 14.7111 8.45388 14.6356 8.51195C14.5775 8.55608 14.5194 8.60021 14.4625 8.64434C14.3859 8.70474 14.3092 8.76513 14.2337 8.82552C14.1792 8.86965 14.1234 8.91379 14.07 8.95792C14.0293 8.9916 13.9898 9.02528 13.9492 9.05896C13.9283 9.07754 13.9074 9.09497 13.8876 9.11355C13.8261 9.16929 13.7657 9.22736 13.7041 9.28427C13.6426 9.34118 13.581 9.39809 13.5206 9.45616C13.5195 9.45732 13.5183 9.45848 13.5172 9.45964C13.4568 9.51771 13.3964 9.57811 13.336 9.63734C13.2779 9.69425 13.2198 9.74999 13.1629 9.80806C13.1246 9.84755 13.0863 9.88704 13.048 9.92652C12.969 10.0067 12.8912 10.0868 12.8134 10.1693C12.7681 10.218 12.7228 10.2668 12.6775 10.3156C12.6089 10.3899 12.5393 10.4643 12.4719 10.5397C12.4243 10.592 12.3778 10.6454 12.3314 10.6989C12.2675 10.772 12.2025 10.8452 12.1397 10.9195C12.0921 10.9753 12.0457 11.031 11.9992 11.0868C11.9377 11.1599 11.8773 11.2343 11.8169 11.3086C11.7704 11.3655 11.724 11.4236 11.6775 11.4816C11.6183 11.556 11.5602 11.6303 11.5021 11.7058C11.4568 11.765 11.4116 11.8231 11.3663 11.8835C11.3082 11.9601 11.2513 12.0368 11.1955 12.1134C11.1514 12.1727 11.1084 12.2319 11.0655 12.2923C11.0085 12.3713 10.9528 12.4502 10.8982 12.5292C10.8564 12.5884 10.8146 12.6477 10.7739 12.7081C10.7182 12.7905 10.6625 12.873 10.6079 12.9554C10.5695 13.0135 10.5301 13.0716 10.4917 13.1308C10.4348 13.2191 10.3779 13.3085 10.3222 13.3979C10.2873 13.4525 10.2536 13.5071 10.2188 13.5617C10.1549 13.6662 10.0922 13.7719 10.0295 13.8776C10.0051 13.9182 9.98071 13.9589 9.95632 13.9995C9.87038 14.147 9.7856 14.2945 9.70314 14.4444C9.68572 14.4757 9.66946 14.5071 9.6532 14.5373C9.58816 14.6569 9.52312 14.7765 9.46041 14.8961C9.43137 14.9507 9.4035 15.0065 9.37563 15.0622C9.32569 15.1598 9.27575 15.2573 9.22697 15.356C9.18167 15.449 9.13638 15.5419 9.09224 15.6348C9.07018 15.6812 9.04695 15.7277 9.02488 15.7753C8.95752 15.9182 8.89249 16.061 8.82861 16.205C8.74963 16.3816 8.67298 16.5604 8.59865 16.7393C8.56497 16.8206 8.53361 16.903 8.49993 16.9855C8.46045 17.0842 8.4198 17.1829 8.38147 17.2816C8.35011 17.3618 8.32108 17.4442 8.29088 17.5244C8.25256 17.6266 8.21307 17.7288 8.17707 17.831C8.14803 17.9123 8.12132 17.9936 8.09345 18.0749C8.05744 18.1794 8.02028 18.2828 7.98544 18.3885C7.95756 18.4732 7.93085 18.5592 7.90414 18.6451C7.87162 18.7473 7.83794 18.8495 7.80658 18.9517C7.78103 19.0377 7.75664 19.1236 7.73109 19.2096C7.70089 19.3141 7.66954 19.4174 7.6405 19.522C7.61611 19.6102 7.59405 19.6997 7.57082 19.7879C7.54294 19.8913 7.51507 19.9947 7.48836 20.098C7.46513 20.1898 7.44423 20.2827 7.42216 20.3744C7.39777 20.4766 7.37222 20.5777 7.34899 20.6799C7.32692 20.7751 7.30834 20.8715 7.28744 20.9667C7.26653 21.0678 7.2433 21.1677 7.22356 21.2687C7.20382 21.3651 7.18756 21.4627 7.16897 21.5591C7.15039 21.6601 7.12949 21.7611 7.11207 21.8633C7.09465 21.9597 7.08071 22.0573 7.06445 22.1549C7.04703 22.2571 7.02961 22.3604 7.01451 22.4626C6.99941 22.559 6.9878 22.6566 6.97386 22.7541C6.95876 22.8587 6.94366 22.9632 6.92973 23.0677C6.91695 23.1641 6.90766 23.2617 6.89605 23.3581C6.88327 23.4649 6.8705 23.5706 6.85888 23.6774C6.84843 23.7762 6.8403 23.8749 6.83101 23.9736C6.82172 24.0793 6.8101 24.185 6.80197 24.2907C6.79384 24.3905 6.78804 24.4904 6.78107 24.5903C6.7741 24.696 6.76481 24.8028 6.759 24.9097C6.75319 25.0096 6.74971 25.1094 6.74507 25.2093C6.74274 25.2662 6.74042 25.322 6.73694 25.3789C6.73926 25.2999 6.74158 25.2198 6.7439 25.1408C6.74739 25.0711 6.74971 25.0003 6.7532 24.9306C6.75436 24.8923 6.75668 24.8551 6.75784 24.8168C6.76249 24.7204 6.76713 24.6228 6.77294 24.5264C6.77758 24.4509 6.78339 24.3754 6.78804 24.3011C6.79036 24.2651 6.79268 24.2291 6.79501 24.1931C6.80197 24.0967 6.80894 24.0015 6.81707 23.9062C6.82404 23.8296 6.83101 23.7518 6.83798 23.6751C6.84146 23.6414 6.84378 23.6089 6.84727 23.5752C6.85656 23.48 6.86585 23.3836 6.8763 23.2884C6.88559 23.2094 6.89489 23.1304 6.90418 23.0515C6.90766 23.0213 6.91114 22.9911 6.91463 22.9597C6.92624 22.8645 6.9367 22.7692 6.94947 22.6752C6.96108 22.5939 6.97154 22.5126 6.98315 22.4301C6.98664 22.4034 6.99128 22.3767 6.99477 22.35C7.0087 22.2559 7.02148 22.1618 7.03658 22.0677C7.05051 21.9841 7.06445 21.8993 7.07722 21.8157C7.08071 21.7925 7.08535 21.7681 7.08884 21.7449C7.10394 21.6508 7.1202 21.5579 7.13646 21.465C7.15271 21.379 7.16897 21.2931 7.18523 21.2072C7.18872 21.1863 7.19336 21.1653 7.19685 21.1456C7.21427 21.0527 7.23169 20.9609 7.25027 20.868C7.26885 20.7798 7.28744 20.6915 7.30602 20.6032C7.3095 20.5846 7.31415 20.5649 7.31763 20.5463C7.33273 20.4743 7.34899 20.4023 7.36525 20.3315C7.34435 20.4186 7.32228 20.5057 7.30253 20.5928C7.2886 20.6543 7.27582 20.7147 7.26189 20.7763C7.2224 20.9586 7.18407 21.141 7.14807 21.3245C7.13529 21.3918 7.12136 21.4592 7.10858 21.5265C7.06445 21.7646 7.02148 22.0039 6.98315 22.2443C6.98315 22.2454 6.98315 22.2478 6.98315 22.2489C6.95295 22.4394 6.92508 22.6299 6.89953 22.8227C6.89372 22.8668 6.88908 22.9109 6.88327 22.9539C6.86353 23.1049 6.84495 23.2547 6.82752 23.4057C6.81939 23.4777 6.81359 23.5508 6.80546 23.6229C6.79268 23.746 6.77991 23.8691 6.76829 23.9933C6.76132 24.0746 6.75552 24.1559 6.74855 24.2372C6.73926 24.3534 6.72997 24.4684 6.72184 24.5845C6.71603 24.6704 6.71255 24.7564 6.70674 24.8435C6.70093 24.9561 6.69396 25.0676 6.68816 25.1803C6.68467 25.2697 6.68235 25.3603 6.67887 25.4497C6.67538 25.5601 6.67074 25.6692 6.66841 25.7796C6.66609 25.8713 6.66609 25.9631 6.66493 26.0537C6.66377 26.1628 6.66261 26.272 6.66261 26.3823C6.66261 26.4752 6.66377 26.5682 6.66493 26.6611C6.66609 26.7702 6.66725 26.8794 6.66957 26.9886C6.6719 27.0827 6.67538 27.1767 6.6777 27.272C6.68119 27.3811 6.68467 27.4891 6.68932 27.5983C6.69396 27.6935 6.69861 27.7888 6.70442 27.884C6.71022 27.9932 6.71603 28.1012 6.72416 28.2104C6.72997 28.3056 6.7381 28.402 6.74507 28.4984C6.7532 28.6076 6.76249 28.7156 6.77178 28.8247C6.77991 28.9211 6.79036 29.0175 6.79965 29.1151C6.8101 29.2231 6.82172 29.3323 6.83333 29.4403C6.84378 29.5378 6.8554 29.6354 6.86817 29.733C6.88095 29.841 6.89489 29.9501 6.90882 30.0581C6.9216 30.1557 6.93553 30.2544 6.94947 30.352C6.96457 30.4612 6.98083 30.5692 6.99825 30.6783C7.01335 30.7759 7.02961 30.8746 7.04587 30.9733C7.06445 31.0825 7.08303 31.1917 7.10161 31.3008C7.11903 31.3996 7.13762 31.4971 7.1562 31.5958C7.16665 31.6493 7.17478 31.7038 7.18523 31.7573C7.20033 31.8362 7.21659 31.9141 7.23285 31.993C7.24214 32.036 7.25027 32.079 7.25956 32.1231C7.29789 32.3089 7.33854 32.4948 7.38151 32.6806C7.38964 32.7189 7.39893 32.7561 7.40822 32.7944C7.44423 32.95 7.48255 33.1056 7.52088 33.2624C7.53249 33.3101 7.54527 33.3588 7.55688 33.4065C7.6045 33.5934 7.65328 33.7804 7.70554 33.9674C7.71251 33.993 7.71948 34.0185 7.72761 34.0429C7.77406 34.2078 7.82168 34.3739 7.87046 34.5388C7.88556 34.5888 7.90065 34.6387 7.91575 34.6898C7.97266 34.8779 8.03073 35.0672 8.09228 35.2554C8.16429 35.4795 8.23978 35.7014 8.31759 35.922C8.34315 35.9952 8.36986 36.0672 8.39657 36.1404C8.44883 36.2879 8.50226 36.4342 8.55684 36.5805C8.58936 36.6665 8.62304 36.7513 8.65556 36.8372C8.70666 36.9685 8.75776 37.0997 8.81003 37.2309C8.84603 37.3204 8.88319 37.4098 8.92036 37.4992C8.97146 37.6235 9.02372 37.7489 9.07715 37.872C9.11663 37.9626 9.15612 38.0532 9.19561 38.1426C9.24903 38.2646 9.30362 38.3854 9.3582 38.505C9.39885 38.5944 9.44066 38.6838 9.48247 38.7733C9.53938 38.894 9.59629 39.0137 9.65436 39.1321C9.69617 39.2192 9.73914 39.3063 9.78211 39.3923C9.84251 39.5131 9.90406 39.6339 9.96561 39.7535C10.0086 39.8359 10.0504 39.9196 10.0934 40.0009C10.1596 40.1263 10.2269 40.2517 10.2955 40.376C10.328 40.4352 10.3593 40.4956 10.3918 40.556C10.4 40.5711 10.4093 40.5862 10.4174 40.6013C10.4766 40.7081 10.5382 40.8138 10.5986 40.9195C10.6462 41.002 10.6926 41.0856 10.7403 41.1669C10.8041 41.2761 10.8692 41.3829 10.9342 41.4909C10.9807 41.5687 11.0271 41.6477 11.0747 41.7244C11.1444 41.8382 11.2164 41.9497 11.2873 42.0623C11.3314 42.132 11.3755 42.2029 11.4197 42.2725C11.5021 42.4003 11.5869 42.5269 11.6705 42.6535C11.7054 42.7057 11.7391 42.7592 11.7751 42.8114C11.8959 42.9891 12.0166 43.1657 12.1409 43.3399C12.1607 43.3666 12.1804 43.3933 12.2001 43.4212C12.3047 43.5675 12.4104 43.7138 12.5172 43.8578C12.5625 43.9182 12.6089 43.9786 12.6542 44.0379C12.7367 44.147 12.8192 44.2574 12.9028 44.3654C12.9562 44.4339 13.0096 44.5001 13.0631 44.5675C13.1409 44.6662 13.2187 44.7649 13.2977 44.8625C13.3546 44.9333 13.4138 45.003 13.4719 45.0727C13.5485 45.1656 13.624 45.2573 13.7018 45.3491C13.7622 45.4211 13.8238 45.4908 13.8853 45.5616C13.962 45.6499 14.0375 45.7381 14.1153 45.8253C14.178 45.8961 14.243 45.9658 14.3057 46.0366C14.3824 46.1214 14.4591 46.2062 14.5369 46.2898C14.6019 46.3607 14.6693 46.4303 14.7355 46.5C14.8133 46.5813 14.8899 46.6638 14.9677 46.7439C15.0351 46.8136 15.1036 46.8821 15.171 46.9506C15.2488 47.0296 15.3278 47.1086 15.4068 47.1864C15.4753 47.2549 15.545 47.3211 15.6146 47.3885C15.6936 47.4651 15.7738 47.5418 15.8539 47.6173C15.9247 47.6835 15.9956 47.7497 16.0664 47.8159C16.1466 47.8902 16.2267 47.9645 16.308 48.0377C16.38 48.1027 16.4532 48.1678 16.5252 48.2317C16.6065 48.3037 16.6878 48.3757 16.7702 48.4465C16.7993 48.4721 16.8283 48.4976 16.8573 48.5232C16.9177 48.5743 16.9781 48.6242 17.0385 48.6753C17.0861 48.716 17.1349 48.7566 17.1825 48.7961C17.3021 48.896 17.4229 48.9935 17.5449 49.0911C17.5681 49.1097 17.5913 49.1294 17.6146 49.148C17.7597 49.263 17.9049 49.3768 18.0512 49.4883C18.0931 49.5208 18.136 49.5522 18.1778 49.5835L18.1755 49.5812Z" fill="#AA7CDA"/>
<path d="M56.2698 33.8363C56.2628 33.9872 56.2547 34.1382 56.2454 34.2881C56.2361 34.4518 56.2233 34.6156 56.2117 34.7793C56.2094 34.8025 56.2082 34.8269 56.2059 34.8502C56.1374 35.7235 56.0305 36.5865 55.8888 37.4354C55.8877 37.4424 55.8865 37.4494 55.8854 37.4563C55.8842 37.4656 55.8819 37.4761 55.8807 37.4854C55.8006 37.9557 55.71 38.4215 55.6078 38.8837C55.6078 38.8883 55.6055 38.8941 55.6043 38.8988C55.4649 39.5271 55.3058 40.1461 55.1258 40.757C55.1258 40.7605 55.1235 40.7652 55.1223 40.7686C54.933 41.4097 54.7228 42.0404 54.4905 42.6594C54.3047 43.1541 54.1061 43.6431 53.8936 44.1216C53.7403 44.4654 53.5788 44.8045 53.4127 45.139C53.4081 45.1483 53.4035 45.1587 53.3988 45.168C53.0748 45.8161 52.7252 46.4479 52.3512 47.0599C52.3292 47.0971 52.3059 47.1331 52.2827 47.1691C52.0876 47.4838 51.8867 47.7951 51.6788 48.1005C51.6172 48.19 51.5545 48.2794 51.4918 48.3676C51.3942 48.5059 51.2955 48.6429 51.1956 48.7788C51.1701 48.8136 51.1434 48.8496 51.1178 48.8856C51.011 49.0285 50.903 49.1702 50.7938 49.3107C50.7752 49.3351 50.7566 49.3583 50.7369 49.3839C50.133 50.1539 49.4849 50.8821 48.7927 51.5661C48.7927 51.5661 48.7915 51.5673 48.7904 51.5685C48.7474 51.6114 48.7033 51.6532 48.6603 51.695C48.514 51.8379 48.3642 51.9784 48.2143 52.1178C48.1644 52.1642 48.1156 52.2107 48.0645 52.256C47.9995 52.3152 47.9333 52.3721 47.8671 52.4302C47.7951 52.4941 47.7219 52.558 47.6499 52.6207C47.5663 52.6927 47.4827 52.7624 47.3979 52.8332C47.3746 52.8518 47.3514 52.8715 47.3294 52.8901C47.1389 53.0481 46.9449 53.2037 46.7487 53.3547C46.7173 53.3791 46.6871 53.4035 46.6557 53.4267C44.8823 54.782 42.894 55.8761 40.714 56.6542C40.6897 56.6635 40.6653 56.6716 40.6386 56.6809C40.5247 56.7216 40.4109 56.761 40.2959 56.7994C40.1972 56.8319 40.0973 56.8644 39.9963 56.8969C39.9138 56.9236 39.8325 56.9504 39.7501 56.9747C39.5596 57.0328 39.3692 57.0897 39.1764 57.1431C39.0126 57.1884 38.8488 57.2303 38.6839 57.2721C38.4726 57.3255 38.2612 57.3754 38.0498 57.423C38.0289 57.4277 38.008 57.4323 37.9871 57.437C37.9128 57.4532 37.8396 57.4683 37.7653 57.4846C37.7084 57.4962 37.6503 57.5078 37.5934 57.5194C37.4482 57.5485 37.3042 57.5775 37.1579 57.6042C37.0266 57.6274 36.8942 57.6507 36.763 57.6716C36.6945 57.6832 36.6259 57.6948 36.5574 57.7053C36.3948 57.7308 36.2311 57.7529 36.0673 57.7749C35.3356 57.8713 34.6016 57.9294 33.8676 57.955C33.7584 57.9585 33.6481 57.9619 33.5378 57.9643C33.4658 57.9654 33.3938 57.9677 33.3229 57.9677C33.1754 57.9689 33.0279 57.9677 32.8793 57.9677C32.5843 57.9654 32.2904 57.9573 31.9931 57.9433C31.8363 57.9364 31.6807 57.9283 31.5239 57.9178C31.4542 57.9132 31.3846 57.9073 31.3137 57.9027C31.2394 57.8969 31.1662 57.8911 31.0919 57.8841C30.7086 57.8516 30.3254 57.8098 29.9433 57.7598C29.8527 57.7482 29.7621 57.7355 29.6715 57.7227C29.258 57.6635 28.8469 57.5926 28.4346 57.5113C28.3986 57.5043 28.3626 57.4974 28.3266 57.4904C28.0827 57.4416 27.8388 57.3894 27.5949 57.3325C27.5891 57.3313 27.5833 57.3301 27.5787 57.3278C27.3545 57.2755 27.1315 57.2198 26.9085 57.1617C26.8691 57.1513 26.8307 57.1408 26.7912 57.1304C26.6008 57.0793 26.4115 57.027 26.2222 56.9724C26.1327 56.9469 26.0433 56.9202 25.9539 56.8923C25.768 56.8365 25.5834 56.7773 25.3987 56.7181C25.3558 56.7041 25.3116 56.6902 25.2687 56.6751C25.127 56.6275 24.9853 56.5787 24.8424 56.5288C24.7971 56.5125 24.7507 56.4963 24.7054 56.48C24.5079 56.4091 24.3117 56.3371 24.1142 56.2605C24.0503 56.2361 23.9865 56.2129 23.9226 56.1873C23.7008 56.1002 23.4801 56.0108 23.2594 55.9179C23.242 55.9109 23.2258 55.9028 23.2083 55.8958C23.0051 55.8099 22.803 55.7204 22.6009 55.6287C22.5301 55.5962 22.4592 55.5625 22.3872 55.53C22.2397 55.4614 22.0922 55.3929 21.9459 55.3209C21.9424 55.3186 21.9389 55.3174 21.9343 55.3151C21.7194 55.2106 21.5057 55.1037 21.2932 54.9934C21.2084 54.9493 21.1236 54.9051 21.0388 54.8598C20.3954 54.5196 19.7625 54.1537 19.14 53.7623C19.0587 53.7112 18.9774 53.6566 18.8961 53.6044C18.8032 53.544 18.7091 53.4848 18.615 53.4232C18.5604 53.3872 18.5047 53.35 18.4501 53.3129C18.3305 53.2327 18.212 53.1526 18.0924 53.0713C18.0297 53.0283 17.9681 52.9842 17.9042 52.9401C17.8148 52.8773 17.7265 52.8146 17.6371 52.7508C17.5523 52.6904 17.4687 52.63 17.3839 52.5684C17.3433 52.5382 17.3026 52.508 17.262 52.4778C17.1331 52.3826 17.0042 52.2874 16.8764 52.1898C16.7428 52.0876 16.6104 51.9831 16.478 51.8785C16.1993 51.6579 15.9229 51.4314 15.65 51.2003C15.5722 51.1341 15.4943 51.0679 15.4165 51.0017C15.2876 50.8902 15.161 50.7775 15.0344 50.6649C14.9857 50.6219 14.938 50.5789 14.8893 50.536C14.7975 50.4524 14.7058 50.3676 14.614 50.2828C14.5803 50.2514 14.5466 50.2201 14.513 50.1887C14.3736 50.0586 14.2366 49.9286 14.0995 49.795C14.0833 49.7799 14.067 49.7636 14.0519 49.7485C13.5571 49.2677 13.0752 48.7695 12.6071 48.2515C12.5409 48.1783 12.4747 48.1063 12.4097 48.032C12.1124 47.6975 11.822 47.3561 11.5363 47.0077C11.5096 46.9763 11.4829 46.9438 11.4573 46.9113C11.3679 46.8021 11.2808 46.6906 11.1937 46.5803C11.1937 46.5791 11.1914 46.5779 11.1902 46.5768C11.1507 46.5268 11.1112 46.4769 11.0718 46.427C10.9556 46.2783 10.8418 46.1285 10.728 45.9787C10.7268 45.9763 10.7257 45.9752 10.7245 45.9728C10.6722 45.9032 10.6188 45.8346 10.5665 45.765C10.4237 45.5722 10.2832 45.3782 10.1438 45.1819C10.1415 45.1796 10.1403 45.1773 10.138 45.1738C9.99746 44.9752 9.8581 44.7743 9.72105 44.5722C9.69434 44.5316 9.66763 44.4909 9.64092 44.4503C9.53174 44.2877 9.42257 44.1239 9.31572 43.9578C9.26346 43.8777 9.21352 43.7964 9.16126 43.7128C9.08112 43.5862 9.00099 43.4608 8.92317 43.333C8.88717 43.2738 8.85233 43.2145 8.81633 43.1553C8.72458 43.0032 8.63282 42.851 8.54224 42.6977C8.49346 42.6141 8.44584 42.5305 8.39822 42.4469C8.19498 42.0915 7.99638 41.7326 7.80359 41.3679C7.77455 41.3122 7.74552 41.2553 7.71648 41.1995C7.50627 40.7942 7.30303 40.3842 7.10791 39.9673C7.0603 39.8662 7.01384 39.764 6.96622 39.6618C6.87912 39.4725 6.79434 39.2809 6.71188 39.0893C6.68981 39.0393 6.66774 38.9894 6.64684 38.9394C6.4796 38.5504 6.31932 38.1567 6.16602 37.7583C6.16602 37.7571 6.16602 37.7548 6.16486 37.7537C6.06382 37.4923 5.96626 37.2299 5.87103 36.9627C5.84199 36.8803 5.81063 36.7978 5.7816 36.7154C5.69333 36.4633 5.60739 36.2102 5.52493 35.9558C5.50867 35.9059 5.49357 35.8548 5.47731 35.8048C5.42505 35.6399 5.37279 35.475 5.32285 35.3101C5.29265 35.2114 5.26478 35.1138 5.23574 35.0151C5.19277 34.8676 5.1498 34.7201 5.10799 34.5714C5.07315 34.4472 5.04063 34.3229 5.00811 34.1986C4.97675 34.0813 4.94539 33.964 4.9152 33.8467C4.90126 33.7921 4.88732 33.7375 4.87455 33.683C4.83042 33.5053 4.78745 33.3276 4.74563 33.1499C4.73518 33.1069 4.72473 33.0639 4.71544 33.021C4.66666 32.8084 4.62137 32.5971 4.57723 32.3857C4.56678 32.3357 4.55749 32.287 4.54704 32.237C4.54007 32.2033 4.53426 32.1685 4.52729 32.1348C4.482 31.906 4.43786 31.6772 4.39722 31.4484C4.39489 31.438 4.39373 31.4275 4.39141 31.4171C4.34844 31.172 4.30779 30.9258 4.26946 30.6808C4.2532 30.5762 4.2381 30.4717 4.22301 30.366C4.17307 30.0188 4.12893 29.6727 4.09061 29.3266C4.07667 29.2023 4.0639 29.0792 4.05228 28.9549C4.0186 28.6112 3.9884 28.2674 3.96634 27.9248C3.95821 27.8005 3.95124 27.6774 3.94427 27.5531C3.9373 27.43 3.9315 27.3069 3.92569 27.185C3.92104 27.0758 3.91756 26.9655 3.91408 26.854C3.91059 26.7471 3.90711 26.6403 3.90478 26.5323C3.90246 26.408 3.9013 26.2837 3.90014 26.1606C3.89898 26.0119 3.89782 25.8621 3.89898 25.7146C3.89898 25.6322 3.90014 25.5497 3.9013 25.4673C3.90478 25.1339 3.91291 24.8029 3.92801 24.4719C3.93382 24.3442 3.94195 24.2164 3.94892 24.0875C3.95472 23.99 3.95937 23.8912 3.96518 23.7925C3.97331 23.6648 3.98492 23.537 3.99421 23.4093C4.00931 23.22 4.02673 23.0306 4.04531 22.8413C4.04996 22.7914 4.0546 22.7415 4.06041 22.688C4.06854 22.6079 4.07551 22.5266 4.0848 22.4465C4.09409 22.3675 4.10454 22.2897 4.11384 22.2107C4.13126 22.0679 4.14752 21.9238 4.16726 21.781C4.19746 21.5592 4.22998 21.3385 4.26482 21.119C4.26598 21.1085 4.2683 21.0992 4.26946 21.0888C4.27411 21.0574 4.27992 21.0249 4.28572 20.9936C4.3194 20.7845 4.35541 20.5755 4.39373 20.3687C4.42625 20.191 4.46109 20.0133 4.4971 19.8368C4.50058 19.8171 4.50523 19.7973 4.50871 19.7764C4.5482 19.5825 4.59117 19.3897 4.6353 19.198C4.69221 18.9507 4.75144 18.7045 4.81416 18.4594C4.86294 18.2701 4.91288 18.0831 4.96514 17.895C4.97791 17.8497 4.99069 17.8044 5.00346 17.7591C5.01159 17.7289 5.02089 17.6987 5.03018 17.6685C5.09986 17.4281 5.17187 17.1877 5.24852 16.9507C5.28336 16.8404 5.3182 16.7289 5.35421 16.6186C5.38092 16.5373 5.40995 16.456 5.43783 16.3759C5.47499 16.2678 5.51216 16.1587 5.55048 16.0507C5.60391 15.902 5.65849 15.7545 5.71424 15.607C5.74327 15.5292 5.77115 15.4502 5.80134 15.3724C5.96045 14.9624 6.1277 14.5571 6.30539 14.1576C6.4134 13.9149 6.52605 13.6744 6.64103 13.4364C6.65613 13.4038 6.67239 13.3725 6.68865 13.34C6.7653 13.182 6.84311 13.0252 6.92325 12.8684C6.94996 12.8162 6.97784 12.7639 7.00455 12.7117C7.19502 12.3458 7.39362 11.9869 7.60034 11.6327C7.63983 11.5665 7.67816 11.4992 7.71881 11.4318C7.74668 11.3853 7.77339 11.3389 7.80127 11.2924C7.84888 11.2135 7.89882 11.1356 7.9476 11.0578C8.25189 10.5677 8.57243 10.0892 8.90924 9.62466C8.93711 9.58518 8.96614 9.54685 8.99518 9.50852C9.12526 9.33083 9.25766 9.15546 9.39354 8.98125C9.42954 8.9348 9.46554 8.88834 9.50271 8.84072C9.54452 8.7873 9.58633 8.73387 9.6293 8.68045C9.72918 8.55618 9.83022 8.43307 9.93359 8.30996C9.95681 8.28325 9.97888 8.25538 10.0021 8.2275C10.1032 8.10788 10.2065 7.99058 10.3099 7.87328C10.512 7.64448 10.7175 7.41917 10.9289 7.19851C11.0079 7.11605 11.0869 7.03475 11.1658 6.95345C11.4376 6.67704 11.7163 6.4076 12.002 6.14512C12.0496 6.10099 12.0961 6.05686 12.1449 6.01272C12.3179 5.85594 12.4933 5.70263 12.671 5.55165C12.6965 5.53075 12.7221 5.50984 12.75 5.48661C13.1135 5.18117 13.4875 4.88733 13.8707 4.60511C13.8893 4.59118 13.909 4.57724 13.9276 4.5633C14.0403 4.48084 14.1529 4.39955 14.2668 4.31941C14.3411 4.26715 14.4166 4.21488 14.4909 4.16378C14.6059 4.08481 14.722 4.00816 14.8382 3.9315C14.88 3.90363 14.9218 3.87692 14.9636 3.85021C15.1204 3.74917 15.2783 3.65045 15.4374 3.55289C15.506 3.51108 15.5745 3.46811 15.6442 3.4263C15.7998 3.33339 15.9577 3.2428 16.1157 3.15453C16.125 3.14872 16.1354 3.14292 16.1447 3.13827C16.3747 3.00936 16.607 2.88393 16.8416 2.76314C16.8938 2.73643 16.9484 2.71088 17.0007 2.68417C17.1528 2.60751 17.305 2.53202 17.4594 2.45886C17.5361 2.42285 17.6151 2.38685 17.6929 2.35085C17.8253 2.29045 17.9577 2.23006 18.0912 2.17199C18.1261 2.15689 18.1621 2.14179 18.1981 2.1267C19.1028 1.73879 20.0424 1.40431 21.0179 1.1337C22.0376 0.850323 23.0666 0.643594 24.0991 0.507711C24.1351 0.503065 24.1723 0.497258 24.2083 0.492613C24.2722 0.484483 24.336 0.478676 24.3999 0.470546C24.53 0.455448 24.6601 0.44035 24.7913 0.426413C25.048 0.400863 25.3047 0.378796 25.5625 0.361375C25.7553 0.3486 25.9481 0.336986 26.1409 0.328856C26.1664 0.328856 26.192 0.327695 26.2198 0.326533C26.3882 0.319565 26.5566 0.316081 26.725 0.312597C26.7843 0.312597 26.8435 0.311435 26.9027 0.310274C26.9411 0.310274 26.9794 0.310274 27.0177 0.310274C27.178 0.310274 27.3371 0.310274 27.4974 0.311435C27.5926 0.312597 27.6867 0.317242 27.7819 0.319565C27.991 0.325372 28.1988 0.334663 28.4067 0.346277C28.4904 0.350923 28.574 0.354407 28.6576 0.360214C28.7168 0.363698 28.7749 0.368344 28.8341 0.372989C28.9793 0.383442 29.1245 0.396217 29.2697 0.408992C29.3579 0.417122 29.445 0.426413 29.5333 0.434543C29.6889 0.450803 29.8457 0.467062 30.0013 0.485644C30.0315 0.489129 30.0606 0.493774 30.0908 0.497258C30.1407 0.503065 30.1906 0.511195 30.2394 0.518164C30.6378 0.570426 31.0361 0.633142 31.4333 0.705148C31.5936 0.734183 31.7539 0.764379 31.9142 0.796898C31.9455 0.803867 31.9769 0.810835 32.0082 0.816642C32.0303 0.821288 32.0512 0.825933 32.0733 0.830579C32.4031 0.899101 32.7306 0.975753 33.0581 1.05821C33.0697 1.06053 33.0814 1.06402 33.093 1.06634C33.3636 1.13486 33.6342 1.20803 33.9048 1.28585C34.0256 1.32069 34.1464 1.35785 34.2671 1.39386C34.7166 1.52974 35.1637 1.6784 35.6074 1.83867C35.6283 1.8468 35.6492 1.85377 35.6713 1.86074C35.7049 1.87351 35.7386 1.88629 35.7723 1.8979C35.8025 1.90952 35.8339 1.92113 35.8641 1.93274C36.3786 2.12553 36.8884 2.33342 37.3948 2.55874C37.4308 2.57499 37.4656 2.58893 37.5016 2.60519C37.6549 2.67487 37.8082 2.74572 37.9615 2.81773C37.9906 2.83166 38.0196 2.84444 38.0486 2.85838C38.1055 2.88509 38.1636 2.91296 38.2205 2.94083C38.3529 3.00471 38.4853 3.06975 38.6177 3.13711C38.6688 3.16266 38.7188 3.18821 38.7699 3.21376C38.8152 3.23699 38.8605 3.26138 38.9046 3.28461C39.0602 3.36474 39.2147 3.44604 39.3692 3.5285C39.5248 3.61212 39.6792 3.69806 39.8337 3.78517C40.2448 4.01745 40.6513 4.25902 41.0532 4.5122C41.2553 4.63996 41.4562 4.77003 41.6559 4.90243C41.7221 4.94656 41.7883 4.99186 41.8545 5.03715C41.9881 5.12774 42.1217 5.21717 42.2529 5.31008C42.3307 5.36467 42.4074 5.41925 42.484 5.475C42.6036 5.56094 42.7244 5.64688 42.8429 5.73399C42.923 5.79322 43.0032 5.85361 43.0833 5.91284C43.1983 5.99879 43.3121 6.08589 43.4259 6.173C43.4654 6.20319 43.5049 6.23223 43.5432 6.26242C43.5432 6.26242 43.3342 6.09983 43.3342 6.09867C43.2645 6.04408 43.1925 5.99182 43.1216 5.93723C42.7802 5.67592 42.4352 5.42041 42.0857 5.17536C42.0264 5.13355 41.966 5.09406 41.9068 5.05341C41.5421 4.80139 41.1751 4.55633 40.8035 4.32173C40.6293 4.2114 40.4539 4.10455 40.2774 3.99887C40.2239 3.96751 40.1705 3.93615 40.1182 3.90363C39.9893 3.82698 39.8604 3.75149 39.7303 3.67832C39.6746 3.64696 39.62 3.61444 39.5643 3.58309C39.4075 3.49482 39.2507 3.40772 39.0927 3.32293C39.0707 3.31016 39.0474 3.29854 39.0254 3.28577C38.8454 3.18937 38.6653 3.0953 38.4842 3.00239C38.4331 2.97568 38.3808 2.95129 38.3297 2.92457C38.195 2.85721 38.0614 2.79101 37.9267 2.72598C37.8686 2.6981 37.8106 2.67023 37.7525 2.64236C37.605 2.57151 37.4563 2.50299 37.3077 2.43563C37.2705 2.41937 37.2345 2.40195 37.1973 2.38453C37.1869 2.37988 37.1764 2.37523 37.1671 2.37059C36.9941 2.29278 36.821 2.21845 36.6468 2.14412C36.5992 2.12321 36.5504 2.10463 36.5028 2.08372C36.3623 2.02449 36.2206 1.96758 36.0789 1.91068C36.0208 1.88745 35.9639 1.86538 35.9059 1.84215C35.7514 1.78176 35.5981 1.72369 35.4425 1.66562C35.4076 1.65285 35.374 1.64007 35.3391 1.6273C35.1521 1.55877 34.964 1.49257 34.7758 1.4287C34.7259 1.41128 34.676 1.39618 34.6272 1.37876C34.4843 1.33114 34.3403 1.28468 34.1963 1.23939C34.1371 1.22081 34.079 1.20223 34.0198 1.18364C33.8618 1.13486 33.7039 1.08725 33.5448 1.04195C33.5111 1.03266 33.4774 1.02221 33.4449 1.01292C33.2544 0.959494 33.0639 0.907231 32.8723 0.858452C32.8212 0.845677 32.7701 0.832902 32.719 0.820126C32.5738 0.782962 32.4287 0.74812 32.2835 0.713278C32.2242 0.699341 32.1639 0.685404 32.1046 0.671468C31.9432 0.634303 31.7806 0.599461 31.618 0.565781C31.5855 0.558812 31.5541 0.551844 31.5216 0.544876C31.3288 0.505388 31.136 0.469385 30.9421 0.434543C30.8898 0.425252 30.8375 0.417122 30.7853 0.407831C30.6389 0.38228 30.4926 0.359052 30.3463 0.335824C30.2859 0.326533 30.2266 0.317242 30.1663 0.309112C30.0013 0.284723 29.8353 0.262657 29.6703 0.241751C29.6401 0.238267 29.6088 0.233622 29.5786 0.230137C29.3835 0.20691 29.1895 0.184843 28.9944 0.166261C28.941 0.161615 28.8887 0.15697 28.8353 0.152324C28.6878 0.138387 28.5403 0.126773 28.3928 0.116321C28.3324 0.111675 28.2732 0.10703 28.2128 0.103545C28.0444 0.0919315 27.876 0.0826403 27.7087 0.0756719C27.6797 0.0745105 27.6507 0.0721877 27.6216 0.0710263C27.4265 0.0628966 27.2302 0.058251 27.0351 0.0547668C26.9817 0.0547668 26.9271 0.0547668 26.8737 0.0536054C26.7262 0.052444 26.5799 0.052444 26.4324 0.0536054C26.372 0.0536054 26.3116 0.0536054 26.2512 0.0559282C26.0805 0.058251 25.9109 0.0628966 25.7402 0.069865C25.7135 0.069865 25.6856 0.0710263 25.6589 0.0721877C25.4626 0.0803175 25.2675 0.0919315 25.0724 0.104707C25.0178 0.108191 24.9632 0.112837 24.9075 0.117482C24.7611 0.127935 24.6148 0.14071 24.4684 0.154647C24.4081 0.160454 24.3477 0.166261 24.2873 0.172068C24.1154 0.189489 23.9435 0.208071 23.7728 0.230137C23.7472 0.233622 23.7217 0.235944 23.6961 0.239429C23.501 0.263818 23.3059 0.291691 23.1108 0.321888C23.055 0.330017 23.0004 0.339309 22.9447 0.3486C22.7984 0.371828 22.6532 0.397378 22.508 0.422929C22.4488 0.433382 22.3884 0.444996 22.3292 0.455448C22.1561 0.487967 21.9831 0.522809 21.81 0.559974C21.7868 0.564619 21.7636 0.569265 21.7415 0.573911C21.7368 0.573911 21.7322 0.576233 21.7264 0.577395C21.5893 0.607591 21.4535 0.64011 21.3164 0.672629C21.2433 0.69005 21.1701 0.705148 21.0969 0.723731C20.8832 0.775993 20.6695 0.832902 20.4558 0.890971C20.2224 0.95601 19.9924 1.02453 19.7636 1.09538C19.6893 1.1186 19.615 1.14416 19.5406 1.16738C19.3862 1.21732 19.2329 1.26726 19.0807 1.32069C18.9936 1.35088 18.9088 1.38224 18.8217 1.4136C18.6824 1.46354 18.5442 1.51464 18.4071 1.5669C18.3189 1.60058 18.2306 1.63543 18.1423 1.67027C18.0076 1.72369 17.874 1.77828 17.7416 1.83402C17.694 1.85377 17.6476 1.87467 17.6 1.89442C17.478 1.93855 17.3561 1.98384 17.2341 2.0303C17.1459 2.06398 17.0576 2.09882 16.9693 2.13366C16.8346 2.18709 16.701 2.24167 16.5686 2.29742C16.4827 2.33342 16.3956 2.37059 16.3108 2.40775C16.1749 2.46698 16.039 2.52854 15.9043 2.59009C15.8253 2.6261 15.7464 2.6621 15.6686 2.69926C15.5153 2.77127 15.3643 2.84676 15.2133 2.92225C15.1819 2.93851 15.1506 2.95361 15.1192 2.96871C15.3318 2.8607 15.5454 2.75501 15.7626 2.65281C15.7626 2.65281 13.9288 3.51108 13.9276 3.51224C8.90459 5.8629 4.73867 10.4133 2.50182 15.4409C-0.345922 21.8414 -0.83487 29.7284 1.71207 37.5829C4.25901 45.4374 9.35637 51.7729 15.542 55.667C21.7276 59.5612 28.9991 61.0129 35.8908 59.1001C36.8118 58.8446 37.7037 58.5345 38.5631 58.1756C38.6305 58.1478 38.6979 58.1176 38.7652 58.0885C39.0927 57.9689 39.4168 57.8458 39.735 57.7122C40.0219 57.5926 40.3041 57.4672 40.584 57.3359L42.419 56.4765C42.2866 56.5381 42.1519 56.5985 42.0183 56.6577C42.0764 56.631 42.1344 56.6054 42.1925 56.5787C42.2982 56.5311 42.4039 56.4823 42.5096 56.4324C42.5967 56.3906 42.6826 56.3488 42.7697 56.3069C42.8731 56.257 42.9753 56.2059 43.0775 56.1536C43.1634 56.1095 43.2494 56.0654 43.3342 56.0201C43.4352 55.9667 43.5351 55.9144 43.635 55.8598C43.7197 55.8134 43.8045 55.7669 43.8881 55.7193C43.9869 55.6635 44.0844 55.6078 44.182 55.5509C44.2656 55.5021 44.3481 55.4533 44.4317 55.4034C44.5281 55.3453 44.6245 55.2872 44.7197 55.228C44.8022 55.1769 44.8835 55.1258 44.9648 55.0735C45.0588 55.0131 45.1529 54.9516 45.247 54.89C45.3271 54.8366 45.4072 54.7844 45.4862 54.7298C45.5791 54.6671 45.6709 54.602 45.7626 54.5381C45.8404 54.4836 45.9194 54.4278 45.9961 54.3721C46.0878 54.3059 46.1784 54.2385 46.269 54.1711C46.3445 54.1142 46.4211 54.0585 46.4955 54.0004C46.5861 53.9307 46.6755 53.861 46.7649 53.7902C46.8381 53.7321 46.9113 53.6752 46.9844 53.616C47.0738 53.544 47.1621 53.4697 47.2504 53.3953C47.3212 53.3361 47.3921 53.278 47.4606 53.2188C47.55 53.1421 47.6383 53.0643 47.7266 52.9854C47.7928 52.9261 47.8601 52.8681 47.9263 52.8088C48.0169 52.7264 48.1063 52.6427 48.1958 52.5591C48.2573 52.501 48.32 52.4453 48.3804 52.3861C48.4757 52.2943 48.5697 52.2014 48.6638 52.1085C48.7172 52.0562 48.7706 52.0051 48.8229 51.9517C48.9414 51.8332 49.0575 51.7125 49.1725 51.5905C49.1992 51.5615 49.2271 51.5348 49.2549 51.5057C49.3966 51.3548 49.5372 51.2026 49.6754 51.047C49.7149 51.0028 49.7532 50.9564 49.7927 50.9111C49.8902 50.8008 49.9878 50.6893 50.083 50.5766C50.1341 50.5162 50.1841 50.4535 50.2352 50.3931C50.3165 50.2944 50.3989 50.1957 50.4791 50.0958C50.5336 50.0284 50.5871 49.9588 50.6405 49.8902C50.7148 49.795 50.7903 49.6998 50.8635 49.6034C50.9181 49.5314 50.9727 49.457 51.0261 49.3839C51.0958 49.2898 51.1666 49.1957 51.2351 49.0993C51.2897 49.0238 51.3431 48.9472 51.3966 48.8705C51.4628 48.7765 51.5301 48.6812 51.5952 48.586C51.6486 48.5082 51.7008 48.428 51.7543 48.3491C51.8181 48.2538 51.8809 48.1586 51.9436 48.0622C51.9958 47.9809 52.0469 47.8996 52.098 47.8183C52.1584 47.7219 52.2188 47.6255 52.2781 47.528C52.3292 47.4455 52.3779 47.3619 52.4279 47.2783C52.486 47.1807 52.544 47.0831 52.6009 46.9844C52.6497 46.8996 52.6973 46.8149 52.7461 46.7301C52.8018 46.6314 52.8576 46.5315 52.9122 46.4304C52.9586 46.3445 53.0051 46.2586 53.0515 46.1726C53.105 46.0716 53.1584 45.9705 53.2107 45.8683C53.2548 45.7812 53.3001 45.6941 53.3431 45.6058C53.3651 45.5629 53.3872 45.5199 53.4093 45.4769C53.4464 45.4014 53.4813 45.326 53.5184 45.2505C53.5451 45.1959 53.5718 45.1401 53.5974 45.0855C53.6822 44.9055 53.7658 44.7255 53.8471 44.5432C55.3081 41.2599 56.1478 37.5864 56.2756 33.7271C56.2791 33.6388 56.2814 33.5506 56.2849 33.4623C56.2826 33.525 56.2791 33.5889 56.2767 33.6516C56.2744 33.7097 56.2721 33.7689 56.2698 33.827V33.8363Z" fill="#C6BFCB" stroke="#221D25" stroke-width="0.11614" stroke-miterlimit="10"/>
<path d="M21.0226 1.13792C27.8086 -0.744697 34.9663 0.68382 41.0555 4.51759C47.1447 8.35135 52.1643 14.588 54.6705 22.3206C57.1768 30.0532 56.6972 37.8171 53.8924 44.1188C51.0888 50.4206 45.9624 55.2601 39.1775 57.1427C32.3927 59.0253 25.2338 57.5968 19.1446 53.7631C13.0554 49.9293 8.03588 43.6926 5.52843 35.96C3.02214 28.2275 3.50296 20.4635 6.30656 14.1618C9.11133 7.86008 14.2366 3.02171 21.0226 1.13792ZM38.2043 54.1405C44.261 52.46 48.8392 48.1384 51.342 42.5138C53.8448 36.8892 54.2733 29.9568 52.0365 23.0535C49.7985 16.1501 45.3167 10.5812 39.8813 7.1586C34.446 3.73597 28.0537 2.45959 21.997 4.14129C15.9403 5.82183 11.3621 10.1434 8.85931 15.768C6.3565 21.3938 5.92795 28.3262 8.16596 35.2284C10.404 42.1305 14.8846 47.7006 20.3211 51.1221C25.7565 54.5447 32.1488 55.8211 38.2054 54.1394" fill="#E1DDE3"/>
<path d="M38.2043 54.1405C44.261 52.46 48.8392 48.1384 51.342 42.5138C53.8448 36.8892 54.2733 29.9568 52.0365 23.0535C49.7985 16.1501 45.3167 10.5812 39.8813 7.1586C34.446 3.73597 28.0537 2.45959 21.997 4.14129C15.9403 5.82183 11.3621 10.1434 8.85931 15.768C6.3565 21.3938 5.92795 28.3262 8.16596 35.2284C10.404 42.1305 14.8846 47.7006 20.3211 51.1221C25.7564 54.5447 32.1488 55.8211 38.2054 54.1394M21.0226 1.13792C27.8086 -0.744697 34.9663 0.68382 41.0555 4.51759C47.1447 8.35135 52.1643 14.588 54.6705 22.3206C57.1768 30.0532 56.6972 37.8171 53.8924 44.1188C51.0888 50.4206 45.9624 55.2601 39.1775 57.1427C32.3927 59.0253 25.2338 57.5968 19.1446 53.7631C13.0554 49.9293 8.03588 43.6926 5.52843 35.96C3.02214 28.2275 3.50296 20.4635 6.30656 14.1618C9.11133 7.86008 14.2366 3.02171 21.0226 1.13792Z" stroke="#221D25" stroke-width="0.11614" stroke-miterlimit="10"/>
<path d="M42.8778 33.4027L37.6248 17.1966C37.5795 17.0572 37.4877 16.9364 37.3693 16.8621L31.3265 13.0585C31.1001 12.9157 30.8399 12.8715 30.6053 12.9366L26.4161 14.0991C26.3592 14.1142 26.3105 14.1433 26.2675 14.1781H26.2663L26.2628 14.1816C26.2234 14.2141 26.1908 14.2548 26.1653 14.3L25.6496 14.9284C25.6171 14.9574 25.5904 14.9911 25.5672 15.0282L25.5579 15.0387V15.041C25.487 15.1664 25.4673 15.329 25.5195 15.4928L26.7529 19.2964C26.8586 19.6216 26.8575 19.9467 26.7727 20.229C26.7111 20.2592 26.6484 20.2847 26.5799 20.3045L22.3907 21.467C22.2038 21.5193 22.047 21.6366 21.9366 21.8003L21.4535 22.3961C21.3722 22.4728 21.3037 22.5669 21.2561 22.6772L18.5523 28.7548C18.4478 28.9894 18.4374 29.2728 18.5245 29.5399L21.7357 39.4454C21.8298 39.7358 22.112 39.9135 22.3664 39.8426L25.969 38.8427C26.0282 38.8264 26.0793 38.7974 26.1235 38.7602C26.1235 38.7602 26.1258 38.759 26.1258 38.7579C26.163 38.7253 26.1943 38.687 26.2187 38.6429C26.3871 38.4362 26.7169 38.0285 26.7239 38.0227H26.7228C26.8737 37.8996 26.9376 37.6731 26.8644 37.4478L23.7716 27.9081C23.666 27.5829 23.6671 27.2577 23.7519 26.9755C23.8123 26.9453 23.8762 26.9198 23.9447 26.9L27.5473 25.9001C27.6391 25.8745 27.7134 25.8199 27.768 25.7479L28.3359 25.0499H28.3348C28.4614 24.921 28.5101 24.7131 28.4428 24.5052L27.2872 20.9421C27.1815 20.6169 27.1827 20.2917 27.2674 20.0095C27.329 19.9793 27.3917 19.9537 27.4602 19.934L31.0629 18.934C31.7446 18.7447 32.5007 19.2209 32.7527 19.9979L37.6259 35.0321C37.7316 35.3573 37.7305 35.6825 37.6457 35.9647C37.5841 35.9949 37.5214 36.0205 37.4529 36.0402L28.5519 38.5105C28.4346 38.543 28.3452 38.6243 28.2906 38.73L27.7239 39.4071C27.6286 39.536 27.5973 39.7207 27.6577 39.9053L28.8899 43.7077C28.984 43.9981 29.2674 44.1769 29.5217 44.1061L38.9813 41.4813C39.123 41.4419 39.2484 41.364 39.3494 41.2572L39.3518 41.2549C39.3762 41.2282 39.3994 41.2014 39.4203 41.1712L39.9569 40.5139C40.0207 40.4454 40.0742 40.3652 40.1148 40.2747L42.8452 34.1866C42.9509 33.952 42.9614 33.6675 42.8743 33.3992L42.8778 33.4027Z" fill="#5A2D8A"/>
<path d="M42.8772 33.4027L37.6242 17.1966C37.5789 17.0572 37.4871 16.9364 37.3687 16.8621L31.3259 13.0585C31.0995 12.9157 30.8393 12.8715 30.6047 12.9366L26.4155 14.0991C26.1612 14.17 26.0311 14.4626 26.1252 14.7518L27.2227 18.1396C27.2471 18.2151 27.2692 18.2929 27.2819 18.3719C27.3876 19.0211 27.2262 19.4834 27.0032 19.8004C26.7802 20.1175 26.4318 20.3463 26.0509 20.452L22.3902 21.4682C22.1556 21.5332 21.9651 21.7016 21.8606 21.9374L19.1568 28.015C19.0523 28.2496 19.0419 28.5329 19.129 28.8001L22.3402 38.7056C22.4343 38.996 22.7165 39.1736 22.9708 39.1028L26.5735 38.1028C26.8278 38.032 26.9579 37.7393 26.8638 37.4501L23.7711 27.9104C23.519 27.1335 23.8674 26.3507 24.5492 26.1614L28.1518 25.1614C28.4062 25.0906 28.5363 24.7979 28.4422 24.5087L27.3632 21.1802C27.3063 21.0036 27.2738 20.819 27.2796 20.6331C27.2796 20.6238 27.2796 20.6146 27.2796 20.6064C27.3098 19.8794 27.8278 19.2639 28.5293 19.0687L31.6685 18.1977C32.3503 18.0084 33.1063 18.4846 33.3584 19.2615L38.2316 34.2958C38.4836 35.0728 38.1352 35.8555 37.4534 36.0448L28.5525 38.5151C28.2982 38.5848 28.1681 38.8787 28.2622 39.169L29.4956 42.9714C29.5896 43.2618 29.873 43.4406 30.1274 43.3698L39.5869 40.745C39.8204 40.68 40.0108 40.5127 40.1154 40.2781L42.8458 34.1901C42.9515 33.9555 42.9619 33.671 42.8748 33.4027H42.8772ZM27.261 18.2534L27.3586 18.5554C27.3656 18.5775 27.3714 18.6007 27.3772 18.6228L27.261 18.2534Z" fill="#E1DDE3"/>
<path d="M32.7842 16.9608C36.1162 16.4718 37.1859 14.2873 36.2091 10.5708C36.9582 14.4394 38.9616 15.9934 42.2077 15.2489C38.7468 15.8006 37.8444 18.0711 38.7317 21.5437C38.1649 17.9561 36.2707 16.2988 32.7842 16.9608Z" fill="#F7EDC0"/>
<path d="M23.7334 59.2L29.0108 57.6182" stroke="#221D25" stroke-width="0.11614" stroke-miterlimit="10"/>
<path d="M7.88477 48.8855L11.6779 47.2642" stroke="#221D25" stroke-width="0.11614" stroke-miterlimit="10"/>
<path d="M4.18555 12.3132L8.91126 9.63037" stroke="#221D25" stroke-width="0.11614" stroke-miterlimit="10"/>
<path d="M0.277344 31.0406L4.09369 29.3311" stroke="#221D25" stroke-width="0.11614" stroke-miterlimit="10"/>
</g>
<defs>
<clipPath id="clip0_8735_9632">
<rect width="56.359" height="60" fill="white"/>
</clipPath>
</defs>
</svg>
