<svg width="68" height="24" viewBox="0 0 68 24" fill="none" xmlns="http://www.w3.org/2000/svg">
<path d="M17.016 5.208V0.439999H0.6V5.496H9.88L0.6 18.232V23H17.016V17.912H7.64L17.016 5.208ZM31.233 23.224C37.633 23.224 42.785 18.424 42.785 11.64C42.785 4.856 37.665 0.0879993 31.233 0.0879993C24.833 0.0879993 19.649 4.856 19.649 11.64C19.649 18.424 24.833 23.224 31.233 23.224ZM31.233 17.4C27.969 17.4 26.049 15.128 26.049 11.64C26.049 8.088 27.969 5.848 31.233 5.848C34.465 5.848 36.417 8.088 36.417 11.64C36.417 15.128 34.465 17.4 31.233 17.4ZM56.4205 23.224C62.8205 23.224 67.9725 18.424 67.9725 11.64C67.9725 4.856 62.8525 0.0879993 56.4205 0.0879993C50.0205 0.0879993 44.8365 4.856 44.8365 11.64C44.8365 18.424 50.0205 23.224 56.4205 23.224ZM56.4205 17.4C53.1565 17.4 51.2365 15.128 51.2365 11.64C51.2365 8.088 53.1565 5.848 56.4205 5.848C59.6525 5.848 61.6045 8.088 61.6045 11.64C61.6045 15.128 59.6525 17.4 56.4205 17.4Z" fill="#F7F8FC"/>
</svg>
