<svg xmlns="http://www.w3.org/2000/svg" viewBox="0 0 200 80" fill="none">
  <!-- NVIDIA logo in green -->
  <g fill="#76B900">
    <path d="M5 10v40h5V22.5l4 .025c1.3 0 2.2.3 2.85 1 .8.85 1.1 2.2 1.1 4.7v21.75h5V26.5c0-7-4.5-8-8.8-8H5z"/>
    <path d="M27.5 50h5V10h-5v40z"/>
    <path d="M37.5 10l-4.2 14-4.2-14h-5.5l5.75 17.75h7.25L42.5 10h-5z"/>
    <path d="M47.5 10v40h8.1c4.35 0 5.75-.7 7.25-2.35 1.1-1.15 1.8-3.65 1.8-6.35 0-2.5-.6-4.75-1.65-6.1-1.4-1.75-4.25-2.45-8.35-2.45H47.5V10zm5 3.85h2.15c3.15 0 5.15 1.4 5.15 5.05s-2 5.05-5.15 5.05H52.5V13.85z"/>
    <path d="M70 50h5V10h-5v40z"/>
    <path d="M82.5 10l-7 17.75h4.95l1.1-3.15h8.25l1.05 3.15h5.35L88.5 10h-6zm3.25 3.25l3.05 8.3h-6.15l3.1-8.3z"/>
  </g>
  
  <!-- INCEPTION PROGRAM text in white, smaller font -->
  <text x="5" y="70" fill="#FFFFFF" font-family="Arial, sans-serif" font-size="8" font-weight="600" letter-spacing="1">INCEPTION PROGRAM</text>
</svg>
