<svg width="76" height="77" viewBox="0 0 76 77" fill="none" xmlns="http://www.w3.org/2000/svg">
<rect y="0.179688" width="76" height="76" rx="38" fill="white"/>
<path d="M34.4802 34.9595C33.3402 34.9595 32.4402 35.9595 32.4402 37.1795C32.4402 38.3995 33.3602 39.3995 34.4802 39.3995C35.6202 39.3995 36.5202 38.3995 36.5202 37.1795C36.5402 35.9595 35.6202 34.9595 34.4802 34.9595ZM41.7802 34.9595C40.6402 34.9595 39.7402 35.9595 39.7402 37.1795C39.7402 38.3995 40.6602 39.3995 41.7802 39.3995C42.9202 39.3995 43.8202 38.3995 43.8202 37.1795C43.8202 35.9595 42.9202 34.9595 41.7802 34.9595Z" fill="#7289DA"/>
<path d="M51.5001 18.1797H24.7001C22.4401 18.1797 20.6001 20.0197 20.6001 22.2997V49.3397C20.6001 51.6197 22.4401 53.4597 24.7001 53.4597H47.3801L46.3201 49.7597L48.8801 52.1397L51.3001 54.3797L55.6001 58.1797V22.2997C55.6001 20.0197 53.7601 18.1797 51.5001 18.1797ZM43.7801 44.2997C43.7801 44.2997 43.0601 43.4397 42.4601 42.6797C45.0801 41.9397 46.0801 40.2997 46.0801 40.2997C45.2601 40.8397 44.4801 41.2197 43.7801 41.4797C42.7801 41.8997 41.8201 42.1797 40.8801 42.3397C38.9601 42.6997 37.2001 42.5997 35.7001 42.3197C34.5601 42.0997 33.5801 41.7797 32.7601 41.4597C32.3001 41.2797 31.8001 41.0597 31.3001 40.7797C31.2401 40.7397 31.1801 40.7197 31.1201 40.6797C31.0801 40.6597 31.0601 40.6397 31.0401 40.6197C30.6801 40.4197 30.4801 40.2797 30.4801 40.2797C30.4801 40.2797 31.4401 41.8797 33.9801 42.6397C33.3801 43.3997 32.6401 44.2997 32.6401 44.2997C28.2201 44.1597 26.5401 41.2597 26.5401 41.2597C26.5401 34.8197 29.4201 29.5997 29.4201 29.5997C32.3001 27.4397 35.0401 27.4997 35.0401 27.4997L35.2401 27.7397C31.6401 28.7797 29.9801 30.3597 29.9801 30.3597C29.9801 30.3597 30.4201 30.1197 31.1601 29.7797C33.3001 28.8397 35.0001 28.5797 35.7001 28.5197C35.8201 28.4997 35.9201 28.4797 36.0401 28.4797C37.2601 28.3197 38.6401 28.2797 40.0801 28.4397C41.9801 28.6597 44.0201 29.2197 46.1001 30.3597C46.1001 30.3597 44.5201 28.8597 41.1201 27.8197L41.4001 27.4997C41.4001 27.4997 44.1401 27.4397 47.0201 29.5997C47.0201 29.5997 49.9001 34.8197 49.9001 41.2597C49.9001 41.2597 48.2001 44.1597 43.7801 44.2997Z" fill="#7289DA"/>
</svg>
