<svg width="55" height="55" viewBox="0 0 55 55" fill="none" xmlns="http://www.w3.org/2000/svg">
<path d="M45.9717 24.0139C45.5001 24.0139 45.1 23.6538 45.0565 23.1738C44.8817 21.226 43.3086 19.8661 41.2294 19.8661C39.2904 19.8661 37.775 21.0756 37.4577 22.8735C37.368 23.3766 36.8921 23.7066 36.3904 23.6212C35.8914 23.5312 35.5557 23.0536 35.6454 22.5501C36.117 19.8819 38.4121 18.019 41.2293 18.019C44.2491 18.019 46.6293 20.1173 46.8892 23.0045C46.935 23.5122 46.5604 23.9624 46.0568 24.0083C46.0291 24.0137 45.9994 24.0137 45.9717 24.0137L45.9717 24.0139Z" fill="white"/>
<path d="M28.2311 30.5346C27.8815 30.5346 27.5457 30.3337 27.3917 29.9921C26.9848 29.0871 26.9043 28.3649 26.9043 27.4947C26.9043 23.8524 29.8574 20.8887 33.4867 20.8887C34.7584 20.8887 35.9912 21.2511 37.0516 21.9413C37.4794 22.2183 37.6014 22.7883 37.3253 23.2176C37.0493 23.6469 36.4814 23.7694 36.0536 23.4923C35.2901 22.9985 34.4023 22.7353 33.4848 22.7353C30.8697 22.7353 28.7401 24.8702 28.7401 27.4971C28.7401 28.2656 28.8206 28.6857 29.0666 29.2351C29.2761 29.6992 29.0689 30.246 28.6065 30.4562C28.4864 30.5091 28.3574 30.5346 28.2311 30.5346L28.2311 30.5346Z" fill="white"/>
<path d="M50.6415 30.3935C50.5749 30.3935 50.5059 30.3865 50.4389 30.3703C49.9423 30.2594 49.6316 29.7632 49.7444 29.2671C49.8133 28.9626 49.8479 28.6415 49.8479 28.3185C49.8479 26.0866 48.1138 24.194 45.9014 24.0093C45.3955 23.9676 45.0182 23.5224 45.0598 23.0142C45.1014 22.5065 45.5565 22.1185 46.0513 22.1695C49.2135 22.4304 51.6884 25.131 51.6884 28.3185C51.6884 28.7802 51.6402 29.2346 51.5413 29.6732C51.4416 30.1029 51.0623 30.3935 50.6415 30.3935V30.3935Z" fill="white"/>
<path d="M49.023 39.9314H29.4507C26.5252 39.3615 24.5312 36.917 24.5312 34.1032C24.5312 31.8319 25.7914 29.7963 27.8225 28.7874C28.2757 28.559 28.8297 28.748 29.0553 29.2051C29.2806 29.6622 29.0946 30.216 28.6391 30.4424C27.2407 31.1372 26.3713 32.5406 26.3713 34.1033C26.3713 36.0423 27.742 37.7247 29.6325 38.1034L49.0254 38.0872C51.2151 38.0872 52.995 36.3008 52.995 34.1034C52.995 32.2753 51.9923 30.842 50.3799 30.3594C49.8948 30.2141 49.6164 29.6994 49.7612 29.2098C49.9059 28.723 50.4165 28.4459 50.9066 28.5889C53.2938 29.3022 54.8347 31.4673 54.8347 34.1029C54.8304 37.3163 52.2246 39.9315 49.0231 39.9315L49.023 39.9314Z" fill="white"/>
<path d="M46.2174 54.966H32.5699C32.1857 54.966 31.843 54.726 31.7075 54.3682C31.5719 54.0081 31.6751 53.5996 31.9627 53.3481C33.3612 52.1248 34.3202 51.2017 34.9228 49.5791C36.1325 46.3155 35.6701 42.6592 33.6876 39.7948C33.3977 39.3771 33.5013 38.7997 33.9198 38.5092C34.3383 38.2183 34.9113 38.3222 35.2008 38.7422C37.5259 42.1029 38.0689 46.394 36.6473 50.225C36.2011 51.4298 35.6078 52.3162 34.8743 53.1219L43.7453 53.1215C41.5857 50.825 40.3459 47.7643 40.3459 44.5466C40.3459 42.4693 40.8657 40.4105 41.8479 38.5963C42.0916 38.1508 42.6484 37.9846 43.0946 38.2246C43.5408 38.4669 43.7064 39.0279 43.4649 39.4758C42.6279 41.0222 42.1862 42.7742 42.1862 44.5443C42.1862 48.0251 43.8904 51.2933 46.7423 53.2852C47.0734 53.5159 47.2162 53.9359 47.0942 54.3192C46.9741 54.7049 46.6175 54.9657 46.2175 54.9657L46.2174 54.966Z" fill="white"/>
<path fill-rule="evenodd" clip-rule="evenodd" d="M0.130667 40.9863C0.263929 41.263 0.62277 41.7247 1.50833 41.7247L1.5084 41.7246C2.41471 41.7246 3.68184 41.2281 3.89784 41.1365C6.82556 39.6524 10.2157 38.9738 13.5365 39.1145C17.8382 39.2916 21.0992 40.7065 21.7472 40.9876C21.8004 41.0107 21.836 41.0262 21.8531 41.0326C23.4767 41.4156 24.4358 41.261 24.9325 40.5802C25.2316 40.1717 25.2316 39.6914 25.135 39.38C25.0892 39.2343 25.0087 39.1029 24.9005 38.9966C23.0859 37.2196 21.6278 35.5437 20.5836 34.2581C22.2188 34.6944 23.178 34.5603 23.6862 33.8934C23.9827 33.5054 24.0011 33.044 23.9207 32.7414C23.8899 32.6253 23.3685 32.0052 22.6505 31.1512C21.8702 30.223 20.8576 29.0186 19.9903 27.885H20.0319C20.991 27.8456 21.4831 27.4302 21.7245 27.0886C22.205 26.4101 22.014 25.6504 21.9705 25.5051C21.9327 25.3768 21.4508 24.7964 20.7921 24.0029C19.9711 23.014 18.8754 21.6941 18.0218 20.5057C18.1346 20.4965 18.3094 20.4779 18.3691 20.4617C19.3166 20.2102 19.627 19.6816 19.7213 19.2847C19.9238 18.4215 19.2223 17.7495 19.0521 17.5996C18.3117 16.9973 17.1917 15.2457 16.4074 13.9044C16.7131 13.7475 16.8971 13.5327 16.9984 13.3758C17.5732 12.5009 17.0973 11.2752 16.9938 11.0376C16.9568 10.9499 16.9064 10.8714 16.844 10.7996C13.7072 7.15771 12.663 2.66105 12.6538 2.61506C12.5548 2.17881 12.1455 1.83258 11.7178 1.8975C11.2715 1.91566 10.9057 2.25068 10.8461 2.69582C10.3661 6.23548 8.093 8.58529 7.84685 8.83975C7.83826 8.84863 7.83214 8.85495 7.82865 8.85869C6.98931 9.91358 5.93819 11.46 6.53151 12.6949C6.70863 13.064 7.00278 13.3433 7.38935 13.5257C6.44183 15.0513 5.12617 17.0826 5.12617 17.0826C4.87551 17.452 4.11431 18.5807 4.63641 19.5664C4.80427 19.8895 5.15154 20.2589 5.85035 20.4107L3.27915 24.5283C2.42131 25.9987 2.22341 26.8619 2.59149 27.506C2.84678 27.9516 3.32994 28.1869 3.92096 28.1247L1.43482 32.1364C1.23461 32.4552 0.634351 33.4266 1.08753 34.2462C1.36361 34.7404 1.99387 35.0565 2.57795 34.8741L3.59437 34.5487L0.767879 38.7336C0.270819 39.3754 -0.248971 40.2108 0.130667 40.9863ZM6.58247 32.3099C6.40768 32.0718 6.132 31.9381 5.8467 31.9381L5.84692 31.9382C5.75259 31.9382 5.65826 31.9517 5.56855 31.9819L3.2341 32.7299L7.13477 26.4381C7.36502 26.064 7.30265 25.5795 6.98538 25.2792C6.66775 24.9771 6.18031 24.9423 5.82378 25.1938C5.42792 25.4728 4.98206 25.7429 4.59781 25.9438C4.66673 25.8098 4.75182 25.6575 4.85077 25.4844L8.31449 19.9402C8.51239 19.6242 8.50084 19.2203 8.28484 18.9155C8.07077 18.6133 7.69613 18.4653 7.33267 18.5484C7.32805 18.5507 6.67235 18.6477 6.36202 18.6245C6.41284 18.5094 6.50256 18.3386 6.65887 18.1052C6.65887 18.1052 8.91515 14.6201 9.68328 13.2974C9.86039 12.9949 9.77068 12.6189 9.5774 12.3279C9.38411 12.0373 8.96791 11.8847 8.6183 11.9241C8.4944 11.923 8.39621 11.9121 8.32612 11.9043C8.24788 11.8956 8.20465 11.8908 8.19978 11.9079C8.19751 11.8178 8.23406 11.3077 9.18623 10.1006C9.27366 10.0175 10.8102 8.51481 11.8429 5.99658C12.5399 7.69565 13.653 9.87883 15.3478 11.8824C15.3848 11.9956 15.419 12.1316 15.4329 12.2425C15.357 12.2332 15.2535 12.2147 15.1203 12.178C14.7637 12.0879 14.3887 12.21 14.1612 12.4987C13.9355 12.7873 13.899 13.1842 14.0734 13.5072C14.2828 13.8998 15.9869 17.0548 17.4473 18.6314C16.9926 18.5871 16.4607 18.5086 16.2958 18.4842C16.2638 18.4795 16.2456 18.4768 16.2445 18.4768C15.8745 18.4216 15.5203 18.5924 15.327 18.9038C15.1314 19.2179 15.1429 19.6148 15.3543 19.9158C17.8153 23.4587 19.1287 25.1114 19.8621 25.8962L17.6129 24.9198C17.2336 24.7582 16.785 24.8669 16.5275 25.1945C16.2699 25.5222 16.2606 25.9839 16.509 26.3185C18.1349 28.5184 20.0577 31.0525 21.341 32.5436C20.7223 32.4003 19.7678 32.0981 18.3305 31.4772C17.9578 31.3133 17.5161 31.4196 17.2586 31.7357C16.9987 32.0518 16.976 32.5019 17.2035 32.8412C17.2908 32.9726 19.2114 35.8166 22.6312 39.3317C22.6036 39.3271 22.5754 39.3224 22.5473 39.3178C22.519 39.3132 22.4908 39.3085 22.4633 39.3039C22.3116 39.2297 18.6685 37.4781 13.6111 37.2702C13.2958 37.2586 12.9739 37.2516 12.6474 37.2516C9.22255 37.2516 6.00072 38.0067 3.1419 39.4585C2.92359 39.5438 2.61788 39.6501 2.31641 39.7332L6.60788 33.381C6.8262 33.0553 6.81695 32.626 6.58247 32.3099Z" fill="white"/>
<path d="M19.3998 54.9801H5.8144C5.43015 54.9801 5.08747 54.7401 4.95194 54.38C4.81872 54.0175 4.92191 53.6114 5.21415 53.3599C6.59871 52.1597 7.54859 51.2548 8.1396 49.6577C9.4113 46.2303 7.79692 42.0639 6.03048 39.5391C5.73825 39.1214 5.8395 38.5464 6.2534 38.2535C6.67192 37.9602 7.24488 38.0618 7.53437 38.4772C9.65473 41.5079 11.3819 46.2074 9.86418 50.3042C9.4318 51.47 8.84077 52.3491 8.12537 53.1362H16.9155C14.7652 50.8695 13.53 47.8644 13.5184 44.7182C13.5092 42.1884 15.1467 38.9778 15.648 38.0546C15.8871 37.6068 16.4461 37.4383 16.8946 37.6852C17.3409 37.9275 17.5064 38.4909 17.2627 38.9364C16.3383 40.6397 15.3514 43.0493 15.356 44.7089C15.3676 48.1642 17.0329 51.2941 19.919 53.2976C20.2501 53.5283 20.3949 53.9464 20.2732 54.3316C20.1519 54.7173 19.8 54.9804 19.4 54.9804L19.3998 54.9801Z" fill="white"/>
<path d="M20.5019 17.5602C20.3155 17.5602 20.1246 17.5049 19.9636 17.3848C19.7153 17.2047 19.584 16.923 19.584 16.6371C19.584 16.45 19.639 16.2584 19.7588 16.0969L27.5921 5.25316C27.889 4.84241 28.4661 4.74542 28.8777 5.04759C29.1265 5.22534 29.2578 5.50703 29.2578 5.79337C29.2578 5.98039 29.2027 6.17205 29.083 6.33356L21.2496 17.1792C21.0702 17.4285 20.7895 17.5603 20.5019 17.5603L20.5019 17.5602Z" fill="white"/>
<path d="M36.1715 17.5605C35.8862 17.5605 35.6059 17.4291 35.4265 17.1795L27.5931 6.33576C27.4734 6.17192 27.416 5.98065 27.416 5.79362C27.416 5.50729 27.5469 5.22598 27.7957 5.04592C28.2072 4.74336 28.7848 4.84035 29.0813 5.25148L36.9146 16.0952C37.0344 16.259 37.0894 16.4484 37.0894 16.6354C37.0894 16.9217 36.9585 17.203 36.7098 17.3831C36.5488 17.5025 36.3579 17.5605 36.1715 17.5605V17.5605Z" fill="white"/>
<path fill-rule="evenodd" clip-rule="evenodd" d="M42.7539 8.19102C42.7539 10.1092 44.3063 11.6695 46.2176 11.6695C48.1289 11.6695 49.6813 10.1092 49.6836 8.19102C49.6836 6.27512 48.1289 4.71484 46.2176 4.71484C44.3086 4.71484 42.7539 6.27285 42.7539 8.19102ZM44.5918 8.19332C44.5918 7.29338 45.3206 6.56152 46.2177 6.56152C47.1125 6.56152 47.8437 7.29298 47.8437 8.19332C47.8437 9.09326 47.1149 9.82512 46.2177 9.82512C45.321 9.82512 44.5918 9.09366 44.5918 8.19332Z" fill="white"/>
<path d="M46.2186 4.26982C45.7104 4.26982 45.2988 3.85675 45.2988 3.34669V0.923129C45.2988 0.413074 45.7104 0 46.2186 0C46.7269 0 47.1385 0.413074 47.1385 0.923129V3.34669C47.1385 3.85675 46.7246 4.26982 46.2186 4.26982Z" fill="#F5F5F5"/>
<path d="M46.2186 16.4659C45.7104 16.4659 45.2988 16.0529 45.2988 15.5428V13.117C45.2988 12.6069 45.7104 12.1938 46.2186 12.1938C46.7269 12.1938 47.1385 12.6069 47.1385 13.117V15.5428C47.1385 16.0506 46.7246 16.4659 46.2186 16.4659Z" fill="#F5F5F5"/>
<path d="M53.5027 9.15632H51.0878C50.5796 9.15632 50.168 8.74324 50.168 8.23319C50.168 7.72313 50.5796 7.31006 51.0878 7.31006H53.5027C54.0109 7.31006 54.4225 7.72313 54.4225 8.23319C54.4225 8.74324 54.0086 9.15632 53.5027 9.15632Z" fill="#F5F5F5"/>
<path d="M41.3487 9.15632H38.9315C38.4233 9.15632 38.0117 8.74324 38.0117 8.23319C38.0117 7.72313 38.4233 7.31006 38.9315 7.31006H41.3487C41.8569 7.31006 42.2685 7.72313 42.2685 8.23319C42.2689 8.74324 41.8573 9.15632 41.3487 9.15632Z" fill="#F5F5F5"/>
<path d="M49.6601 5.70087C49.4233 5.70087 49.1884 5.61083 49.0094 5.43076C48.6505 5.07063 48.6505 4.48445 49.0094 4.12659L50.7181 2.4117C51.077 2.05157 51.6587 2.05157 52.0176 2.4117C52.3765 2.77183 52.3764 3.35802 52.0176 3.71587L50.3089 5.43076C50.1317 5.61083 49.8969 5.70087 49.6601 5.70087H49.6601Z" fill="#F5F5F5"/>
<path d="M41.0663 14.3244C40.8295 14.3244 40.5947 14.2344 40.4156 14.0543C40.0568 13.6942 40.0568 13.1103 40.4156 12.7501L42.1244 11.0352C42.4832 10.6751 43.065 10.6751 43.4239 11.0352C43.7827 11.3954 43.7827 11.9792 43.4239 12.3394L41.7151 14.0543C41.5376 14.2344 41.3031 14.3244 41.0663 14.3244H41.0663Z" fill="#F5F5F5"/>
<path d="M51.3669 14.3244C51.1301 14.3244 50.8952 14.2344 50.7162 14.0543L49.0074 12.3394C48.6486 11.9793 48.6486 11.3954 49.0074 11.0352C49.3663 10.6751 49.948 10.6751 50.3069 11.0352L52.0157 12.7501C52.3745 13.1103 52.3745 13.6941 52.0157 14.0543C51.8385 14.2344 51.6041 14.3244 51.3669 14.3244H51.3669Z" fill="#F5F5F5"/>
<path d="M42.775 5.70088C42.5383 5.70088 42.3034 5.61085 42.1243 5.43078L40.4176 3.71589C40.0587 3.35576 40.0587 2.77189 40.4176 2.41171C40.7764 2.05154 41.3582 2.05158 41.7171 2.41171L43.4258 4.12661C43.7847 4.48674 43.7847 5.07061 43.4258 5.43078C43.2464 5.61085 43.0119 5.70088 42.7751 5.70088H42.775Z" fill="#F5F5F5"/>
</svg>
