<svg width="33" height="33" viewBox="0 0 33 33" fill="none" xmlns="http://www.w3.org/2000/svg">
<rect x="2" y="2" width="29" height="29" rx="6" stroke="white" stroke-width="4"/>
<path fill-rule="evenodd" clip-rule="evenodd" d="M30.2206 30.2206C31.9976 28.4437 32.9972 26.0342 33 23.5213V9.47872C32.9972 6.96583 31.9975 4.55637 30.2206 2.77938C28.4437 1.0024 26.0342 0.00282103 23.5213 0H9.47872C6.96583 0.00280851 4.55637 1.00248 2.77938 2.77938C1.0024 4.55629 0.00282103 6.96583 0 9.47872V23.5213C0.00280851 26.0342 1.00248 28.4436 2.77938 30.2206C4.55629 31.9976 6.96583 32.9972 9.47872 33H23.5213C26.0342 32.9972 28.4436 31.9975 30.2206 30.2206ZM22.6569 22.6569C24.1573 21.1567 25 19.1218 25 17C24.9962 14.8795 24.1522 12.8468 22.6527 11.3473C21.1532 9.84781 19.1205 9.00383 17 9C14.8782 9 12.8433 9.84266 11.3431 11.3431C9.84274 12.8433 9 14.8782 9 17C9 19.1218 9.84266 21.1567 11.3431 22.6569C12.8433 24.1573 14.8782 25 17 25C19.1218 25 21.1567 24.1573 22.6569 22.6569ZM31 9.42683C30.9978 7.45774 30.2147 5.57005 28.8222 4.17781C27.4299 2.78524 25.5423 2.00218 23.5732 2H9.42683C7.45774 2.00221 5.57005 2.78531 4.17781 4.17781C2.78524 5.57005 2.00218 7.45766 2 9.42683V23.5732C2.00221 25.5423 2.78531 27.4299 4.17781 28.8222C5.57005 30.2148 7.45766 30.9978 9.42683 31H23.5732C25.5423 30.9978 27.4299 30.2147 28.8222 28.8222C30.2148 27.4299 30.9978 25.5423 31 23.5732V9.42683ZM25.7478 7.66351C25.8022 7.74502 25.8483 7.83163 25.886 7.92172C25.923 8.01289 25.9511 8.10755 25.9699 8.20408C26.01 8.39821 26.01 8.59851 25.9699 8.79264C25.9332 8.98597 25.8576 9.16991 25.7478 9.33321C25.691 9.41338 25.6289 9.4898 25.5619 9.56166C25.4901 9.62869 25.4138 9.6909 25.3334 9.74775C25.2523 9.80217 25.166 9.8483 25.076 9.88584C24.9844 9.92204 24.8901 9.95019 24.794 9.97004C24.5998 10.01 24.3994 10.01 24.2052 9.97004C24.1091 9.951 24.0148 9.92284 23.924 9.88584C23.8337 9.8483 23.7472 9.80218 23.666 9.74775C23.5846 9.69251 23.5083 9.6303 23.4378 9.56166C23.3709 9.4898 23.3087 9.41365 23.2519 9.33321C23.1978 9.25196 23.1515 9.16535 23.114 9.07499C23.077 8.98383 23.0486 8.88917 23.0293 8.79264C22.9902 8.59851 22.9902 8.39847 23.0293 8.20408C23.0486 8.10754 23.077 8.01316 23.114 7.92172C23.1515 7.83163 23.1978 7.74502 23.2519 7.66351C23.3087 7.58333 23.3708 7.50692 23.4378 7.43532C23.5083 7.36668 23.5846 7.30447 23.666 7.24924C23.7472 7.19481 23.8337 7.14842 23.924 7.11088C24.0148 7.07387 24.1091 7.04572 24.2052 7.02695C24.4 6.99102 24.5992 6.99102 24.794 7.02695C24.8901 7.04679 24.9844 7.07495 25.076 7.11088C25.166 7.14841 25.2523 7.1948 25.3334 7.24924C25.4138 7.30581 25.4901 7.36802 25.5619 7.43532C25.6289 7.50719 25.691 7.58333 25.7478 7.66351Z" fill="white"/>
</svg>
