<svg width="42" height="42" viewBox="0 0 42 42" fill="none" xmlns="http://www.w3.org/2000/svg">
<path d="M29.4432 0H12.7368C5.94711 0 0.42334 5.52377 0.42334 12.3134V29.0199C0.42334 35.8096 5.94711 41.3333 12.7368 41.3333H29.4432C36.2329 41.3333 41.7567 35.8096 41.7567 29.0199V12.3134C41.7566 5.52377 36.2328 0 29.4432 0ZM37.5985 29.0199C37.5985 33.5239 33.9473 37.1752 29.4432 37.1752H12.7368C8.23276 37.1752 4.58147 33.5239 4.58147 29.0199V12.3134C4.58147 7.80934 8.23276 4.15813 12.7368 4.15813H29.4432C33.9473 4.15813 37.5985 7.80934 37.5985 12.3134V29.0199Z" fill="white"/>
<path d="M21.0902 9.97632C15.1955 9.97632 10.3999 14.772 10.3999 20.6665C10.3999 26.5611 15.1955 31.3568 21.0902 31.3568C26.9848 31.3568 31.7804 26.5611 31.7804 20.6665C31.7804 14.7719 26.9848 9.97632 21.0902 9.97632ZM21.0902 27.1987C17.4825 27.1987 14.558 24.2742 14.558 20.6666C14.558 17.059 17.4826 14.1344 21.0902 14.1344C24.6978 14.1344 27.6223 17.059 27.6223 20.6666C27.6223 24.2741 24.6977 27.1987 21.0902 27.1987Z" fill="white"/>
<path d="M31.8009 12.6183C33.2156 12.6183 34.3625 11.4715 34.3625 10.0567C34.3625 8.64199 33.2156 7.49512 31.8009 7.49512C30.3861 7.49512 29.2393 8.64199 29.2393 10.0567C29.2393 11.4715 30.3861 12.6183 31.8009 12.6183Z" fill="white"/>
</svg>
