<svg width="17" height="17" viewBox="0 0 17 17" fill="none" xmlns="http://www.w3.org/2000/svg">
<path fill-rule="evenodd" clip-rule="evenodd" d="M5 1.66667C3.15905 1.66667 1.66667 3.15905 1.66667 5V11.6667C1.66667 13.5076 3.15905 15 5 15H11.6667C13.5076 15 15 13.5076 15 11.6667V5C15 3.15905 13.5076 1.66667 11.6667 1.66667H5ZM0 5V11.6667C0 14.4281 2.23857 16.6667 5 16.6667H11.6667C14.4281 16.6667 16.6667 14.4281 16.6667 11.6667V5C16.6667 2.23857 14.4281 0 11.6667 0H5C2.23857 0 0 2.23857 0 5Z" fill="#777E91"/>
<path fill-rule="evenodd" clip-rule="evenodd" d="M13.3332 4.16683C13.3332 3.7066 12.9601 3.3335 12.4998 3.3335C12.0396 3.3335 11.6665 3.7066 11.6665 4.16683C11.6665 4.62706 12.0396 5.00016 12.4998 5.00016C12.9601 5.00016 13.3332 4.62706 13.3332 4.16683Z" fill="#777E91"/>
<path fill-rule="evenodd" clip-rule="evenodd" d="M8.33317 12.4998C6.03199 12.4998 4.1665 10.6343 4.1665 8.33317C4.1665 6.03199 6.03199 4.1665 8.33317 4.1665C10.6343 4.1665 12.4998 6.03199 12.4998 8.33317C12.4998 10.6343 10.6343 12.4998 8.33317 12.4998ZM8.33317 10.8332C6.95242 10.8332 5.83317 9.71392 5.83317 8.33317C5.83317 6.95242 6.95242 5.83317 8.33317 5.83317C9.71392 5.83317 10.8332 6.95242 10.8332 8.33317C10.8332 9.71392 9.71392 10.8332 8.33317 10.8332Z" fill="#777E91"/>
</svg>
