<svg width="19" height="15" viewBox="0 0 19 15" fill="none" xmlns="http://www.w3.org/2000/svg">
<path fill-rule="evenodd" clip-rule="evenodd" d="M0.332064 11.9298C1.54791 13.633 3.75271 15 7.43356 15C13.1378 15 17.7166 10.3514 17.0756 4.85925L18.0147 2.98108C18.666 1.67857 17.5343 0.19685 16.1063 0.48245L14.8656 0.730575C14.5367 0.557025 14.1963 0.426058 13.9054 0.331175C13.3384 0.146267 12.6521 0 12.0169 0C10.8758 0 9.89097 0.292758 9.10831 0.879942C8.33456 1.46053 7.89872 2.22354 7.65956 2.92421C7.54931 3.24717 7.47589 3.57112 7.42878 3.88203C6.98606 3.74269 6.53463 3.55522 6.09268 3.32629C5.09001 2.80693 4.27922 2.14852 3.82185 1.57126C3.05449 0.60275 1.42829 0.674558 0.857639 1.93351C0.0533554 3.70789 0.27398 5.81122 0.99693 7.51075C1.23925 8.08033 1.55446 8.64342 1.93955 9.16525C1.87362 9.166 1.81056 9.16633 1.75076 9.1665C0.372664 9.17042 -0.516934 10.7403 0.332064 11.9298ZM1.68851 10.9614C1.64983 10.9072 1.68883 10.8333 1.75539 10.8332C2.63109 10.8307 4.42859 10.7893 5.61409 10.0954C5.6754 10.0595 5.66191 9.96908 5.59457 9.9465C2.8311 9.01733 1.26024 5.08216 2.37556 2.62158C2.40113 2.56517 2.47696 2.55773 2.51544 2.60628C3.7895 4.21432 6.57516 5.78933 8.99881 5.83243C9.05139 5.83333 9.09114 5.78558 9.08314 5.73361C8.98547 5.10044 8.61256 1.66667 12.0168 1.66667C12.8297 1.66667 14.0392 2.06319 14.4847 2.46942C14.5053 2.48819 14.5332 2.49672 14.5606 2.49125L16.4331 2.11675C16.5011 2.10315 16.555 2.17371 16.524 2.23573L15.3626 4.55849C15.3545 4.57462 15.352 4.59312 15.3551 4.61088C16.1685 9.18333 12.4235 13.3333 7.43347 13.3333C4.21402 13.3333 2.5493 12.1672 1.68851 10.9614Z" fill="#777E91"/>
</svg>
