<svg width="33" height="33" viewBox="0 0 33 33" fill="none" xmlns="http://www.w3.org/2000/svg">
<path fill-rule="evenodd" clip-rule="evenodd" d="M31.5861 0.0676821C31.9934 0.129191 32.3622 0.342242 32.6183 0.664366L32.6179 0.664014C32.8881 0.985765 33.0238 1.3993 32.9966 1.8186C32.9694 2.23795 32.7812 2.63041 32.4717 2.91448V2.91482L29.0139 6.20774C28.7945 24.7188 21.216 33 4.51219 33H1.65426C1.28003 33.0017 0.916359 32.8763 0.622771 32.6442C0.329523 32.4125 0.124049 32.0876 0.0396809 31.7237C-0.0406069 31.3588 0.0015792 30.9775 0.160448 30.6394C0.319317 30.301 0.585349 30.0247 0.917717 29.8531C2.41966 29.1416 6.21415 26.8378 7.47695 24.095C-5.43508 13.5733 3.11022 1.25321 3.5087 0.678704C3.51554 0.668852 3.51997 0.662454 3.52187 0.659578C3.70897 0.397589 3.97194 0.199152 4.27539 0.0910957C4.57919 -0.0166196 4.9085 -0.0291928 5.21909 0.0554168C5.53717 0.126094 5.82736 0.289196 6.05291 0.523994C6.27846 0.759139 6.4295 1.0551 6.48733 1.37553H6.48699C7.42355 6.427 9.67665 9.22315 13.5198 10.0465C13.3644 9.43721 13.2905 8.80964 13.3004 8.18102C13.3041 6.02842 14.1621 3.96515 15.6859 2.44321C17.2096 0.920893 19.2753 0.0642693 21.4304 0.0605317C23.6297 0.0446129 25.7376 0.938586 27.2534 2.5302L30.4237 0.333064C30.7636 0.100982 31.1789 0.00617298 31.5861 0.0676821ZM11.3756 24.3448C10.8822 26.6192 9.23104 28.5507 7.52641 29.9995L7.52663 30C20.51 29.1842 25.9612 22.1666 26 6.50152C25.9138 6.42135 25.8382 6.33073 25.7755 6.23137C24.9067 4.83581 23.3639 3.98998 21.7066 4.00009C20.4231 4.00138 19.1927 4.50602 18.285 5.40336C17.3776 6.30044 16.8672 7.5171 16.8659 8.78567C16.87 9.78511 17.195 10.7576 17.794 11.5626C17.9886 11.7964 18.1041 12.0851 18.1242 12.3872C18.1443 12.6897 18.0683 12.9905 17.9065 13.2479C17.7695 13.5143 17.5593 13.7373 17.3003 13.8909C17.041 14.0449 16.7432 14.123 16.441 14.1169C10.8284 14.0641 6.86679 11.5626 4.77644 6.6659C3.44286 10.4757 2.95423 16.8648 10.7698 22.6595C11.0256 22.8515 11.2192 23.1133 11.3268 23.4127C11.4345 23.7122 11.4512 24.0359 11.3752 24.3448H11.3756Z" fill="white"/>
</svg>
