<svg width="39" height="33" viewBox="0 0 39 33" fill="none" xmlns="http://www.w3.org/2000/svg">
<path d="M18.9367 9.17925L19.0213 10.5633L17.6123 10.3939C12.4836 9.74418 8.00302 7.54094 4.19877 3.84062L2.33891 2.00458L1.85986 3.36042C0.84539 6.38282 1.49352 9.5747 3.607 11.7215C4.73418 12.9078 4.48056 13.0773 2.53617 12.3711C1.85986 12.1452 1.26808 11.9757 1.21172 12.0604C1.01447 12.2581 1.69078 14.8286 2.22619 15.8455C2.95886 17.2578 4.45238 18.6419 6.0868 19.4611L7.46761 20.1107L5.83319 20.139C4.25513 20.139 4.19877 20.1672 4.36785 20.7604C4.93144 22.5964 7.15763 24.5455 9.63744 25.3929L11.3846 25.9861L9.86288 26.89C7.60851 28.1893 4.95962 28.9237 2.31073 28.9802C1.04265 29.0085 0 29.1214 0 29.2062C0 29.4887 3.43792 31.0705 5.43867 31.6919C11.4409 33.5279 18.5704 32.737 23.9245 29.6016C27.7288 27.3702 31.533 22.9354 33.3083 18.6419C34.2665 16.3539 35.2246 12.1734 35.2246 10.1679C35.2246 8.86853 35.3091 8.69905 36.8872 7.14548C37.8171 6.24159 38.6907 5.25295 38.8597 4.97048C39.1415 4.4338 39.1134 4.4338 37.6762 4.91399C35.2809 5.76139 34.9428 5.64841 36.1263 4.3773C36.9999 3.47341 38.0425 1.8351 38.0425 1.3549C38.0425 1.27016 37.6198 1.4114 37.1408 1.66562C36.6335 1.94808 35.5064 2.37178 34.661 2.62601L33.1393 3.1062L31.7585 2.17406C30.9976 1.66562 29.9268 1.10068 29.3632 0.931201C27.926 0.535747 25.728 0.59224 24.4318 1.04419C20.9093 2.31529 18.6831 5.59191 18.9367 9.17925Z" fill="white"/>
</svg>
