<svg width="1352" height="574" viewBox="0 0 1352 574" fill="none" xmlns="http://www.w3.org/2000/svg">
<path opacity="0.5" d="M179.885 68.72V58H186.285V86H179.885V74.88H171.085V86H164.685V58H171.085V68.72H179.885ZM205.411 67.88V66H211.411V86H205.411V84.12C204.025 85.7467 202.038 86.56 199.451 86.56C196.811 86.56 194.558 85.5467 192.691 83.52C190.825 81.4933 189.891 78.9867 189.891 76C189.891 73.04 190.825 70.5467 192.691 68.52C194.585 66.4667 196.838 65.44 199.451 65.44C202.038 65.44 204.025 66.2533 205.411 67.88ZM195.891 76C195.891 77.4933 196.331 78.68 197.211 79.56C198.091 80.44 199.238 80.88 200.651 80.88C202.065 80.88 203.211 80.44 204.091 79.56C204.971 78.68 205.411 77.4933 205.411 76C205.411 74.5067 204.971 73.32 204.091 72.44C203.211 71.56 202.065 71.12 200.651 71.12C199.238 71.12 198.091 71.56 197.211 72.44C196.331 73.32 195.891 74.5067 195.891 76ZM227.533 66V71.76H223.413V78.84C223.413 79.6133 223.72 80.12 224.333 80.36C224.947 80.5733 226.013 80.64 227.533 80.56V86C223.747 86.4 221.107 86.04 219.613 84.92C218.147 83.7733 217.413 81.7467 217.413 78.84V71.76H214.213V66H217.413V62.2L223.413 60.4V66H227.533ZM240.14 86.56C237.1 86.56 234.567 85.5467 232.54 83.52C230.54 81.4933 229.54 78.9867 229.54 76C229.54 73.0133 230.54 70.5067 232.54 68.48C234.567 66.4533 237.1 65.44 240.14 65.44C242.033 65.44 243.793 65.9067 245.42 66.84C247.047 67.7733 248.3 69.0133 249.18 70.56L243.94 73.6C243.22 72.1067 241.927 71.36 240.06 71.36C238.753 71.36 237.673 71.8 236.82 72.68C235.967 73.5333 235.54 74.64 235.54 76C235.54 77.36 235.967 78.48 236.82 79.36C237.673 80.2133 238.753 80.64 240.06 80.64C241.953 80.64 243.247 79.8933 243.94 78.4L249.18 81.4C248.3 83 247.047 84.2667 245.42 85.2C243.82 86.1067 242.06 86.56 240.14 86.56ZM263.315 65.44C265.475 65.44 267.248 66.1733 268.635 67.64C270.075 69.1333 270.795 71.16 270.795 73.72V86H264.795V74.6C264.795 73.4533 264.475 72.56 263.835 71.92C263.195 71.28 262.355 70.96 261.315 70.96C260.141 70.96 259.221 71.32 258.555 72.04C257.915 72.7333 257.595 73.7467 257.595 75.08V86H251.595V58H257.595V67.88C258.795 66.2533 260.701 65.44 263.315 65.44ZM191.041 158V164.16H180.441V169.56H190.841V175.72H180.441V186H174.041V158H191.041ZM214.182 178.4H199.982C200.649 180.267 202.249 181.2 204.782 181.2C206.409 181.2 207.689 180.693 208.622 179.68L213.422 182.44C211.475 185.187 208.569 186.56 204.702 186.56C201.369 186.56 198.675 185.56 196.622 183.56C194.622 181.56 193.622 179.04 193.622 176C193.622 173.013 194.609 170.507 196.582 168.48C198.582 166.453 201.142 165.44 204.262 165.44C207.169 165.44 209.582 166.453 211.502 168.48C213.449 170.453 214.422 172.96 214.422 176C214.422 176.853 214.342 177.653 214.182 178.4ZM199.862 173.92H208.462C207.875 171.813 206.462 170.76 204.222 170.76C201.902 170.76 200.449 171.813 199.862 173.92ZM237.19 178.4H222.99C223.656 180.267 225.256 181.2 227.79 181.2C229.416 181.2 230.696 180.693 231.63 179.68L236.43 182.44C234.483 185.187 231.576 186.56 227.71 186.56C224.376 186.56 221.683 185.56 219.63 183.56C217.63 181.56 216.63 179.04 216.63 176C216.63 173.013 217.616 170.507 219.59 168.48C221.59 166.453 224.15 165.44 227.27 165.44C230.176 165.44 232.59 166.453 234.51 168.48C236.456 170.453 237.43 172.96 237.43 176C237.43 176.853 237.35 177.653 237.19 178.4ZM222.87 173.92H231.47C230.883 171.813 229.47 170.76 227.23 170.76C224.91 170.76 223.456 171.813 222.87 173.92ZM255.158 167.88V158H261.158V186H255.158V184.12C253.771 185.747 251.784 186.56 249.198 186.56C246.558 186.56 244.304 185.547 242.438 183.52C240.571 181.493 239.638 178.987 239.638 176C239.638 173.04 240.571 170.547 242.438 168.52C244.331 166.467 246.584 165.44 249.198 165.44C251.784 165.44 253.771 166.253 255.158 167.88ZM245.638 176C245.638 177.493 246.078 178.68 246.958 179.56C247.838 180.44 248.984 180.88 250.398 180.88C251.811 180.88 252.958 180.44 253.838 179.56C254.718 178.68 255.158 177.493 255.158 176C255.158 174.507 254.718 173.32 253.838 172.44C252.958 171.56 251.811 171.12 250.398 171.12C248.984 171.12 247.838 171.56 246.958 172.44C246.078 173.32 245.638 174.507 245.638 176ZM184.01 270.4H198.05V272.8C198.05 276.96 196.743 280.307 194.13 282.84C191.543 285.32 188.25 286.56 184.25 286.56C179.903 286.56 176.29 285.16 173.41 282.36C170.556 279.56 169.13 276.12 169.13 272.04C169.13 267.96 170.543 264.507 173.37 261.68C176.196 258.853 179.676 257.44 183.81 257.44C186.396 257.44 188.77 258.027 190.93 259.2C193.116 260.347 194.823 261.893 196.05 263.84L190.61 266.96C189.97 265.973 189.036 265.187 187.81 264.6C186.61 263.987 185.263 263.68 183.77 263.68C181.396 263.68 179.423 264.467 177.85 266.04C176.303 267.587 175.53 269.6 175.53 272.08C175.53 274.48 176.33 276.467 177.93 278.04C179.53 279.56 181.663 280.32 184.33 280.32C188.01 280.32 190.396 278.88 191.49 276H184.01V270.4ZM207.458 266V269.56C207.831 268.307 208.564 267.333 209.658 266.64C210.778 265.947 212.044 265.6 213.458 265.6V272.4C211.964 272.16 210.591 272.413 209.338 273.16C208.084 273.88 207.458 275.147 207.458 276.96V286H201.458V266H207.458ZM232.797 283.52C230.77 285.547 228.263 286.56 225.277 286.56C222.29 286.56 219.783 285.547 217.757 283.52C215.703 281.467 214.677 278.96 214.677 276C214.677 273.067 215.703 270.573 217.757 268.52C219.81 266.467 222.317 265.44 225.277 265.44C228.237 265.44 230.743 266.467 232.797 268.52C234.85 270.573 235.877 273.067 235.877 276C235.877 278.96 234.85 281.467 232.797 283.52ZM220.677 276C220.677 277.387 221.117 278.52 221.997 279.4C222.877 280.28 223.97 280.72 225.277 280.72C226.583 280.72 227.677 280.28 228.557 279.4C229.437 278.52 229.877 277.387 229.877 276C229.877 274.613 229.437 273.48 228.557 272.6C227.677 271.72 226.583 271.28 225.277 271.28C223.97 271.28 222.877 271.72 221.997 272.6C221.117 273.48 220.677 274.613 220.677 276ZM257.609 276.72L260.489 266H266.889L260.489 286H254.889L251.689 275.32L248.489 286H242.889L236.489 266H242.889L245.769 276.72L248.889 266H254.489L257.609 276.72ZM182.69 371.48C184.983 372.973 186.13 375.08 186.13 377.8C186.13 380.227 185.263 382.2 183.53 383.72C181.796 385.24 179.65 386 177.09 386H165.33V358H176.29C178.77 358 180.863 358.747 182.57 360.24C184.276 361.707 185.13 363.627 185.13 366C185.13 368.267 184.316 370.093 182.69 371.48ZM176.29 364H171.73V368.96H176.29C177.01 368.96 177.596 368.733 178.05 368.28C178.503 367.8 178.73 367.2 178.73 366.48C178.73 365.76 178.503 365.173 178.05 364.72C177.596 364.24 177.01 364 176.29 364ZM171.73 380H177.09C177.89 380 178.53 379.76 179.01 379.28C179.49 378.773 179.73 378.12 179.73 377.32C179.73 376.52 179.49 375.88 179.01 375.4C178.53 374.893 177.89 374.64 177.09 374.64H171.73V380ZM195.114 366V369.56C195.487 368.307 196.221 367.333 197.314 366.64C198.434 365.947 199.701 365.6 201.114 365.6V372.4C199.621 372.16 198.247 372.413 196.994 373.16C195.741 373.88 195.114 375.147 195.114 376.96V386H189.114V366H195.114ZM222.893 378.4H208.693C209.359 380.267 210.959 381.2 213.493 381.2C215.119 381.2 216.399 380.693 217.333 379.68L222.133 382.44C220.186 385.187 217.279 386.56 213.413 386.56C210.079 386.56 207.386 385.56 205.333 383.56C203.333 381.56 202.333 379.04 202.333 376C202.333 373.013 203.319 370.507 205.293 368.48C207.293 366.453 209.853 365.44 212.973 365.44C215.879 365.44 218.293 366.453 220.213 368.48C222.159 370.453 223.133 372.96 223.133 376C223.133 376.853 223.053 377.653 222.893 378.4ZM208.573 373.92H217.173C216.586 371.813 215.173 370.76 212.933 370.76C210.613 370.76 209.159 371.813 208.573 373.92ZM245.901 378.4H231.701C232.367 380.267 233.967 381.2 236.501 381.2C238.127 381.2 239.407 380.693 240.341 379.68L245.141 382.44C243.194 385.187 240.287 386.56 236.421 386.56C233.087 386.56 230.394 385.56 228.341 383.56C226.341 381.56 225.341 379.04 225.341 376C225.341 373.013 226.327 370.507 228.301 368.48C230.301 366.453 232.861 365.44 235.981 365.44C238.887 365.44 241.301 366.453 243.221 368.48C245.167 370.453 246.141 372.96 246.141 376C246.141 376.853 246.061 377.653 245.901 378.4ZM231.581 373.92H240.181C239.594 371.813 238.181 370.76 235.941 370.76C233.621 370.76 232.167 371.813 231.581 373.92ZM263.868 367.88V358H269.868V386H263.868V384.12C262.482 385.747 260.495 386.56 257.908 386.56C255.268 386.56 253.015 385.547 251.148 383.52C249.282 381.493 248.348 378.987 248.348 376C248.348 373.04 249.282 370.547 251.148 368.52C253.042 366.467 255.295 365.44 257.908 365.44C260.495 365.44 262.482 366.253 263.868 367.88ZM254.348 376C254.348 377.493 254.788 378.68 255.668 379.56C256.548 380.44 257.695 380.88 259.108 380.88C260.522 380.88 261.668 380.44 262.548 379.56C263.428 378.68 263.868 377.493 263.868 376C263.868 374.507 263.428 373.32 262.548 372.44C261.668 371.56 260.522 371.12 259.108 371.12C257.695 371.12 256.548 371.56 255.668 372.44C254.788 373.32 254.348 374.507 254.348 376Z" fill="white"/>
<path opacity="0.5" d="M310.885 128.72V118H317.285V146H310.885V134.88H302.085V146H295.685V118H302.085V128.72H310.885ZM336.411 127.88V126H342.411V146H336.411V144.12C335.025 145.747 333.038 146.56 330.451 146.56C327.811 146.56 325.558 145.547 323.691 143.52C321.825 141.493 320.891 138.987 320.891 136C320.891 133.04 321.825 130.547 323.691 128.52C325.585 126.467 327.838 125.44 330.451 125.44C333.038 125.44 335.025 126.253 336.411 127.88ZM326.891 136C326.891 137.493 327.331 138.68 328.211 139.56C329.091 140.44 330.238 140.88 331.651 140.88C333.065 140.88 334.211 140.44 335.091 139.56C335.971 138.68 336.411 137.493 336.411 136C336.411 134.507 335.971 133.32 335.091 132.44C334.211 131.56 333.065 131.12 331.651 131.12C330.238 131.12 329.091 131.56 328.211 132.44C327.331 133.32 326.891 134.507 326.891 136ZM358.533 126V131.76H354.413V138.84C354.413 139.613 354.72 140.12 355.333 140.36C355.947 140.573 357.013 140.64 358.533 140.56V146C354.747 146.4 352.107 146.04 350.613 144.92C349.147 143.773 348.413 141.747 348.413 138.84V131.76H345.213V126H348.413V122.2L354.413 120.4V126H358.533ZM371.14 146.56C368.1 146.56 365.567 145.547 363.54 143.52C361.54 141.493 360.54 138.987 360.54 136C360.54 133.013 361.54 130.507 363.54 128.48C365.567 126.453 368.1 125.44 371.14 125.44C373.033 125.44 374.793 125.907 376.42 126.84C378.047 127.773 379.3 129.013 380.18 130.56L374.94 133.6C374.22 132.107 372.927 131.36 371.06 131.36C369.753 131.36 368.673 131.8 367.82 132.68C366.967 133.533 366.54 134.64 366.54 136C366.54 137.36 366.967 138.48 367.82 139.36C368.673 140.213 369.753 140.64 371.06 140.64C372.953 140.64 374.247 139.893 374.94 138.4L380.18 141.4C379.3 143 378.047 144.267 376.42 145.2C374.82 146.107 373.06 146.56 371.14 146.56ZM394.315 125.44C396.475 125.44 398.248 126.173 399.635 127.64C401.075 129.133 401.795 131.16 401.795 133.72V146H395.795V134.6C395.795 133.453 395.475 132.56 394.835 131.92C394.195 131.28 393.355 130.96 392.315 130.96C391.141 130.96 390.221 131.32 389.555 132.04C388.915 132.733 388.595 133.747 388.595 135.08V146H382.595V118H388.595V127.88C389.795 126.253 391.701 125.44 394.315 125.44ZM322.041 218V224.16H311.441V229.56H321.841V235.72H311.441V246H305.041V218H322.041ZM345.182 238.4H330.982C331.649 240.267 333.249 241.2 335.782 241.2C337.409 241.2 338.689 240.693 339.622 239.68L344.422 242.44C342.475 245.187 339.569 246.56 335.702 246.56C332.369 246.56 329.675 245.56 327.622 243.56C325.622 241.56 324.622 239.04 324.622 236C324.622 233.013 325.609 230.507 327.582 228.48C329.582 226.453 332.142 225.44 335.262 225.44C338.169 225.44 340.582 226.453 342.502 228.48C344.449 230.453 345.422 232.96 345.422 236C345.422 236.853 345.342 237.653 345.182 238.4ZM330.862 233.92H339.462C338.875 231.813 337.462 230.76 335.222 230.76C332.902 230.76 331.449 231.813 330.862 233.92ZM368.19 238.4H353.99C354.656 240.267 356.256 241.2 358.79 241.2C360.416 241.2 361.696 240.693 362.63 239.68L367.43 242.44C365.483 245.187 362.576 246.56 358.71 246.56C355.376 246.56 352.683 245.56 350.63 243.56C348.63 241.56 347.63 239.04 347.63 236C347.63 233.013 348.616 230.507 350.59 228.48C352.59 226.453 355.15 225.44 358.27 225.44C361.176 225.44 363.59 226.453 365.51 228.48C367.456 230.453 368.43 232.96 368.43 236C368.43 236.853 368.35 237.653 368.19 238.4ZM353.87 233.92H362.47C361.883 231.813 360.47 230.76 358.23 230.76C355.91 230.76 354.456 231.813 353.87 233.92ZM386.158 227.88V218H392.158V246H386.158V244.12C384.771 245.747 382.784 246.56 380.198 246.56C377.558 246.56 375.304 245.547 373.438 243.52C371.571 241.493 370.638 238.987 370.638 236C370.638 233.04 371.571 230.547 373.438 228.52C375.331 226.467 377.584 225.44 380.198 225.44C382.784 225.44 384.771 226.253 386.158 227.88ZM376.638 236C376.638 237.493 377.078 238.68 377.958 239.56C378.838 240.44 379.984 240.88 381.398 240.88C382.811 240.88 383.958 240.44 384.838 239.56C385.718 238.68 386.158 237.493 386.158 236C386.158 234.507 385.718 233.32 384.838 232.44C383.958 231.56 382.811 231.12 381.398 231.12C379.984 231.12 378.838 231.56 377.958 232.44C377.078 233.32 376.638 234.507 376.638 236ZM315.01 330.4H329.05V332.8C329.05 336.96 327.743 340.307 325.13 342.84C322.543 345.32 319.25 346.56 315.25 346.56C310.903 346.56 307.29 345.16 304.41 342.36C301.556 339.56 300.13 336.12 300.13 332.04C300.13 327.96 301.543 324.507 304.37 321.68C307.196 318.853 310.676 317.44 314.81 317.44C317.396 317.44 319.77 318.027 321.93 319.2C324.116 320.347 325.823 321.893 327.05 323.84L321.61 326.96C320.97 325.973 320.036 325.187 318.81 324.6C317.61 323.987 316.263 323.68 314.77 323.68C312.396 323.68 310.423 324.467 308.85 326.04C307.303 327.587 306.53 329.6 306.53 332.08C306.53 334.48 307.33 336.467 308.93 338.04C310.53 339.56 312.663 340.32 315.33 340.32C319.01 340.32 321.396 338.88 322.49 336H315.01V330.4ZM338.458 326V329.56C338.831 328.307 339.564 327.333 340.658 326.64C341.778 325.947 343.044 325.6 344.458 325.6V332.4C342.964 332.16 341.591 332.413 340.338 333.16C339.084 333.88 338.458 335.147 338.458 336.96V346H332.458V326H338.458ZM363.797 343.52C361.77 345.547 359.263 346.56 356.277 346.56C353.29 346.56 350.783 345.547 348.757 343.52C346.703 341.467 345.677 338.96 345.677 336C345.677 333.067 346.703 330.573 348.757 328.52C350.81 326.467 353.317 325.44 356.277 325.44C359.237 325.44 361.743 326.467 363.797 328.52C365.85 330.573 366.877 333.067 366.877 336C366.877 338.96 365.85 341.467 363.797 343.52ZM351.677 336C351.677 337.387 352.117 338.52 352.997 339.4C353.877 340.28 354.97 340.72 356.277 340.72C357.583 340.72 358.677 340.28 359.557 339.4C360.437 338.52 360.877 337.387 360.877 336C360.877 334.613 360.437 333.48 359.557 332.6C358.677 331.72 357.583 331.28 356.277 331.28C354.97 331.28 353.877 331.72 352.997 332.6C352.117 333.48 351.677 334.613 351.677 336ZM388.609 336.72L391.489 326H397.889L391.489 346H385.889L382.689 335.32L379.489 346H373.889L367.489 326H373.889L376.769 336.72L379.889 326H385.489L388.609 336.72ZM313.69 431.48C315.983 432.973 317.13 435.08 317.13 437.8C317.13 440.227 316.263 442.2 314.53 443.72C312.796 445.24 310.65 446 308.09 446H296.33V418H307.29C309.77 418 311.863 418.747 313.57 420.24C315.276 421.707 316.13 423.627 316.13 426C316.13 428.267 315.316 430.093 313.69 431.48ZM307.29 424H302.73V428.96H307.29C308.01 428.96 308.596 428.733 309.05 428.28C309.503 427.8 309.73 427.2 309.73 426.48C309.73 425.76 309.503 425.173 309.05 424.72C308.596 424.24 308.01 424 307.29 424ZM302.73 440H308.09C308.89 440 309.53 439.76 310.01 439.28C310.49 438.773 310.73 438.12 310.73 437.32C310.73 436.52 310.49 435.88 310.01 435.4C309.53 434.893 308.89 434.64 308.09 434.64H302.73V440ZM326.114 426V429.56C326.487 428.307 327.221 427.333 328.314 426.64C329.434 425.947 330.701 425.6 332.114 425.6V432.4C330.621 432.16 329.247 432.413 327.994 433.16C326.741 433.88 326.114 435.147 326.114 436.96V446H320.114V426H326.114ZM353.893 438.4H339.693C340.359 440.267 341.959 441.2 344.493 441.2C346.119 441.2 347.399 440.693 348.333 439.68L353.133 442.44C351.186 445.187 348.279 446.56 344.413 446.56C341.079 446.56 338.386 445.56 336.333 443.56C334.333 441.56 333.333 439.04 333.333 436C333.333 433.013 334.319 430.507 336.293 428.48C338.293 426.453 340.853 425.44 343.973 425.44C346.879 425.44 349.293 426.453 351.213 428.48C353.159 430.453 354.133 432.96 354.133 436C354.133 436.853 354.053 437.653 353.893 438.4ZM339.573 433.92H348.173C347.586 431.813 346.173 430.76 343.933 430.76C341.613 430.76 340.159 431.813 339.573 433.92ZM376.901 438.4H362.701C363.367 440.267 364.967 441.2 367.501 441.2C369.127 441.2 370.407 440.693 371.341 439.68L376.141 442.44C374.194 445.187 371.287 446.56 367.421 446.56C364.087 446.56 361.394 445.56 359.341 443.56C357.341 441.56 356.341 439.04 356.341 436C356.341 433.013 357.327 430.507 359.301 428.48C361.301 426.453 363.861 425.44 366.981 425.44C369.887 425.44 372.301 426.453 374.221 428.48C376.167 430.453 377.141 432.96 377.141 436C377.141 436.853 377.061 437.653 376.901 438.4ZM362.581 433.92H371.181C370.594 431.813 369.181 430.76 366.941 430.76C364.621 430.76 363.167 431.813 362.581 433.92ZM394.868 427.88V418H400.868V446H394.868V444.12C393.482 445.747 391.495 446.56 388.908 446.56C386.268 446.56 384.015 445.547 382.148 443.52C380.282 441.493 379.348 438.987 379.348 436C379.348 433.04 380.282 430.547 382.148 428.52C384.042 426.467 386.295 425.44 388.908 425.44C391.495 425.44 393.482 426.253 394.868 427.88ZM385.348 436C385.348 437.493 385.788 438.68 386.668 439.56C387.548 440.44 388.695 440.88 390.108 440.88C391.522 440.88 392.668 440.44 393.548 439.56C394.428 438.68 394.868 437.493 394.868 436C394.868 434.507 394.428 433.32 393.548 432.44C392.668 431.56 391.522 431.12 390.108 431.12C388.695 431.12 387.548 431.56 386.668 432.44C385.788 433.32 385.348 434.507 385.348 436Z" fill="white"/>
<path opacity="0.5" d="M441.885 185.72V175H448.285V203H441.885V191.88H433.085V203H426.685V175H433.085V185.72H441.885ZM467.411 184.88V183H473.411V203H467.411V201.12C466.025 202.747 464.038 203.56 461.451 203.56C458.811 203.56 456.558 202.547 454.691 200.52C452.825 198.493 451.891 195.987 451.891 193C451.891 190.04 452.825 187.547 454.691 185.52C456.585 183.467 458.838 182.44 461.451 182.44C464.038 182.44 466.025 183.253 467.411 184.88ZM457.891 193C457.891 194.493 458.331 195.68 459.211 196.56C460.091 197.44 461.238 197.88 462.651 197.88C464.065 197.88 465.211 197.44 466.091 196.56C466.971 195.68 467.411 194.493 467.411 193C467.411 191.507 466.971 190.32 466.091 189.44C465.211 188.56 464.065 188.12 462.651 188.12C461.238 188.12 460.091 188.56 459.211 189.44C458.331 190.32 457.891 191.507 457.891 193ZM489.533 183V188.76H485.413V195.84C485.413 196.613 485.72 197.12 486.333 197.36C486.947 197.573 488.013 197.64 489.533 197.56V203C485.747 203.4 483.107 203.04 481.613 201.92C480.147 200.773 479.413 198.747 479.413 195.84V188.76H476.213V183H479.413V179.2L485.413 177.4V183H489.533ZM502.14 203.56C499.1 203.56 496.567 202.547 494.54 200.52C492.54 198.493 491.54 195.987 491.54 193C491.54 190.013 492.54 187.507 494.54 185.48C496.567 183.453 499.1 182.44 502.14 182.44C504.033 182.44 505.793 182.907 507.42 183.84C509.047 184.773 510.3 186.013 511.18 187.56L505.94 190.6C505.22 189.107 503.927 188.36 502.06 188.36C500.753 188.36 499.673 188.8 498.82 189.68C497.967 190.533 497.54 191.64 497.54 193C497.54 194.36 497.967 195.48 498.82 196.36C499.673 197.213 500.753 197.64 502.06 197.64C503.953 197.64 505.247 196.893 505.94 195.4L511.18 198.4C510.3 200 509.047 201.267 507.42 202.2C505.82 203.107 504.06 203.56 502.14 203.56ZM525.315 182.44C527.475 182.44 529.248 183.173 530.635 184.64C532.075 186.133 532.795 188.16 532.795 190.72V203H526.795V191.6C526.795 190.453 526.475 189.56 525.835 188.92C525.195 188.28 524.355 187.96 523.315 187.96C522.141 187.96 521.221 188.32 520.555 189.04C519.915 189.733 519.595 190.747 519.595 192.08V203H513.595V175H519.595V184.88C520.795 183.253 522.701 182.44 525.315 182.44ZM453.041 275V281.16H442.441V286.56H452.841V292.72H442.441V303H436.041V275H453.041ZM476.182 295.4H461.982C462.649 297.267 464.249 298.2 466.782 298.2C468.409 298.2 469.689 297.693 470.622 296.68L475.422 299.44C473.475 302.187 470.569 303.56 466.702 303.56C463.369 303.56 460.675 302.56 458.622 300.56C456.622 298.56 455.622 296.04 455.622 293C455.622 290.013 456.609 287.507 458.582 285.48C460.582 283.453 463.142 282.44 466.262 282.44C469.169 282.44 471.582 283.453 473.502 285.48C475.449 287.453 476.422 289.96 476.422 293C476.422 293.853 476.342 294.653 476.182 295.4ZM461.862 290.92H470.462C469.875 288.813 468.462 287.76 466.222 287.76C463.902 287.76 462.449 288.813 461.862 290.92ZM499.19 295.4H484.99C485.656 297.267 487.256 298.2 489.79 298.2C491.416 298.2 492.696 297.693 493.63 296.68L498.43 299.44C496.483 302.187 493.576 303.56 489.71 303.56C486.376 303.56 483.683 302.56 481.63 300.56C479.63 298.56 478.63 296.04 478.63 293C478.63 290.013 479.616 287.507 481.59 285.48C483.59 283.453 486.15 282.44 489.27 282.44C492.176 282.44 494.59 283.453 496.51 285.48C498.456 287.453 499.43 289.96 499.43 293C499.43 293.853 499.35 294.653 499.19 295.4ZM484.87 290.92H493.47C492.883 288.813 491.47 287.76 489.23 287.76C486.91 287.76 485.456 288.813 484.87 290.92ZM517.158 284.88V275H523.158V303H517.158V301.12C515.771 302.747 513.784 303.56 511.198 303.56C508.558 303.56 506.304 302.547 504.438 300.52C502.571 298.493 501.638 295.987 501.638 293C501.638 290.04 502.571 287.547 504.438 285.52C506.331 283.467 508.584 282.44 511.198 282.44C513.784 282.44 515.771 283.253 517.158 284.88ZM507.638 293C507.638 294.493 508.078 295.68 508.958 296.56C509.838 297.44 510.984 297.88 512.398 297.88C513.811 297.88 514.958 297.44 515.838 296.56C516.718 295.68 517.158 294.493 517.158 293C517.158 291.507 516.718 290.32 515.838 289.44C514.958 288.56 513.811 288.12 512.398 288.12C510.984 288.12 509.838 288.56 508.958 289.44C508.078 290.32 507.638 291.507 507.638 293ZM446.01 387.4H460.05V389.8C460.05 393.96 458.743 397.307 456.13 399.84C453.543 402.32 450.25 403.56 446.25 403.56C441.903 403.56 438.29 402.16 435.41 399.36C432.556 396.56 431.13 393.12 431.13 389.04C431.13 384.96 432.543 381.507 435.37 378.68C438.196 375.853 441.676 374.44 445.81 374.44C448.396 374.44 450.77 375.027 452.93 376.2C455.116 377.347 456.823 378.893 458.05 380.84L452.61 383.96C451.97 382.973 451.036 382.187 449.81 381.6C448.61 380.987 447.263 380.68 445.77 380.68C443.396 380.68 441.423 381.467 439.85 383.04C438.303 384.587 437.53 386.6 437.53 389.08C437.53 391.48 438.33 393.467 439.93 395.04C441.53 396.56 443.663 397.32 446.33 397.32C450.01 397.32 452.396 395.88 453.49 393H446.01V387.4ZM469.458 383V386.56C469.831 385.307 470.564 384.333 471.658 383.64C472.778 382.947 474.044 382.6 475.458 382.6V389.4C473.964 389.16 472.591 389.413 471.338 390.16C470.084 390.88 469.458 392.147 469.458 393.96V403H463.458V383H469.458ZM494.797 400.52C492.77 402.547 490.263 403.56 487.277 403.56C484.29 403.56 481.783 402.547 479.757 400.52C477.703 398.467 476.677 395.96 476.677 393C476.677 390.067 477.703 387.573 479.757 385.52C481.81 383.467 484.317 382.44 487.277 382.44C490.237 382.44 492.743 383.467 494.797 385.52C496.85 387.573 497.877 390.067 497.877 393C497.877 395.96 496.85 398.467 494.797 400.52ZM482.677 393C482.677 394.387 483.117 395.52 483.997 396.4C484.877 397.28 485.97 397.72 487.277 397.72C488.583 397.72 489.677 397.28 490.557 396.4C491.437 395.52 491.877 394.387 491.877 393C491.877 391.613 491.437 390.48 490.557 389.6C489.677 388.72 488.583 388.28 487.277 388.28C485.97 388.28 484.877 388.72 483.997 389.6C483.117 390.48 482.677 391.613 482.677 393ZM519.609 393.72L522.489 383H528.889L522.489 403H516.889L513.689 392.32L510.489 403H504.889L498.489 383H504.889L507.769 393.72L510.889 383H516.489L519.609 393.72ZM444.69 488.48C446.983 489.973 448.13 492.08 448.13 494.8C448.13 497.227 447.263 499.2 445.53 500.72C443.796 502.24 441.65 503 439.09 503H427.33V475H438.29C440.77 475 442.863 475.747 444.57 477.24C446.276 478.707 447.13 480.627 447.13 483C447.13 485.267 446.316 487.093 444.69 488.48ZM438.29 481H433.73V485.96H438.29C439.01 485.96 439.596 485.733 440.05 485.28C440.503 484.8 440.73 484.2 440.73 483.48C440.73 482.76 440.503 482.173 440.05 481.72C439.596 481.24 439.01 481 438.29 481ZM433.73 497H439.09C439.89 497 440.53 496.76 441.01 496.28C441.49 495.773 441.73 495.12 441.73 494.32C441.73 493.52 441.49 492.88 441.01 492.4C440.53 491.893 439.89 491.64 439.09 491.64H433.73V497ZM457.114 483V486.56C457.487 485.307 458.221 484.333 459.314 483.64C460.434 482.947 461.701 482.6 463.114 482.6V489.4C461.621 489.16 460.247 489.413 458.994 490.16C457.741 490.88 457.114 492.147 457.114 493.96V503H451.114V483H457.114ZM484.893 495.4H470.693C471.359 497.267 472.959 498.2 475.493 498.2C477.119 498.2 478.399 497.693 479.333 496.68L484.133 499.44C482.186 502.187 479.279 503.56 475.413 503.56C472.079 503.56 469.386 502.56 467.333 500.56C465.333 498.56 464.333 496.04 464.333 493C464.333 490.013 465.319 487.507 467.293 485.48C469.293 483.453 471.853 482.44 474.973 482.44C477.879 482.44 480.293 483.453 482.213 485.48C484.159 487.453 485.133 489.96 485.133 493C485.133 493.853 485.053 494.653 484.893 495.4ZM470.573 490.92H479.173C478.586 488.813 477.173 487.76 474.933 487.76C472.613 487.76 471.159 488.813 470.573 490.92ZM507.901 495.4H493.701C494.367 497.267 495.967 498.2 498.501 498.2C500.127 498.2 501.407 497.693 502.341 496.68L507.141 499.44C505.194 502.187 502.287 503.56 498.421 503.56C495.087 503.56 492.394 502.56 490.341 500.56C488.341 498.56 487.341 496.04 487.341 493C487.341 490.013 488.327 487.507 490.301 485.48C492.301 483.453 494.861 482.44 497.981 482.44C500.887 482.44 503.301 483.453 505.221 485.48C507.167 487.453 508.141 489.96 508.141 493C508.141 493.853 508.061 494.653 507.901 495.4ZM493.581 490.92H502.181C501.594 488.813 500.181 487.76 497.941 487.76C495.621 487.76 494.167 488.813 493.581 490.92ZM525.868 484.88V475H531.868V503H525.868V501.12C524.482 502.747 522.495 503.56 519.908 503.56C517.268 503.56 515.015 502.547 513.148 500.52C511.282 498.493 510.348 495.987 510.348 493C510.348 490.04 511.282 487.547 513.148 485.52C515.042 483.467 517.295 482.44 519.908 482.44C522.495 482.44 524.482 483.253 525.868 484.88ZM516.348 493C516.348 494.493 516.788 495.68 517.668 496.56C518.548 497.44 519.695 497.88 521.108 497.88C522.522 497.88 523.668 497.44 524.548 496.56C525.428 495.68 525.868 494.493 525.868 493C525.868 491.507 525.428 490.32 524.548 489.44C523.668 488.56 522.522 488.12 521.108 488.12C519.695 488.12 518.548 488.56 517.668 489.44C516.788 490.32 516.348 491.507 516.348 493Z" fill="white"/>
<path opacity="0.5" d="M572.885 142.72V132H579.285V160H572.885V148.88H564.085V160H557.685V132H564.085V142.72H572.885ZM598.411 141.88V140H604.411V160H598.411V158.12C597.025 159.747 595.038 160.56 592.451 160.56C589.811 160.56 587.558 159.547 585.691 157.52C583.825 155.493 582.891 152.987 582.891 150C582.891 147.04 583.825 144.547 585.691 142.52C587.585 140.467 589.838 139.44 592.451 139.44C595.038 139.44 597.025 140.253 598.411 141.88ZM588.891 150C588.891 151.493 589.331 152.68 590.211 153.56C591.091 154.44 592.238 154.88 593.651 154.88C595.065 154.88 596.211 154.44 597.091 153.56C597.971 152.68 598.411 151.493 598.411 150C598.411 148.507 597.971 147.32 597.091 146.44C596.211 145.56 595.065 145.12 593.651 145.12C592.238 145.12 591.091 145.56 590.211 146.44C589.331 147.32 588.891 148.507 588.891 150ZM620.533 140V145.76H616.413V152.84C616.413 153.613 616.72 154.12 617.333 154.36C617.947 154.573 619.013 154.64 620.533 154.56V160C616.747 160.4 614.107 160.04 612.613 158.92C611.147 157.773 610.413 155.747 610.413 152.84V145.76H607.213V140H610.413V136.2L616.413 134.4V140H620.533ZM633.14 160.56C630.1 160.56 627.567 159.547 625.54 157.52C623.54 155.493 622.54 152.987 622.54 150C622.54 147.013 623.54 144.507 625.54 142.48C627.567 140.453 630.1 139.44 633.14 139.44C635.033 139.44 636.793 139.907 638.42 140.84C640.047 141.773 641.3 143.013 642.18 144.56L636.94 147.6C636.22 146.107 634.927 145.36 633.06 145.36C631.753 145.36 630.673 145.8 629.82 146.68C628.967 147.533 628.54 148.64 628.54 150C628.54 151.36 628.967 152.48 629.82 153.36C630.673 154.213 631.753 154.64 633.06 154.64C634.953 154.64 636.247 153.893 636.94 152.4L642.18 155.4C641.3 157 640.047 158.267 638.42 159.2C636.82 160.107 635.06 160.56 633.14 160.56ZM656.315 139.44C658.475 139.44 660.248 140.173 661.635 141.64C663.075 143.133 663.795 145.16 663.795 147.72V160H657.795V148.6C657.795 147.453 657.475 146.56 656.835 145.92C656.195 145.28 655.355 144.96 654.315 144.96C653.141 144.96 652.221 145.32 651.555 146.04C650.915 146.733 650.595 147.747 650.595 149.08V160H644.595V132H650.595V141.88C651.795 140.253 653.701 139.44 656.315 139.44ZM584.041 232V238.16H573.441V243.56H583.841V249.72H573.441V260H567.041V232H584.041ZM607.182 252.4H592.982C593.649 254.267 595.249 255.2 597.782 255.2C599.409 255.2 600.689 254.693 601.622 253.68L606.422 256.44C604.475 259.187 601.569 260.56 597.702 260.56C594.369 260.56 591.675 259.56 589.622 257.56C587.622 255.56 586.622 253.04 586.622 250C586.622 247.013 587.609 244.507 589.582 242.48C591.582 240.453 594.142 239.44 597.262 239.44C600.169 239.44 602.582 240.453 604.502 242.48C606.449 244.453 607.422 246.96 607.422 250C607.422 250.853 607.342 251.653 607.182 252.4ZM592.862 247.92H601.462C600.875 245.813 599.462 244.76 597.222 244.76C594.902 244.76 593.449 245.813 592.862 247.92ZM630.19 252.4H615.99C616.656 254.267 618.256 255.2 620.79 255.2C622.416 255.2 623.696 254.693 624.63 253.68L629.43 256.44C627.483 259.187 624.576 260.56 620.71 260.56C617.376 260.56 614.683 259.56 612.63 257.56C610.63 255.56 609.63 253.04 609.63 250C609.63 247.013 610.616 244.507 612.59 242.48C614.59 240.453 617.15 239.44 620.27 239.44C623.176 239.44 625.59 240.453 627.51 242.48C629.456 244.453 630.43 246.96 630.43 250C630.43 250.853 630.35 251.653 630.19 252.4ZM615.87 247.92H624.47C623.883 245.813 622.47 244.76 620.23 244.76C617.91 244.76 616.456 245.813 615.87 247.92ZM648.158 241.88V232H654.158V260H648.158V258.12C646.771 259.747 644.784 260.56 642.198 260.56C639.558 260.56 637.304 259.547 635.438 257.52C633.571 255.493 632.638 252.987 632.638 250C632.638 247.04 633.571 244.547 635.438 242.52C637.331 240.467 639.584 239.44 642.198 239.44C644.784 239.44 646.771 240.253 648.158 241.88ZM638.638 250C638.638 251.493 639.078 252.68 639.958 253.56C640.838 254.44 641.984 254.88 643.398 254.88C644.811 254.88 645.958 254.44 646.838 253.56C647.718 252.68 648.158 251.493 648.158 250C648.158 248.507 647.718 247.32 646.838 246.44C645.958 245.56 644.811 245.12 643.398 245.12C641.984 245.12 640.838 245.56 639.958 246.44C639.078 247.32 638.638 248.507 638.638 250ZM577.01 344.4H591.05V346.8C591.05 350.96 589.743 354.307 587.13 356.84C584.543 359.32 581.25 360.56 577.25 360.56C572.903 360.56 569.29 359.16 566.41 356.36C563.556 353.56 562.13 350.12 562.13 346.04C562.13 341.96 563.543 338.507 566.37 335.68C569.196 332.853 572.676 331.44 576.81 331.44C579.396 331.44 581.77 332.027 583.93 333.2C586.116 334.347 587.823 335.893 589.05 337.84L583.61 340.96C582.97 339.973 582.036 339.187 580.81 338.6C579.61 337.987 578.263 337.68 576.77 337.68C574.396 337.68 572.423 338.467 570.85 340.04C569.303 341.587 568.53 343.6 568.53 346.08C568.53 348.48 569.33 350.467 570.93 352.04C572.53 353.56 574.663 354.32 577.33 354.32C581.01 354.32 583.396 352.88 584.49 350H577.01V344.4ZM600.458 340V343.56C600.831 342.307 601.564 341.333 602.658 340.64C603.778 339.947 605.044 339.6 606.458 339.6V346.4C604.964 346.16 603.591 346.413 602.338 347.16C601.084 347.88 600.458 349.147 600.458 350.96V360H594.458V340H600.458ZM625.797 357.52C623.77 359.547 621.263 360.56 618.277 360.56C615.29 360.56 612.783 359.547 610.757 357.52C608.703 355.467 607.677 352.96 607.677 350C607.677 347.067 608.703 344.573 610.757 342.52C612.81 340.467 615.317 339.44 618.277 339.44C621.237 339.44 623.743 340.467 625.797 342.52C627.85 344.573 628.877 347.067 628.877 350C628.877 352.96 627.85 355.467 625.797 357.52ZM613.677 350C613.677 351.387 614.117 352.52 614.997 353.4C615.877 354.28 616.97 354.72 618.277 354.72C619.583 354.72 620.677 354.28 621.557 353.4C622.437 352.52 622.877 351.387 622.877 350C622.877 348.613 622.437 347.48 621.557 346.6C620.677 345.72 619.583 345.28 618.277 345.28C616.97 345.28 615.877 345.72 614.997 346.6C614.117 347.48 613.677 348.613 613.677 350ZM650.609 350.72L653.489 340H659.889L653.489 360H647.889L644.689 349.32L641.489 360H635.889L629.489 340H635.889L638.769 350.72L641.889 340H647.489L650.609 350.72ZM575.69 445.48C577.983 446.973 579.13 449.08 579.13 451.8C579.13 454.227 578.263 456.2 576.53 457.72C574.796 459.24 572.65 460 570.09 460H558.33V432H569.29C571.77 432 573.863 432.747 575.57 434.24C577.276 435.707 578.13 437.627 578.13 440C578.13 442.267 577.316 444.093 575.69 445.48ZM569.29 438H564.73V442.96H569.29C570.01 442.96 570.596 442.733 571.05 442.28C571.503 441.8 571.73 441.2 571.73 440.48C571.73 439.76 571.503 439.173 571.05 438.72C570.596 438.24 570.01 438 569.29 438ZM564.73 454H570.09C570.89 454 571.53 453.76 572.01 453.28C572.49 452.773 572.73 452.12 572.73 451.32C572.73 450.52 572.49 449.88 572.01 449.4C571.53 448.893 570.89 448.64 570.09 448.64H564.73V454ZM588.114 440V443.56C588.487 442.307 589.221 441.333 590.314 440.64C591.434 439.947 592.701 439.6 594.114 439.6V446.4C592.621 446.16 591.247 446.413 589.994 447.16C588.741 447.88 588.114 449.147 588.114 450.96V460H582.114V440H588.114ZM615.893 452.4H601.693C602.359 454.267 603.959 455.2 606.493 455.2C608.119 455.2 609.399 454.693 610.333 453.68L615.133 456.44C613.186 459.187 610.279 460.56 606.413 460.56C603.079 460.56 600.386 459.56 598.333 457.56C596.333 455.56 595.333 453.04 595.333 450C595.333 447.013 596.319 444.507 598.293 442.48C600.293 440.453 602.853 439.44 605.973 439.44C608.879 439.44 611.293 440.453 613.213 442.48C615.159 444.453 616.133 446.96 616.133 450C616.133 450.853 616.053 451.653 615.893 452.4ZM601.573 447.92H610.173C609.586 445.813 608.173 444.76 605.933 444.76C603.613 444.76 602.159 445.813 601.573 447.92ZM638.901 452.4H624.701C625.367 454.267 626.967 455.2 629.501 455.2C631.127 455.2 632.407 454.693 633.341 453.68L638.141 456.44C636.194 459.187 633.287 460.56 629.421 460.56C626.087 460.56 623.394 459.56 621.341 457.56C619.341 455.56 618.341 453.04 618.341 450C618.341 447.013 619.327 444.507 621.301 442.48C623.301 440.453 625.861 439.44 628.981 439.44C631.887 439.44 634.301 440.453 636.221 442.48C638.167 444.453 639.141 446.96 639.141 450C639.141 450.853 639.061 451.653 638.901 452.4ZM624.581 447.92H633.181C632.594 445.813 631.181 444.76 628.941 444.76C626.621 444.76 625.167 445.813 624.581 447.92ZM656.868 441.88V432H662.868V460H656.868V458.12C655.482 459.747 653.495 460.56 650.908 460.56C648.268 460.56 646.015 459.547 644.148 457.52C642.282 455.493 641.348 452.987 641.348 450C641.348 447.04 642.282 444.547 644.148 442.52C646.042 440.467 648.295 439.44 650.908 439.44C653.495 439.44 655.482 440.253 656.868 441.88ZM647.348 450C647.348 451.493 647.788 452.68 648.668 453.56C649.548 454.44 650.695 454.88 652.108 454.88C653.522 454.88 654.668 454.44 655.548 453.56C656.428 452.68 656.868 451.493 656.868 450C656.868 448.507 656.428 447.32 655.548 446.44C654.668 445.56 653.522 445.12 652.108 445.12C650.695 445.12 649.548 445.56 648.668 446.44C647.788 447.32 647.348 448.507 647.348 450Z" fill="white"/>
<path opacity="0.5" d="M703.885 88.72V78H710.285V106H703.885V94.88H695.085V106H688.685V78H695.085V88.72H703.885ZM729.411 87.88V86H735.411V106H729.411V104.12C728.025 105.747 726.038 106.56 723.451 106.56C720.811 106.56 718.558 105.547 716.691 103.52C714.825 101.493 713.891 98.9867 713.891 96C713.891 93.04 714.825 90.5467 716.691 88.52C718.585 86.4667 720.838 85.44 723.451 85.44C726.038 85.44 728.025 86.2533 729.411 87.88ZM719.891 96C719.891 97.4933 720.331 98.68 721.211 99.56C722.091 100.44 723.238 100.88 724.651 100.88C726.065 100.88 727.211 100.44 728.091 99.56C728.971 98.68 729.411 97.4933 729.411 96C729.411 94.5067 728.971 93.32 728.091 92.44C727.211 91.56 726.065 91.12 724.651 91.12C723.238 91.12 722.091 91.56 721.211 92.44C720.331 93.32 719.891 94.5067 719.891 96ZM751.533 86V91.76H747.413V98.84C747.413 99.6133 747.72 100.12 748.333 100.36C748.947 100.573 750.013 100.64 751.533 100.56V106C747.747 106.4 745.107 106.04 743.613 104.92C742.147 103.773 741.413 101.747 741.413 98.84V91.76H738.213V86H741.413V82.2L747.413 80.4V86H751.533ZM764.14 106.56C761.1 106.56 758.567 105.547 756.54 103.52C754.54 101.493 753.54 98.9867 753.54 96C753.54 93.0133 754.54 90.5067 756.54 88.48C758.567 86.4533 761.1 85.44 764.14 85.44C766.033 85.44 767.793 85.9067 769.42 86.84C771.047 87.7733 772.3 89.0133 773.18 90.56L767.94 93.6C767.22 92.1067 765.927 91.36 764.06 91.36C762.753 91.36 761.673 91.8 760.82 92.68C759.967 93.5333 759.54 94.64 759.54 96C759.54 97.36 759.967 98.48 760.82 99.36C761.673 100.213 762.753 100.64 764.06 100.64C765.953 100.64 767.247 99.8933 767.94 98.4L773.18 101.4C772.3 103 771.047 104.267 769.42 105.2C767.82 106.107 766.06 106.56 764.14 106.56ZM787.315 85.44C789.475 85.44 791.248 86.1733 792.635 87.64C794.075 89.1333 794.795 91.16 794.795 93.72V106H788.795V94.6C788.795 93.4533 788.475 92.56 787.835 91.92C787.195 91.28 786.355 90.96 785.315 90.96C784.141 90.96 783.221 91.32 782.555 92.04C781.915 92.7333 781.595 93.7467 781.595 95.08V106H775.595V78H781.595V87.88C782.795 86.2533 784.701 85.44 787.315 85.44ZM715.041 178V184.16H704.441V189.56H714.841V195.72H704.441V206H698.041V178H715.041ZM738.182 198.4H723.982C724.649 200.267 726.249 201.2 728.782 201.2C730.409 201.2 731.689 200.693 732.622 199.68L737.422 202.44C735.475 205.187 732.569 206.56 728.702 206.56C725.369 206.56 722.675 205.56 720.622 203.56C718.622 201.56 717.622 199.04 717.622 196C717.622 193.013 718.609 190.507 720.582 188.48C722.582 186.453 725.142 185.44 728.262 185.44C731.169 185.44 733.582 186.453 735.502 188.48C737.449 190.453 738.422 192.96 738.422 196C738.422 196.853 738.342 197.653 738.182 198.4ZM723.862 193.92H732.462C731.875 191.813 730.462 190.76 728.222 190.76C725.902 190.76 724.449 191.813 723.862 193.92ZM761.19 198.4H746.99C747.656 200.267 749.256 201.2 751.79 201.2C753.416 201.2 754.696 200.693 755.63 199.68L760.43 202.44C758.483 205.187 755.576 206.56 751.71 206.56C748.376 206.56 745.683 205.56 743.63 203.56C741.63 201.56 740.63 199.04 740.63 196C740.63 193.013 741.616 190.507 743.59 188.48C745.59 186.453 748.15 185.44 751.27 185.44C754.176 185.44 756.59 186.453 758.51 188.48C760.456 190.453 761.43 192.96 761.43 196C761.43 196.853 761.35 197.653 761.19 198.4ZM746.87 193.92H755.47C754.883 191.813 753.47 190.76 751.23 190.76C748.91 190.76 747.456 191.813 746.87 193.92ZM779.158 187.88V178H785.158V206H779.158V204.12C777.771 205.747 775.784 206.56 773.198 206.56C770.558 206.56 768.304 205.547 766.438 203.52C764.571 201.493 763.638 198.987 763.638 196C763.638 193.04 764.571 190.547 766.438 188.52C768.331 186.467 770.584 185.44 773.198 185.44C775.784 185.44 777.771 186.253 779.158 187.88ZM769.638 196C769.638 197.493 770.078 198.68 770.958 199.56C771.838 200.44 772.984 200.88 774.398 200.88C775.811 200.88 776.958 200.44 777.838 199.56C778.718 198.68 779.158 197.493 779.158 196C779.158 194.507 778.718 193.32 777.838 192.44C776.958 191.56 775.811 191.12 774.398 191.12C772.984 191.12 771.838 191.56 770.958 192.44C770.078 193.32 769.638 194.507 769.638 196ZM708.01 290.4H722.05V292.8C722.05 296.96 720.743 300.307 718.13 302.84C715.543 305.32 712.25 306.56 708.25 306.56C703.903 306.56 700.29 305.16 697.41 302.36C694.556 299.56 693.13 296.12 693.13 292.04C693.13 287.96 694.543 284.507 697.37 281.68C700.196 278.853 703.676 277.44 707.81 277.44C710.396 277.44 712.77 278.027 714.93 279.2C717.116 280.347 718.823 281.893 720.05 283.84L714.61 286.96C713.97 285.973 713.036 285.187 711.81 284.6C710.61 283.987 709.263 283.68 707.77 283.68C705.396 283.68 703.423 284.467 701.85 286.04C700.303 287.587 699.53 289.6 699.53 292.08C699.53 294.48 700.33 296.467 701.93 298.04C703.53 299.56 705.663 300.32 708.33 300.32C712.01 300.32 714.396 298.88 715.49 296H708.01V290.4ZM731.458 286V289.56C731.831 288.307 732.564 287.333 733.658 286.64C734.778 285.947 736.044 285.6 737.458 285.6V292.4C735.964 292.16 734.591 292.413 733.338 293.16C732.084 293.88 731.458 295.147 731.458 296.96V306H725.458V286H731.458ZM756.797 303.52C754.77 305.547 752.263 306.56 749.277 306.56C746.29 306.56 743.783 305.547 741.757 303.52C739.703 301.467 738.677 298.96 738.677 296C738.677 293.067 739.703 290.573 741.757 288.52C743.81 286.467 746.317 285.44 749.277 285.44C752.237 285.44 754.743 286.467 756.797 288.52C758.85 290.573 759.877 293.067 759.877 296C759.877 298.96 758.85 301.467 756.797 303.52ZM744.677 296C744.677 297.387 745.117 298.52 745.997 299.4C746.877 300.28 747.97 300.72 749.277 300.72C750.583 300.72 751.677 300.28 752.557 299.4C753.437 298.52 753.877 297.387 753.877 296C753.877 294.613 753.437 293.48 752.557 292.6C751.677 291.72 750.583 291.28 749.277 291.28C747.97 291.28 746.877 291.72 745.997 292.6C745.117 293.48 744.677 294.613 744.677 296ZM781.609 296.72L784.489 286H790.889L784.489 306H778.889L775.689 295.32L772.489 306H766.889L760.489 286H766.889L769.769 296.72L772.889 286H778.489L781.609 296.72ZM706.69 391.48C708.983 392.973 710.13 395.08 710.13 397.8C710.13 400.227 709.263 402.2 707.53 403.72C705.796 405.24 703.65 406 701.09 406H689.33V378H700.29C702.77 378 704.863 378.747 706.57 380.24C708.276 381.707 709.13 383.627 709.13 386C709.13 388.267 708.316 390.093 706.69 391.48ZM700.29 384H695.73V388.96H700.29C701.01 388.96 701.596 388.733 702.05 388.28C702.503 387.8 702.73 387.2 702.73 386.48C702.73 385.76 702.503 385.173 702.05 384.72C701.596 384.24 701.01 384 700.29 384ZM695.73 400H701.09C701.89 400 702.53 399.76 703.01 399.28C703.49 398.773 703.73 398.12 703.73 397.32C703.73 396.52 703.49 395.88 703.01 395.4C702.53 394.893 701.89 394.64 701.09 394.64H695.73V400ZM719.114 386V389.56C719.487 388.307 720.221 387.333 721.314 386.64C722.434 385.947 723.701 385.6 725.114 385.6V392.4C723.621 392.16 722.247 392.413 720.994 393.16C719.741 393.88 719.114 395.147 719.114 396.96V406H713.114V386H719.114ZM746.893 398.4H732.693C733.359 400.267 734.959 401.2 737.493 401.2C739.119 401.2 740.399 400.693 741.333 399.68L746.133 402.44C744.186 405.187 741.279 406.56 737.413 406.56C734.079 406.56 731.386 405.56 729.333 403.56C727.333 401.56 726.333 399.04 726.333 396C726.333 393.013 727.319 390.507 729.293 388.48C731.293 386.453 733.853 385.44 736.973 385.44C739.879 385.44 742.293 386.453 744.213 388.48C746.159 390.453 747.133 392.96 747.133 396C747.133 396.853 747.053 397.653 746.893 398.4ZM732.573 393.92H741.173C740.586 391.813 739.173 390.76 736.933 390.76C734.613 390.76 733.159 391.813 732.573 393.92ZM769.901 398.4H755.701C756.367 400.267 757.967 401.2 760.501 401.2C762.127 401.2 763.407 400.693 764.341 399.68L769.141 402.44C767.194 405.187 764.287 406.56 760.421 406.56C757.087 406.56 754.394 405.56 752.341 403.56C750.341 401.56 749.341 399.04 749.341 396C749.341 393.013 750.327 390.507 752.301 388.48C754.301 386.453 756.861 385.44 759.981 385.44C762.887 385.44 765.301 386.453 767.221 388.48C769.167 390.453 770.141 392.96 770.141 396C770.141 396.853 770.061 397.653 769.901 398.4ZM755.581 393.92H764.181C763.594 391.813 762.181 390.76 759.941 390.76C757.621 390.76 756.167 391.813 755.581 393.92ZM787.868 387.88V378H793.868V406H787.868V404.12C786.482 405.747 784.495 406.56 781.908 406.56C779.268 406.56 777.015 405.547 775.148 403.52C773.282 401.493 772.348 398.987 772.348 396C772.348 393.04 773.282 390.547 775.148 388.52C777.042 386.467 779.295 385.44 781.908 385.44C784.495 385.44 786.482 386.253 787.868 387.88ZM778.348 396C778.348 397.493 778.788 398.68 779.668 399.56C780.548 400.44 781.695 400.88 783.108 400.88C784.522 400.88 785.668 400.44 786.548 399.56C787.428 398.68 787.868 397.493 787.868 396C787.868 394.507 787.428 393.32 786.548 392.44C785.668 391.56 784.522 391.12 783.108 391.12C781.695 391.12 780.548 391.56 779.668 392.44C778.788 393.32 778.348 394.507 778.348 396Z" fill="white"/>
<path opacity="0.5" d="M834.885 42.72V32H841.285V60H834.885V48.88H826.085V60H819.685V32H826.085V42.72H834.885ZM860.411 41.88V40H866.411V60H860.411V58.12C859.025 59.7467 857.038 60.56 854.451 60.56C851.811 60.56 849.558 59.5467 847.691 57.52C845.825 55.4933 844.891 52.9867 844.891 50C844.891 47.04 845.825 44.5467 847.691 42.52C849.585 40.4667 851.838 39.44 854.451 39.44C857.038 39.44 859.025 40.2533 860.411 41.88ZM850.891 50C850.891 51.4933 851.331 52.68 852.211 53.56C853.091 54.44 854.238 54.88 855.651 54.88C857.065 54.88 858.211 54.44 859.091 53.56C859.971 52.68 860.411 51.4933 860.411 50C860.411 48.5067 859.971 47.32 859.091 46.44C858.211 45.56 857.065 45.12 855.651 45.12C854.238 45.12 853.091 45.56 852.211 46.44C851.331 47.32 850.891 48.5067 850.891 50ZM882.533 40V45.76H878.413V52.84C878.413 53.6133 878.72 54.12 879.333 54.36C879.947 54.5733 881.013 54.64 882.533 54.56V60C878.747 60.4 876.107 60.04 874.613 58.92C873.147 57.7733 872.413 55.7467 872.413 52.84V45.76H869.213V40H872.413V36.2L878.413 34.4V40H882.533ZM895.14 60.56C892.1 60.56 889.567 59.5467 887.54 57.52C885.54 55.4933 884.54 52.9867 884.54 50C884.54 47.0133 885.54 44.5067 887.54 42.48C889.567 40.4533 892.1 39.44 895.14 39.44C897.033 39.44 898.793 39.9067 900.42 40.84C902.047 41.7733 903.3 43.0133 904.18 44.56L898.94 47.6C898.22 46.1067 896.927 45.36 895.06 45.36C893.753 45.36 892.673 45.8 891.82 46.68C890.967 47.5333 890.54 48.64 890.54 50C890.54 51.36 890.967 52.48 891.82 53.36C892.673 54.2133 893.753 54.64 895.06 54.64C896.953 54.64 898.247 53.8933 898.94 52.4L904.18 55.4C903.3 57 902.047 58.2667 900.42 59.2C898.82 60.1067 897.06 60.56 895.14 60.56ZM918.315 39.44C920.475 39.44 922.248 40.1733 923.635 41.64C925.075 43.1333 925.795 45.16 925.795 47.72V60H919.795V48.6C919.795 47.4533 919.475 46.56 918.835 45.92C918.195 45.28 917.355 44.96 916.315 44.96C915.141 44.96 914.221 45.32 913.555 46.04C912.915 46.7333 912.595 47.7467 912.595 49.08V60H906.595V32H912.595V41.88C913.795 40.2533 915.701 39.44 918.315 39.44ZM846.041 132V138.16H835.441V143.56H845.841V149.72H835.441V160H829.041V132H846.041ZM869.182 152.4H854.982C855.649 154.267 857.249 155.2 859.782 155.2C861.409 155.2 862.689 154.693 863.622 153.68L868.422 156.44C866.475 159.187 863.569 160.56 859.702 160.56C856.369 160.56 853.675 159.56 851.622 157.56C849.622 155.56 848.622 153.04 848.622 150C848.622 147.013 849.609 144.507 851.582 142.48C853.582 140.453 856.142 139.44 859.262 139.44C862.169 139.44 864.582 140.453 866.502 142.48C868.449 144.453 869.422 146.96 869.422 150C869.422 150.853 869.342 151.653 869.182 152.4ZM854.862 147.92H863.462C862.875 145.813 861.462 144.76 859.222 144.76C856.902 144.76 855.449 145.813 854.862 147.92ZM892.19 152.4H877.99C878.656 154.267 880.256 155.2 882.79 155.2C884.416 155.2 885.696 154.693 886.63 153.68L891.43 156.44C889.483 159.187 886.576 160.56 882.71 160.56C879.376 160.56 876.683 159.56 874.63 157.56C872.63 155.56 871.63 153.04 871.63 150C871.63 147.013 872.616 144.507 874.59 142.48C876.59 140.453 879.15 139.44 882.27 139.44C885.176 139.44 887.59 140.453 889.51 142.48C891.456 144.453 892.43 146.96 892.43 150C892.43 150.853 892.35 151.653 892.19 152.4ZM877.87 147.92H886.47C885.883 145.813 884.47 144.76 882.23 144.76C879.91 144.76 878.456 145.813 877.87 147.92ZM910.158 141.88V132H916.158V160H910.158V158.12C908.771 159.747 906.784 160.56 904.198 160.56C901.558 160.56 899.304 159.547 897.438 157.52C895.571 155.493 894.638 152.987 894.638 150C894.638 147.04 895.571 144.547 897.438 142.52C899.331 140.467 901.584 139.44 904.198 139.44C906.784 139.44 908.771 140.253 910.158 141.88ZM900.638 150C900.638 151.493 901.078 152.68 901.958 153.56C902.838 154.44 903.984 154.88 905.398 154.88C906.811 154.88 907.958 154.44 908.838 153.56C909.718 152.68 910.158 151.493 910.158 150C910.158 148.507 909.718 147.32 908.838 146.44C907.958 145.56 906.811 145.12 905.398 145.12C903.984 145.12 902.838 145.56 901.958 146.44C901.078 147.32 900.638 148.507 900.638 150ZM839.01 244.4H853.05V246.8C853.05 250.96 851.743 254.307 849.13 256.84C846.543 259.32 843.25 260.56 839.25 260.56C834.903 260.56 831.29 259.16 828.41 256.36C825.556 253.56 824.13 250.12 824.13 246.04C824.13 241.96 825.543 238.507 828.37 235.68C831.196 232.853 834.676 231.44 838.81 231.44C841.396 231.44 843.77 232.027 845.93 233.2C848.116 234.347 849.823 235.893 851.05 237.84L845.61 240.96C844.97 239.973 844.036 239.187 842.81 238.6C841.61 237.987 840.263 237.68 838.77 237.68C836.396 237.68 834.423 238.467 832.85 240.04C831.303 241.587 830.53 243.6 830.53 246.08C830.53 248.48 831.33 250.467 832.93 252.04C834.53 253.56 836.663 254.32 839.33 254.32C843.01 254.32 845.396 252.88 846.49 250H839.01V244.4ZM862.458 240V243.56C862.831 242.307 863.564 241.333 864.658 240.64C865.778 239.947 867.044 239.6 868.458 239.6V246.4C866.964 246.16 865.591 246.413 864.338 247.16C863.084 247.88 862.458 249.147 862.458 250.96V260H856.458V240H862.458ZM887.797 257.52C885.77 259.547 883.263 260.56 880.277 260.56C877.29 260.56 874.783 259.547 872.757 257.52C870.703 255.467 869.677 252.96 869.677 250C869.677 247.067 870.703 244.573 872.757 242.52C874.81 240.467 877.317 239.44 880.277 239.44C883.237 239.44 885.743 240.467 887.797 242.52C889.85 244.573 890.877 247.067 890.877 250C890.877 252.96 889.85 255.467 887.797 257.52ZM875.677 250C875.677 251.387 876.117 252.52 876.997 253.4C877.877 254.28 878.97 254.72 880.277 254.72C881.583 254.72 882.677 254.28 883.557 253.4C884.437 252.52 884.877 251.387 884.877 250C884.877 248.613 884.437 247.48 883.557 246.6C882.677 245.72 881.583 245.28 880.277 245.28C878.97 245.28 877.877 245.72 876.997 246.6C876.117 247.48 875.677 248.613 875.677 250ZM912.609 250.72L915.489 240H921.889L915.489 260H909.889L906.689 249.32L903.489 260H897.889L891.489 240H897.889L900.769 250.72L903.889 240H909.489L912.609 250.72ZM837.69 345.48C839.983 346.973 841.13 349.08 841.13 351.8C841.13 354.227 840.263 356.2 838.53 357.72C836.796 359.24 834.65 360 832.09 360H820.33V332H831.29C833.77 332 835.863 332.747 837.57 334.24C839.276 335.707 840.13 337.627 840.13 340C840.13 342.267 839.316 344.093 837.69 345.48ZM831.29 338H826.73V342.96H831.29C832.01 342.96 832.596 342.733 833.05 342.28C833.503 341.8 833.73 341.2 833.73 340.48C833.73 339.76 833.503 339.173 833.05 338.72C832.596 338.24 832.01 338 831.29 338ZM826.73 354H832.09C832.89 354 833.53 353.76 834.01 353.28C834.49 352.773 834.73 352.12 834.73 351.32C834.73 350.52 834.49 349.88 834.01 349.4C833.53 348.893 832.89 348.64 832.09 348.64H826.73V354ZM850.114 340V343.56C850.487 342.307 851.221 341.333 852.314 340.64C853.434 339.947 854.701 339.6 856.114 339.6V346.4C854.621 346.16 853.247 346.413 851.994 347.16C850.741 347.88 850.114 349.147 850.114 350.96V360H844.114V340H850.114ZM877.893 352.4H863.693C864.359 354.267 865.959 355.2 868.493 355.2C870.119 355.2 871.399 354.693 872.333 353.68L877.133 356.44C875.186 359.187 872.279 360.56 868.413 360.56C865.079 360.56 862.386 359.56 860.333 357.56C858.333 355.56 857.333 353.04 857.333 350C857.333 347.013 858.319 344.507 860.293 342.48C862.293 340.453 864.853 339.44 867.973 339.44C870.879 339.44 873.293 340.453 875.213 342.48C877.159 344.453 878.133 346.96 878.133 350C878.133 350.853 878.053 351.653 877.893 352.4ZM863.573 347.92H872.173C871.586 345.813 870.173 344.76 867.933 344.76C865.613 344.76 864.159 345.813 863.573 347.92ZM900.901 352.4H886.701C887.367 354.267 888.967 355.2 891.501 355.2C893.127 355.2 894.407 354.693 895.341 353.68L900.141 356.44C898.194 359.187 895.287 360.56 891.421 360.56C888.087 360.56 885.394 359.56 883.341 357.56C881.341 355.56 880.341 353.04 880.341 350C880.341 347.013 881.327 344.507 883.301 342.48C885.301 340.453 887.861 339.44 890.981 339.44C893.887 339.44 896.301 340.453 898.221 342.48C900.167 344.453 901.141 346.96 901.141 350C901.141 350.853 901.061 351.653 900.901 352.4ZM886.581 347.92H895.181C894.594 345.813 893.181 344.76 890.941 344.76C888.621 344.76 887.167 345.813 886.581 347.92ZM918.868 341.88V332H924.868V360H918.868V358.12C917.482 359.747 915.495 360.56 912.908 360.56C910.268 360.56 908.015 359.547 906.148 357.52C904.282 355.493 903.348 352.987 903.348 350C903.348 347.04 904.282 344.547 906.148 342.52C908.042 340.467 910.295 339.44 912.908 339.44C915.495 339.44 917.482 340.253 918.868 341.88ZM909.348 350C909.348 351.493 909.788 352.68 910.668 353.56C911.548 354.44 912.695 354.88 914.108 354.88C915.522 354.88 916.668 354.44 917.548 353.56C918.428 352.68 918.868 351.493 918.868 350C918.868 348.507 918.428 347.32 917.548 346.44C916.668 345.56 915.522 345.12 914.108 345.12C912.695 345.12 911.548 345.56 910.668 346.44C909.788 347.32 909.348 348.507 909.348 350Z" fill="white"/>
<path opacity="0.5" d="M965.885 88.72V78H972.285V106H965.885V94.88H957.085V106H950.685V78H957.085V88.72H965.885ZM991.411 87.88V86H997.411V106H991.411V104.12C990.025 105.747 988.038 106.56 985.451 106.56C982.811 106.56 980.558 105.547 978.691 103.52C976.825 101.493 975.891 98.9867 975.891 96C975.891 93.04 976.825 90.5467 978.691 88.52C980.585 86.4667 982.838 85.44 985.451 85.44C988.038 85.44 990.025 86.2533 991.411 87.88ZM981.891 96C981.891 97.4933 982.331 98.68 983.211 99.56C984.091 100.44 985.238 100.88 986.651 100.88C988.065 100.88 989.211 100.44 990.091 99.56C990.971 98.68 991.411 97.4933 991.411 96C991.411 94.5067 990.971 93.32 990.091 92.44C989.211 91.56 988.065 91.12 986.651 91.12C985.238 91.12 984.091 91.56 983.211 92.44C982.331 93.32 981.891 94.5067 981.891 96ZM1013.53 86V91.76H1009.41V98.84C1009.41 99.6133 1009.72 100.12 1010.33 100.36C1010.95 100.573 1012.01 100.64 1013.53 100.56V106C1009.75 106.4 1007.11 106.04 1005.61 104.92C1004.15 103.773 1003.41 101.747 1003.41 98.84V91.76H1000.21V86H1003.41V82.2L1009.41 80.4V86H1013.53ZM1026.14 106.56C1023.1 106.56 1020.57 105.547 1018.54 103.52C1016.54 101.493 1015.54 98.9867 1015.54 96C1015.54 93.0133 1016.54 90.5067 1018.54 88.48C1020.57 86.4533 1023.1 85.44 1026.14 85.44C1028.03 85.44 1029.79 85.9067 1031.42 86.84C1033.05 87.7733 1034.3 89.0133 1035.18 90.56L1029.94 93.6C1029.22 92.1067 1027.93 91.36 1026.06 91.36C1024.75 91.36 1023.67 91.8 1022.82 92.68C1021.97 93.5333 1021.54 94.64 1021.54 96C1021.54 97.36 1021.97 98.48 1022.82 99.36C1023.67 100.213 1024.75 100.64 1026.06 100.64C1027.95 100.64 1029.25 99.8933 1029.94 98.4L1035.18 101.4C1034.3 103 1033.05 104.267 1031.42 105.2C1029.82 106.107 1028.06 106.56 1026.14 106.56ZM1049.31 85.44C1051.47 85.44 1053.25 86.1733 1054.63 87.64C1056.07 89.1333 1056.79 91.16 1056.79 93.72V106H1050.79V94.6C1050.79 93.4533 1050.47 92.56 1049.83 91.92C1049.19 91.28 1048.35 90.96 1047.31 90.96C1046.14 90.96 1045.22 91.32 1044.55 92.04C1043.91 92.7333 1043.59 93.7467 1043.59 95.08V106H1037.59V78H1043.59V87.88C1044.79 86.2533 1046.7 85.44 1049.31 85.44ZM977.041 178V184.16H966.441V189.56H976.841V195.72H966.441V206H960.041V178H977.041ZM1000.18 198.4H985.982C986.649 200.267 988.249 201.2 990.782 201.2C992.409 201.2 993.689 200.693 994.622 199.68L999.422 202.44C997.475 205.187 994.569 206.56 990.702 206.56C987.369 206.56 984.675 205.56 982.622 203.56C980.622 201.56 979.622 199.04 979.622 196C979.622 193.013 980.609 190.507 982.582 188.48C984.582 186.453 987.142 185.44 990.262 185.44C993.169 185.44 995.582 186.453 997.502 188.48C999.449 190.453 1000.42 192.96 1000.42 196C1000.42 196.853 1000.34 197.653 1000.18 198.4ZM985.862 193.92H994.462C993.875 191.813 992.462 190.76 990.222 190.76C987.902 190.76 986.449 191.813 985.862 193.92ZM1023.19 198.4H1008.99C1009.66 200.267 1011.26 201.2 1013.79 201.2C1015.42 201.2 1016.7 200.693 1017.63 199.68L1022.43 202.44C1020.48 205.187 1017.58 206.56 1013.71 206.56C1010.38 206.56 1007.68 205.56 1005.63 203.56C1003.63 201.56 1002.63 199.04 1002.63 196C1002.63 193.013 1003.62 190.507 1005.59 188.48C1007.59 186.453 1010.15 185.44 1013.27 185.44C1016.18 185.44 1018.59 186.453 1020.51 188.48C1022.46 190.453 1023.43 192.96 1023.43 196C1023.43 196.853 1023.35 197.653 1023.19 198.4ZM1008.87 193.92H1017.47C1016.88 191.813 1015.47 190.76 1013.23 190.76C1010.91 190.76 1009.46 191.813 1008.87 193.92ZM1041.16 187.88V178H1047.16V206H1041.16V204.12C1039.77 205.747 1037.78 206.56 1035.2 206.56C1032.56 206.56 1030.3 205.547 1028.44 203.52C1026.57 201.493 1025.64 198.987 1025.64 196C1025.64 193.04 1026.57 190.547 1028.44 188.52C1030.33 186.467 1032.58 185.44 1035.2 185.44C1037.78 185.44 1039.77 186.253 1041.16 187.88ZM1031.64 196C1031.64 197.493 1032.08 198.68 1032.96 199.56C1033.84 200.44 1034.98 200.88 1036.4 200.88C1037.81 200.88 1038.96 200.44 1039.84 199.56C1040.72 198.68 1041.16 197.493 1041.16 196C1041.16 194.507 1040.72 193.32 1039.84 192.44C1038.96 191.56 1037.81 191.12 1036.4 191.12C1034.98 191.12 1033.84 191.56 1032.96 192.44C1032.08 193.32 1031.64 194.507 1031.64 196ZM970.01 290.4H984.05V292.8C984.05 296.96 982.743 300.307 980.13 302.84C977.543 305.32 974.25 306.56 970.25 306.56C965.903 306.56 962.29 305.16 959.41 302.36C956.556 299.56 955.13 296.12 955.13 292.04C955.13 287.96 956.543 284.507 959.37 281.68C962.196 278.853 965.676 277.44 969.81 277.44C972.396 277.44 974.77 278.027 976.93 279.2C979.116 280.347 980.823 281.893 982.05 283.84L976.61 286.96C975.97 285.973 975.036 285.187 973.81 284.6C972.61 283.987 971.263 283.68 969.77 283.68C967.396 283.68 965.423 284.467 963.85 286.04C962.303 287.587 961.53 289.6 961.53 292.08C961.53 294.48 962.33 296.467 963.93 298.04C965.53 299.56 967.663 300.32 970.33 300.32C974.01 300.32 976.396 298.88 977.49 296H970.01V290.4ZM993.458 286V289.56C993.831 288.307 994.564 287.333 995.658 286.64C996.778 285.947 998.044 285.6 999.458 285.6V292.4C997.964 292.16 996.591 292.413 995.338 293.16C994.084 293.88 993.458 295.147 993.458 296.96V306H987.458V286H993.458ZM1018.8 303.52C1016.77 305.547 1014.26 306.56 1011.28 306.56C1008.29 306.56 1005.78 305.547 1003.76 303.52C1001.7 301.467 1000.68 298.96 1000.68 296C1000.68 293.067 1001.7 290.573 1003.76 288.52C1005.81 286.467 1008.32 285.44 1011.28 285.44C1014.24 285.44 1016.74 286.467 1018.8 288.52C1020.85 290.573 1021.88 293.067 1021.88 296C1021.88 298.96 1020.85 301.467 1018.8 303.52ZM1006.68 296C1006.68 297.387 1007.12 298.52 1008 299.4C1008.88 300.28 1009.97 300.72 1011.28 300.72C1012.58 300.72 1013.68 300.28 1014.56 299.4C1015.44 298.52 1015.88 297.387 1015.88 296C1015.88 294.613 1015.44 293.48 1014.56 292.6C1013.68 291.72 1012.58 291.28 1011.28 291.28C1009.97 291.28 1008.88 291.72 1008 292.6C1007.12 293.48 1006.68 294.613 1006.68 296ZM1043.61 296.72L1046.49 286H1052.89L1046.49 306H1040.89L1037.69 295.32L1034.49 306H1028.89L1022.49 286H1028.89L1031.77 296.72L1034.89 286H1040.49L1043.61 296.72ZM968.69 391.48C970.983 392.973 972.13 395.08 972.13 397.8C972.13 400.227 971.263 402.2 969.53 403.72C967.796 405.24 965.65 406 963.09 406H951.33V378H962.29C964.77 378 966.863 378.747 968.57 380.24C970.276 381.707 971.13 383.627 971.13 386C971.13 388.267 970.316 390.093 968.69 391.48ZM962.29 384H957.73V388.96H962.29C963.01 388.96 963.596 388.733 964.05 388.28C964.503 387.8 964.73 387.2 964.73 386.48C964.73 385.76 964.503 385.173 964.05 384.72C963.596 384.24 963.01 384 962.29 384ZM957.73 400H963.09C963.89 400 964.53 399.76 965.01 399.28C965.49 398.773 965.73 398.12 965.73 397.32C965.73 396.52 965.49 395.88 965.01 395.4C964.53 394.893 963.89 394.64 963.09 394.64H957.73V400ZM981.114 386V389.56C981.487 388.307 982.221 387.333 983.314 386.64C984.434 385.947 985.701 385.6 987.114 385.6V392.4C985.621 392.16 984.247 392.413 982.994 393.16C981.741 393.88 981.114 395.147 981.114 396.96V406H975.114V386H981.114ZM1008.89 398.4H994.693C995.359 400.267 996.959 401.2 999.493 401.2C1001.12 401.2 1002.4 400.693 1003.33 399.68L1008.13 402.44C1006.19 405.187 1003.28 406.56 999.413 406.56C996.079 406.56 993.386 405.56 991.333 403.56C989.333 401.56 988.333 399.04 988.333 396C988.333 393.013 989.319 390.507 991.293 388.48C993.293 386.453 995.853 385.44 998.973 385.44C1001.88 385.44 1004.29 386.453 1006.21 388.48C1008.16 390.453 1009.13 392.96 1009.13 396C1009.13 396.853 1009.05 397.653 1008.89 398.4ZM994.573 393.92H1003.17C1002.59 391.813 1001.17 390.76 998.933 390.76C996.613 390.76 995.159 391.813 994.573 393.92ZM1031.9 398.4H1017.7C1018.37 400.267 1019.97 401.2 1022.5 401.2C1024.13 401.2 1025.41 400.693 1026.34 399.68L1031.14 402.44C1029.19 405.187 1026.29 406.56 1022.42 406.56C1019.09 406.56 1016.39 405.56 1014.34 403.56C1012.34 401.56 1011.34 399.04 1011.34 396C1011.34 393.013 1012.33 390.507 1014.3 388.48C1016.3 386.453 1018.86 385.44 1021.98 385.44C1024.89 385.44 1027.3 386.453 1029.22 388.48C1031.17 390.453 1032.14 392.96 1032.14 396C1032.14 396.853 1032.06 397.653 1031.9 398.4ZM1017.58 393.92H1026.18C1025.59 391.813 1024.18 390.76 1021.94 390.76C1019.62 390.76 1018.17 391.813 1017.58 393.92ZM1049.87 387.88V378H1055.87V406H1049.87V404.12C1048.48 405.747 1046.5 406.56 1043.91 406.56C1041.27 406.56 1039.02 405.547 1037.15 403.52C1035.28 401.493 1034.35 398.987 1034.35 396C1034.35 393.04 1035.28 390.547 1037.15 388.52C1039.04 386.467 1041.3 385.44 1043.91 385.44C1046.5 385.44 1048.48 386.253 1049.87 387.88ZM1040.35 396C1040.35 397.493 1040.79 398.68 1041.67 399.56C1042.55 400.44 1043.7 400.88 1045.11 400.88C1046.52 400.88 1047.67 400.44 1048.55 399.56C1049.43 398.68 1049.87 397.493 1049.87 396C1049.87 394.507 1049.43 393.32 1048.55 392.44C1047.67 391.56 1046.52 391.12 1045.11 391.12C1043.7 391.12 1042.55 391.56 1041.67 392.44C1040.79 393.32 1040.35 394.507 1040.35 396Z" fill="white"/>
<path opacity="0.5" d="M1096.89 29.72V19H1103.29V47H1096.89V35.88H1088.09V47H1081.69V19H1088.09V29.72H1096.89ZM1122.41 28.88V27H1128.41V47H1122.41V45.12C1121.02 46.7467 1119.04 47.56 1116.45 47.56C1113.81 47.56 1111.56 46.5467 1109.69 44.52C1107.82 42.4933 1106.89 39.9867 1106.89 37C1106.89 34.04 1107.82 31.5467 1109.69 29.52C1111.58 27.4667 1113.84 26.44 1116.45 26.44C1119.04 26.44 1121.02 27.2533 1122.41 28.88ZM1112.89 37C1112.89 38.4933 1113.33 39.68 1114.21 40.56C1115.09 41.44 1116.24 41.88 1117.65 41.88C1119.06 41.88 1120.21 41.44 1121.09 40.56C1121.97 39.68 1122.41 38.4933 1122.41 37C1122.41 35.5067 1121.97 34.32 1121.09 33.44C1120.21 32.56 1119.06 32.12 1117.65 32.12C1116.24 32.12 1115.09 32.56 1114.21 33.44C1113.33 34.32 1112.89 35.5067 1112.89 37ZM1144.53 27V32.76H1140.41V39.84C1140.41 40.6133 1140.72 41.12 1141.33 41.36C1141.95 41.5733 1143.01 41.64 1144.53 41.56V47C1140.75 47.4 1138.11 47.04 1136.61 45.92C1135.15 44.7733 1134.41 42.7467 1134.41 39.84V32.76H1131.21V27H1134.41V23.2L1140.41 21.4V27H1144.53ZM1157.14 47.56C1154.1 47.56 1151.57 46.5467 1149.54 44.52C1147.54 42.4933 1146.54 39.9867 1146.54 37C1146.54 34.0133 1147.54 31.5067 1149.54 29.48C1151.57 27.4533 1154.1 26.44 1157.14 26.44C1159.03 26.44 1160.79 26.9067 1162.42 27.84C1164.05 28.7733 1165.3 30.0133 1166.18 31.56L1160.94 34.6C1160.22 33.1067 1158.93 32.36 1157.06 32.36C1155.75 32.36 1154.67 32.8 1153.82 33.68C1152.97 34.5333 1152.54 35.64 1152.54 37C1152.54 38.36 1152.97 39.48 1153.82 40.36C1154.67 41.2133 1155.75 41.64 1157.06 41.64C1158.95 41.64 1160.25 40.8933 1160.94 39.4L1166.18 42.4C1165.3 44 1164.05 45.2667 1162.42 46.2C1160.82 47.1067 1159.06 47.56 1157.14 47.56ZM1180.31 26.44C1182.47 26.44 1184.25 27.1733 1185.63 28.64C1187.07 30.1333 1187.79 32.16 1187.79 34.72V47H1181.79V35.6C1181.79 34.4533 1181.47 33.56 1180.83 32.92C1180.19 32.28 1179.35 31.96 1178.31 31.96C1177.14 31.96 1176.22 32.32 1175.55 33.04C1174.91 33.7333 1174.59 34.7467 1174.59 36.08V47H1168.59V19H1174.59V28.88C1175.79 27.2533 1177.7 26.44 1180.31 26.44ZM1108.04 119V125.16H1097.44V130.56H1107.84V136.72H1097.44V147H1091.04V119H1108.04ZM1131.18 139.4H1116.98C1117.65 141.267 1119.25 142.2 1121.78 142.2C1123.41 142.2 1124.69 141.693 1125.62 140.68L1130.42 143.44C1128.48 146.187 1125.57 147.56 1121.7 147.56C1118.37 147.56 1115.68 146.56 1113.62 144.56C1111.62 142.56 1110.62 140.04 1110.62 137C1110.62 134.013 1111.61 131.507 1113.58 129.48C1115.58 127.453 1118.14 126.44 1121.26 126.44C1124.17 126.44 1126.58 127.453 1128.5 129.48C1130.45 131.453 1131.42 133.96 1131.42 137C1131.42 137.853 1131.34 138.653 1131.18 139.4ZM1116.86 134.92H1125.46C1124.88 132.813 1123.46 131.76 1121.22 131.76C1118.9 131.76 1117.45 132.813 1116.86 134.92ZM1154.19 139.4H1139.99C1140.66 141.267 1142.26 142.2 1144.79 142.2C1146.42 142.2 1147.7 141.693 1148.63 140.68L1153.43 143.44C1151.48 146.187 1148.58 147.56 1144.71 147.56C1141.38 147.56 1138.68 146.56 1136.63 144.56C1134.63 142.56 1133.63 140.04 1133.63 137C1133.63 134.013 1134.62 131.507 1136.59 129.48C1138.59 127.453 1141.15 126.44 1144.27 126.44C1147.18 126.44 1149.59 127.453 1151.51 129.48C1153.46 131.453 1154.43 133.96 1154.43 137C1154.43 137.853 1154.35 138.653 1154.19 139.4ZM1139.87 134.92H1148.47C1147.88 132.813 1146.47 131.76 1144.23 131.76C1141.91 131.76 1140.46 132.813 1139.87 134.92ZM1172.16 128.88V119H1178.16V147H1172.16V145.12C1170.77 146.747 1168.78 147.56 1166.2 147.56C1163.56 147.56 1161.3 146.547 1159.44 144.52C1157.57 142.493 1156.64 139.987 1156.64 137C1156.64 134.04 1157.57 131.547 1159.44 129.52C1161.33 127.467 1163.58 126.44 1166.2 126.44C1168.78 126.44 1170.77 127.253 1172.16 128.88ZM1162.64 137C1162.64 138.493 1163.08 139.68 1163.96 140.56C1164.84 141.44 1165.98 141.88 1167.4 141.88C1168.81 141.88 1169.96 141.44 1170.84 140.56C1171.72 139.68 1172.16 138.493 1172.16 137C1172.16 135.507 1171.72 134.32 1170.84 133.44C1169.96 132.56 1168.81 132.12 1167.4 132.12C1165.98 132.12 1164.84 132.56 1163.96 133.44C1163.08 134.32 1162.64 135.507 1162.64 137ZM1101.01 231.4H1115.05V233.8C1115.05 237.96 1113.74 241.307 1111.13 243.84C1108.54 246.32 1105.25 247.56 1101.25 247.56C1096.9 247.56 1093.29 246.16 1090.41 243.36C1087.56 240.56 1086.13 237.12 1086.13 233.04C1086.13 228.96 1087.54 225.507 1090.37 222.68C1093.2 219.853 1096.68 218.44 1100.81 218.44C1103.4 218.44 1105.77 219.027 1107.93 220.2C1110.12 221.347 1111.82 222.893 1113.05 224.84L1107.61 227.96C1106.97 226.973 1106.04 226.187 1104.81 225.6C1103.61 224.987 1102.26 224.68 1100.77 224.68C1098.4 224.68 1096.42 225.467 1094.85 227.04C1093.3 228.587 1092.53 230.6 1092.53 233.08C1092.53 235.48 1093.33 237.467 1094.93 239.04C1096.53 240.56 1098.66 241.32 1101.33 241.32C1105.01 241.32 1107.4 239.88 1108.49 237H1101.01V231.4ZM1124.46 227V230.56C1124.83 229.307 1125.56 228.333 1126.66 227.64C1127.78 226.947 1129.04 226.6 1130.46 226.6V233.4C1128.96 233.16 1127.59 233.413 1126.34 234.16C1125.08 234.88 1124.46 236.147 1124.46 237.96V247H1118.46V227H1124.46ZM1149.8 244.52C1147.77 246.547 1145.26 247.56 1142.28 247.56C1139.29 247.56 1136.78 246.547 1134.76 244.52C1132.7 242.467 1131.68 239.96 1131.68 237C1131.68 234.067 1132.7 231.573 1134.76 229.52C1136.81 227.467 1139.32 226.44 1142.28 226.44C1145.24 226.44 1147.74 227.467 1149.8 229.52C1151.85 231.573 1152.88 234.067 1152.88 237C1152.88 239.96 1151.85 242.467 1149.8 244.52ZM1137.68 237C1137.68 238.387 1138.12 239.52 1139 240.4C1139.88 241.28 1140.97 241.72 1142.28 241.72C1143.58 241.72 1144.68 241.28 1145.56 240.4C1146.44 239.52 1146.88 238.387 1146.88 237C1146.88 235.613 1146.44 234.48 1145.56 233.6C1144.68 232.72 1143.58 232.28 1142.28 232.28C1140.97 232.28 1139.88 232.72 1139 233.6C1138.12 234.48 1137.68 235.613 1137.68 237ZM1174.61 237.72L1177.49 227H1183.89L1177.49 247H1171.89L1168.69 236.32L1165.49 247H1159.89L1153.49 227H1159.89L1162.77 237.72L1165.89 227H1171.49L1174.61 237.72ZM1099.69 332.48C1101.98 333.973 1103.13 336.08 1103.13 338.8C1103.13 341.227 1102.26 343.2 1100.53 344.72C1098.8 346.24 1096.65 347 1094.09 347H1082.33V319H1093.29C1095.77 319 1097.86 319.747 1099.57 321.24C1101.28 322.707 1102.13 324.627 1102.13 327C1102.13 329.267 1101.32 331.093 1099.69 332.48ZM1093.29 325H1088.73V329.96H1093.29C1094.01 329.96 1094.6 329.733 1095.05 329.28C1095.5 328.8 1095.73 328.2 1095.73 327.48C1095.73 326.76 1095.5 326.173 1095.05 325.72C1094.6 325.24 1094.01 325 1093.29 325ZM1088.73 341H1094.09C1094.89 341 1095.53 340.76 1096.01 340.28C1096.49 339.773 1096.73 339.12 1096.73 338.32C1096.73 337.52 1096.49 336.88 1096.01 336.4C1095.53 335.893 1094.89 335.64 1094.09 335.64H1088.73V341ZM1112.11 327V330.56C1112.49 329.307 1113.22 328.333 1114.31 327.64C1115.43 326.947 1116.7 326.6 1118.11 326.6V333.4C1116.62 333.16 1115.25 333.413 1113.99 334.16C1112.74 334.88 1112.11 336.147 1112.11 337.96V347H1106.11V327H1112.11ZM1139.89 339.4H1125.69C1126.36 341.267 1127.96 342.2 1130.49 342.2C1132.12 342.2 1133.4 341.693 1134.33 340.68L1139.13 343.44C1137.19 346.187 1134.28 347.56 1130.41 347.56C1127.08 347.56 1124.39 346.56 1122.33 344.56C1120.33 342.56 1119.33 340.04 1119.33 337C1119.33 334.013 1120.32 331.507 1122.29 329.48C1124.29 327.453 1126.85 326.44 1129.97 326.44C1132.88 326.44 1135.29 327.453 1137.21 329.48C1139.16 331.453 1140.13 333.96 1140.13 337C1140.13 337.853 1140.05 338.653 1139.89 339.4ZM1125.57 334.92H1134.17C1133.59 332.813 1132.17 331.76 1129.93 331.76C1127.61 331.76 1126.16 332.813 1125.57 334.92ZM1162.9 339.4H1148.7C1149.37 341.267 1150.97 342.2 1153.5 342.2C1155.13 342.2 1156.41 341.693 1157.34 340.68L1162.14 343.44C1160.19 346.187 1157.29 347.56 1153.42 347.56C1150.09 347.56 1147.39 346.56 1145.34 344.56C1143.34 342.56 1142.34 340.04 1142.34 337C1142.34 334.013 1143.33 331.507 1145.3 329.48C1147.3 327.453 1149.86 326.44 1152.98 326.44C1155.89 326.44 1158.3 327.453 1160.22 329.48C1162.17 331.453 1163.14 333.96 1163.14 337C1163.14 337.853 1163.06 338.653 1162.9 339.4ZM1148.58 334.92H1157.18C1156.59 332.813 1155.18 331.76 1152.94 331.76C1150.62 331.76 1149.17 332.813 1148.58 334.92ZM1180.87 328.88V319H1186.87V347H1180.87V345.12C1179.48 346.747 1177.5 347.56 1174.91 347.56C1172.27 347.56 1170.02 346.547 1168.15 344.52C1166.28 342.493 1165.35 339.987 1165.35 337C1165.35 334.04 1166.28 331.547 1168.15 329.52C1170.04 327.467 1172.3 326.44 1174.91 326.44C1177.5 326.44 1179.48 327.253 1180.87 328.88ZM1171.35 337C1171.35 338.493 1171.79 339.68 1172.67 340.56C1173.55 341.44 1174.7 341.88 1176.11 341.88C1177.52 341.88 1178.67 341.44 1179.55 340.56C1180.43 339.68 1180.87 338.493 1180.87 337C1180.87 335.507 1180.43 334.32 1179.55 333.44C1178.67 332.56 1177.52 332.12 1176.11 332.12C1174.7 332.12 1173.55 332.56 1172.67 333.44C1171.79 334.32 1171.35 335.507 1171.35 337Z" fill="white"/>
<path opacity="0.5" d="M1227.89 72.72V62H1234.29V90H1227.89V78.88H1219.09V90H1212.69V62H1219.09V72.72H1227.89ZM1253.41 71.88V70H1259.41V90H1253.41V88.12C1252.02 89.7467 1250.04 90.56 1247.45 90.56C1244.81 90.56 1242.56 89.5467 1240.69 87.52C1238.82 85.4933 1237.89 82.9867 1237.89 80C1237.89 77.04 1238.82 74.5467 1240.69 72.52C1242.58 70.4667 1244.84 69.44 1247.45 69.44C1250.04 69.44 1252.02 70.2533 1253.41 71.88ZM1243.89 80C1243.89 81.4933 1244.33 82.68 1245.21 83.56C1246.09 84.44 1247.24 84.88 1248.65 84.88C1250.06 84.88 1251.21 84.44 1252.09 83.56C1252.97 82.68 1253.41 81.4933 1253.41 80C1253.41 78.5067 1252.97 77.32 1252.09 76.44C1251.21 75.56 1250.06 75.12 1248.65 75.12C1247.24 75.12 1246.09 75.56 1245.21 76.44C1244.33 77.32 1243.89 78.5067 1243.89 80ZM1275.53 70V75.76H1271.41V82.84C1271.41 83.6133 1271.72 84.12 1272.33 84.36C1272.95 84.5733 1274.01 84.64 1275.53 84.56V90C1271.75 90.4 1269.11 90.04 1267.61 88.92C1266.15 87.7733 1265.41 85.7467 1265.41 82.84V75.76H1262.21V70H1265.41V66.2L1271.41 64.4V70H1275.53ZM1288.14 90.56C1285.1 90.56 1282.57 89.5467 1280.54 87.52C1278.54 85.4933 1277.54 82.9867 1277.54 80C1277.54 77.0133 1278.54 74.5067 1280.54 72.48C1282.57 70.4533 1285.1 69.44 1288.14 69.44C1290.03 69.44 1291.79 69.9067 1293.42 70.84C1295.05 71.7733 1296.3 73.0133 1297.18 74.56L1291.94 77.6C1291.22 76.1067 1289.93 75.36 1288.06 75.36C1286.75 75.36 1285.67 75.8 1284.82 76.68C1283.97 77.5333 1283.54 78.64 1283.54 80C1283.54 81.36 1283.97 82.48 1284.82 83.36C1285.67 84.2133 1286.75 84.64 1288.06 84.64C1289.95 84.64 1291.25 83.8933 1291.94 82.4L1297.18 85.4C1296.3 87 1295.05 88.2667 1293.42 89.2C1291.82 90.1067 1290.06 90.56 1288.14 90.56ZM1311.31 69.44C1313.47 69.44 1315.25 70.1733 1316.63 71.64C1318.07 73.1333 1318.79 75.16 1318.79 77.72V90H1312.79V78.6C1312.79 77.4533 1312.47 76.56 1311.83 75.92C1311.19 75.28 1310.35 74.96 1309.31 74.96C1308.14 74.96 1307.22 75.32 1306.55 76.04C1305.91 76.7333 1305.59 77.7467 1305.59 79.08V90H1299.59V62H1305.59V71.88C1306.79 70.2533 1308.7 69.44 1311.31 69.44ZM1239.04 162V168.16H1228.44V173.56H1238.84V179.72H1228.44V190H1222.04V162H1239.04ZM1262.18 182.4H1247.98C1248.65 184.267 1250.25 185.2 1252.78 185.2C1254.41 185.2 1255.69 184.693 1256.62 183.68L1261.42 186.44C1259.48 189.187 1256.57 190.56 1252.7 190.56C1249.37 190.56 1246.68 189.56 1244.62 187.56C1242.62 185.56 1241.62 183.04 1241.62 180C1241.62 177.013 1242.61 174.507 1244.58 172.48C1246.58 170.453 1249.14 169.44 1252.26 169.44C1255.17 169.44 1257.58 170.453 1259.5 172.48C1261.45 174.453 1262.42 176.96 1262.42 180C1262.42 180.853 1262.34 181.653 1262.18 182.4ZM1247.86 177.92H1256.46C1255.88 175.813 1254.46 174.76 1252.22 174.76C1249.9 174.76 1248.45 175.813 1247.86 177.92ZM1285.19 182.4H1270.99C1271.66 184.267 1273.26 185.2 1275.79 185.2C1277.42 185.2 1278.7 184.693 1279.63 183.68L1284.43 186.44C1282.48 189.187 1279.58 190.56 1275.71 190.56C1272.38 190.56 1269.68 189.56 1267.63 187.56C1265.63 185.56 1264.63 183.04 1264.63 180C1264.63 177.013 1265.62 174.507 1267.59 172.48C1269.59 170.453 1272.15 169.44 1275.27 169.44C1278.18 169.44 1280.59 170.453 1282.51 172.48C1284.46 174.453 1285.43 176.96 1285.43 180C1285.43 180.853 1285.35 181.653 1285.19 182.4ZM1270.87 177.92H1279.47C1278.88 175.813 1277.47 174.76 1275.23 174.76C1272.91 174.76 1271.46 175.813 1270.87 177.92ZM1303.16 171.88V162H1309.16V190H1303.16V188.12C1301.77 189.747 1299.78 190.56 1297.2 190.56C1294.56 190.56 1292.3 189.547 1290.44 187.52C1288.57 185.493 1287.64 182.987 1287.64 180C1287.64 177.04 1288.57 174.547 1290.44 172.52C1292.33 170.467 1294.58 169.44 1297.2 169.44C1299.78 169.44 1301.77 170.253 1303.16 171.88ZM1293.64 180C1293.64 181.493 1294.08 182.68 1294.96 183.56C1295.84 184.44 1296.98 184.88 1298.4 184.88C1299.81 184.88 1300.96 184.44 1301.84 183.56C1302.72 182.68 1303.16 181.493 1303.16 180C1303.16 178.507 1302.72 177.32 1301.84 176.44C1300.96 175.56 1299.81 175.12 1298.4 175.12C1296.98 175.12 1295.84 175.56 1294.96 176.44C1294.08 177.32 1293.64 178.507 1293.64 180ZM1232.01 274.4H1246.05V276.8C1246.05 280.96 1244.74 284.307 1242.13 286.84C1239.54 289.32 1236.25 290.56 1232.25 290.56C1227.9 290.56 1224.29 289.16 1221.41 286.36C1218.56 283.56 1217.13 280.12 1217.13 276.04C1217.13 271.96 1218.54 268.507 1221.37 265.68C1224.2 262.853 1227.68 261.44 1231.81 261.44C1234.4 261.44 1236.77 262.027 1238.93 263.2C1241.12 264.347 1242.82 265.893 1244.05 267.84L1238.61 270.96C1237.97 269.973 1237.04 269.187 1235.81 268.6C1234.61 267.987 1233.26 267.68 1231.77 267.68C1229.4 267.68 1227.42 268.467 1225.85 270.04C1224.3 271.587 1223.53 273.6 1223.53 276.08C1223.53 278.48 1224.33 280.467 1225.93 282.04C1227.53 283.56 1229.66 284.32 1232.33 284.32C1236.01 284.32 1238.4 282.88 1239.49 280H1232.01V274.4ZM1255.46 270V273.56C1255.83 272.307 1256.56 271.333 1257.66 270.64C1258.78 269.947 1260.04 269.6 1261.46 269.6V276.4C1259.96 276.16 1258.59 276.413 1257.34 277.16C1256.08 277.88 1255.46 279.147 1255.46 280.96V290H1249.46V270H1255.46ZM1280.8 287.52C1278.77 289.547 1276.26 290.56 1273.28 290.56C1270.29 290.56 1267.78 289.547 1265.76 287.52C1263.7 285.467 1262.68 282.96 1262.68 280C1262.68 277.067 1263.7 274.573 1265.76 272.52C1267.81 270.467 1270.32 269.44 1273.28 269.44C1276.24 269.44 1278.74 270.467 1280.8 272.52C1282.85 274.573 1283.88 277.067 1283.88 280C1283.88 282.96 1282.85 285.467 1280.8 287.52ZM1268.68 280C1268.68 281.387 1269.12 282.52 1270 283.4C1270.88 284.28 1271.97 284.72 1273.28 284.72C1274.58 284.72 1275.68 284.28 1276.56 283.4C1277.44 282.52 1277.88 281.387 1277.88 280C1277.88 278.613 1277.44 277.48 1276.56 276.6C1275.68 275.72 1274.58 275.28 1273.28 275.28C1271.97 275.28 1270.88 275.72 1270 276.6C1269.12 277.48 1268.68 278.613 1268.68 280ZM1305.61 280.72L1308.49 270H1314.89L1308.49 290H1302.89L1299.69 279.32L1296.49 290H1290.89L1284.49 270H1290.89L1293.77 280.72L1296.89 270H1302.49L1305.61 280.72ZM1230.69 375.48C1232.98 376.973 1234.13 379.08 1234.13 381.8C1234.13 384.227 1233.26 386.2 1231.53 387.72C1229.8 389.24 1227.65 390 1225.09 390H1213.33V362H1224.29C1226.77 362 1228.86 362.747 1230.57 364.24C1232.28 365.707 1233.13 367.627 1233.13 370C1233.13 372.267 1232.32 374.093 1230.69 375.48ZM1224.29 368H1219.73V372.96H1224.29C1225.01 372.96 1225.6 372.733 1226.05 372.28C1226.5 371.8 1226.73 371.2 1226.73 370.48C1226.73 369.76 1226.5 369.173 1226.05 368.72C1225.6 368.24 1225.01 368 1224.29 368ZM1219.73 384H1225.09C1225.89 384 1226.53 383.76 1227.01 383.28C1227.49 382.773 1227.73 382.12 1227.73 381.32C1227.73 380.52 1227.49 379.88 1227.01 379.4C1226.53 378.893 1225.89 378.64 1225.09 378.64H1219.73V384ZM1243.11 370V373.56C1243.49 372.307 1244.22 371.333 1245.31 370.64C1246.43 369.947 1247.7 369.6 1249.11 369.6V376.4C1247.62 376.16 1246.25 376.413 1244.99 377.16C1243.74 377.88 1243.11 379.147 1243.11 380.96V390H1237.11V370H1243.11ZM1270.89 382.4H1256.69C1257.36 384.267 1258.96 385.2 1261.49 385.2C1263.12 385.2 1264.4 384.693 1265.33 383.68L1270.13 386.44C1268.19 389.187 1265.28 390.56 1261.41 390.56C1258.08 390.56 1255.39 389.56 1253.33 387.56C1251.33 385.56 1250.33 383.04 1250.33 380C1250.33 377.013 1251.32 374.507 1253.29 372.48C1255.29 370.453 1257.85 369.44 1260.97 369.44C1263.88 369.44 1266.29 370.453 1268.21 372.48C1270.16 374.453 1271.13 376.96 1271.13 380C1271.13 380.853 1271.05 381.653 1270.89 382.4ZM1256.57 377.92H1265.17C1264.59 375.813 1263.17 374.76 1260.93 374.76C1258.61 374.76 1257.16 375.813 1256.57 377.92ZM1293.9 382.4H1279.7C1280.37 384.267 1281.97 385.2 1284.5 385.2C1286.13 385.2 1287.41 384.693 1288.34 383.68L1293.14 386.44C1291.19 389.187 1288.29 390.56 1284.42 390.56C1281.09 390.56 1278.39 389.56 1276.34 387.56C1274.34 385.56 1273.34 383.04 1273.34 380C1273.34 377.013 1274.33 374.507 1276.3 372.48C1278.3 370.453 1280.86 369.44 1283.98 369.44C1286.89 369.44 1289.3 370.453 1291.22 372.48C1293.17 374.453 1294.14 376.96 1294.14 380C1294.14 380.853 1294.06 381.653 1293.9 382.4ZM1279.58 377.92H1288.18C1287.59 375.813 1286.18 374.76 1283.94 374.76C1281.62 374.76 1280.17 375.813 1279.58 377.92ZM1311.87 371.88V362H1317.87V390H1311.87V388.12C1310.48 389.747 1308.5 390.56 1305.91 390.56C1303.27 390.56 1301.02 389.547 1299.15 387.52C1297.28 385.493 1296.35 382.987 1296.35 380C1296.35 377.04 1297.28 374.547 1299.15 372.52C1301.04 370.467 1303.3 369.44 1305.91 369.44C1308.5 369.44 1310.48 370.253 1311.87 371.88ZM1302.35 380C1302.35 381.493 1302.79 382.68 1303.67 383.56C1304.55 384.44 1305.7 384.88 1307.11 384.88C1308.52 384.88 1309.67 384.44 1310.55 383.56C1311.43 382.68 1311.87 381.493 1311.87 380C1311.87 378.507 1311.43 377.32 1310.55 376.44C1309.67 375.56 1308.52 375.12 1307.11 375.12C1305.7 375.12 1304.55 375.56 1303.67 376.44C1302.79 377.32 1302.35 378.507 1302.35 380Z" fill="white"/>
<path opacity="0.5" d="M53.8852 18.72V8H60.2852V36H53.8852V24.88H45.0852V36H38.6852V8H45.0852V18.72H53.8852ZM79.4114 17.88V16H85.4114V36H79.4114V34.12C78.0247 35.7467 76.0381 36.56 73.4514 36.56C70.8114 36.56 68.5581 35.5467 66.6914 33.52C64.8247 31.4933 63.8914 28.9867 63.8914 26C63.8914 23.04 64.8247 20.5467 66.6914 18.52C68.5847 16.4667 70.8381 15.44 73.4514 15.44C76.0381 15.44 78.0247 16.2533 79.4114 17.88ZM69.8914 26C69.8914 27.4933 70.3314 28.68 71.2114 29.56C72.0914 30.44 73.2381 30.88 74.6514 30.88C76.0647 30.88 77.2114 30.44 78.0914 29.56C78.9714 28.68 79.4114 27.4933 79.4114 26C79.4114 24.5067 78.9714 23.32 78.0914 22.44C77.2114 21.56 76.0647 21.12 74.6514 21.12C73.2381 21.12 72.0914 21.56 71.2114 22.44C70.3314 23.32 69.8914 24.5067 69.8914 26ZM101.533 16V21.76H97.4133V28.84C97.4133 29.6133 97.7199 30.12 98.3333 30.36C98.9466 30.5733 100.013 30.64 101.533 30.56V36C97.7466 36.4 95.1066 36.04 93.6133 34.92C92.1466 33.7733 91.4133 31.7467 91.4133 28.84V21.76H88.2133V16H91.4133V12.2L97.4133 10.4V16H101.533ZM114.14 36.56C111.1 36.56 108.567 35.5467 106.54 33.52C104.54 31.4933 103.54 28.9867 103.54 26C103.54 23.0133 104.54 20.5067 106.54 18.48C108.567 16.4533 111.1 15.44 114.14 15.44C116.033 15.44 117.793 15.9067 119.42 16.84C121.047 17.7733 122.3 19.0133 123.18 20.56L117.94 23.6C117.22 22.1067 115.927 21.36 114.06 21.36C112.753 21.36 111.673 21.8 110.82 22.68C109.967 23.5333 109.54 24.64 109.54 26C109.54 27.36 109.967 28.48 110.82 29.36C111.673 30.2133 112.753 30.64 114.06 30.64C115.953 30.64 117.247 29.8933 117.94 28.4L123.18 31.4C122.3 33 121.047 34.2667 119.42 35.2C117.82 36.1067 116.06 36.56 114.14 36.56ZM137.315 15.44C139.475 15.44 141.248 16.1733 142.635 17.64C144.075 19.1333 144.795 21.16 144.795 23.72V36H138.795V24.6C138.795 23.4533 138.475 22.56 137.835 21.92C137.195 21.28 136.355 20.96 135.315 20.96C134.141 20.96 133.221 21.32 132.555 22.04C131.915 22.7333 131.595 23.7467 131.595 25.08V36H125.595V8H131.595V17.88C132.795 16.2533 134.701 15.44 137.315 15.44ZM60.0406 108V114.16H49.4406V119.56H59.8406V125.72H49.4406V136H43.0406V108H60.0406ZM83.1819 128.4H68.9819C69.6485 130.267 71.2485 131.2 73.7819 131.2C75.4085 131.2 76.6885 130.693 77.6219 129.68L82.4219 132.44C80.4752 135.187 77.5685 136.56 73.7019 136.56C70.3685 136.56 67.6752 135.56 65.6219 133.56C63.6219 131.56 62.6219 129.04 62.6219 126C62.6219 123.013 63.6085 120.507 65.5819 118.48C67.5819 116.453 70.1419 115.44 73.2619 115.44C76.1685 115.44 78.5819 116.453 80.5019 118.48C82.4485 120.453 83.4219 122.96 83.4219 126C83.4219 126.853 83.3419 127.653 83.1819 128.4ZM68.8619 123.92H77.4619C76.8752 121.813 75.4619 120.76 73.2219 120.76C70.9019 120.76 69.4485 121.813 68.8619 123.92ZM106.19 128.4H91.9897C92.6564 130.267 94.2564 131.2 96.7897 131.2C98.4164 131.2 99.6964 130.693 100.63 129.68L105.43 132.44C103.483 135.187 100.576 136.56 96.7097 136.56C93.3764 136.56 90.683 135.56 88.6297 133.56C86.6297 131.56 85.6297 129.04 85.6297 126C85.6297 123.013 86.6164 120.507 88.5897 118.48C90.5897 116.453 93.1497 115.44 96.2697 115.44C99.1764 115.44 101.59 116.453 103.51 118.48C105.456 120.453 106.43 122.96 106.43 126C106.43 126.853 106.35 127.653 106.19 128.4ZM91.8697 123.92H100.47C99.883 121.813 98.4697 120.76 96.2297 120.76C93.9097 120.76 92.4564 121.813 91.8697 123.92ZM124.158 117.88V108H130.158V136H124.158V134.12C122.771 135.747 120.784 136.56 118.198 136.56C115.558 136.56 113.304 135.547 111.438 133.52C109.571 131.493 108.638 128.987 108.638 126C108.638 123.04 109.571 120.547 111.438 118.52C113.331 116.467 115.584 115.44 118.198 115.44C120.784 115.44 122.771 116.253 124.158 117.88ZM114.638 126C114.638 127.493 115.078 128.68 115.958 129.56C116.838 130.44 117.984 130.88 119.398 130.88C120.811 130.88 121.958 130.44 122.838 129.56C123.718 128.68 124.158 127.493 124.158 126C124.158 124.507 123.718 123.32 122.838 122.44C121.958 121.56 120.811 121.12 119.398 121.12C117.984 121.12 116.838 121.56 115.958 122.44C115.078 123.32 114.638 124.507 114.638 126ZM53.0097 220.4H67.0497V222.8C67.0497 226.96 65.743 230.307 63.1297 232.84C60.543 235.32 57.2497 236.56 53.2497 236.56C48.903 236.56 45.2897 235.16 42.4097 232.36C39.5564 229.56 38.1297 226.12 38.1297 222.04C38.1297 217.96 39.543 214.507 42.3697 211.68C45.1964 208.853 48.6764 207.44 52.8097 207.44C55.3964 207.44 57.7697 208.027 59.9297 209.2C62.1164 210.347 63.823 211.893 65.0497 213.84L59.6097 216.96C58.9697 215.973 58.0364 215.187 56.8097 214.6C55.6097 213.987 54.263 213.68 52.7697 213.68C50.3964 213.68 48.423 214.467 46.8497 216.04C45.303 217.587 44.5297 219.6 44.5297 222.08C44.5297 224.48 45.3297 226.467 46.9297 228.04C48.5297 229.56 50.663 230.32 53.3297 230.32C57.0097 230.32 59.3964 228.88 60.4897 226H53.0097V220.4ZM76.4578 216V219.56C76.8311 218.307 77.5645 217.333 78.6578 216.64C79.7778 215.947 81.0445 215.6 82.4578 215.6V222.4C80.9645 222.16 79.5911 222.413 78.3378 223.16C77.0845 223.88 76.4578 225.147 76.4578 226.96V236H70.4578V216H76.4578ZM101.797 233.52C99.7699 235.547 97.2632 236.56 94.2766 236.56C91.2899 236.56 88.7832 235.547 86.7566 233.52C84.7032 231.467 83.6766 228.96 83.6766 226C83.6766 223.067 84.7032 220.573 86.7566 218.52C88.8099 216.467 91.3166 215.44 94.2766 215.44C97.2366 215.44 99.7432 216.467 101.797 218.52C103.85 220.573 104.877 223.067 104.877 226C104.877 228.96 103.85 231.467 101.797 233.52ZM89.6766 226C89.6766 227.387 90.1166 228.52 90.9966 229.4C91.8766 230.28 92.9699 230.72 94.2766 230.72C95.5832 230.72 96.6766 230.28 97.5566 229.4C98.4366 228.52 98.8766 227.387 98.8766 226C98.8766 224.613 98.4366 223.48 97.5566 222.6C96.6766 221.72 95.5832 221.28 94.2766 221.28C92.9699 221.28 91.8766 221.72 90.9966 222.6C90.1166 223.48 89.6766 224.613 89.6766 226ZM126.609 226.72L129.489 216H135.889L129.489 236H123.889L120.689 225.32L117.489 236H111.889L105.489 216H111.889L114.769 226.72L117.889 216H123.489L126.609 226.72ZM51.6897 321.48C53.983 322.973 55.1297 325.08 55.1297 327.8C55.1297 330.227 54.263 332.2 52.5297 333.72C50.7964 335.24 48.6497 336 46.0897 336H34.3297V308H45.2897C47.7697 308 49.863 308.747 51.5697 310.24C53.2764 311.707 54.1297 313.627 54.1297 316C54.1297 318.267 53.3164 320.093 51.6897 321.48ZM45.2897 314H40.7297V318.96H45.2897C46.0097 318.96 46.5964 318.733 47.0497 318.28C47.503 317.8 47.7297 317.2 47.7297 316.48C47.7297 315.76 47.503 315.173 47.0497 314.72C46.5964 314.24 46.0097 314 45.2897 314ZM40.7297 330H46.0897C46.8897 330 47.5297 329.76 48.0097 329.28C48.4897 328.773 48.7297 328.12 48.7297 327.32C48.7297 326.52 48.4897 325.88 48.0097 325.4C47.5297 324.893 46.8897 324.64 46.0897 324.64H40.7297V330ZM64.1141 316V319.56C64.4874 318.307 65.2207 317.333 66.3141 316.64C67.4341 315.947 68.7007 315.6 70.1141 315.6V322.4C68.6207 322.16 67.2474 322.413 65.9941 323.16C64.7407 323.88 64.1141 325.147 64.1141 326.96V336H58.1141V316H64.1141ZM91.8928 328.4H77.6928C78.3595 330.267 79.9595 331.2 82.4928 331.2C84.1195 331.2 85.3995 330.693 86.3328 329.68L91.1328 332.44C89.1861 335.187 86.2795 336.56 82.4128 336.56C79.0795 336.56 76.3861 335.56 74.3328 333.56C72.3328 331.56 71.3328 329.04 71.3328 326C71.3328 323.013 72.3195 320.507 74.2928 318.48C76.2928 316.453 78.8528 315.44 81.9728 315.44C84.8795 315.44 87.2928 316.453 89.2128 318.48C91.1595 320.453 92.1328 322.96 92.1328 326C92.1328 326.853 92.0528 327.653 91.8928 328.4ZM77.5728 323.92H86.1728C85.5861 321.813 84.1728 320.76 81.9328 320.76C79.6128 320.76 78.1595 321.813 77.5728 323.92ZM114.901 328.4H100.701C101.367 330.267 102.967 331.2 105.501 331.2C107.127 331.2 108.407 330.693 109.341 329.68L114.141 332.44C112.194 335.187 109.287 336.56 105.421 336.56C102.087 336.56 99.394 335.56 97.3406 333.56C95.3406 331.56 94.3406 329.04 94.3406 326C94.3406 323.013 95.3273 320.507 97.3006 318.48C99.3006 316.453 101.861 315.44 104.981 315.44C107.887 315.44 110.301 316.453 112.221 318.48C114.167 320.453 115.141 322.96 115.141 326C115.141 326.853 115.061 327.653 114.901 328.4ZM100.581 323.92H109.181C108.594 321.813 107.181 320.76 104.941 320.76C102.621 320.76 101.167 321.813 100.581 323.92ZM132.868 317.88V308H138.868V336H132.868V334.12C131.482 335.747 129.495 336.56 126.908 336.56C124.268 336.56 122.015 335.547 120.148 333.52C118.282 331.493 117.348 328.987 117.348 326C117.348 323.04 118.282 320.547 120.148 318.52C122.042 316.467 124.295 315.44 126.908 315.44C129.495 315.44 131.482 316.253 132.868 317.88ZM123.348 326C123.348 327.493 123.788 328.68 124.668 329.56C125.548 330.44 126.695 330.88 128.108 330.88C129.522 330.88 130.668 330.44 131.548 329.56C132.428 328.68 132.868 327.493 132.868 326C132.868 324.507 132.428 323.32 131.548 322.44C130.668 321.56 129.522 321.12 128.108 321.12C126.695 321.12 125.548 321.56 124.668 322.44C123.788 323.32 123.348 324.507 123.348 326Z" fill="white"/>
</svg>
