<?xml version="1.0" encoding="UTF-8"?>
<svg width="1200pt" height="1200pt" version="1.1" viewBox="0 0 1200 1200" xmlns="http://www.w3.org/2000/svg">
 <path d="m985.95 302.53c4.7734 2.3203 8.8516 6.1758 11.406 11.293 0.125 0.24219 0.24219 0.48828 0.35547 0.73438 0.24609 0.53906 0.47656 1.0859 0.68359 1.6445 1.1562 3.0625 1.668 6.207 1.6016 9.3047v174.5c0 13.809-11.191 25-25 25s-25-11.191-25-25v-134.55l-113.82 56.91c-12.348 6.1758-27.367 1.1719-33.539-11.18-6.1758-12.348-1.1719-27.367 11.18-33.539l105.28-52.641-105.28-52.641c-12.352-6.1719-17.355-21.191-11.18-33.539 6.1719-12.352 21.191-17.355 33.539-11.18zm14.047 521.97c0.078125 3.6719-0.65625 7.4102-2.2852 10.949-1.2266 2.6602-2.9102 5.0938-4.9844 7.1836-2.1055 2.0898-4.3516 3.6641-6.7773 4.8438l-149.77 74.887c-12.348 6.1758-27.367 1.1719-33.539-11.18-6.1758-12.348-1.1719-27.367 11.18-33.539l105.28-52.641-105.28-52.641c-12.352-6.1719-17.355-21.191-11.18-33.539 6.1719-12.352 21.191-17.355 33.539-11.18l113.82 56.91v-134.55c0-13.809 11.191-25 25-25s25 11.191 25 25zm-769.1 0.50391 105.28 52.641c12.352 6.1719 17.355 21.191 11.18 33.539-6.1719 12.352-21.191 17.355-33.539 11.18l-149.77-74.887c-4.7734-2.3203-8.8516-6.1758-11.406-11.293-0.125-0.24219-0.24219-0.48828-0.35547-0.73438-0.24609-0.53906-0.47656-1.0859-0.68359-1.6445-1.1562-3.0625-1.668-6.207-1.6016-9.3047v-174.5c0-13.809 11.191-25 25-25s25 11.191 25 25v134.55l113.82-56.91c12.348-6.1758 27.367-1.1719 33.539 11.18 6.1758 12.348 1.1719 27.367-11.18 33.539zm-30.902-459.55v134.55c0 13.809-11.191 25-25 25s-25-11.191-25-25v-174.5c-0.078125-3.6719 0.65625-7.4102 2.2852-10.949 1.2266-2.6602 2.9102-5.0938 4.9844-7.1836 2.1055-2.0898 4.3516-3.6641 6.7773-4.8438l149.77-74.887c12.348-6.1758 27.367-1.1719 33.539 11.18 6.1758 12.348 1.1719 27.367-11.18 33.539l-105.28 52.641 105.28 52.641c12.352 6.1719 17.355 21.191 11.18 33.539-6.1719 12.352-21.191 17.355-33.539 11.18zm363.37-262.59c3.4727-1.8281 7.4297-2.8633 11.629-2.8633s8.1562 1.0352 11.629 2.8633l149.55 74.777c12.352 6.1719 17.355 21.191 11.18 33.539-6.1719 12.352-21.191 17.355-33.539 11.18l-113.82-56.91v134.55c0 13.809-11.191 25-25 25s-25-11.191-25-25v-134.55l-113.82 56.91c-12.348 6.1758-27.367 1.1719-33.539-11.18-6.1758-12.348-1.1719-27.367 11.18-33.539zm23.258 944.27c-3.4727 1.8281-7.4297 2.8633-11.629 2.8633s-8.1562-1.0352-11.629-2.8633l-149.55-74.777c-12.352-6.1719-17.355-21.191-11.18-33.539 6.1719-12.352 21.191-17.355 33.539-11.18l113.82 56.91v-134.55c0-13.809 11.191-25 25-25s25 11.191 25 25v134.55l113.82-56.91c12.348-6.1758 27.367-1.1719 33.539 11.18 6.1758 12.348 1.1719 27.367-11.18 33.539zm13.371-506.69v134.55c0 13.809-11.191 25-25 25s-25-11.191-25-25v-134.55l-136.18-68.09c-12.352-6.1719-17.355-21.191-11.18-33.539 6.1719-12.352 21.191-17.355 33.539-11.18l138.82 69.41 138.82-69.41c12.348-6.1758 27.367-1.1719 33.539 11.18 6.1758 12.348 1.1719 27.367-11.18 33.539z" fill="#fff"/>
</svg>
