<svg width="22" height="22" viewBox="0 0 22 22" fill="none" xmlns="http://www.w3.org/2000/svg">
<path d="M8.56709 10.9971L0.503889 2.93601C-0.167961 2.26434 -0.167961 1.17559 0.503889 0.503754C1.17574 -0.167918 2.26478 -0.167918 2.93679 0.503754L11 8.56482L19.0632 0.503754C19.7351 -0.167918 20.8241 -0.167918 21.4961 0.503754C22.168 1.17543 22.168 2.26417 21.4961 2.93601L13.4329 10.9971L21.4961 19.0581C22.168 19.7298 22.168 20.8186 21.4961 21.4904C21.1717 21.8147 20.7315 22 20.2912 22C19.8509 22 19.4107 21.8378 19.0863 21.4904L11 13.4293L2.93675 21.4904C2.61238 21.8147 2.17214 22 1.73186 22C1.29159 22 0.851358 21.8378 0.526976 21.4904C-0.144875 20.8187 -0.144875 19.73 0.526976 19.0581L8.56709 10.9971Z" fill="white"/>
</svg>
