<svg width="15" height="14" viewBox="0 0 15 14" fill="none" xmlns="http://www.w3.org/2000/svg">
<path fill-rule="evenodd" clip-rule="evenodd" d="M8.11193 0.932311L9.56528 4.30023C9.66335 4.52749 9.87925 4.68171 10.126 4.70078L13.8531 4.98877C14.4511 5.03498 14.6887 5.78569 14.2262 6.16755L11.4233 8.48173C11.2256 8.64496 11.139 8.90711 11.2006 9.15598L12.0632 12.6415C12.2051 13.2147 11.5867 13.6758 11.0779 13.3762L7.83804 11.4689C7.62931 11.346 7.37034 11.346 7.16161 11.4689L3.92179 13.3762C3.41292 13.6758 2.79457 13.2147 2.93643 12.6415L3.79905 9.15598C3.86065 8.90711 3.77406 8.64496 3.57636 8.48173L0.773435 6.16755C0.310929 5.78569 0.548532 5.03498 1.14652 4.98877L4.87362 4.70078C5.1204 4.68171 5.3363 4.52749 5.43437 4.30023L6.88772 0.932311C7.11932 0.39561 7.88033 0.39561 8.11193 0.932311Z" fill="#FCFCFD"/>
</svg>
