<svg width="36" height="46" viewBox="0 0 36 46" fill="none" xmlns="http://www.w3.org/2000/svg">
<path fill-rule="evenodd" clip-rule="evenodd" d="M34.3636 3.28571H24.5455V1.64286C24.5455 1.20721 24.373 0.789153 24.0662 0.481122C23.7594 0.173091 23.343 0 22.9091 0H13.0909C12.657 0 12.2406 0.173091 11.9338 0.481122C11.627 0.789153 11.4545 1.20721 11.4545 1.64286V3.28571H1.63636C1.20244 3.28571 0.786034 3.45881 0.479221 3.76684C0.172407 4.07487 0 4.49292 0 4.92857V44.3571C0 44.7928 0.172407 45.2108 0.479221 45.5189C0.786034 45.8269 1.20244 46 1.63636 46H34.3636C34.7976 46 35.214 45.8269 35.5208 45.5189C35.8276 45.2108 36 44.7928 36 44.3571V4.92857C36 4.49292 35.8276 4.07487 35.5208 3.76684C35.214 3.45881 34.7976 3.28571 34.3636 3.28571ZM14.7266 3.28564H21.272V6.57136H14.7266V3.28564ZM3.27344 42.7141H32.728V6.57129H24.5462V8.21415C24.5462 8.64979 24.3738 9.06785 24.0669 9.37588C23.7601 9.68391 23.3437 9.857 22.9098 9.857H13.0916C12.6577 9.857 12.2413 9.68391 11.9345 9.37588C11.6277 9.06785 11.4553 8.64979 11.4553 8.21415V6.57129H3.27344V42.7141ZM25.9246 13.8432C26.1572 14.2114 26.2364 14.6586 26.1448 15.0862C26.0532 15.5138 25.7984 15.8868 25.436 16.124L15.3076 22.7357H15.308C15.0459 22.9076 14.7406 22.9995 14.4284 23.0002H14.054C13.6248 22.898 13.2548 22.6239 13.0284 22.2398L10.1301 17.2811H10.1297C9.85891 16.9029 9.75823 16.4258 9.85345 15.968C9.94832 15.5105 10.23 15.115 10.6284 14.8799C11.0267 14.6449 11.5044 14.5921 11.9431 14.7349C12.3821 14.8773 12.7409 15.202 12.9306 15.6281L14.966 19.1159L23.6778 13.4299C24.0307 13.1857 24.4643 13.0923 24.8845 13.1695C25.3051 13.2469 25.6787 13.4886 25.9248 13.8432L25.9246 13.8432ZM20.5526 31.9864L23.9549 29.1455V29.1947C24.4051 28.8193 24.6213 28.2312 24.5224 27.6521C24.4235 27.0732 24.0243 26.5912 23.4755 26.3877C22.9266 26.1839 22.3111 26.2898 21.8612 26.6656L18.0006 29.9501L14.1399 26.6656C13.69 26.2898 13.0744 26.1839 12.5256 26.3877C11.9768 26.5912 11.5777 27.0732 11.4788 27.6521C11.3798 28.2313 11.596 28.8193 12.0462 29.1947V29.195L15.4485 32.036L12.0462 34.8769C11.7121 35.1555 11.5021 35.5561 11.462 35.9905C11.4222 36.4246 11.5558 36.8572 11.8333 37.1926C12.1112 37.5276 12.5103 37.7388 12.9426 37.7787C13.3753 37.8187 13.8058 37.6845 14.1399 37.4059L18.0006 34.1214L21.8612 37.3568C22.3111 37.7322 22.9267 37.8381 23.4755 37.6347C24.0243 37.4312 24.4234 36.9492 24.5224 36.37C24.6213 35.7911 24.4051 35.2031 23.9549 34.8274L20.5526 31.9864Z" fill="white"/>
</svg>
