<svg width="36" height="31" viewBox="0 0 36 31" fill="none" xmlns="http://www.w3.org/2000/svg">
<path d="M0.535013 14.6445C4.15889 12.6483 8.20413 10.9824 11.9838 9.30784C18.4863 6.56511 25.0147 3.86992 31.6089 1.36073C32.8919 0.933185 35.1971 0.515073 35.4232 2.41641C35.2994 5.10772 34.7902 7.78328 34.441 10.4588C33.5545 16.3426 32.53 22.2063 31.5309 28.0707C31.1866 30.0241 28.7396 31.0353 27.1738 29.7853C23.4109 27.2435 19.6191 24.7266 15.9043 22.1259C14.6874 20.8894 15.8158 19.1138 16.9026 18.2308C20.0018 15.1765 23.2886 12.5816 26.2258 9.36945C27.0182 7.4561 24.6771 9.06862 23.905 9.56268C19.6621 12.4865 15.5231 15.5888 11.0498 18.1585C8.76484 19.4163 6.10168 18.3414 3.81776 17.6395C1.76992 16.7916 -1.2309 15.9374 0.534806 14.6446L0.535013 14.6445Z" fill="white"/>
</svg>
