<svg width="44" height="34" viewBox="0 0 44 34" fill="none" xmlns="http://www.w3.org/2000/svg">
<path d="M37.7073 1L37.7085 0H37.7073V1ZM6.29262 1V-8.34465e-07L6.29135 8.34465e-07L6.29262 1ZM41.4512 2.56097L42.1602 1.85579L42.1602 1.85579L41.4512 2.56097ZM42.9999 6.32127L41.9999 6.32064V6.32127H42.9999ZM42.9999 27.664H41.9999L41.9999 27.6674L42.9999 27.664ZM41.4566 31.4341L42.1664 32.1385L42.1665 32.1383L41.4566 31.4341ZM37.7073 33V34H37.7086L37.7073 33ZM6.29262 33L6.29141 34H6.29262V33ZM2.54337 31.4341L1.8334 32.1383L1.83356 32.1385L2.54337 31.4341ZM1.00003 27.664L2.00003 27.6674V27.664H1.00003ZM1.00003 6.32127H2.00003L2.00003 6.32062L1.00003 6.32127ZM2.54872 2.56097L1.83971 1.85577L1.83969 1.85579L2.54872 2.56097ZM41.2278 27.679H42.2278H41.2278ZM41.2278 27.6794H40.2278V27.6804L41.2278 27.6794ZM41.2278 6.32151L40.2278 6.32056V6.32151L41.2278 6.32151ZM40.198 3.81895L39.4884 4.52358L39.4889 4.52406L40.198 3.81895ZM37.7073 2.77872L37.7092 1.77872H37.7073V2.77872ZM6.2926 2.77872V1.77872L6.29068 1.77872L6.2926 2.77872ZM3.80187 3.81895L4.511 4.52403L4.51145 4.52358L3.80187 3.81895ZM2.77209 6.32151H3.77209L3.77209 6.32056L2.77209 6.32151ZM2.77209 27.6642L3.77209 27.6694V27.6642H2.77209ZM3.79653 30.1766L3.08577 30.8801L3.08602 30.8803L3.79653 30.1766ZM6.29261 31.2218L6.29071 32.2218H6.29261V31.2218ZM37.7073 31.2218V32.2218L37.7092 32.2218L37.7073 31.2218ZM40.198 30.182L40.9074 30.8868L40.9074 30.8868L40.198 30.182ZM37.7073 0H6.29262V2H37.7073V0ZM42.1602 1.85579C40.9808 0.669937 39.3797 0.00204086 37.7085 7.7486e-07L37.7061 2C38.8448 2.00139 39.9368 2.4564 40.7422 3.26615L42.1602 1.85579ZM43.9999 6.3219C44.001 4.64782 43.3395 3.04149 42.1602 1.85579L40.7422 3.26615C41.5478 4.07614 42.0006 5.17464 41.9999 6.32064L43.9999 6.3219ZM43.9999 27.664V6.32127H41.9999V27.664H43.9999ZM42.1665 32.1383C43.3464 30.9489 44.0057 29.3378 43.9999 27.6605L41.9999 27.6674C42.0039 28.8158 41.5524 29.9175 40.7466 30.7299L42.1665 32.1383ZM37.7086 34C39.3824 33.9979 40.986 33.3279 42.1664 32.1385L40.7468 30.7297C39.9405 31.5421 38.8466 31.9986 37.706 32L37.7086 34ZM6.29262 34H37.7073V32H6.29262V34ZM1.83356 32.1385C3.0139 33.3279 4.61764 33.998 6.29141 34L6.29384 32C5.15344 31.9986 4.0594 31.5421 3.25318 30.7297L1.83356 32.1385ZM3.80874e-05 27.6605C-0.00577354 29.3376 0.653531 30.9489 1.8334 32.1383L3.25333 30.7299C2.4475 29.9175 1.99605 28.8157 2.00003 27.6674L3.80874e-05 27.6605ZM3.20673e-05 6.32127V27.664H2.00003V6.32127H3.20673e-05ZM1.83969 1.85579C0.660486 3.04143 -0.00104976 4.64781 3.23057e-05 6.32192L2.00003 6.32062C1.99929 5.17465 2.45219 4.07611 3.25775 3.26615L1.83969 1.85579ZM6.29135 8.34465e-07C4.62024 0.00212586 3.01914 0.669972 1.83971 1.85577L3.25773 3.26617C4.06309 2.45646 5.15518 2.00145 6.2939 2L6.29135 8.34465e-07ZM40.2278 27.679V27.6794H42.2278V27.679H40.2278ZM40.2278 6.32151L40.2278 27.679H42.2278L42.2278 6.32151L40.2278 6.32151ZM39.4889 4.52406C39.9623 5.00013 40.2284 5.64607 40.2278 6.32056L42.2278 6.32246C42.2289 5.12018 41.7546 3.96608 40.9071 3.11385L39.4889 4.52406ZM37.7054 3.77872C38.374 3.78 39.0156 4.04746 39.4884 4.52358L40.9076 3.11433C40.0605 2.26124 38.9096 1.78102 37.7092 1.77872L37.7054 3.77872ZM6.2926 3.77872H37.7073V1.77872H6.2926V3.77872ZM4.51145 4.52358C4.98424 4.04746 5.6259 3.78 6.29452 3.77872L6.29068 1.77872C5.09026 1.78103 3.93943 2.26124 3.09229 3.11432L4.51145 4.52358ZM3.77209 6.32056C3.77145 5.64609 4.03757 5.00018 4.511 4.52403L3.09274 3.11387C2.24535 3.96613 1.77095 5.12015 1.77209 6.32246L3.77209 6.32056ZM3.77209 27.6642V6.32151H1.77209V27.6642H3.77209ZM4.50728 29.4732C4.03371 28.9947 3.76856 28.3457 3.77208 27.6694L1.77211 27.659C1.76583 28.865 2.23853 30.024 3.08577 30.8801L4.50728 29.4732ZM6.29452 30.2218C5.62424 30.2205 4.98106 29.9515 4.50703 29.4729L3.08602 30.8803C3.93374 31.7362 5.08657 32.2195 6.29071 32.2218L6.29452 30.2218ZM37.7073 30.2218H6.29261V32.2218H37.7073V30.2218ZM39.4887 29.4771C39.0158 29.953 38.374 30.2205 37.7054 30.2218L37.7092 32.2218C38.9096 32.2194 40.0603 31.7393 40.9074 30.8868L39.4887 29.4771ZM40.2278 27.6804C40.2284 28.3542 39.9624 29.0003 39.4887 29.4771L40.9074 30.8868C41.7545 30.0343 42.2289 28.8804 42.2278 27.6785L40.2278 27.6804Z" fill="white"/>
<path fill-rule="evenodd" clip-rule="evenodd" d="M18.2709 11.105L27.5411 16.2066L27.5411 16.2183C27.8233 16.3736 28 16.6769 28 17.0076C28 17.3383 27.8233 17.6421 27.5411 17.7969H27.5407L18.2709 22.8959C18.1459 22.9641 18.0065 23 17.8645 23C17.7078 23 17.5537 22.9569 17.4182 22.8748C17.1542 22.7101 16.9949 22.4131 17.0001 22.0945V11.8939C17.0001 11.5802 17.159 11.2894 17.4195 11.1275C17.6796 10.9659 18.003 10.9574 18.2709 11.105ZM18.7294 13.3831V20.6082L25.2965 16.9958L18.7294 13.3831Z" fill="white"/>
<path d="M27.5411 16.2066L28.0411 16.2075L28.0416 15.9114L27.7822 15.7686L27.5411 16.2066ZM18.2709 11.105L18.0296 11.5429L18.0298 11.5431L18.2709 11.105ZM27.5411 16.2183L27.0411 16.2174L27.0406 16.5136L27.3001 16.6564L27.5411 16.2183ZM27.5411 17.7969V18.2969H27.6692L27.7816 18.2353L27.5411 17.7969ZM27.5407 17.7969V17.2969H27.4122L27.2997 17.3588L27.5407 17.7969ZM18.2709 22.8959L18.5103 23.3348L18.5119 23.334L18.2709 22.8959ZM17.4182 22.8748L17.1535 23.2991L17.159 23.3024L17.4182 22.8748ZM17.0001 22.0945L17.5001 22.1026V22.0945H17.0001ZM17.4195 11.1275L17.1557 10.7027L17.1555 10.7029L17.4195 11.1275ZM18.7294 20.6082H18.2294V21.4539L18.9704 21.0463L18.7294 20.6082ZM18.7294 13.3831L18.9704 12.945L18.2294 12.5374V13.3831H18.7294ZM25.2965 16.9958L25.5375 17.4339L26.3339 16.9958L25.5375 16.5577L25.2965 16.9958ZM27.7822 15.7686L18.512 10.667L18.0298 11.5431L27.3 16.6447L27.7822 15.7686ZM28.0411 16.2192L28.0411 16.2075L27.0411 16.2057L27.0411 16.2174L28.0411 16.2192ZM28.5 17.0076C28.5 16.5001 28.2288 16.026 27.7821 15.7802L27.3001 16.6564C27.4178 16.7211 27.5 16.8537 27.5 17.0076H28.5ZM27.7816 18.2353C28.2291 17.9898 28.5 17.5148 28.5 17.0076H27.5C27.5 17.1619 27.4175 17.2944 27.3006 17.3586L27.7816 18.2353ZM27.5407 18.2969H27.5411V17.2969H27.5407V18.2969ZM18.5119 23.334L27.7816 18.235L27.2997 17.3588L18.0299 22.4578L18.5119 23.334ZM17.8645 23.5C18.0912 23.5 18.3127 23.4426 18.5103 23.3348L18.0315 22.457C17.979 22.4856 17.9218 22.5 17.8645 22.5V23.5ZM17.159 23.3024C17.3722 23.4316 17.6159 23.5 17.8645 23.5V22.5C17.7997 22.5 17.7352 22.4822 17.6774 22.4472L17.159 23.3024ZM16.5002 22.0863C16.4922 22.5754 16.7366 23.0389 17.1536 23.299L17.6829 22.4506C17.5719 22.3813 17.4976 22.2507 17.5001 22.1026L16.5002 22.0863ZM16.5001 11.8939V22.0945H17.5001V11.8939H16.5001ZM17.1555 10.7029C16.7439 10.9588 16.5001 11.4126 16.5001 11.8939H17.5001C17.5001 11.7479 17.5741 11.6201 17.6836 11.552L17.1555 10.7029ZM18.5123 10.6671C18.0858 10.4321 17.5692 10.4459 17.1557 10.7027L17.6833 11.5522C17.79 11.4859 17.9203 11.4827 18.0296 11.5429L18.5123 10.6671ZM19.2294 20.6082V13.3831H18.2294V20.6082H19.2294ZM25.0555 16.5577L18.4884 20.1701L18.9704 21.0463L25.5375 17.4339L25.0555 16.5577ZM18.4884 13.8212L25.0555 17.4339L25.5375 16.5577L18.9704 12.945L18.4884 13.8212Z" fill="white"/>
</svg>
