<svg xmlns="http://www.w3.org/2000/svg" viewBox="0 0 233.8 131.5"><path d="M206.4 65.4c-.3 5.4.3 11.1-.9 16.3-2.1 9.9-8.2 17.7-20.8 17.9-5.8.1-11.8.6-17.4-.3-9.9-1.7-18-7.4-18.7-20.4-.5-9.5-.3-19.1.3-28.7.7-11.5 8.9-17.9 19.5-19.2 6.7-.8 13.7-.5 20.4.4 9.9 1.2 15.7 9.4 16.9 18.8.6 5 .7 7.5.7 12.6v2.6zm-23.4-.1h-.1c0-2.5.2-4.9 0-7.4-.2-2.4-2.6-4.2-5.3-4.2-3.1 0-5.5 1.7-5.7 4.3-.2 4.6-.3 9.3-.1 13.9.1 3.2 2.1 4.7 5.5 4.7 3.5 0 5.5-1.6 5.7-4.8.1-2.2 0-4.4 0-6.5zm-94.8-.1c0-4.6-.1-9.1 0-13.7.4-12.3 8.2-18.7 17.3-20 7.7-1.1 15.9-1.1 23.6 0 9.2 1.3 13.8 8.4 15.9 17 .4 1.7.6 3.6.6 5.4.1 7.8.2 15.7 0 23.5-.2 8.2-4.9 20.1-17.1 21.6-9.7 1.3-19.8 2.4-29.2-2.3-7-3.5-10.6-9.3-11.1-16.9-.2-4.8 0-9.7 0-14.6zm23 .1v6.3c.1 3 1.5 4.7 4.3 5 3.6.5 6.5-.9 6.8-3.9.4-5 .3-10 0-15-.2-2.6-3.1-4.3-5.9-4-3.2.3-5 2-5.1 5-.2 2.2-.1 4.4-.1 6.6zM54.3 99.6c-6.9 0-13.8.1-20.8 0-4-.1-5.9-1.8-6-5.8-.1-6.1-.1-12.2 0-18.3 0-2.3 1.5-3.6 3.4-4.5 8.5-3.7 16.9-7.5 25.4-11.2 1.5-.7 3.1-1.2 4.3-2.3.8-.7 1.4-2.3 1.2-3.2-.2-.9-1.6-2-2.7-2.1-2.7-.3-5.4-.2-8.2-.2-4.4 0-8.7.1-13.1.1-6.7 0-10.4-3.3-10.3-9.6.1-6.4 3.2-11.4 9.8-11.6 12.8-.3 25.5-.2 38.3 0 5.4.1 9 3.8 9.3 9.2.2 4.4.1 8.7.1 13.1 0 4.1-2 6.9-5.5 8.7-8 3.9-16 7.7-24 11.6-1.1.6-2.4.9-3.4 1.7l-.1.1c-1.1 1-.8 2.8.5 3.4.2.1.4.2.7.2 1 .3 2.2.1 3.3.1 6.1 0 12.1.3 18.2.3 9.1 0 10.1 3.5 10.2 11.7 0 6.2-4.3 8.6-9.8 8.8-7 0-13.9-.2-20.8-.2z"/></svg>