<svg width="100" height="36" viewBox="0 0 100 36" fill="none" xmlns="http://www.w3.org/2000/svg">
<path d="M7.6 29.528H23.392V35H0.112V29.816L15.568 6.536H0.352V1.112H23.2V6.296L7.6 29.528ZM44.4756 0.631999C47.6436 0.631999 50.5076 1.368 53.0676 2.84C55.6596 4.312 57.6916 6.376 59.1636 9.032C60.6676 11.656 61.4196 14.632 61.4196 17.96C61.4196 21.288 60.6676 24.28 59.1636 26.936C57.6916 29.592 55.6596 31.656 53.0676 33.128C50.5076 34.6 47.6436 35.336 44.4756 35.336C41.3076 35.336 38.4276 34.6 35.8356 33.128C33.2756 31.656 31.2436 29.592 29.7396 26.936C28.2676 24.28 27.5316 21.288 27.5316 17.96C27.5316 14.632 28.2676 11.656 29.7396 9.032C31.2436 6.376 33.2756 4.312 35.8356 2.84C38.4276 1.368 41.3076 0.631999 44.4756 0.631999ZM44.4756 6.872C42.4916 6.872 40.7476 7.32 39.2436 8.216C37.7396 9.112 36.5556 10.408 35.6916 12.104C34.8596 13.768 34.4436 15.72 34.4436 17.96C34.4436 20.2 34.8596 22.168 35.6916 23.864C36.5556 25.528 37.7396 26.808 39.2436 27.704C40.7476 28.6 42.4916 29.048 44.4756 29.048C46.4596 29.048 48.2036 28.6 49.7076 27.704C51.2116 26.808 52.3796 25.528 53.2116 23.864C54.0756 22.168 54.5076 20.2 54.5076 17.96C54.5076 15.72 54.0756 13.768 53.2116 12.104C52.3796 10.408 51.2116 9.112 49.7076 8.216C48.2036 7.32 46.4596 6.872 44.4756 6.872ZM82.3975 0.631999C85.5655 0.631999 88.4295 1.368 90.9895 2.84C93.5815 4.312 95.6135 6.376 97.0855 9.032C98.5895 11.656 99.3415 14.632 99.3415 17.96C99.3415 21.288 98.5895 24.28 97.0855 26.936C95.6135 29.592 93.5815 31.656 90.9895 33.128C88.4295 34.6 85.5655 35.336 82.3975 35.336C79.2295 35.336 76.3495 34.6 73.7575 33.128C71.1975 31.656 69.1655 29.592 67.6615 26.936C66.1895 24.28 65.4535 21.288 65.4535 17.96C65.4535 14.632 66.1895 11.656 67.6615 9.032C69.1655 6.376 71.1975 4.312 73.7575 2.84C76.3495 1.368 79.2295 0.631999 82.3975 0.631999ZM82.3975 6.872C80.4135 6.872 78.6695 7.32 77.1655 8.216C75.6615 9.112 74.4775 10.408 73.6135 12.104C72.7815 13.768 72.3655 15.72 72.3655 17.96C72.3655 20.2 72.7815 22.168 73.6135 23.864C74.4775 25.528 75.6615 26.808 77.1655 27.704C78.6695 28.6 80.4135 29.048 82.3975 29.048C84.3815 29.048 86.1255 28.6 87.6295 27.704C89.1335 26.808 90.3015 25.528 91.1335 23.864C91.9975 22.168 92.4295 20.2 92.4295 17.96C92.4295 15.72 91.9975 13.768 91.1335 12.104C90.3015 10.408 89.1335 9.112 87.6295 8.216C86.1255 7.32 84.3815 6.872 82.3975 6.872Z" fill="#FCFCFD"/>
</svg>
