<svg width="33" height="33" viewBox="0 0 33 33" fill="none" xmlns="http://www.w3.org/2000/svg">
<path fill-rule="evenodd" clip-rule="evenodd" d="M28.6046 0.115872C29.6185 0.327151 30.5523 0.820111 31.2997 1.53835L31.2995 1.53383C32.063 2.26636 32.6006 3.20382 32.8473 4.23391C33.0944 5.264 33.0406 6.3433 32.6928 7.34395L25.3304 29.204C24.9761 30.3031 24.2843 31.2621 23.3532 31.9437C22.4226 32.6256 21.3008 32.9953 20.1478 33H20.1015C18.9923 33.0039 17.9071 32.6734 16.9875 32.0515C16.0679 31.4299 15.356 30.5453 14.9447 29.513H14.9451V29.4562L11.86 21.3382C11.8421 21.2883 11.8141 21.2426 11.7775 21.2046C11.7453 21.1719 11.7069 21.1456 11.6646 21.1273L3.57698 18.0366C2.14171 17.4977 0.995162 16.3838 0.413102 14.9631C-0.169316 13.5425 -0.134529 11.9429 0.508861 10.5492C1.15227 9.15504 2.34581 8.09228 3.8033 7.6162L25.567 0.343312C26.5382 -0.0167085 27.5911 -0.0953978 28.6046 0.115872ZM21.4708 28.0329L28.9115 5.90443L28.9168 5.89935C29.0406 5.55322 29.0258 5.17233 28.8752 4.83713C28.7247 4.50157 28.4503 4.23821 28.1094 4.10145C27.7688 3.96505 27.3888 3.96613 27.0489 4.10507L4.96547 11.4899C4.68606 11.5766 4.44176 11.7504 4.26803 11.9862C4.0943 12.2219 4.00056 12.5074 4.00056 12.8006C3.99224 13.0947 4.07658 13.3839 4.24125 13.6276C4.4063 13.8711 4.643 14.0564 4.91879 14.1576L12.8368 17.1795L18.508 11.4953L21.4447 14.4388L15.7786 20.1178L18.8298 28.0953C18.9358 28.3626 19.1197 28.5919 19.3575 28.7533C19.5953 28.9147 19.8761 29.0007 20.1631 29C20.4556 29 20.7404 28.906 20.9757 28.7319C21.2109 28.5578 21.3843 28.3129 21.4708 28.0329Z" fill="white"/>
</svg>
