<svg width="32" height="32" viewBox="0 0 32 32" fill="none" xmlns="http://www.w3.org/2000/svg">
<path d="M26.1774 10.6629C26.1947 10.8962 26.1947 11.1282 26.1947 11.3602C26.1947 18.4602 20.7907 26.6416 10.9147 26.6416C7.87208 26.6416 5.04541 25.7602 2.66675 24.2296C3.09875 24.2789 3.51475 24.2962 3.96408 24.2962C6.3814 24.3021 8.73028 23.4937 10.6321 22.0016C9.51131 21.9813 8.42485 21.6115 7.5244 20.9439C6.62395 20.2762 5.95446 19.3441 5.60941 18.2776C5.94141 18.3269 6.27475 18.3602 6.62408 18.3602C7.10541 18.3602 7.58941 18.2936 8.03875 18.1776C6.82243 17.932 5.72871 17.2727 4.94357 16.3118C4.15843 15.3509 3.73034 14.1478 3.73208 12.9069V12.8402C4.44808 13.2389 5.27875 13.4882 6.15875 13.5216C5.42153 13.0317 4.81704 12.3669 4.3992 11.5866C3.98136 10.8063 3.76317 9.93469 3.76408 9.04955C3.76408 8.05222 4.02941 7.13755 4.49475 6.34022C5.84427 8.00025 7.52742 9.3583 9.4352 10.3264C11.343 11.2946 13.4328 11.8512 15.5694 11.9602C15.4867 11.5602 15.4361 11.1456 15.4361 10.7296C15.4357 10.0242 15.5744 9.32563 15.8442 8.67387C16.114 8.02212 16.5095 7.42992 17.0083 6.93114C17.5071 6.43236 18.0993 6.03677 18.7511 5.76699C19.4028 5.49721 20.1014 5.35854 20.8067 5.35889C22.3534 5.35889 23.7494 6.00689 24.7307 7.05489C25.9331 6.82238 27.0861 6.38345 28.1387 5.75755C27.738 6.99864 26.8984 8.05103 25.7774 8.71755C26.8438 8.59593 27.886 8.31549 28.8694 7.88555C28.1349 8.95635 27.2248 9.89535 26.1774 10.6629V10.6629Z" fill="#F5F5F5"/>
</svg>
