<svg width="42" height="42" viewBox="0 0 42 42" fill="none" xmlns="http://www.w3.org/2000/svg">
<path d="M29.5629 0H12.8564C6.06674 0 0.542969 5.52377 0.542969 12.3134V29.0199C0.542969 35.8096 6.06674 41.3333 12.8564 41.3333H29.5629C36.3525 41.3333 41.8763 35.8096 41.8763 29.0199V12.3134C41.8762 5.52377 36.3524 0 29.5629 0ZM37.7182 29.0199C37.7182 33.5239 34.0669 37.1752 29.5629 37.1752H12.8564C8.35239 37.1752 4.7011 33.5239 4.7011 29.0199V12.3134C4.7011 7.80934 8.35239 4.15813 12.8564 4.15813H29.5629C34.0669 4.15813 37.7182 7.80934 37.7182 12.3134V29.0199Z" fill="white"/>
<path d="M21.2098 9.97656C15.3152 9.97656 10.5195 14.7722 10.5195 20.6668C10.5195 26.5613 15.3152 31.357 21.2098 31.357C27.1044 31.357 31.9001 26.5614 31.9001 20.6668C31.9001 14.7721 27.1044 9.97656 21.2098 9.97656ZM21.2098 27.199C17.6022 27.199 14.6777 24.2745 14.6777 20.6668C14.6777 17.0592 17.6022 14.1347 21.2098 14.1347C24.8174 14.1347 27.7419 17.0592 27.7419 20.6668C27.7419 24.2744 24.8174 27.199 21.2098 27.199Z" fill="white"/>
<path d="M31.921 12.6183C33.3357 12.6183 34.4826 11.4715 34.4826 10.0567C34.4826 8.64199 33.3357 7.49512 31.921 7.49512C30.5062 7.49512 29.3594 8.64199 29.3594 10.0567C29.3594 11.4715 30.5062 12.6183 31.921 12.6183Z" fill="white"/>
</svg>
