<svg width="32" height="32" viewBox="0 0 32 32" fill="none" xmlns="http://www.w3.org/2000/svg">
<rect width="32" height="32" rx="16" fill="#2517FF"/>
<path fill-rule="evenodd" clip-rule="evenodd" d="M19.504 11.8217L22.7348 15.3217C23.0884 15.7047 23.0884 16.2952 22.7348 16.6782L19.504 20.1783C19.1294 20.5841 18.4968 20.6094 18.091 20.2348C17.6851 19.8602 17.6598 19.2276 18.0344 18.8217L19.716 17L10 17C9.44771 17 9 16.5523 9 16C9 15.4477 9.44771 15 10 15L19.716 15L18.0344 13.1783C17.6598 12.7725 17.6851 12.1398 18.0909 11.7652C18.4968 11.3906 19.1294 11.4159 19.504 11.8217Z" fill="#FCFCFD"/>
</svg>
