<?xml version="1.0" encoding="UTF-8"?>
<svg width="95px" height="99px" viewBox="0 0 95 99" version="1.1" xmlns="http://www.w3.org/2000/svg" xmlns:xlink="http://www.w3.org/1999/xlink">
    <title>Artboard</title>
    <g id="Artboard" stroke="none" stroke-width="1" fill="none" fill-rule="evenodd">
        <g id="Group" transform="translate(28.000000, 9.000000)" fill="#FFFFFF" fill-rule="nonzero">
            <path d="M40.1148909,24.3135211 C41.003693,25.2288263 42.4448964,25.2288263 43.3336984,24.3135211 C44.2221005,23.3982563 44.2221005,21.9142672 43.3336984,20.998962 L23.6093323,0.686469514 C22.7205302,-0.228823171 21.2795668,-0.228823171 20.3907647,0.686469514 L0.66658656,20.998962 C-0.22219552,21.9142672 -0.22219552,23.3982563 0.66658656,24.3135211 C1.55536464,25.2288263 2.99636801,25.2288263 3.88515009,24.3135211 L22.0000485,5.65832838 L40.1148909,24.3135211 Z" id="Path"></path>
            <path d="M40.1148911,59.6863843 C41.0036931,58.7712052 42.4448964,58.7712052 43.3336985,59.6863843 C44.2221005,60.6019679 44.2221005,62.085747 43.3336985,63.0009261 L23.6093333,83.3136157 C22.7205313,84.2287948 21.2795679,84.2287948 20.3907659,83.3136157 L0.666584727,63.0009261 C-0.222194909,62.085747 -0.222194909,60.6019679 0.666584727,59.6863843 C1.55536676,58.7712052 2.99637006,58.7712052 3.8851481,59.6863843 L22.0000496,78.341803 L40.1148911,59.6863843 Z" id="Path"></path>
        </g>
    </g>
</svg>