<svg width="30" height="38" viewBox="0 0 30 38" fill="none" xmlns="http://www.w3.org/2000/svg">
<path d="M8 5V26C8 26.9283 8.36875 27.8185 9.02513 28.4749C9.6815 29.1313 10.5717 29.5 11.5 29.5H25.5C26.4283 29.5 27.3185 29.1313 27.9749 28.4749C28.6313 27.8185 29 26.9283 29 26V10.6735C28.9999 10.2072 28.9067 9.74567 28.7258 9.31593C28.5449 8.88619 28.2799 8.49692 27.9465 8.171L22.1453 2.4975C21.4914 1.85815 20.6133 1.50011 19.6988 1.5H11.5C10.5717 1.5 9.6815 1.86875 9.02513 2.52513C8.36875 3.1815 8 4.07174 8 5V5Z" stroke="#15F195" stroke-width="2" stroke-linecap="round" stroke-linejoin="round"/>
<path d="M22 29.5V33C22 33.9283 21.6313 34.8185 20.9749 35.4749C20.3185 36.1313 19.4283 36.5 18.5 36.5H4.5C3.57174 36.5 2.6815 36.1313 2.02513 35.4749C1.36875 34.8185 1 33.9283 1 33V13.75C1 12.8217 1.36875 11.9315 2.02513 11.2751C2.6815 10.6187 3.57174 10.25 4.5 10.25H8" stroke="#15F195" stroke-width="2" stroke-linecap="round" stroke-linejoin="round"/>
</svg>
