<svg width="51" height="51" viewBox="0 0 51 51" fill="none" xmlns="http://www.w3.org/2000/svg">
<circle cx="25.5" cy="25.5" r="25.5" fill="#45B36B"/>
<mask id="path-2-inside-1_3308_5258" fill="white">
<path fill-rule="evenodd" clip-rule="evenodd" d="M40 25.5C40 33.5081 33.5081 40 25.5 40C17.4919 40 11 33.5081 11 25.5C11 17.4919 17.4919 11 25.5 11C33.5081 11 40 17.4919 40 25.5ZM42 25.5C42 34.6127 34.6127 42 25.5 42C16.3873 42 9 34.6127 9 25.5C9 16.3873 16.3873 9 25.5 9C34.6127 9 42 16.3873 42 25.5ZM22 21H30V29H22V21ZM20 19H22H30H32V21V29V31H30H22H20V29V21V19Z"/>
</mask>
<path d="M30 21H32V19H30V21ZM22 21V19H20V21H22ZM30 29V31H32V29H30ZM22 29H20V31H22V29ZM20 19V17H18V19H20ZM32 19H34V17H32V19ZM32 31V33H34V31H32ZM20 31H18V33H20V31ZM25.5 42C34.6127 42 42 34.6127 42 25.5H38C38 32.4036 32.4036 38 25.5 38V42ZM9 25.5C9 34.6127 16.3873 42 25.5 42V38C18.5964 38 13 32.4036 13 25.5H9ZM25.5 9C16.3873 9 9 16.3873 9 25.5H13C13 18.5964 18.5964 13 25.5 13V9ZM42 25.5C42 16.3873 34.6127 9 25.5 9V13C32.4036 13 38 18.5964 38 25.5H42ZM25.5 44C35.7173 44 44 35.7173 44 25.5H40C40 33.5081 33.5081 40 25.5 40V44ZM7 25.5C7 35.7173 15.2827 44 25.5 44V40C17.4919 40 11 33.5081 11 25.5H7ZM25.5 7C15.2827 7 7 15.2827 7 25.5H11C11 17.4919 17.4919 11 25.5 11V7ZM44 25.5C44 15.2827 35.7173 7 25.5 7V11C33.5081 11 40 17.4919 40 25.5H44ZM30 19H22V23H30V19ZM32 29V21H28V29H32ZM22 31H30V27H22V31ZM20 21V29H24V21H20ZM22 17H20V21H22V17ZM30 17H22V21H30V17ZM32 17H30V21H32V17ZM34 21V19H30V21H34ZM34 29V21H30V29H34ZM34 31V29H30V31H34ZM30 33H32V29H30V33ZM22 33H30V29H22V33ZM20 33H22V29H20V33ZM18 29V31H22V29H18ZM18 21V29H22V21H18ZM18 19V21H22V19H18Z" fill="white" mask="url(#path-2-inside-1_3308_5258)"/>
<rect x="20" y="21" width="10" height="10" stroke="white" stroke-width="2"/>
</svg>
