<svg width="32" height="32" viewBox="0 0 32 32" fill="none" xmlns="http://www.w3.org/2000/svg">
<path d="M16.6667 1.3335C12.6865 1.3335 12.186 1.35183 10.6222 1.4215C9.05833 1.49483 7.99317 1.7405 7.06 2.1035C6.08117 2.47166 5.19457 3.04918 4.46217 3.79566C3.71614 4.52844 3.1387 5.41494 2.77 6.3935C2.407 7.32483 2.1595 8.39183 2.088 9.95016C2.01833 11.5177 2 12.0163 2 16.002C2 19.984 2.01833 20.4827 2.088 22.0465C2.16133 23.6085 2.407 24.6737 2.77 25.6068C3.14583 26.5712 3.64633 27.3888 4.46217 28.2047C5.27617 29.0205 6.09383 29.5228 7.05817 29.8968C7.99317 30.2598 9.0565 30.5073 10.6185 30.5788C12.1842 30.6485 12.6828 30.6668 16.6667 30.6668C20.6505 30.6668 21.1473 30.6485 22.713 30.5788C24.2732 30.5055 25.342 30.2598 26.2752 29.8968C27.2534 29.5285 28.1393 28.951 28.8712 28.2047C29.687 27.3888 30.1875 26.5712 30.5633 25.6068C30.9245 24.6737 31.172 23.6085 31.2453 22.0465C31.315 20.4827 31.3333 19.984 31.3333 16.0002C31.3333 12.0163 31.315 11.5177 31.2453 9.952C31.172 8.39183 30.9245 7.32483 30.5633 6.3935C30.1947 5.41491 29.6172 4.5284 28.8712 3.79566C28.139 3.0489 27.2523 2.47135 26.2733 2.1035C25.3383 1.7405 24.2713 1.493 22.7112 1.4215C21.1455 1.35183 20.6487 1.3335 16.663 1.3335H16.6685H16.6667ZM15.3522 3.97716H16.6685C20.5845 3.97716 21.0483 3.99 22.5938 4.0615C24.0238 4.12566 24.8012 4.36583 25.3182 4.56566C26.002 4.8315 26.4915 5.1505 27.0048 5.66383C27.5182 6.17716 27.8353 6.66483 28.1012 7.3505C28.3028 7.86566 28.5412 8.643 28.6053 10.073C28.6768 11.6185 28.6915 12.0823 28.6915 15.9965C28.6915 19.9107 28.6768 20.3763 28.6053 21.9218C28.5412 23.3518 28.301 24.1273 28.1012 24.6443C27.866 25.2812 27.4907 25.857 27.003 26.3292C26.4897 26.8425 26.002 27.1597 25.3163 27.4255C24.803 27.6272 24.0257 27.8655 22.5938 27.9315C21.0483 28.0012 20.5845 28.0177 16.6685 28.0177C12.7525 28.0177 12.2868 28.0012 10.7413 27.9315C9.31133 27.8655 8.53583 27.6272 8.01883 27.4255C7.38175 27.1907 6.8054 26.8161 6.33217 26.3292C5.84404 25.8562 5.46816 25.2799 5.23217 24.6425C5.03233 24.1273 4.79217 23.35 4.728 21.92C4.65833 20.3745 4.64367 19.9107 4.64367 15.9928C4.64367 12.0768 4.65833 11.6148 4.728 10.0693C4.794 8.63933 5.03233 7.862 5.234 7.345C5.49983 6.66116 5.81883 6.17166 6.33217 5.65833C6.8455 5.145 7.33317 4.82783 8.01883 4.562C8.53583 4.36033 9.31133 4.122 10.7413 4.056C12.0943 3.99366 12.6187 3.97533 15.3522 3.9735V3.97716ZM24.4968 6.41183C24.2657 6.41183 24.0368 6.45735 23.8233 6.5458C23.6098 6.63425 23.4158 6.76389 23.2523 6.92732C23.0889 7.09075 22.9593 7.28477 22.8708 7.49831C22.7824 7.71184 22.7368 7.9407 22.7368 8.17183C22.7368 8.40296 22.7824 8.63182 22.8708 8.84535C22.9593 9.05888 23.0889 9.25291 23.2523 9.41634C23.4158 9.57977 23.6098 9.70941 23.8233 9.79786C24.0368 9.8863 24.2657 9.93183 24.4968 9.93183C24.9636 9.93183 25.4113 9.7464 25.7413 9.41634C26.0714 9.08627 26.2568 8.63861 26.2568 8.17183C26.2568 7.70505 26.0714 7.25739 25.7413 6.92732C25.4113 6.59726 24.9636 6.41183 24.4968 6.41183ZM16.6685 8.46883C15.6695 8.45324 14.6773 8.63655 13.7498 9.00809C12.8223 9.37962 11.9779 9.93196 11.2659 10.6329C10.5539 11.3339 9.9885 12.1695 9.60254 13.0911C9.21658 14.0127 9.01782 15.0019 9.01782 16.0011C9.01782 17.0002 9.21658 17.9894 9.60254 18.911C9.9885 19.8326 10.5539 20.6682 11.2659 21.3692C11.9779 22.0702 12.8223 22.6225 13.7498 22.9941C14.6773 23.3656 15.6695 23.5489 16.6685 23.5333C18.6458 23.5025 20.5317 22.6953 21.9191 21.2861C23.3065 19.8769 24.0842 17.9786 24.0842 16.0011C24.0842 14.0235 23.3065 12.1253 21.9191 10.716C20.5317 9.30682 18.6458 8.49968 16.6685 8.46883ZM16.6685 11.1107C17.9653 11.1107 19.2089 11.6258 20.1259 12.5428C21.0429 13.4597 21.558 14.7034 21.558 16.0002C21.558 17.2969 21.0429 18.5406 20.1259 19.4576C19.2089 20.3745 17.9653 20.8897 16.6685 20.8897C15.3717 20.8897 14.1281 20.3745 13.2111 19.4576C12.2941 18.5406 11.779 17.2969 11.779 16.0002C11.779 14.7034 12.2941 13.4597 13.2111 12.5428C14.1281 11.6258 15.3717 11.1107 16.6685 11.1107Z" fill="#F5F5F5"/>
</svg>
