<svg width="24" height="24" viewBox="0 0 24 24" fill="none" xmlns="http://www.w3.org/2000/svg">
<path d="M12 0C10.7726 0 9.77776 0.994848 9.77776 2.22224V9.77776H2.22224C0.994848 9.77776 0 10.7726 0 12C0 13.2274 0.994848 14.2222 2.22224 14.2222H9.77776V21.7778C9.77776 23.0052 10.7726 24 12 24C13.2274 24 14.2222 23.0052 14.2222 21.7778V14.2222H21.7778C23.0052 14.2222 24 13.2274 24 12C24 10.7726 23.0052 9.77776 21.7778 9.77776H14.2222V2.22224C14.2222 0.994848 13.2274 0 12 0Z" fill="white"/>
</svg>
