<svg width="45" height="49" viewBox="0 0 45 49" fill="none" xmlns="http://www.w3.org/2000/svg">
<path fill-rule="evenodd" clip-rule="evenodd" d="M31.0972 10.0022C37.4777 8.56561 42.5062 9.25734 44.2906 12.2897H44.2908C45.0478 13.5133 45.21 15.0565 44.7234 16.8122C44.0746 19.2062 42.3442 21.8664 39.7488 24.5265C42.2903 27.1867 44.0747 29.8469 44.7234 32.1879C45.156 33.9436 45.0478 35.4864 44.2908 36.7634C43.1011 38.7852 40.5054 39.7426 36.9909 39.7426C35.2066 39.7426 33.2599 39.4766 31.0973 38.9978C29.205 45.1163 26.0688 49 22.5 49C18.9312 49 15.7954 45.116 13.9027 38.9978C11.7401 39.4765 9.79341 39.7426 8.00905 39.7426C4.49412 39.7426 1.89879 38.7852 0.70922 36.7634C-0.04777 35.5398 -0.209955 33.9966 0.276601 32.2409C0.925361 29.8469 2.65584 27.1867 5.25117 24.5265C2.70972 21.8664 0.925342 19.2062 0.276601 16.8652C-0.156009 15.1095 -0.0477603 13.5667 0.70922 12.2897C2.49358 9.25736 7.52203 8.56561 13.9026 10.0022C15.795 3.88373 18.9311 0 22.4999 0C26.0687 0 29.2049 3.93703 31.0972 10.0022ZM28.9887 10.534C27.4748 5.63943 25.2038 2.12793 22.5002 2.12793C19.7966 2.12793 17.5257 5.63934 16.0117 10.534C18.0661 11.1194 20.2832 11.9176 22.5002 12.8751C24.7711 11.9172 26.9339 11.1193 28.9887 10.534ZM30.9346 24.5263C30.9346 26.069 30.8807 27.6121 30.7185 29.1549L30.7139 29.1579C29.4176 30.0082 28.1215 30.8585 26.7171 31.6024C25.3653 32.3472 23.9596 33.0921 22.4995 33.7304C21.0395 33.092 19.6337 32.3472 18.282 31.6024C16.8762 30.8045 15.5784 30.0062 14.2806 29.1549C14.1184 27.6122 14.0645 26.0691 14.0645 24.5263C14.0645 22.9835 14.1184 21.4405 14.2806 19.8977L14.2852 19.8947C15.5814 19.0444 16.8776 18.1942 18.282 17.4502C19.6337 16.7054 21.0395 15.9605 22.4995 15.3223C23.9596 15.9606 25.3653 16.7055 26.7171 17.4502C28.1229 18.2481 29.4207 19.0464 30.7185 19.8977C30.8807 21.4404 30.9346 22.9835 30.9346 24.5263ZM36.6658 24.5266C35.5843 23.5158 34.3408 22.5048 33.043 21.5474C33.0973 22.5048 33.0973 23.5157 33.0969 24.5266C33.0969 25.5375 33.0969 26.5485 33.043 27.5059C34.3409 26.5485 35.5844 25.5376 36.6658 24.5266ZM30.3934 31.922C30.1772 33.4647 29.9068 34.9547 29.5281 36.3909C28.0681 35.9653 26.6085 35.4865 25.1484 34.9012C26.0137 34.4756 26.9328 33.9968 27.798 33.5181C28.0887 33.3392 28.3855 33.1604 28.6823 32.9816L28.6824 32.9815L28.6825 32.9815C29.2687 32.6283 29.8548 32.2752 30.3934 31.9219L30.3934 31.922ZM15.4707 36.3907C16.8764 36.0185 18.3904 35.4863 19.8504 34.9011C19.4193 34.6624 18.9746 34.4238 18.5298 34.1851L18.5296 34.185L18.5296 34.185L18.5295 34.1849L18.5295 34.1849L18.5294 34.1849L18.5294 34.1849L18.5293 34.1848L18.5293 34.1848C18.0819 33.9448 17.6346 33.7047 17.2008 33.4645C16.336 32.9857 15.4707 32.454 14.6055 31.9218C14.822 33.4645 15.1463 34.9542 15.4707 36.3907ZM11.9568 27.5059C10.659 26.5485 9.41541 25.5375 8.33398 24.5266C9.41532 23.5157 10.6589 22.5048 11.9568 21.5474C11.9028 22.5048 11.9028 23.5158 11.9028 24.5266C11.9025 25.5376 11.9025 26.5485 11.9568 27.5059ZM15.4707 12.6621C15.092 14.0983 14.8216 15.5884 14.6055 17.1311L14.6055 17.1312C15.1441 16.7778 15.7302 16.4247 16.3165 16.0715C16.6133 15.8927 16.9101 15.7139 17.2008 15.535C18.066 15.0562 18.9852 14.5775 19.8504 14.1518C18.3904 13.5665 16.9307 13.0878 15.4707 12.6621ZM27.798 15.5887C26.9328 15.11 26.0137 14.6312 25.1484 14.2055C26.6085 13.6203 28.1225 13.0881 29.5281 12.7158C29.8525 14.1524 30.1769 15.6421 30.3934 17.1848C29.5824 16.5992 28.6633 16.0673 27.798 15.5886L27.798 15.5887ZM7.73954 11.3853C5.25207 11.3853 3.35941 11.9705 2.5485 13.3537L2.54855 13.3536C2.11593 14.0984 2.062 15.0563 2.38599 16.2798C2.9269 18.3016 4.49516 20.6427 6.82004 23.0367C8.3883 21.5471 10.1727 20.1105 12.1732 18.7274C12.4437 16.3864 12.8223 14.1519 13.3089 12.1301C11.3084 11.6513 9.36178 11.3853 7.73954 11.3853ZM2.54755 35.6988C2.11493 34.954 2.00668 33.9431 2.33142 32.7725C2.87229 30.7507 4.44021 28.4097 6.76547 26.0156C8.33335 27.4522 10.1721 28.9419 12.1186 30.325C12.3348 32.666 12.7674 34.9005 13.2543 36.9223C8.17114 38.1458 3.8993 37.9862 2.54723 35.6987L2.54755 35.6988ZM16.0117 38.5188C17.5256 43.4134 19.7966 46.9249 22.5002 46.9249C25.2038 46.9249 27.4747 43.4135 28.9887 38.5188C26.9342 37.9334 24.7172 37.1352 22.5002 36.1777C20.2293 37.1356 18.0665 37.9335 16.0117 38.5188ZM42.4516 35.6992C41.0998 37.9867 36.8284 38.1467 31.6914 36.9228C32.178 34.9009 32.5566 32.6664 32.8271 30.3255C34.8276 28.9423 36.612 27.5057 38.1803 26.0161C40.5051 28.4102 42.0734 30.7512 42.6143 32.773C42.9383 33.9966 42.8844 34.9544 42.4518 35.6993L42.4516 35.6992ZM38.1803 23.0369C40.5055 20.6428 42.0734 18.3018 42.6143 16.28L42.6142 16.2801C42.9385 15.0565 42.8846 14.0986 42.4516 13.3538C41.0999 11.0663 36.8281 10.9067 31.6914 12.1302C32.1784 14.1521 32.611 16.3865 32.8271 18.7275C34.7737 20.1106 36.6124 21.6003 38.1803 23.0369Z" fill="#F3F3F3"/>
<path fill-rule="evenodd" clip-rule="evenodd" d="M18 24.5C18 22.0303 20.0307 20 22.5 20C24.9693 20 27 22.0307 27 24.5C27 26.9697 24.9693 29 22.5 29C20.0303 29 18 26.9693 18 24.5ZM20.1953 24.5001C20.1953 25.7621 21.238 26.8049 22.5001 26.8049C23.7621 26.8049 24.8049 25.7621 24.8049 24.5001C24.8049 23.238 23.7621 22.1953 22.5001 22.1953C21.238 22.1953 20.1953 23.238 20.1953 24.5001Z" fill="#F3F3F3"/>
</svg>
