<svg width="32" height="32" viewBox="0 0 32 32" fill="none" xmlns="http://www.w3.org/2000/svg">
<path d="M10.1544 28.8014C22.0445 28.8014 28.5479 18.9503 28.5479 10.4078C28.5479 10.1281 28.5479 9.84943 28.529 9.57215C29.7943 8.65699 30.8863 7.52407 31.7542 6.2259C30.5743 6.7486 29.3227 7.0917 28.041 7.24294C29.3906 6.43491 30.4007 5.1644 30.8831 3.66737C29.614 4.42043 28.2259 4.95119 26.7782 5.23652C24.3299 2.63317 20.2348 2.50749 17.6315 4.95574C15.9524 6.53469 15.2403 8.88736 15.7612 11.1325C10.564 10.8717 5.72108 8.41682 2.43854 4.37807C0.7227 7.33187 1.599 11.1108 4.44006 13.0077C3.41112 12.9772 2.40493 12.6996 1.50587 12.1986C1.50587 12.2252 1.50587 12.2529 1.50587 12.2805C1.50657 15.3579 3.67579 18.0082 6.69225 18.6177C5.74068 18.8771 4.74185 18.9153 3.77312 18.7287C4.62001 21.3621 7.0469 23.1662 9.81269 23.218C7.52339 25.0172 4.69563 25.9936 1.7842 25.9908C1.26991 25.9897 0.75631 25.9586 0.245514 25.8973C3.20176 27.7945 6.64184 28.8007 10.1544 28.7961" fill="white"/>
</svg>
