<svg xmlns="http://www.w3.org/2000/svg" width="375" viewBox="0 0 375 375" height="375" version="1.0"><defs><clipPath id="a"><path d="M 56.25 65.765625 L 318.75 65.765625 L 318.75 309.515625 L 56.25 309.515625 Z M 56.25 65.765625"/></clipPath></defs><g clip-path="url(#a)"><path fill="#FFF" d="M 187.5 65.765625 C 166.941406 65.765625 150.042969 82.683594 150.042969 103.265625 C 150.042969 110.148438 152.089844 116.449219 155.3125 122.015625 L 103.222656 122.015625 C 98.832031 122.015625 95.027344 125.089844 94.078125 129.339844 L 56.621094 298.089844 C 55.960938 300.871094 56.695312 303.800781 58.449219 306 C 60.207031 308.195312 62.914062 309.515625 65.765625 309.515625 L 309.234375 309.515625 C 312.085938 309.515625 314.792969 308.195312 316.550781 306 C 318.304688 303.800781 319.039062 300.871094 318.378906 298.089844 L 280.921875 129.339844 C 279.972656 125.089844 276.167969 122.015625 271.777344 122.015625 L 219.6875 122.015625 C 222.910156 116.449219 224.957031 110.148438 224.957031 103.265625 C 224.957031 82.683594 208.058594 65.765625 187.5 65.765625 Z M 187.5 84.515625 C 197.960938 84.515625 206.226562 92.792969 206.226562 103.265625 C 206.226562 113.738281 197.960938 122.015625 187.5 122.015625 C 177.039062 122.015625 168.773438 113.738281 168.773438 103.265625 C 168.773438 92.792969 177.039062 84.515625 187.5 84.515625 Z M 110.683594 140.765625 L 264.242188 140.765625 L 297.527344 290.765625 L 77.472656 290.765625 Z M 110.683594 140.765625"/></g></svg>