<svg fill="none" height="44" viewBox="0 0 114 44" width="114" xmlns="http://www.w3.org/2000/svg" xmlns:xlink="http://www.w3.org/1999/xlink"><linearGradient id="a" gradientUnits="userSpaceOnUse" x1=".583201" x2="31.0076" y1="25.3607" y2="18.5601"><stop offset="0" stop-color="#c132ce"/><stop offset="1" stop-color="#425afa"/></linearGradient><linearGradient id="b" gradientUnits="userSpaceOnUse" x1="5.99349" x2="10.4809" y1="25.0164" y2="39.9445"><stop offset="0" stop-color="#425afa"/><stop offset=".16" stop-color="#5a52f2"/><stop offset=".55" stop-color="#9241de"/><stop offset=".84" stop-color="#b436d3"/><stop offset="1" stop-color="#c132ce"/></linearGradient><linearGradient id="c" gradientUnits="userSpaceOnUse" x1="18.3486" x2="28.2895" y1="37.1823" y2="24.9851"><stop offset="0" stop-color="#c132ce"/><stop offset=".1" stop-color="#ab39d6"/><stop offset=".28" stop-color="#8545e3"/><stop offset=".47" stop-color="#684eed"/><stop offset=".65" stop-color="#5355f4"/><stop offset=".83" stop-color="#4659f9"/><stop offset="1" stop-color="#425afa"/></linearGradient><path d="m31.1703 31.0083-15.5765-9.0084v-17.9999l15.5765 9.0083z" fill="#80d8ff"/><path d="m0 31.0083 15.5933-9.0084v-17.9999l-15.5933 9.0083z" fill="#7acfff"/><path d="m15.5933 31.0084 15.5765-9.0084-15.5765-8.9916-15.5933 8.9916z" fill="url(#a)"/><path d="m15.5933 40-15.5933-8.9916v-18l15.5933 8.9916z" fill="#e4f0fe" opacity=".3"/><path d="m0 31.0081 15.5933 8.9916v-8.9916l-15.5933-9.0083z" fill="url(#b)"/><path d="m15.5938 40 15.5765-8.9916v-18l-15.5765 8.9916z" fill="#d0e6ff" opacity=".3"/><path d="m31.1703 31.0081-15.5765 8.9916v-8.9916l15.5765-9.0083z" fill="url(#c)"/><g fill="#fff"><path d="m15.5933 21.9999 15.5765-8.9916-15.5765-9.0083-15.5933 9.0083z" opacity=".3"/><path d="m37.0004 12.5188c.7587-.0542 1.5175-.0542 2.2944 0l.1626 1.5356h.1084c.289-1.2104 1.4633-1.7163 3.1074-1.7163.0722.6143.0722 1.626 0 2.2402-2.0415 0-2.6016.4156-3.0894 1.7163v5.6186c-.6323.0904-1.9692.0904-2.5834 0z"/><path d="m52.2123 18.0109c-1.2104.0904-3.9926.1084-5.5463.0181v.4516c0 1.2828.7407 1.5176 2.2944 1.5176 1.0659 0 1.8247-.0903 2.8364-.289.0723.6142.0723 1.4814 0 2.0956-1.2646.2168-2.2763.3252-3.4687.3252-2.6016 0-4.2456-.7768-4.2456-3.0712v-3.6133c0-2.4028 1.7344-3.1074 4.1372-3.1074 2.3847 0 3.9926 1.0117 3.9926 3.5952zm-2.5293-2.186c0-1.2285-.7045-1.373-1.4994-1.373-.795 0-1.5176.1445-1.5176 1.373v.7046l1.3911-.0903h1.6259z"/><path d="m60.8116 19.7092c0 1.7524-1.3731 2.4208-3.6133 2.4208-.9575 0-2.0595-.0722-3.0893-.2529-.0903-.6504-.0903-1.3911 0-2.0234.9756.1626 1.9512.2168 2.7099.2168.7227 0 1.4092-.0542 1.4092-.6685v-.3432c0-.524-.3613-.6143-.9756-.7769l-1.6259-.4697c-1.0298-.2891-1.5899-.9394-1.5899-2.1318v-.9937c0-1.6801 1.4453-2.3486 3.7397-2.3486.9034 0 1.8428.0723 2.8906.2891.0904.6504.0904 1.373 0 2.0053-1.102-.1987-1.8066-.2529-2.6015-.2529-.7768 0-1.4453.0542-1.4453.6685v.3432c0 .4517.4155.6143.9756.7769l1.5175.4155c1.1202.3071 1.6983.8672 1.6983 2.2402z"/><path d="m70.8565 18.0109c-1.2105.0904-3.9926.1084-5.5463.0181v.4516c0 1.2828.7407 1.5176 2.2944 1.5176 1.0659 0 1.8247-.0903 2.8364-.289.0722.6142.0722 1.4814 0 2.0956-1.2647.2168-2.2764.3252-3.4688.3252-2.6015 0-4.2455-.7768-4.2455-3.0712v-3.6133c0-2.4028 1.7343-3.1074 4.1372-3.1074 2.3847 0 3.9926 1.0117 3.9926 3.5952zm-2.5293-2.186c0-1.2285-.7046-1.373-1.4995-1.373s-1.5175.1445-1.5175 1.373v.7046l1.3911-.0903h1.6259z"/><path d="m73.1143 12.5188c.7587-.0542 1.5175-.0542 2.2944 0l.1626 1.5356h.1084c.289-1.2104 1.4633-1.7163 3.1074-1.7163.0722.6143.0722 1.626 0 2.2402-2.0415 0-2.6016.4156-3.0894 1.7163v5.6186c-.6323.0904-1.9692.0904-2.5834 0z"/><path d="m80.5222 12.5906c.6323-.0904 1.9692-.0904 2.5835 0l1.9692 6.9555 1.9512-6.9555c.6142-.0904 1.8969-.0904 2.5112 0l-2.8726 9.3221c-.7949.0904-2.457.0904-3.2519 0z"/><path d="m99.5275 19.1125c0 2.2402-1.6982 3.017-4.2275 3.017s-4.2275-.7768-4.2275-3.017v-3.7217c0-2.3305 1.6982-3.0532 4.2275-3.0532s4.2275.7227 4.2275 3.0532zm-2.5835-3.1977c0-1.2466-.7588-1.3911-1.644-1.3911-.9033 0-1.644.1445-1.644 1.3911v2.6376c0 1.2285.7407 1.3731 1.644 1.3731.8852 0 1.644-.1446 1.644-1.3731z"/><path d="m104.568 11.1273c-.632.0903-2.06.0903-2.71 0l-.036-2.05955c.65-.09033 2.15-.09033 2.8 0zm-2.638 1.4634c.614-.0904 1.951-.0904 2.584 0v9.3221c-.633.0904-1.97.0904-2.584 0z"/><path d="m107.151 12.5183c.759-.0542 1.518-.0542 2.295 0l.162 1.5356h.109c.289-1.2104 1.463-1.7163 3.107-1.7163.072.6143.072 1.626 0 2.2403-2.041 0-2.602.4155-3.089 1.7162v5.6186c-.633.0904-1.97.0904-2.584 0z"/></g><path d="m41.8 27.5574v1.1684c-.5841.0574-2.0494.067-2.8251.0096v.0287c0 .5554.2682.6895 1.1205.6895.5267 0 .9385-.0575 1.4748-.1532.0479.4213.0479.9481 0 1.3694-.7183.1245-1.2737.182-1.9632.182-1.4844 0-2.4421-.4214-2.4421-1.7334v-1.7717c0-1.3694.9864-1.7525 2.3559-1.7525 1.13 0 2.2792.431 2.2792 1.9632zm-1.7621.2011v-.2011c0-.5075-.2681-.565-.5363-.565-.2681 0-.5267.0575-.5267.5554v.2586l.4788-.0479z" fill="#9ba1a6"/><path d="m45.6624 30.7369-.8236-1.4461-.814 1.4461c-.6129.0479-1.1779.0479-1.7908 0l1.4844-2.5378-1.3887-2.4613c.5938-.0478 1.2067-.0478 1.8005 0l.7565 1.3887.747-1.3887c.6225-.0478 1.1205-.0478 1.743 0l-1.3887 2.4325 1.4844 2.5666c-.5937.0479-1.2162.0479-1.81 0z" fill="#9ba1a6"/><path d="m48.0714 32.7384v-7.0484c.4214-.0479 1.2162-.0479 1.6376 0l.0958.7278h.067c.182-.6225.7374-.8236 1.494-.8236.9193 0 1.6089.3831 1.6089 1.4748v2.308c0 1.0822-.6896 1.4748-1.6089 1.4748-.7566 0-1.312-.2011-1.494-.8236h-.067l.0766.8236v1.8866c-.4214.0479-1.3886.0479-1.81 0zm3.0933-4.2137v-.6034c0-.6991-.2299-.8044-.5842-.8044-.4118 0-.5746.0958-.6991.5746v1.063c.1245.4788.2873.5746.6991.5746.3543 0 .5842-.1053.5842-.8044z" fill="#9ba1a6"/><path d="m53.982 30.7369v-6.8473c.4214-.0479 1.3886-.0479 1.81 0v6.8473c-.4214.0479-1.3886.0479-1.81 0z" fill="#9ba1a6"/><path d="m61.6125 27.318v1.8387c0 1.2737-.9672 1.6951-2.4133 1.6951s-2.4133-.4214-2.4133-1.6951v-1.8387c0-1.3407.9672-1.7238 2.4133-1.7238s2.4133.3831 2.4133 1.7238zm-1.81 1.4557v-1.1014c0-.5267-.2777-.5937-.6033-.5937s-.6033.067-.6033.5937v1.1014c0 .5171.2777.5841.6033.5841s.6033-.067.6033-.5841z" fill="#9ba1a6"/><path d="m62.6048 30.7369v-5.0469c.5458-.0288 1.0917-.0288 1.6376 0l.0958.8523h.067c.1532-.6704.7757-.9481 1.6759-.9481.0479.4214.0479 1.1205 0 1.5418-1.1109 0-1.4078.2203-1.6663.9098v2.6911c-.4214.0479-1.3887.0479-1.81 0z" fill="#9ba1a6"/><path d="m71.3157 27.5574v1.1684c-.5842.0574-2.0494.067-2.8252.0096v.0287c0 .5554.2682.6895 1.1205.6895.5267 0 .9385-.0575 1.4748-.1532.0479.4213.0479.9481 0 1.3694-.7182.1245-1.2737.182-1.9632.182-1.4844 0-2.4421-.4214-2.4421-1.7334v-1.7717c0-1.3694.9864-1.7525 2.3559-1.7525 1.1301 0 2.2793.431 2.2793 1.9632zm-1.7621.2011v-.2011c0-.5075-.2682-.565-.5363-.565-.2682 0-.5268.0575-.5268.5554v.2586l.4789-.0479z" fill="#9ba1a6"/><path d="m72.2656 30.7369v-5.0469c.5459-.0288 1.0918-.0288 1.6376 0l.0958.8523h.067c.1533-.6704.7758-.9481 1.676-.9481.0478.4214.0478 1.1205 0 1.5418-1.1109 0-1.4078.2203-1.6664.9098v2.6911c-.4214.0479-1.3886.0479-1.81 0z" fill="#9ba1a6"/></svg>