<svg width="44" height="45" viewBox="0 0 44 45" fill="none" xmlns="http://www.w3.org/2000/svg">
<path d="M21.9987 0.702148C10.0387 0.702148 0.332031 10.4088 0.332031 22.3688C0.332031 34.3288 10.0387 44.0355 21.9987 44.0355C33.9587 44.0355 43.6654 34.3288 43.6654 22.3688C43.6654 10.4088 33.9587 0.702148 21.9987 0.702148ZM30.7304 23.5171L24.2304 30.0171C23.9054 30.3421 23.4937 30.4938 23.082 30.4938C22.6704 30.4938 22.2587 30.3421 21.9337 30.0171C21.3054 29.3888 21.3054 28.3488 21.9337 27.7205L25.6604 23.9938H14.4154C13.527 23.9938 12.7904 23.2571 12.7904 22.3688C12.7904 21.4805 13.527 20.7438 14.4154 20.7438H25.6604L21.9337 17.0171C21.3054 16.3888 21.3054 15.3488 21.9337 14.7205C22.562 14.0921 23.602 14.0921 24.2304 14.7205L30.7304 21.2205C31.3587 21.8488 31.3587 22.8888 30.7304 23.5171Z" fill="white"/>
</svg>
