<svg width="73" height="73" viewBox="0 0 73 73" fill="none" xmlns="http://www.w3.org/2000/svg">
<path d="M40.0943 39.9797C40.5928 40.474 40.8789 41.1237 40.8789 41.7624C40.8789 42.2828 40.6869 42.7602 40.3381 43.1055C39.9797 43.4603 39.4992 43.634 38.9933 43.634C38.3729 43.634 37.7151 43.3726 37.2019 42.8638C36.7026 42.3696 36.4165 41.7199 36.4165 41.0811C36.4165 40.5607 36.6085 40.0833 36.9573 39.738C37.7553 38.9482 39.1628 39.057 40.0943 39.9797V39.9797ZM37.986 40.7748C37.8962 40.8639 37.8779 40.9901 37.8779 41.0806C37.8779 41.3287 38.01 41.6077 38.2306 41.8268C38.6101 42.2027 39.1139 42.2641 39.3118 42.0692C39.383 41.9974 39.4189 41.8945 39.4189 41.7624C39.4189 41.5143 39.2868 41.2353 39.0663 41.0162C38.8253 40.7774 38.5342 40.6657 38.3035 40.6657C38.1707 40.666 38.0575 40.7033 37.986 40.7748H37.986Z" fill="white"/>
<path d="M32.3655 43.6347C31.8603 43.6347 31.3793 43.4609 31.0208 43.1062C30.6719 42.7602 30.4806 42.2835 30.4806 41.7631C30.4806 41.1243 30.7667 40.474 31.2653 39.9797C32.1967 39.0562 33.6036 38.9467 34.4013 39.7373C34.7501 40.0833 34.9414 40.56 34.9414 41.0804C34.9414 41.7191 34.6553 42.3695 34.1568 42.8638C33.6437 43.3733 32.986 43.6347 32.3655 43.6347L32.3655 43.6347ZM33.3737 40.7752C33.3015 40.7037 33.1891 40.6664 33.0555 40.6664C32.8248 40.6664 32.5337 40.7788 32.2928 41.0169C32.0715 41.2353 31.9401 41.5147 31.9401 41.7631C31.9401 41.8536 31.9584 41.9798 32.0482 42.0689C32.2452 42.2659 32.7497 42.2025 33.1287 41.8265C33.35 41.6082 33.4814 41.3287 33.4814 41.0804C33.4823 40.9905 33.4633 40.8641 33.3737 40.7752L33.3737 40.7752Z" fill="white"/>
<path d="M15.9768 25.9593C15.9768 22.8065 18.5632 20.2412 21.7417 20.2412C23.3405 20.2412 24.8259 20.8786 25.9107 22.0092C28.4795 19.4513 31.8881 17.916 35.6805 17.916C39.5183 17.916 42.9471 19.4694 45.5167 22.0582C46.6043 20.8983 48.1076 20.2412 49.7273 20.2412C52.9056 20.2412 55.4922 22.8065 55.4922 25.9593C55.4922 28.9953 53.0933 31.4787 50.0785 31.6606C50.1465 32.1803 50.1945 32.7087 50.2201 33.2467C52.4788 35.8673 53.6708 38.9656 53.6708 42.2239C53.6708 50.6506 45.5453 57.5059 35.557 57.5059C25.5694 57.5059 17.4433 50.6506 17.4433 42.2239C17.4433 38.8375 18.7251 35.6387 21.1539 32.9578C21.181 32.517 21.2328 32.0847 21.2889 31.6556C18.3223 31.4253 15.9769 28.9606 15.9769 25.9589L15.9768 25.9593ZM54.0323 25.9593C54.0323 23.6109 52.1006 21.7012 49.7274 21.7012C48.4746 21.7012 47.3183 22.229 46.5001 23.1503C46.7235 23.4248 46.9338 23.7116 47.1403 24.0036C47.7272 23.2765 48.6192 22.8262 49.5988 22.8262C51.3392 22.8262 52.7545 24.2322 52.7545 25.9593C52.7545 27.6871 51.3389 29.0932 49.5988 29.0932C49.5783 29.0932 49.5593 29.0873 49.5396 29.0873C49.6439 29.4582 49.7454 29.8296 49.8264 30.2129C52.154 30.1607 54.0323 28.2744 54.0323 25.9594L54.0323 25.9593ZM49.0224 27.5274C49.207 27.593 49.399 27.6332 49.5984 27.6332C50.5335 27.6332 51.2941 26.882 51.2941 25.9593C51.2941 25.0366 50.5335 24.2861 49.5984 24.2861C48.8846 24.2861 48.2567 24.7241 48.0099 25.3797C48.3932 26.0615 48.7327 26.777 49.0224 27.5275L49.0224 27.5274ZM18.9032 42.2242C18.9032 49.8454 26.3741 56.0461 35.5569 56.0461C44.7397 56.0461 52.2107 49.8454 52.2107 42.2242C52.2107 39.2464 51.085 36.4098 48.9563 34.019C48.8425 33.8918 48.7774 33.7283 48.7717 33.5584C48.5008 25.4737 42.8725 19.377 35.6803 19.377C28.4844 19.377 22.9826 25.2301 22.5987 33.295C22.5907 33.468 22.5206 33.6322 22.4025 33.7586C20.1129 36.2038 18.9031 39.131 18.9031 42.2242L18.9032 42.2242ZM22.3322 27.5627C22.6409 26.764 23.0016 26.0013 23.4162 25.2801C23.146 24.6808 22.5475 24.2858 21.8709 24.2858C20.9359 24.2858 20.1745 25.0363 20.1745 25.959C20.1745 26.8817 20.9351 27.6329 21.8709 27.6329C22.0292 27.6333 22.1818 27.6043 22.3322 27.5628V27.5627ZM21.5416 30.208C21.6233 29.8276 21.7198 29.4562 21.8241 29.0883C20.1058 29.0626 18.715 27.6713 18.715 25.9594C18.715 24.2316 20.1306 22.8262 21.8715 22.8262C22.8227 22.8262 23.6898 23.2533 24.2767 23.9431C24.4849 23.6525 24.6957 23.3663 24.9215 23.094C24.1062 22.2062 22.971 21.7012 21.7432 21.7012C19.3693 21.7012 17.4382 23.6115 17.4382 25.9593C17.4368 28.2406 19.2611 30.1036 21.5416 30.2079L21.5416 30.208Z" fill="white"/>
<path d="M27.1676 25.3157C28.3189 24.0922 30.0292 23.3323 31.6322 23.3323C33.1543 23.3323 34.5895 23.9062 35.6786 24.9287C37.2905 23.4147 39.6929 22.8782 41.9128 23.7657C42.8261 24.13 43.6786 24.7642 44.4481 25.6513C46.4271 27.934 47.5989 30.9963 47.7638 34.2988C49.6268 36.4743 50.6094 39.0438 50.6094 41.7466C50.6094 48.7607 43.8569 54.4668 35.5562 54.4668C27.2555 54.4668 20.503 48.7604 20.503 41.7466C20.503 38.9375 21.5599 36.2854 23.5638 34.0591C23.7815 30.6764 25.0552 27.5809 27.168 25.3161L27.1676 25.3157ZM35.5559 53.0059C43.0512 53.0059 49.1491 47.9543 49.1491 41.7456C49.1491 39.3249 48.233 37.0161 46.5 35.0704C46.3862 34.9432 46.3211 34.7798 46.3154 34.6089C46.2111 31.4948 45.1845 28.728 43.3457 26.6075C42.7303 25.8979 42.0668 25.3987 41.3718 25.1211C39.4576 24.3569 37.4392 24.9745 36.2479 26.4578C35.9706 26.8031 35.3858 26.8031 35.1092 26.4578C34.2594 25.3994 32.9921 24.792 31.6322 24.792C30.4365 24.792 29.1019 25.3899 28.2334 26.3133C26.3027 28.3828 25.1566 31.2531 25.0069 34.3938C24.9988 34.5668 24.9287 34.731 24.8106 34.8581C22.9476 36.8488 21.9628 39.23 21.9628 41.7457C21.9624 47.9543 28.0602 53.0059 35.5561 53.0059L35.5559 53.0059Z" fill="white"/>
<path d="M25.0577 43.7762C25.4066 43.5726 25.8526 43.6909 26.0555 44.0398C27.4958 46.5151 31.3152 48.1781 35.5583 48.1781C39.6835 48.1781 43.4654 46.5757 44.9692 44.1909C45.1831 43.8506 45.635 43.7477 45.9758 43.9632C46.3168 44.1778 46.419 44.629 46.2035 44.9698C44.4151 47.8059 40.2363 49.639 35.5576 49.639C30.7376 49.639 26.5123 47.7301 24.7932 44.775C24.5907 44.4252 24.709 43.9792 25.0572 43.7762L25.0577 43.7762Z" fill="white"/>
<path d="M42.8833 35.6581C42.4803 35.6581 42.1533 35.3311 42.1533 34.9281C42.1533 34.1128 41.481 33.4497 40.6539 33.4497C39.8267 33.4497 39.1551 34.1125 39.1551 34.9281C39.1551 35.3311 38.8281 35.6581 38.4251 35.6581C38.0221 35.6581 37.6951 35.3311 37.6951 34.9281C37.6951 33.3081 39.0223 31.9897 40.6539 31.9897C42.2854 31.9897 43.6133 33.3081 43.6133 34.9281C43.6133 35.3311 43.2863 35.6581 42.8833 35.6581Z" fill="white"/>
<path d="M33.2661 35.6581C32.8631 35.6581 32.5361 35.3311 32.5361 34.9281C32.5361 34.1128 31.8638 33.4497 31.0373 33.4497C30.2109 33.4497 29.5386 34.1125 29.5386 34.9281C29.5386 35.3311 29.2116 35.6581 28.8086 35.6581C28.4056 35.6581 28.0786 35.3311 28.0786 34.9281C28.0786 33.3081 29.4057 31.9897 31.0373 31.9897C32.6689 31.9897 33.9961 33.3081 33.9961 34.9281C33.9961 35.3311 33.6691 35.6581 33.2661 35.6581Z" fill="white"/>
<path d="M65.0594 45.209L64.5637 44.363C61.1012 56.992 49.6735 65.7484 36.5001 65.7484C23.0693 65.7484 11.4471 56.6495 8.23629 43.6221C8.13981 43.2307 8.37934 42.835 8.77072 42.7388C9.16281 42.6454 9.55778 42.8811 9.65402 43.2732C12.7026 55.6461 23.7418 64.2881 36.4998 64.2881C49.0442 64.2881 59.9212 55.9296 63.1794 43.887L62.1983 44.4623C61.8494 44.6667 61.4034 44.5493 61.1988 44.2016C60.9951 43.8535 61.1118 43.4068 61.4595 43.2021L63.8925 41.7757C64.0596 41.677 64.259 41.6509 64.446 41.6989C64.6337 41.7479 64.7934 41.869 64.8913 42.0361L66.3178 44.4699C66.5214 44.8181 66.4048 45.2648 66.0571 45.4694C65.9411 45.5374 65.814 45.5695 65.6885 45.5695C65.4388 45.5697 65.1943 45.4411 65.0586 45.209H65.0594Z" fill="white"/>
<path d="M11.7358 29.2304C11.9109 29.594 11.7577 30.0298 11.3948 30.2043L8.85288 31.4278C8.75284 31.476 8.64471 31.5 8.53612 31.5C8.45509 31.5 8.37334 31.4862 8.29445 31.4592C8.11195 31.395 7.96152 31.2612 7.87764 31.0868L6.65477 28.5449C6.48035 28.1813 6.63291 27.7455 6.99649 27.5703C7.35863 27.3973 7.7959 27.5485 7.97104 27.912L8.44273 28.8925C11.9102 16.2708 23.3299 7.52295 36.5027 7.52295C49.9469 7.52295 61.5727 16.6334 64.772 29.6785C64.8675 30.0705 64.6282 30.4655 64.2368 30.561C63.8478 30.6558 63.4498 30.4173 63.3542 30.0259C60.3147 17.6366 49.2738 8.98302 36.503 8.98302C23.9726 8.98302 13.1114 17.3166 9.83612 29.3348L10.7624 28.8895C11.1239 28.7144 11.5611 28.8669 11.7363 29.2305L11.7358 29.2304Z" fill="white"/>
</svg>
