<svg width="82" height="83" viewBox="0 0 82 83" fill="none" xmlns="http://www.w3.org/2000/svg">
<path d="M49.416 29.1671C50.8289 29.1671 51.9743 30.3125 51.9743 31.7256C51.9743 32.2186 51.8318 32.7012 51.5638 33.1155L48.4669 37.9002L48.6543 38.193L48.8879 38.575L49.1916 39.0466L49.6297 39.7041L50.6247 41.1663L54.2277 46.3775L54.7191 47.1065C55.6246 48.4646 56.4168 49.7122 57.1268 50.9102C59.6389 55.1503 61.0098 58.5731 61.0098 61.3768C61.0098 70.953 53.094 75.8744 41.0018 75.8744L40.6404 75.8731C28.7517 75.7756 20.9938 70.8577 20.9938 61.3768C20.9938 58.5736 22.3647 55.1505 24.8768 50.9102C25.6755 49.5625 26.5782 48.1518 27.6296 46.5919L31.0607 41.6297L32.2472 39.892L32.812 39.0467L33.1158 38.575L33.2887 38.2907C33.3699 38.1591 33.4505 38.0321 33.5306 37.9096L33.5367 37.8994L30.4396 33.1155C29.6994 31.9715 29.9887 30.4577 31.074 29.6629L31.1976 29.5777C31.6119 29.3097 32.0945 29.1672 32.5875 29.1672L49.416 29.1671ZM45.8267 39.8579H36.1774C36.1125 39.9601 36.0466 40.0669 35.9796 40.1787L35.8557 40.3786L35.5952 40.782L34.9965 41.6794L33.7568 43.4974L30.5115 48.1883L29.6926 49.4103L29.0766 50.3563C28.5796 51.1296 28.1226 51.8669 27.699 52.582C25.4675 56.3483 24.274 59.3283 24.274 61.3765C24.274 67.7267 28.9111 71.4754 36.9465 72.3795L37.5879 72.4449C38.6684 72.5442 39.8074 72.5941 41.0019 72.5941L41.3585 72.5928C42.4235 72.5837 43.4435 72.5343 44.4159 72.4449L45.0573 72.3795C53.0926 71.4752 57.7297 67.7267 57.7297 61.3765C57.7297 59.3283 56.5363 56.3484 54.3048 52.582C53.8812 51.8669 53.4242 51.1296 52.9272 50.3563L52.3111 49.4103L51.6539 48.4243L48.7546 44.2351L47.0073 41.6793L46.4086 40.7819L46.148 40.3786L45.8787 39.9408C45.8614 39.9128 45.844 39.8853 45.8267 39.8578L45.8267 39.8579ZM42.6418 48.0599C43.7311 48.0599 44.7937 48.2735 45.7809 48.6827C46.6177 49.0297 47.0146 49.9893 46.6676 50.8258C46.3374 51.6226 45.4512 52.0205 44.6448 51.7571L44.5247 51.7125C43.934 51.4675 43.2982 51.3399 42.6418 51.3399C40.4997 51.3399 38.6773 52.709 38.0018 54.6196L41.0018 54.6199C41.9075 54.6199 42.6418 55.3542 42.6418 56.2599C42.6418 57.1244 41.9728 57.8329 41.1243 57.8954L41.0018 57.8999L38.0018 57.9002C38.6774 59.8109 40.4997 61.1799 42.6418 61.1799C43.2162 61.1799 43.7746 61.0822 44.301 60.8935L44.5247 60.8073C45.3612 60.4603 46.3208 60.8575 46.6675 61.694C47.0145 62.5306 46.6176 63.4902 45.7808 63.8372C44.7937 64.2464 43.731 64.4599 42.6417 64.4599C38.6746 64.4599 35.3655 61.6427 34.6057 57.8999H34.4418C33.5361 57.8999 32.8018 57.1656 32.8018 56.2599C32.8018 55.3954 33.4707 54.6869 34.3192 54.6244L34.4418 54.6199L34.6059 54.6196C35.3656 50.8768 38.6747 48.0599 42.6419 48.0599L42.6418 48.0599ZM33.9135 32.4464L36.5892 36.5795H45.4138L48.0884 32.4472L33.9135 32.4464ZM39.1822 7.27994C40.2838 6.54536 41.7193 6.54536 42.8209 7.27994L71.8858 26.6565C73.3932 27.6612 73.8005 29.6976 72.7955 31.2049L70.9761 33.934C69.9711 35.4414 67.9347 35.8487 66.4277 34.8437L41.0015 17.8929L15.5754 34.8437C14.1169 35.8161 12.1628 35.4662 11.1273 34.0765L11.0269 33.934L9.20757 31.2049C8.20259 29.6975 8.60992 27.6612 10.1172 26.6565L39.1822 7.27994ZM41.0015 10.009L11.9366 29.3856L13.756 32.1147L39.6373 14.8613C40.4637 14.3103 41.5399 14.3103 42.3664 14.8613L68.2476 32.1147L70.067 29.3856L41.0015 10.009Z" fill="white"/>
</svg>
