<svg viewBox="0 0 48 48" focusable="false" class="chakra-icon css-wkacf2"><circle cx="20" cy="20" r="20" fill="#878D96"></circle><path fill-rule="evenodd" clip-rule="evenodd" d="M16.6666 15H12.3166C14.5301 11.5983 18.7169 10.057 22.6077 11.2115C26.4984 12.366 29.1669 15.9415 29.1666 20H30.8333C30.838 15.4338 27.979 11.3549 23.6851 9.80157C19.3912 8.24829 14.5843 9.55419 11.6666 13.0667V10H9.99998V16.6667H16.6666V15ZM23.3333 25H27.6833C25.4698 28.4017 21.283 29.943 17.3923 28.7885C13.5015 27.634 10.833 24.0585 10.8333 20H9.16663C9.16193 24.5662 12.0209 28.6451 16.3148 30.1984C20.6087 31.7517 25.4156 30.4458 28.3333 26.9333V30H29.9999V23.3333H23.3333V25Z" fill="currentColor"></path><circle cx="38" cy="38" r="10" fill="#0CE466"></circle><path fill-rule="evenodd" clip-rule="evenodd" d="M38 39.0811C36.8561 39.0811 35.928 38.1538 35.928 37.009C35.928 35.8642 36.8561 34.9369 38 34.9369C39.1439 34.9369 40.0721 35.8642 40.0721 37.009C40.0721 38.1538 39.1439 39.0811 38 39.0811ZM37.0991 37.009C37.0991 37.5068 37.5027 37.9099 38 37.9099C38.4974 37.9099 38.9009 37.5068 38.9009 37.009C38.9009 36.5112 38.4974 36.1081 38 36.1081C37.5027 36.1081 37.0991 36.5112 37.0991 37.009Z" fill="currentColor"></path><path fill-rule="evenodd" clip-rule="evenodd" d="M31.3334 37.0117L35.2973 33.045H40.7027L44.6667 37.0117L38 43.6757L31.3334 37.0117ZM41.0631 35.5675C39.3788 33.8759 36.6212 33.8759 34.937 35.5676L33.4955 37.009L34.937 38.4505C36.6212 40.1421 39.3788 40.1421 41.0631 38.4505L42.5045 37.009L41.0631 35.5675Z" fill="currentColor"></path></svg>