<?xml version="1.0" encoding="UTF-8"?>
<svg width="95px" height="99px" viewBox="0 0 95 99" version="1.1" xmlns="http://www.w3.org/2000/svg" xmlns:xlink="http://www.w3.org/1999/xlink">
    <title>Artboard</title>
    <g id="Artboard" stroke="none" stroke-width="1" fill="none" fill-rule="evenodd" stroke-linecap="round" stroke-linejoin="round">
        <g id="Group" transform="translate(18.000000, 7.000000)" stroke="#FFFFFF" stroke-width="4">
            <path d="M17,7.875 L17,55.125 C17,57.213675 17.8779762,59.216625 19.4407857,60.693525 C21.0035714,62.170425 23.1230952,63 25.3333333,63 L58.6666667,63 C60.8769048,63 62.9964286,62.170425 64.5592857,60.693525 C66.1221429,59.216625 67,57.213675 67,55.125 L67,20.640375 C67,19.5912 66.7778571,18.5527575 66.3471429,17.5858425 C65.9164286,16.6189275 65.2854762,15.74307 64.4916667,15.00975 L50.6792857,2.244375 C49.122381,0.8058375 47.0316667,0 44.8542857,0 L25.3333333,0 C23.1230952,0 21.0035714,0.8296875 19.4407857,2.3065425 C17.8779762,3.783375 17,5.786415 17,7.875 L17,7.875 Z" id="Path"></path>
            <path d="M50,63.2666667 L50,71.1333333 C50,73.2197981 49.1221429,75.2206286 47.5592857,76.6959657 C45.9964286,78.1713029 43.8769048,79 41.6666667,79 L8.33333333,79 C6.12319048,79 4.00357143,78.1713029 2.44078571,76.6959657 C0.87797619,75.2206286 0,73.2197981 0,71.1333333 L0,27.8666667 C0,25.7802019 0.87797619,23.7793714 2.44078571,22.3040343 C4.00357143,20.8286971 6.12319048,20 8.33333333,20 L16.6666667,20" id="Path"></path>
        </g>
    </g>
</svg>