<svg width="45" height="65" viewBox="0 0 45 65" fill="none" xmlns="http://www.w3.org/2000/svg">
<path d="M44.6219 39.3386C44.6219 25.823 34.6337 0 22.3123 0C9.98872 0 0 25.8236 0 39.3386C0 49.9947 6.2186 59.0336 14.8857 62.3934C7.62445 62.5346 2.49808 62.8755 2.49808 63.2729C2.49808 63.7964 11.3687 64.2218 22.3112 64.2218C33.2537 64.2218 42.1244 63.7973 42.1244 63.2729C42.1244 62.8755 36.9982 62.534 29.7373 62.3934C38.4023 59.0344 44.6219 49.9947 44.6219 39.3386ZM2.37098 35.9899C2.37098 23.9137 11.299 0.834473 22.3107 0.834473C27.6267 0.834473 32.4534 6.21713 36.0272 13.1385L28.1862 16.4427L28.2096 16.3181L22.7624 15.8065L27.4621 17.5949L25.1591 27.9853L18.5623 30.3311L18.5203 30.3455L18.5078 30.388L17.3435 34.2558L18.6475 30.4923L25.4277 28.4394L25.551 28.4025L25.5895 28.2566L28.4526 17.4486L36.6738 14.4346C40.1257 21.6035 42.2517 30.1023 42.2517 35.99C42.2505 48.0691 33.3232 57.8605 22.3105 57.8605C11.2987 57.8605 2.37074 48.0691 2.37074 35.99L2.37098 35.9899Z" fill="white"/>
</svg>
