<?xml version="1.0" encoding="UTF-8"?>
<svg width="95px" height="99px" viewBox="0 0 95 99" version="1.1" xmlns="http://www.w3.org/2000/svg" xmlns:xlink="http://www.w3.org/1999/xlink">
    <title>Artboard</title>
    <g id="Artboard" stroke="none" stroke-width="1" fill="none" fill-rule="evenodd">
        <g id="Group" transform="translate(12.000000, 9.000000)" fill="#FFFFFF" fill-rule="nonzero">
            <path d="M29.1230156,34 C26.8189775,34 25,36.2522725 25,39.000045 C25,41.7477275 26.8593992,44 29.1230156,44 C31.4270537,44 33.2460312,41.7477275 33.2460312,39.000045 C33.2864529,36.2522725 31.4270537,34 29.1230156,34 Z M43.8769844,34 C41.5729463,34 39.7539688,36.2522725 39.7539688,39.000045 C39.7539688,41.7477275 41.613368,44 43.8769844,44 C46.1810225,44 48,41.7477275 48,39.000045 C48,36.2522725 46.1810225,34 43.8769844,34 Z" id="Shape"></path>
            <path d="M62.6828334,0 L8.31716662,0 C3.73258209,0 0,3.726 0,8.343 L0,63.099 C0,67.716 3.73258209,71.442 8.31716662,71.442 L54.3250952,71.442 L52.1748034,63.9495 L57.3679611,68.769 L62.2771179,73.305 L71,81 L71,8.343 C71,3.726 67.2674179,0 62.6828334,0 Z M47.0222172,52.893 C47.0222172,52.893 45.5616416,51.1515 44.3444953,49.6125 C49.6593676,48.114 51.6879448,44.793 51.6879448,44.793 C50.0245115,45.8865 48.4422213,46.656 47.0222172,47.1825 C44.99364,48.033 43.0462058,48.6 41.1393433,48.924 C37.244475,49.653 33.6743819,49.4505 30.6315161,48.8835 C28.3189381,48.438 26.3309324,47.79 24.667499,47.142 C23.7343535,46.7775 22.7200649,46.332 21.7057763,45.765 C21.5840617,45.684 21.462347,45.6435 21.3406324,45.5625 C21.2594893,45.522 21.2189178,45.4815 21.1783462,45.441 C20.4480584,45.036 20.042343,44.7525 20.042343,44.7525 C20.042343,44.7525 21.9897771,47.9925 27.1423633,49.5315 C25.9252169,51.0705 24.4240698,52.893 24.4240698,52.893 C15.4577585,52.6095 12.0497487,46.737 12.0497487,46.737 C12.0497487,33.696 17.8920511,23.1255 17.8920511,23.1255 C23.7343535,18.7515 29.2926551,18.8726634 29.2926551,18.8726634 L29.6983706,19.359 C22.3954926,21.465 19.0280544,24.6645 19.0280544,24.6645 C19.0280544,24.6645 19.9206283,24.1785 21.4217755,23.49 C25.7629308,21.5865 29.211512,21.06 30.6315161,20.9385 C30.8749454,20.898 31.0778031,20.8575 31.3212323,20.8575 C33.7960966,20.5335 36.5953303,20.4525 39.5164815,20.7765 C43.3707782,21.222 47.5090757,22.356 51.7285164,24.6645 C51.7285164,24.6645 48.5233644,21.627 41.6266075,19.521 L42.1942034,18.8726634 C42.1942034,18.8726634 47.752505,18.7515 53.5948074,23.1255 C53.5948074,23.1255 59.4371098,33.696 59.4371098,46.737 C59.4371098,46.737 55.9885285,52.6095 47.0222172,52.893 Z" id="Shape"></path>
        </g>
    </g>
</svg>