<svg width="25" height="19" viewBox="0 0 25 19" fill="none" xmlns="http://www.w3.org/2000/svg">
<path d="M20.8175 1.99197C19.2875 1.30197 17.6475 0.791974 15.9325 0.501974C15.9172 0.499042 15.9014 0.500931 15.8872 0.507381C15.8731 0.513831 15.8613 0.524522 15.8535 0.537974C15.6435 0.906974 15.4095 1.38797 15.2455 1.76797C13.4266 1.49621 11.5774 1.49621 9.75848 1.76797C9.57582 1.34683 9.36983 0.936198 9.14148 0.537974C9.13374 0.524356 9.12203 0.513423 9.10792 0.506634C9.0938 0.499844 9.07795 0.497521 9.06248 0.499974C7.34848 0.789973 5.70848 1.29997 4.17748 1.99097C4.16431 1.9965 4.15314 2.00592 4.14548 2.01797C1.03348 6.59297 0.180481 11.055 0.599481 15.461C0.600647 15.4718 0.603996 15.4822 0.609326 15.4917C0.614655 15.5011 0.621853 15.5094 0.630481 15.516C2.44687 16.8384 4.47282 17.8458 6.62348 18.496C6.63847 18.5006 6.65451 18.5006 6.66949 18.4959C6.68448 18.4913 6.69772 18.4823 6.70748 18.47C7.17028 17.851 7.58038 17.1944 7.93348 16.507C7.93838 16.4976 7.94121 16.4872 7.94176 16.4766C7.94232 16.4661 7.9406 16.4555 7.93671 16.4456C7.93282 16.4358 7.92686 16.4268 7.91923 16.4195C7.9116 16.4121 7.90248 16.4065 7.89248 16.403C7.24649 16.1597 6.62057 15.8661 6.02048 15.525C6.0097 15.5188 6.00061 15.5101 5.99404 15.4995C5.98746 15.489 5.98361 15.477 5.98281 15.4646C5.98202 15.4522 5.98432 15.4398 5.98949 15.4286C5.99467 15.4173 6.00257 15.4075 6.01248 15.4C6.13848 15.307 6.26448 15.21 6.38448 15.113C6.39528 15.1043 6.40829 15.0987 6.42206 15.0969C6.43584 15.0952 6.44983 15.0973 6.46248 15.103C10.3895 16.867 14.6425 16.867 18.5235 15.103C18.5362 15.0969 18.5503 15.0946 18.5643 15.0961C18.5782 15.0977 18.5915 15.1032 18.6025 15.112C18.7225 15.21 18.8475 15.307 18.9745 15.4C18.9845 15.4073 18.9925 15.417 18.9979 15.4282C19.0032 15.4394 19.0057 15.4517 19.0051 15.4641C19.0045 15.4765 19.0008 15.4885 18.9945 15.4991C18.9881 15.5098 18.9791 15.5186 18.9685 15.525C18.3705 15.869 17.7485 16.16 17.0955 16.402C17.0855 16.4056 17.0763 16.4114 17.0687 16.4188C17.061 16.4263 17.0551 16.4353 17.0512 16.4452C17.0473 16.4551 17.0456 16.4658 17.0462 16.4764C17.0467 16.4871 17.0496 16.4975 17.0545 16.507C17.4145 17.194 17.8265 17.848 18.2795 18.469C18.2889 18.4817 18.302 18.4912 18.3171 18.4963C18.3321 18.5013 18.3483 18.5015 18.3635 18.497C20.5178 17.8486 22.5471 16.8407 24.3655 15.516C24.3744 15.5098 24.3818 15.5017 24.3873 15.4924C24.3928 15.4831 24.3963 15.4727 24.3975 15.462C24.8975 10.368 23.5595 5.94197 20.8485 2.01997C20.8418 2.00723 20.8308 1.99729 20.8175 1.99197ZM8.52048 12.778C7.33848 12.778 6.36348 11.709 6.36348 10.398C6.36348 9.08597 7.31948 8.01797 8.52048 8.01797C9.73048 8.01797 10.6965 9.09497 10.6775 10.398C10.6775 11.71 9.72148 12.778 8.52048 12.778ZM16.4955 12.778C15.3125 12.778 14.3385 11.709 14.3385 10.398C14.3385 9.08597 15.2935 8.01797 16.4955 8.01797C17.7055 8.01797 18.6715 9.09497 18.6525 10.398C18.6525 11.71 17.7065 12.778 16.4955 12.778Z" fill="white"/>
</svg>
