<svg width="81" height="80" viewBox="0 0 81 80" fill="none" xmlns="http://www.w3.org/2000/svg">
<path d="M60.632 45.1668C59.232 46.5335 58.432 48.5001 58.632 50.6001C58.932 54.2001 62.232 56.8335 65.832 56.8335H72.1654V60.8001C72.1654 67.7001 66.532 73.3335 59.632 73.3335H21.3654C14.4654 73.3335 8.83203 67.7001 8.83203 60.8001V38.3669C8.83203 31.4669 14.4654 25.8335 21.3654 25.8335H59.632C66.532 25.8335 72.1654 31.4669 72.1654 38.3669V43.1669H65.432C63.5654 43.1669 61.8654 43.9001 60.632 45.1668Z" stroke="white" stroke-width="4" stroke-linecap="round" stroke-linejoin="round"/>
<path d="M8.83203 41.3668V26.1337C8.83203 22.167 11.2654 18.6335 14.9654 17.2335L41.432 7.23353C45.5654 5.66687 49.9987 8.73363 49.9987 13.167V25.8336" stroke="white" stroke-width="4" stroke-linecap="round" stroke-linejoin="round"/>
<path d="M75.6947 46.5673V53.4342C75.6947 55.2675 74.2281 56.7674 72.3614 56.8341H65.8281C62.2281 56.8341 58.9281 54.2007 58.6281 50.6007C58.4281 48.5007 59.2281 46.5341 60.6281 45.1674C61.8614 43.9007 63.5614 43.1675 65.4281 43.1675H72.3614C74.2281 43.2341 75.6947 44.734 75.6947 46.5673Z" stroke="white" stroke-width="4" stroke-linecap="round" stroke-linejoin="round"/>
<path d="M23.832 40H47.1654" stroke="white" stroke-width="4" stroke-linecap="round" stroke-linejoin="round"/>
</svg>
