<?xml version="1.0" encoding="UTF-8"?>
<svg width="1200pt" height="1200pt" version="1.1" viewBox="0 0 1200 1200" xmlns="http://www.w3.org/2000/svg">
 <g fill="#fff">
  <path d="m1095.7 105.72-1008 175.32c-22.918 4.082-39.719 24-39.719 47.281v636c0 24.84 18.84 45.48 43.441 47.762l912 86.879c28.199 2.7578 52.559-19.441 52.559-47.762v-208.44c0-5.7617 4.1992-10.801 9.9609-11.762l46.199-8.0391c23.039-4.0781 39.84-24 39.84-47.281v-622.56c0-29.883-26.879-52.441-56.281-47.402zm-87.719 932.28c0 7.0781-6.1211 12.602-13.078 12l-767.64-73.199-120.36-11.402c-6.2422-0.59766-10.922-5.7578-10.922-12v-599.4c0-7.0781 6.1211-12.602 13.078-12l271.92 25.922 145.44 13.801h0.12109l166.32 15.84 173.04 16.559 131.16 12.48c6.2383 0.60156 10.922 5.7617 10.922 12zm96-272.4c0 5.8789-4.1992 10.801-9.9609 11.762l-24 4.1992c-7.3203 1.3164-14.039-4.3242-14.039-11.762v-342.12c0-19.441-11.641-36.48-28.68-43.801l76.68-14.398zm0-445.08-240.84 45.121-166.32-15.84 407.16-76.32zm0-96-580.44 108.84-294.72-28.078 861.12-149.76c7.3203-1.1992 14.039 4.4414 14.039 11.879z"/>
  <path d="m882.2 761.23c-31.859-16.246-65.652-16.043-92.746 0.5625-28.887 17.691-45.457 50.488-45.457 90.004 0 59.723 41.93 116.62 95.473 129.54 7.3555 1.7773 14.699 2.6406 21.875 2.6406 40.512 0 76.477-27.168 88.355-69.59 16.32-58.234-13.332-125.52-67.5-153.16zm21.289 140.2c-7.1055 25.367-28.824 39.07-52.754 33.254-28.258-6.832-58.738-40.445-58.738-82.887 0-22.414 8.2188-40.309 22.523-49.078 6.0352-3.6953 12.852-5.5312 20.172-5.5312 8.1133 0 16.812 2.2578 25.691 6.7812 36.852 18.812 52.035 65.586 43.105 97.461z"/>
 </g>
</svg>
