<?xml version="1.0" encoding="UTF-8"?>
<svg width="1200pt" height="1200pt" version="1.1" viewBox="0 0 1200 1200" xmlns="http://www.w3.org/2000/svg">
 <path d="m697.44 765.31h-404.45c-13.035 0-23.617 10.582-23.617 23.617 0 13.035 10.582 23.617 23.617 23.617h404.45c10.508 40.715 47.516 70.848 91.488 70.848 43.973 0 80.98-30.133 91.488-70.848h26.594c13.035 0 23.613-10.582 23.613-23.617 0-13.035-10.578-23.617-23.613-23.617h-26.594c-10.508-40.711-47.516-70.848-91.488-70.848-43.973 0-80.98 30.137-91.488 70.848zm91.488-23.613c26.074 0 47.234 21.16 47.234 47.23 0 26.074-21.16 47.234-47.234 47.234-26.07 0-47.23-21.16-47.23-47.234 0-26.07 21.16-47.23 47.23-47.23zm-280.42-165.31h-215.52c-13.035 0-23.617 10.578-23.617 23.613 0 13.039 10.582 23.617 23.617 23.617h215.52c10.512 40.715 47.516 70.848 91.488 70.848 43.977 0 80.98-30.133 91.492-70.848h215.52c13.035 0 23.613-10.578 23.613-23.617 0-13.035-10.578-23.613-23.613-23.613h-215.52c-10.512-40.715-47.516-70.848-91.492-70.848-43.973 0-80.977 30.133-91.488 70.848zm91.488-23.617c26.074 0 47.234 21.16 47.234 47.23 0 26.074-21.16 47.234-47.234 47.234-26.07 0-47.23-21.16-47.23-47.234 0-26.07 21.16-47.23 47.23-47.23zm-280.41-165.31h-26.594c-13.035 0-23.617 10.578-23.617 23.617 0 13.035 10.582 23.613 23.617 23.613h26.594c10.508 40.715 47.516 70.852 91.488 70.852 43.973 0 80.977-30.137 91.488-70.852h404.45c13.035 0 23.613-10.578 23.613-23.613 0-13.039-10.578-23.617-23.613-23.617h-404.45c-10.512-40.715-47.516-70.848-91.488-70.848-43.973 0-80.98 30.133-91.488 70.848zm91.488-23.617c26.07 0 47.23 21.16 47.23 47.234 0 26.07-21.16 47.23-47.23 47.23-26.074 0-47.234-21.16-47.234-47.23 0-26.074 21.16-47.234 47.234-47.234z" fill="#fff" fill-rule="evenodd"/>
</svg>
