<svg width="78" height="78" viewBox="0 0 78 78" fill="none" xmlns="http://www.w3.org/2000/svg">
<path d="M8.07454 41.2974C8.54631 47.6755 10.9789 53.7514 15.0383 58.6933C19.0978 63.6358 24.5862 67.2019 30.751 68.9038L31.0171 67.9399L30.751 68.9038C36.9156 70.6057 43.455 70.36 49.4745 68.2013C61.1696 64.0404 68.9043 53.2074 69.9005 41.1129C69.9928 41.1238 70.0847 41.1291 70.1753 41.1291C70.1984 41.1291 70.2217 41.1287 70.2449 41.128C69.0592 55.2429 58.7346 67.3601 44.5147 69.8619C38.2532 70.9355 31.8133 70.1018 26.0316 67.4686C20.2508 64.8359 15.3951 60.5254 12.0955 55.0976C8.76538 49.528 7.24565 43.0626 7.74555 36.5927L7.74555 36.5926C8.24507 30.1216 10.7408 23.9654 14.8881 18.9728C19.0354 13.9803 24.6296 10.3979 30.8991 8.7198C37.1671 7.04206 43.8016 7.35029 49.8872 9.60201C55.8593 11.8752 61.0065 15.898 64.6565 21.1437C67.8991 25.8041 69.8256 31.2366 70.2548 36.8715C70.2346 36.871 70.2144 36.8707 70.1943 36.8707C70.0974 36.8707 69.9992 36.8767 69.9006 36.8891C68.7736 23.2747 59.0316 11.4564 45.2999 8.63014L45.2946 8.62907C38.9937 7.36802 32.458 8.07647 26.5739 10.6581L26.5739 10.6581C20.69 13.2398 15.7427 17.5693 12.4043 23.0598L12.4043 23.0598L12.4009 23.0653C9.11354 28.5514 7.60228 34.9192 8.07454 41.2974ZM8.07454 41.2974L9.07181 41.2236L8.07454 41.2974ZM70.344 38.911C70.344 38.911 70.3441 38.9113 70.3444 38.9119C70.3447 38.9423 70.345 38.9727 70.3453 39.0031C70.3449 39.0571 70.335 39.0789 70.334 39.0811L70.334 39.0811C70.3329 39.0835 70.3324 39.0845 70.3286 39.0878C70.3156 39.099 70.2642 39.1291 70.1753 39.1291C70.0865 39.1291 70.0351 39.099 70.022 39.0878C70.0182 39.0845 70.0177 39.0835 70.0167 39.0811L70.0166 39.0811C70.0158 39.0791 70.0075 39.0611 70.0057 39.0178L70.0057 39.0153C70.0066 38.959 70.0173 38.935 70.0194 38.9304C70.0217 38.9255 70.0242 38.9219 70.0306 38.9164C70.0488 38.901 70.1049 38.8707 70.1943 38.8707C70.2842 38.8707 70.3329 38.901 70.3425 38.9093C70.344 38.9106 70.344 38.9106 70.3439 38.9107C70.3439 38.9107 70.3439 38.9108 70.344 38.911Z" fill="white" stroke="white" stroke-width="2"/>
<path d="M15.8113 20.0693L60.2167 61.8695C61.3167 62.8991 62.9701 61.2533 61.8704 60.2159L17.465 18.4157C16.3651 17.3861 14.7117 19.0319 15.8113 20.0693V20.0693Z" fill="white"/>
<path d="M55.0871 26.325C54.0811 27.7012 52.351 27.5322 51.3933 28.675H51.3931C51.6307 28.9697 51.9714 29.1635 52.3461 29.2175C52.7209 29.2712 53.1022 29.1809 53.4132 28.9647C54.216 28.5465 55.0438 28.1785 55.8918 27.862C56.2815 27.7144 56.7031 27.6699 57.115 27.7333C56.5999 29.1578 55.0548 29.0772 54.0005 30.0188L55.264 30.7511C56.3424 29.9465 59.642 28.9324 60.8972 29.1415C59.6257 30.3647 57.9598 30.5177 56.5515 31.3224C57.4045 32.1271 58.1611 32.5215 59.3279 31.9903L59.3282 31.9906C60.5294 31.4082 61.8405 31.0873 63.175 31.0489C62.2173 32.3767 60.8171 32.4652 59.6179 33.0687V33.069C59.7869 33.3252 60.0404 33.5146 60.3342 33.6042C60.6279 33.6938 60.9439 33.678 61.2273 33.5598C62.3941 33.254 63.5692 32.9886 64.752 32.7552H64.7522C65.0359 32.7278 65.3216 32.7278 65.6053 32.7552C65.2995 33.7048 64.5188 33.5598 63.9313 33.7449C63.3438 33.93 62.6758 34.2761 61.9919 34.5496C62.197 34.9077 62.5318 35.1734 62.9271 35.2918C63.3225 35.4101 63.7483 35.3719 64.1164 35.1855C65.1667 34.8092 66.2426 34.5081 67.3356 34.2841C66.8287 35.8453 65.2351 35.5396 64.5269 36.618C64.7942 36.6505 65.0644 36.6505 65.3315 36.618C66.3777 36.3685 67.416 36.0788 68.4621 35.8133V35.813C68.787 35.8017 69.1119 35.834 69.4278 35.9097C68.6231 37.1572 67.1665 36.8111 66.2892 37.6561C66.3633 37.8789 66.4573 38.0944 66.571 38.2997C67.1906 39.2332 67.1745 39.4185 66.1525 39.9574C65.1304 40.4967 64.0923 41.0359 63.03 41.4944C59.2314 43.104 55.425 44.7618 51.6025 46.323C46.6292 48.3886 41.6424 50.4247 36.6418 52.4312V52.4316C35.3423 52.8711 34.0887 53.4372 32.8997 54.1216C32.0177 54.5701 31.0894 54.9209 30.1313 55.1677C29.2379 55.4896 28.3446 55.8036 27.4595 56.1415C26.0753 56.6807 26.0833 56.6887 25.0049 55.5782C24.008 56.4037 22.7908 56.9183 21.5042 57.0589C21.8423 55.6343 23.5 55.747 24.1116 54.7009C23.8541 54.2504 23.5563 54.3228 23.2182 54.5159C22.502 54.9103 21.7777 55.3205 21.0614 55.6747C20.9084 55.7551 20.7556 55.9001 20.6109 55.892C20.3725 55.881 20.144 55.7935 19.9592 55.6426C19.8868 55.5782 19.9592 55.2081 20.1202 55.0874H20.12C20.3843 54.8646 20.6733 54.6729 20.9813 54.5158C21.5285 54.202 22.0838 53.8962 22.6552 53.5824C21.7378 52.5121 21.5848 52.488 20.5708 53.0673C19.7661 53.5018 19.0176 53.9203 18.1565 54.3871C17.738 53.2846 18.607 53.1639 19.0176 52.7775C19.5332 52.3805 20.0705 52.0124 20.6272 51.675C20.5305 51.4154 20.3209 51.2141 20.0578 51.128C19.7946 51.0417 19.5065 51.0802 19.275 51.2325C18.7278 51.4739 18.1966 51.7717 17.6654 52.0371C17.1342 52.3026 16.8607 52.2302 16.4583 51.6427L18.6957 50.2667C18.0681 49.3333 18.0598 49.3091 17.2068 49.6471V49.6469C16.6879 49.8605 16.1942 50.1304 15.7342 50.4518C15.2837 50.7576 14.9295 50.7736 14.6398 50.122C14.9696 49.8322 15.2997 49.5104 15.6618 49.2366C16.024 48.9629 16.3781 48.7778 16.7563 48.5364C16.6919 48.269 16.5092 48.0457 16.2602 47.9297C16.011 47.8137 15.7224 47.818 15.4766 47.9408C14.8749 48.1768 14.2866 48.4454 13.7142 48.7455C13.3924 48.9065 13.0623 49.1156 12.8208 48.7455C12.5794 48.3753 12.7725 48.0855 13.1427 47.8925L14.8407 46.9911C14.3578 46.0334 14.1404 45.9287 13.3198 46.3472C12.7402 46.645 12.201 47.0071 11.6298 47.2969C11.3159 47.4579 10.9055 47.5383 10.7687 47.1118C10.7123 46.9347 10.9377 46.5726 11.1308 46.4278C11.7184 45.9933 12.346 45.6231 12.9819 45.2207C12.7727 44.5768 12.3863 44.4964 11.8714 44.7619C11.3563 45.0273 10.8977 45.3091 10.4068 45.5665C9.91592 45.824 9.60211 45.9046 9.23194 45.3815C9.46536 44.3594 10.7932 44.5768 11.1794 43.7719C10.2781 42.5244 10.2781 42.5244 9.09499 43.289V43.2892C8.78991 43.4932 8.46975 43.6735 8.13731 43.8284C7.94421 43.9088 7.6785 43.8284 7.44531 43.8284C7.44531 43.563 7.44531 43.2009 7.57404 43.0238C7.87984 42.734 8.33865 42.6053 8.65244 42.3318C8.96625 42.058 9.1353 41.7685 9.08697 41.5271C8.91792 40.7224 9.42506 40.489 10.0447 40.2716C13.5534 39.0725 17.0624 37.8573 20.5546 36.6341C24.0473 35.4109 27.6846 34.0348 31.2421 32.7069V32.7067C36.5193 30.7222 41.944 29.1534 47.4661 28.0149C48.4306 27.6959 49.4798 27.7534 50.4035 28.1759C50.7254 27.2342 51.6267 27.0411 52.4234 26.7354C53.2203 26.4296 53.9606 25.9387 55.0874 26.3249L55.0871 26.325ZM49.1318 46.3395C48.3271 45.0439 38.2512 35.0726 35.1772 32.4573C32.3126 33.3544 29.4975 34.4022 26.7435 35.5959C31.0702 40.6666 35.7784 45.3991 40.8267 49.7514L49.1318 46.3395ZM31.4272 53.5823C30.6226 52.8661 30.0994 52.3349 29.5281 51.8199C28.2726 50.7012 27.0011 49.6068 25.7456 48.4883C25.0534 47.8524 24.3291 47.1762 23.6612 46.5486C21.4723 44.6332 19.2591 42.6777 17.0865 40.6979C15.7587 39.4828 15.7827 39.4104 14.109 39.9496C12.9018 40.3358 11.6947 40.8186 10.2541 41.3579C11.0588 42.0902 11.6223 42.6534 12.2179 43.1766C15.0452 45.6393 17.8754 48.0936 20.7083 50.5402C22.3743 51.9807 24.056 53.397 25.7059 54.8536L25.7057 54.8539C25.8915 55.0606 26.1383 55.2026 26.4107 55.2589C26.6827 55.3155 26.9659 55.2834 27.2187 55.1677C28.5465 54.6204 29.8824 54.1456 31.4437 53.55L31.4272 53.5823ZM65.5007 38.9035C64.899 38.2674 64.2594 37.668 63.5853 37.109C59.6012 34.3331 55.4153 31.8584 51.0636 29.705C49.479 28.8338 47.5692 28.7888 45.9453 29.5843C46.0695 29.8198 46.215 30.0434 46.3798 30.2522C47.3375 31.242 48.2951 32.224 49.2689 33.1977C52.013 35.9178 54.7895 38.6218 57.5179 41.3658C57.7244 41.6155 58.0043 41.7933 58.3181 41.8742C58.6317 41.9553 58.9627 41.935 59.2643 41.8166C61.4416 41.0716 63.5324 40.0948 65.501 38.9032L65.5007 38.9035Z" fill="white"/>
</svg>
