<svg width="16" height="17" viewBox="0 0 16 17" fill="none" xmlns="http://www.w3.org/2000/svg">
<path d="M15.8438 7.34375C15.8438 7.54266 15.7647 7.73343 15.6241 7.87408C15.4834 8.01473 15.2927 8.09375 15.0938 8.09375C14.8948 8.09375 14.7041 8.01473 14.5634 7.87408C14.4228 7.73343 14.3438 7.54266 14.3438 7.34375V3.52812L8.86875 9.00312C8.72875 9.141 8.54024 9.21842 8.34375 9.21875C8.14459 9.21791 7.95334 9.14074 7.80938 9.00312C7.66912 8.86252 7.59035 8.67204 7.59035 8.47344C7.59035 8.27484 7.66912 8.08435 7.80938 7.94375L13.2844 2.46875H9.46875C9.26984 2.46875 9.07907 2.38973 8.93842 2.24908C8.79777 2.10843 8.71875 1.91766 8.71875 1.71875C8.71875 1.51984 8.79777 1.32907 8.93842 1.18842C9.07907 1.04777 9.26984 0.96875 9.46875 0.96875H15.0938C15.2927 0.96875 15.4834 1.04777 15.6241 1.18842C15.7647 1.32907 15.8438 1.51984 15.8438 1.71875V7.34375ZM14.25 8.75C14.0511 8.75 13.8603 8.82902 13.7197 8.96967C13.579 9.11032 13.5 9.30109 13.5 9.5V15.5H1.5V3.5H7.5C7.69891 3.5 7.88968 3.42098 8.03033 3.28033C8.17098 3.13968 8.25 2.94891 8.25 2.75C8.25 2.55109 8.17098 2.36032 8.03033 2.21967C7.88968 2.07902 7.69891 2 7.5 2H1.5C1.10218 2 0.720644 2.15804 0.43934 2.43934C0.158035 2.72064 0 3.10218 0 3.5V15.5C0 15.8978 0.158035 16.2794 0.43934 16.5607C0.720644 16.842 1.10218 17 1.5 17H13.5C13.8978 17 14.2794 16.842 14.5607 16.5607C14.842 16.2794 15 15.8978 15 15.5V9.5C15 9.30109 14.921 9.11032 14.7803 8.96967C14.6397 8.82902 14.4489 8.75 14.25 8.75Z" fill="#15F195"/>
</svg>
