<?xml version="1.0" encoding="UTF-8"?>
<svg width="95px" height="99px" viewBox="0 0 95 99" version="1.1" xmlns="http://www.w3.org/2000/svg" xmlns:xlink="http://www.w3.org/1999/xlink">
    <title>Artboard</title>
    <defs>
        <polygon id="path-1" points="-1.6479873e-16 1.43982049e-16 95 0 95 99 0 99"></polygon>
    </defs>
    <g id="Artboard" stroke="none" stroke-width="1" fill="none" fill-rule="evenodd">
        <mask id="mask-2" fill="white">
            <use xlink:href="#path-1"></use>
        </mask>
        <g id="Path"></g>
        <path d="M51.2693398,20.4658343 C52.952996,13.8721755 58.8902197,9 65.9555798,9 C73.021903,9 78.9586452,13.8721755 80.6418198,20.4658343 L88.6991452,20.4658343 C90.7943243,20.4658343 92.4931507,22.1623142 92.4931507,24.2877387 C92.4931507,26.398598 90.7967322,28.109643 88.6991452,28.109643 L80.6418198,28.109643 C78.9586452,34.7033019 73.0214214,39.5749918 65.9555798,39.5749918 C58.8896177,39.5749918 52.9525144,34.7033019 51.2693398,28.109643 L5.30109564,28.109643 C3.20591653,28.109643 1.50709011,26.4131632 1.50709011,24.2877387 C1.50709011,22.1768794 3.20350855,20.4658343 5.30109564,20.4658343 L51.2693398,20.4658343 Z M13.3581802,68.890357 C15.0413548,62.2966981 20.9785786,57.4245227 28.0444202,57.4245227 C35.1103823,57.4245227 41.0474856,62.2966981 42.7306602,68.890357 L88.6989044,68.890357 C90.7940835,68.890357 92.4929099,70.5868368 92.4929099,72.7122613 C92.4929099,74.8231206 90.7964914,76.5341657 88.6989044,76.5341657 L42.7306602,76.5341657 C41.047004,83.1278245 35.1097803,88 28.0444202,88 C20.978097,88 15.0413548,83.1278245 13.3581802,76.5341657 L5.30085484,76.5341657 C3.20567573,76.5341657 1.50684932,74.8376858 1.50684932,72.7122613 C1.50684932,70.601402 3.20326775,68.890357 5.30085484,68.890357 L13.3581802,68.890357 Z M28.0444202,80.3561914 C32.2320093,80.3561914 35.6267725,76.93398 35.6267725,72.7122613 C35.6267725,68.4905427 32.2321297,65.0683313 28.0444202,65.0683313 C23.8567108,65.0683313 20.4620679,68.4905427 20.4620679,72.7122613 C20.4620679,76.93398 23.8567108,80.3561914 28.0444202,80.3561914 Z M65.9555798,31.9316687 C70.1431688,31.9316687 73.5379321,28.5094573 73.5379321,24.2877387 C73.5379321,20.06602 70.1432892,16.6438086 65.9555798,16.6438086 C61.7678703,16.6438086 58.3732275,20.06602 58.3732275,24.2877387 C58.3732275,28.5094573 61.7678703,31.9316687 65.9555798,31.9316687 Z" id="Shape" fill="#FFFFFF" mask="url(#mask-2)"></path>
    </g>
</svg>