<?xml version="1.0" encoding="UTF-8"?>
<svg width="1131px" height="1195px" viewBox="0 0 1131 1195" version="1.1" xmlns="http://www.w3.org/2000/svg" xmlns:xlink="http://www.w3.org/1999/xlink">
    <title>Artboard</title>
    <g id="Artboard" stroke="none" stroke-width="1" fill="none" fill-rule="evenodd">
        <g id="noun-shovel-2669983-FFFFFF" transform="translate(2.000000, 97.070795)" fill="#FFFFFF" fill-rule="nonzero">
            <path d="M1050.44332,5.71125498 C1043.45502,1.84405498 1035.57232,-0.120745023 1027.58832,0.0057430502 C1021.60002,0.0628369765 1015.64732,0.898774977 1009.87732,2.50425498 C1000.57652,5.35585498 991.772317,9.62145498 983.768317,15.152255 C974.975317,21.117055 966.616317,27.695255 958.748317,34.840255 C945.623317,46.465255 933.818317,59.543255 920.779317,71.289255 C910.841817,80.222855 900.463317,88.699255 890.365317,97.453255 C879.603317,106.777455 868.888317,116.152255 858.217317,125.578255 C836.854317,144.414255 815.549317,163.320255 794.299317,182.289255 C753.385317,218.609255 712.502317,255.000255 669.609317,288.929255 C628.894317,321.093255 587.418317,352.679255 553.179317,391.969255 C552.421507,392.832535 551.792617,393.730955 551.136317,394.621555 C545.398023,391.102055 539.273223,388.246555 532.886223,386.109855 C528.702623,384.727055 524.315923,384.051255 519.909223,384.105955 C514.581123,384.180174 509.280223,384.855955 504.104223,386.109855 C499.576923,387.367655 495.182323,389.059055 490.979223,391.152855 C487.549523,392.742655 484.209723,394.516155 480.975223,396.469255 C465.467223,406.344255 451.709223,418.735255 440.268223,433.125255 C436.272123,437.976855 432.608023,443.094055 429.299223,448.434255 C415.596223,445.617855 401.639223,444.215455 387.647223,444.246755 C354.999223,444.692065 322.670223,450.750655 292.077223,462.160755 C231.495223,484.023755 178.237223,522.340755 131.467223,565.990755 C86.1621305,609.033755 46.1231305,657.302755 12.1911305,709.780755 C10.1755305,712.862755 9.00753046,716.417455 8.80053046,720.092755 C6.64433046,721.893555 4.81223046,724.053655 3.39033046,726.479455 C-0.00223699011,732.108355 -0.902669535,738.909455 0.933330465,745.229455 C4.81223046,755.745455 10.0114305,765.725455 16.4103305,774.928455 C24.3595305,786.033455 33.2263305,796.451455 42.9263305,806.073455 C61.5903305,825.003455 82.5903305,841.530455 103.00033,858.479455 C117.47733,870.487455 130.95733,883.342455 144.38333,896.502455 C160.328424,912.572455 177.152424,927.752455 194.770424,941.971455 C211.618424,956.268455 230.946424,967.358455 251.790424,974.690455 C262.497424,977.924855 273.802424,978.635755 284.829424,976.772455 C288.606724,976.124015 292.294224,975.034155 295.817424,973.526355 C302.727624,970.741155 309.485424,967.584955 316.055424,964.069355 C327.500424,957.702155 338.489424,950.553355 348.942424,942.667355 C360.981424,933.882155 372.594424,924.554355 384.079424,915.085355 C404.208424,898.499355 423.602424,881.081355 444.079424,864.983355 L444.08333,864.983355 C467.03633,848.151355 488.74733,829.686355 509.04033,809.729355 C529.38833,789.299355 546.06033,765.514355 558.31733,739.417355 C564.36423,726.237355 569.02433,712.468355 572.21933,698.323355 C575.73493,681.979355 577.37163,665.280355 577.09433,648.561355 C576.85605,636.436355 575.78963,624.338355 573.90683,612.354355 C575.92243,611.260555 577.77013,609.881655 579.39903,608.268455 L579.53184,608.155175 C592.44184,598.424675 605.78184,589.339175 618.32484,579.093175 C633.83284,567.663175 645.40684,551.698175 651.45784,533.409175 C653.65314,524.670875 653.32894,515.487175 650.52034,506.925175 C710.61434,465.058175 766.00034,416.925175 821.59034,369.375175 C835.16434,357.758175 848.91834,346.332175 862.41834,334.687175 C877.31634,321.816175 891.64834,308.335175 905.79734,294.664175 C933.10634,268.320175 959.34834,240.898175 986.04734,213.953175 C996.05934,203.848175 1005.93034,193.422175 1016.75834,184.168175 C1026.39504,175.984575 1036.44634,168.305175 1046.24234,160.289175 L1046.24234,160.293081 C1056.22284,152.226681 1065.71134,143.559081 1074.64834,134.344081 C1079.37884,129.179981 1083.83584,123.770081 1087.99634,118.137081 C1092.37914,112.199581 1095.93774,105.696081 1098.57034,98.805081 C1103.11334,88.106081 1103.69924,76.145081 1100.22264,65.055081 C1095.03904,51.555081 1087.28864,39.192081 1077.39464,28.653081 C1069.77502,19.527255 1060.66132,11.769255 1050.44332,5.71125498 Z M541.050982,674.826956 C538.72162,689.427425 534.832428,703.734249 529.445926,717.494658 C522.537385,732.800734 513.985722,747.309775 503.94478,760.755027 C483.3533,785.712643 459.917297,808.15761 434.11853,827.628487 C414.288231,842.927033 399.261611,855.006248 385.382649,866.846675 L377.495494,873.573497 C362.570578,886.287328 347.155339,899.438936 331.477808,911.770922 C314.56172,925.266728 296.249499,936.884502 276.852783,946.430631 C275.025308,947.086093 273.210359,947.661679 271.31169,948.144955 L269.413129,948.144955 C268.350913,948.144955 267.313834,948.144955 266.251608,948.065124 C261.973481,947.161775 257.766434,945.918078 253.680791,944.34251 C245.475781,940.39294 237.600723,935.7838 230.132377,930.557361 C229.321083,930.183411 228.497285,929.771653 227.723579,929.326314 C216.850798,923.007045 206.496176,915.817599 196.760348,907.838649 L196.501065,907.628569 C201.147155,903.09924 206.378851,898.481603 212.459087,893.511054 L214.658802,891.746392 L223.29868,885.170803 C235.213132,876.095257 247.54511,866.759411 259.221894,856.935772 C273.431664,845.167411 287.482988,832.663326 301.011871,820.532482 L311.391437,811.297314 C318.149455,805.322567 324.898908,799.368686 331.63605,793.439868 C341.363206,784.897937 351.064883,776.355792 360.7429,767.717486 C375.568252,754.465845 391.563744,740.368766 408.208006,727.121428 L408.203824,727.113025 C420.339886,717.751795 427.876866,707.832862 441,699.929205 C447.670231,696.030082 453,687.929205 456,680.929205 C459,673.929205 457.813735,667.516136 452.795394,661.62604 C447.777064,655.739493 441.712437,648.828419 434,648.929205 C429.466748,648.9166 423.905893,650.622537 420,652.929205 C385,679.929205 354.531707,712.875301 323,742.929205 C290.414265,772.122617 271.414265,789.122617 266,793.929205 C254.758941,803.940361 234.092274,821.607027 204,846.929205 C189.95724,856.924944 179.517187,869.064038 167,880.929205 L155,869.929205 C150.884916,865.803233 148.863525,863.207449 144.785697,859.081155 L142.669594,856.942499 C140.720823,854.925711 138.776227,853.018206 136.806472,851.001418 L130,842.929205 C163,814.929205 207,775.929205 242,746.929205 C245.800939,743.210215 313.27107,681.886189 356,648.929205 C367.066948,640.393226 380.066948,631.393226 395,621.929205 C397,620.595872 398.666667,618.595872 400,615.929205 L402,611.929205 C403,604.929205 403.086991,601.511932 399.540726,595.494912 C394.635342,587.431956 385.915492,582.499269 376.506189,582.470227 C372.039849,582.432412 367.657227,583.701275 363.889438,586.117225 C320.200258,615.86888 279.522611,649.856327 242.443173,687.595538 C236.734856,693.141651 231.04688,698.713148 225.380315,704.305298 C195.073349,735.103631 163.177645,764.284132 129.822745,791.719977 C120.308848,798.972023 110.703309,805.837492 101.259749,812.132021 C100.11391,812.91773 99.0098238,813.724477 97.9058447,814.611003 C96.7516555,813.602609 95.6183426,812.50182 94.4641535,811.463954 C89.2158634,806.716058 77.1605028,791.803593 72,786.929205 C71.8048409,786.755535 101.138174,759.088869 160,703.929205 C192.084125,669.434065 229.775954,637.000319 266,606.929205 C277.341694,598.328438 289.579084,590.176734 301,582.929205 C306.896525,579.366213 310.251641,571.618057 312,564.929205 C313.748038,558.240138 310.973363,557.068732 310,550.929205 C305.115492,542.887223 298.447438,541.840286 289.075606,541.818774 C284.588389,541.785161 280.184784,543.028847 276.379632,545.41113 C232.389619,574.675529 191.828665,608.839378 155.479361,647.259456 C146.609416,656.171185 137.79771,665.166382 129.053236,674.242465 C111.279515,692.57426 93.1011161,711.309413 74.1733131,729.301312 C63.5763128,739.385252 52.7446421,749.246538 41.5838759,758.73781 L41.5127831,758.657979 L41.5127831,758.708399 L41.0820471,758.195801 C37.5148843,753.372283 34.2738192,748.317729 31.375767,743.066228 C32.6387268,741.696534 33.7845655,740.221751 34.8007572,738.658659 C46.4850356,720.818423 59.1317628,702.931934 72.3587428,685.507962 C108.905134,637.82787 151.02913,594.735297 197.81549,557.164959 C226.733919,534.808193 258.186403,515.976235 291.519892,501.064912 C314.717156,491.527172 338.943245,484.728392 363.704623,480.808832 C373.030313,479.724822 382.415098,479.170232 391.807271,479.144955 C399.715303,479.144955 407.619695,479.57772 415.480942,480.434839 C428.172634,482.497878 440.618093,485.880166 452.617121,490.518778 C463.092932,495.308623 473.054437,501.148918 482.354541,507.955657 C491.333149,515.354741 499.538373,523.653259 506.843991,532.719661 C514.710271,543.652265 521.434887,555.366845 526.917312,567.681621 C533.30309,584.135383 537.861822,601.248501 540.508288,618.706892 C542.799965,637.332332 542.983998,656.16429 541.051938,674.832755 L541.050982,674.826956 Z M603.880317,522.442255 L603.731877,522.957885 C602.634177,525.000885 601.431077,526.985185 600.130277,528.903185 C593.720077,536.125885 586.638277,542.719185 578.970277,548.591185 C574.724177,551.770885 570.439077,554.880285 566.154277,557.966185 L561.982377,560.927085 L560.736277,561.864585 C551.908177,539.360585 539.095277,518.630585 522.920277,500.665585 C510.717277,487.310585 496.377277,476.079585 480.486277,467.431585 C479.193277,466.720645 477.861277,466.099585 476.548777,465.415985 L476.615183,465.341766 C483.228483,457.357366 490.580183,450.009766 498.572183,443.403766 C503.173783,440.017066 508.052683,437.020966 513.158183,434.450666 C514.872983,433.841286 516.587883,433.325666 518.361283,432.884266 L518.951123,432.884266 C519.540963,433.024886 520.115223,433.212386 520.927723,433.474106 L520.931629,433.474106 C524.634729,435.431106 528.197229,437.646006 531.591629,440.103006 C544.083629,450.755006 555.700629,462.396006 566.325629,474.912006 C568.849029,477.724506 571.341229,480.650306 573.825629,483.517506 C576.087329,486.150306 578.372529,488.771406 580.677229,491.384706 C582.946729,493.982406 585.271029,496.513606 587.606929,499.044906 C591.001429,502.740206 594.524929,506.544906 597.797929,510.528906 L597.794022,510.528906 C599.922922,513.493706 601.852622,516.599206 603.571322,519.818006 C603.778352,520.446916 603.965852,521.075806 604.133822,521.693006 L603.880317,522.442255 Z M1054,98.929205 C1053.56688,99.164155 1017,134.929205 1017,134.929205 C1016.50488,135.039155 899,252.929205 899,252.929205 C899,252.929205 831.399,316.300205 820,325.929205 C813.3711,331.554205 791.594,350.238205 785,355.929205 C739.1,393.332538 703.766667,421.665872 679,440.929205 C664.047,452.394205 646.23,466.132205 632,475.929205 L620.528977,462.908245 C618.193077,460.384845 615.841477,457.873045 613.564177,455.306645 C610.919677,452.298845 608.306377,449.287145 605.681377,446.259745 C602.614977,442.744145 599.568077,439.220645 596.466577,435.732745 C593.654077,432.545245 590.755677,429.431945 587.833777,426.357745 L573,410.929205 C604.336,376.929205 641.824,347.418205 679,319.929205 C696.289,306.335205 719.937,288.383205 737,273.929205 C757.383,256.679205 776.551,241.987205 797,223.929205 C811.895,210.804205 836.203,192.121205 851,178.929205 C874.805,157.781205 886.586,150.202205 911,128.929205 C915.375,125.124505 927.5663,115.679305 932,111.929205 C942.633,102.862805 958.895,88.882205 969,78.929205 C982.034,68.4445383 992.367333,60.111205 1000,53.929205 C1005.4336,49.847205 1010.91,45.949005 1017,42.929205 C1018.9453,42.233895 1018.9844,41.378505 1021,40.929205 L1028,46.929205 C1029.0234,47.538585 1030.9883,49.245605 1032,49.929205 C1037.6562,54.823705 1041.28627,60.946832 1045.99327,66.763832 C1048.79797,70.611532 1051.8125,73.698505 1054,77.929205 C1060.21354,84.645405 1063.21354,88.3120716 1063,88.929205 C1062.67969,89.854905 1054,98.929205 1054,98.929205 Z" id="Shape"></path>
            <path d="M1038.27113,684.318175 C1028.74885,681.90302 1019.06021,680.193158 1009.28573,679.203382 C999.677607,677.937997 990.057334,676.9838 980.421868,675.768864 C972.647556,674.876874 964.979597,673.208509 957.540293,670.790396 L957.234654,670.648154 C957.178273,670.384411 957.121891,670.129566 957.077382,669.865861 C956.564023,660.009821 956.920111,650.129505 958.14561,640.335671 C958.650066,634.951187 959.234651,629.560938 959.620404,624.170157 C959.997261,619.126523 959.756907,614.065289 959.756907,609.021199 L959.753939,609.021199 C960.095192,594.764382 959.620407,580.501496 958.329586,566.298542 C957.329576,551.324826 952.646985,536.824491 944.697573,524.087956 C942.187141,519.989643 938.243467,516.964024 933.632436,515.598197 C930.409827,514.706208 927.006191,514.706208 923.783506,515.598197 C920.694444,516.445732 917.881365,518.084435 915.620252,520.348472 C911.092023,525.966991 906.952586,531.890933 903.228756,538.072199 C899.08628,545.424326 895.44229,553.045916 892.317828,560.887051 C886.620415,574.349589 881.991076,588.177024 876.899107,601.867908 C873.338223,611.362843 870.994003,621.284125 868.352986,631.027889 C865.290664,642.819178 861.578381,654.429915 857.230874,665.812306 C855.100269,670.707782 852.530508,675.399035 849.55152,679.829398 C848.655355,680.866588 847.705786,681.853406 846.702813,682.789776 C844.587021,684.120326 842.385237,685.308634 840.109234,686.345825 C820.86261,693.262349 800.87988,697.93001 780.556065,700.25595 C772.265188,701.453134 763.893788,702.016185 755.51707,701.93615 C748.89979,701.93615 742.786768,705.459578 739.481509,711.182257 C736.17283,716.901597 736.17283,723.951412 739.481509,729.673712 C742.787224,735.393052 748.899714,738.919818 755.51707,738.919818 L756.122424,738.919818 C756.724808,739.352469 757.356864,739.740649 758.015637,740.084458 C777.656522,750.438155 799.22997,756.884181 819.755093,765.311733 C829.111007,769.161142 838.039994,773.96763 846.405317,779.657309 C848.378673,781.325674 850.239221,783.124447 851.972146,785.041793 C853.850546,787.827383 855.515254,790.749223 856.957383,793.781139 C860.687442,804.289595 863.242315,815.173571 864.577485,826.241892 C866.426181,847.083563 869.384659,867.812199 873.44418,888.336765 C875.803289,898.373358 879.536235,908.040501 884.541983,917.054469 C890.251247,926.916578 898.257557,935.258405 907.877831,941.377465 C912.168667,943.929205 917.320345,944.601616 922.121365,943.241403 C928.36482,941.436713 933.246516,936.561948 935.056014,930.32735 C939.587206,914.784666 942.501243,898.814877 943.750268,882.676673 C945.601928,865.791225 946.747336,848.829156 948.883866,831.988467 L948.886834,831.988467 C950.563393,818.496343 953.768226,805.237875 958.4357,792.465685 C960.489124,788.00877 962.934302,783.741511 965.741456,779.713978 C965.996654,779.408753 966.275584,779.124269 966.56044,778.830864 C969.130202,777.242457 971.815735,775.852659 974.596073,774.670268 C991.317603,767.907819 1008.78056,763.056496 1025.62971,756.670401 C1034.54958,753.535161 1043.15192,749.558303 1051.31821,744.793387 C1059.7519,740.140899 1066.13756,732.512785 1069.22936,723.400955 C1071.56173,713.565398 1068.51718,703.229149 1061.21728,696.224017 C1054.7068,690.371386 1046.80738,686.276183 1038.27037,684.320451 L1038.27113,684.318175 Z M1020.14292,719.776285 C1010.40193,723.72371 1000.24711,727.117004 990.497782,730.444673 C984.700787,732.379883 978.894545,734.326928 973.15394,736.383601 C965.633778,738.988563 958.29158,742.076569 951.170774,745.630246 C947.74824,747.435041 944.550661,749.636923 941.640491,752.18855 C938.747905,754.888346 936.207608,757.94077 934.081826,761.277392 L933.072256,762.699894 C927.372958,771.445059 923.000048,780.987584 920.095639,791.013381 C916.79445,801.975373 914.449624,813.198347 913.084734,824.563951 C911.308284,837.010657 910.121054,849.742622 908.969371,862.052767 C908.699947,864.847396 908.44237,867.642026 908.137385,870.439841 C908.060409,871.263679 907.980469,872.090551 907.89461,872.914388 L907.89461,872.786955 L907.89461,872.929205 C907.000474,868.540159 906.195167,863.682561 905.330665,857.616252 C904.676355,852.430074 904.101976,847.246779 903.512833,842.040041 C902.269363,831.151639 900.996259,819.890732 899.14879,808.890047 C897.194757,793.671927 891.898075,779.073639 883.637637,766.149732 C872.653633,752.221348 858.116427,741.516543 841.566144,735.159665 C838.19098,733.636412 834.567062,732.080535 830.531358,730.39432 L828.050331,729.383775 L828,729.383775 C835.188565,727.623437 842.270413,725.462979 849.216135,722.911427 C858.894974,719.784881 867.746905,714.512973 875.11025,707.49226 C883.09207,698.24334 889.226802,687.54764 893.188531,675.984023 C897.478599,664.826295 901.108201,653.428827 904.066424,641.843968 L904.178932,641.437959 L905.783634,635.504948 C907.844309,627.817366 909.981915,619.857423 912.753079,612.241156 L915.826281,603.543028 C918.043849,597.325517 920.282109,591.13198 922.618067,584.964768 L922.618067,584.929205 L922.659516,584.979586 C922.807549,589.744931 922.851964,594.525145 922.851964,599.296408 C922.851964,601.750243 922.851964,604.218873 922.893414,606.672708 C922.949667,613.165844 923.020724,619.866702 922.544051,626.395039 C922.23022,630.612171 921.833486,634.81777 921.421927,639.034447 C920.930451,644.155455 920.427136,649.453992 920.107363,654.681972 L920.110324,654.681972 C919.236955,664.292777 919.959328,673.983242 922.242018,683.360378 C924.708265,691.560819 930.277652,698.47456 937.762267,702.62068 C944.11589,706.013974 950.948832,708.41144 958.027951,709.733192 C969.858569,712.086276 981.805151,713.816949 993.816915,714.910493 C998.790868,715.443928 1003.70873,715.977332 1008.61182,716.596784 C1011.759,717.053169 1015.71747,717.648829 1019.85352,718.496413 C1020.56409,718.632738 1021.27465,718.774988 1021.94967,718.923164 L1022,718.923164 C1021.37529,719.249156 1020.77131,719.521798 1020.14366,719.776665 L1020.14292,719.776285 Z" id="Shape"></path>
            <path d="M208.436765,325.637351 C209.572996,332.252211 211.790857,338.636464 214.999119,344.53151 C217.53594,348.871546 221.689103,352.030162 226.55275,353.305659 C231.413752,354.584267 236.584303,353.879676 240.928873,351.346734 C243.739155,349.691503 246.081536,347.343825 247.731243,344.531433 C256.119389,331.890749 262.21392,317.874658 265.741063,303.123048 C269.590355,289.695528 272.652787,276.05886 277.735684,263.033312 C279.506878,259.170043 281.588009,255.458698 283.954734,251.929756 C285.227695,250.465869 286.588775,249.080899 288.03191,247.784097 C290.040087,246.465992 292.133351,245.281463 294.293503,244.233696 C306.594562,240.419099 319.111838,237.342432 331.780777,235.018702 C346.786108,231.9785 360.591355,224.662329 371.534444,213.952969 C375.037399,210.372168 377,205.561353 377,200.55344 C377,195.545217 375.037399,190.734324 371.534444,187.153911 C366.199475,181.896653 359.938037,177.677675 353.062635,174.701384 C345.078146,171.336263 336.738999,168.891319 328.198412,167.41227 C313.135527,165.717542 298.239082,162.774606 283.662296,158.607799 C281.575098,157.602484 279.554788,156.460562 277.619487,155.191051 C276.547033,154.234331 275.529256,153.226062 274.563122,152.166088 C273.724618,150.854048 272.965057,149.520782 272.235907,148.126714 C271.166486,145.001531 270.334049,141.800386 269.750729,138.547847 C268.657042,125.615599 269.9634,112.665468 269.750729,99.7270001 C269.993779,83.2143394 265.157121,67.0258985 255.897261,53.3526876 C253.31183,49.1554022 249.283264,46.0453804 244.565292,44.6057513 C241.271943,43.7036895 237.793332,43.7036895 234.497183,44.6057513 C231.328432,45.4743804 228.442163,47.15387 226.126926,49.483354 C221.36921,55.3176772 217.115794,61.5502386 213.418321,68.106942 C209.681415,75.235112 206.318224,82.5514383 203.347101,90.0318182 C197.659728,103.510653 192.978,117.3658 187.473012,130.91772 C183.523466,140.408729 178.604987,149.468222 172.795895,157.951584 C170.398837,160.842971 167.773896,163.536872 164.94207,166.005763 C163.073657,167.223648 161.126222,168.317054 159.108867,169.270664 C151.902451,171.739866 144.477639,173.519576 136.936474,174.591756 C127.961897,175.654761 118.984208,176.246987 109.957521,176.77849 C104.947655,176.866566 100.156184,178.852874 96.5567092,182.333378 C93.0081774,185.889843 91.0090998,190.707111 91,195.729796 C91.0820304,199.389515 92.1727071,202.952122 94.1505518,206.028634 C96.1314298,209.108255 98.9204008,211.580489 102.213594,213.174997 C103.647629,217.217404 106.521687,220.591699 110.285969,222.651234 C130.380187,231.726277 151.607602,238.016296 172.030034,246.35582 C181.125942,250.103625 189.821304,254.762282 197.981566,260.253803 C199.625207,261.635663 201.183761,263.114789 202.648128,264.684962 C203.182838,265.529255 203.687138,266.397884 204.158072,267.287817 C204.950999,269.671959 205.579896,272.107729 206.038697,274.57693 C207.059507,285.385811 206.439726,296.283327 206.628091,307.101538 C206.838725,313.312567 207.443332,319.502055 208.436765,325.637351 Z M153.621712,201.75121 L148.979213,199.261485 L148.908908,199.256569 C154.190598,197.300623 159.369858,194.968546 164.420238,192.278001 C169.628329,189.176078 174.566746,185.47283 179.157457,181.216111 L180.082614,180.407014 L180.078478,180.406725 C184.035377,176.833803 187.724589,172.868473 191.101089,168.561273 C205.863399,149.47246 218.095777,127.933777 227.375998,104.688681 C231.944764,94.1487843 236.332438,83.2850439 240.579158,72.7664959 L240.868342,72.0779744 L240.933918,72.1505225 L240.929783,72.1502333 C239.95259,82.2616266 239.524737,92.4216239 239.650695,102.566164 C239.794742,109.420963 240.281258,116.251741 241.113083,123.018182 C242.424163,131.012899 244.447966,138.800458 247.159102,146.266242 C249.197874,151.758401 251.803164,156.935747 254.917127,161.673069 L256.166514,163.775029 C259.594485,169.073042 263.623729,173.796572 268.151423,177.817021 C286.392109,195.403408 309.420679,200.965615 331.656271,206.350583 L332.338898,206.57307 L333.082804,206.751301 L332.954603,206.742336 L333.103481,206.752747 C328.12994,207.570025 323.156545,208.503882 318.198274,209.52119 C297.989755,212.773169 279.016391,223.252513 263.899783,239.511702 C254.73366,250.482595 247.154768,263.113421 241.475774,276.880981 C240.28223,279.685881 239.085304,282.539135 237.998314,285.366026 L237.993585,285.433658 L237.997721,285.433947 C235.627246,275.947688 231.865417,267.043911 226.871195,259.116494 C220.768306,250.053736 213.611236,242.038705 205.597254,235.29323 C198.084183,228.923166 190.167758,223.20927 181.91534,218.199996 C172.146378,212.008428 162.070337,206.328063 153.621712,201.75121 Z" id="Shape"></path>
        </g>
    </g>
</svg>