<svg width="33" height="32" viewBox="0 0 33 32" fill="none" xmlns="http://www.w3.org/2000/svg">
<g clip-path="url(#clip0_18_5760)">
<path d="M22.4163 14.6241C22.4017 13.3085 21.9527 12.0332 21.1369 11.0033M22.4163 14.6241C22.4163 14.6243 22.4163 14.6245 22.4163 14.6247L22.1921 14.6271M22.4163 14.6241C22.4163 14.624 22.4163 14.6238 22.4163 14.6236L22.1921 14.6271M22.4163 14.6241C22.4415 16.2319 21.83 17.7793 20.7126 18.9337M21.1369 11.0033L22.1921 14.6271M21.1369 11.0033L29.7689 2.3663L29.769 2.3664L29.7743 2.36079C30.066 2.04824 30.0434 1.56878 29.7347 1.2799C29.4412 1.00117 28.9835 1.00393 28.688 1.27888L28.6879 1.27877L28.6821 1.28454L20.0324 9.93921C17.7023 8.21532 14.314 8.51035 12.1165 10.7112L0.986205 18.9719C0.986111 18.972 0.986018 18.9721 0.985925 18.9721C0.645263 19.2226 0.575765 19.7073 0.826827 20.0421L0.829324 20.0454C0.841863 20.0622 0.864795 20.0929 0.890831 20.1191C0.891146 20.1194 0.891461 20.1197 0.891777 20.12M21.1369 11.0033L0.891777 20.12M22.1921 14.6271C22.2166 16.1814 21.6234 17.6769 20.5398 18.7899M20.7126 18.9337L20.7225 18.9197L20.5398 18.7899M20.7126 18.9337L12.4217 30.6035L12.4199 30.6059L12.4199 30.6059C12.2882 30.7861 12.0822 30.902 11.8572 30.9224L11.8471 30.9234H11.8369H11.7928C11.5845 30.9234 11.3907 30.8397 11.247 30.6959L11.2453 30.6942L0.891777 20.12M20.7126 18.9337C20.7085 18.9378 20.7045 18.942 20.7004 18.9462L20.5398 18.7899M20.5398 18.7899L0.891777 20.12M0.891777 20.12L1.05027 19.9615M0.891777 20.12L12.2389 30.4737C12.1458 30.6012 11.9987 30.6845 11.8369 30.6992H11.7928C11.6457 30.6992 11.5084 30.6404 11.4054 30.5374L1.05027 19.9615M1.05027 19.9615C1.03556 19.9468 1.02085 19.9272 1.00614 19.9076C0.829646 19.6723 0.878664 19.3291 1.11891 19.1525L1.05027 19.9615ZM9.26663 26.4821L14.2556 21.4931L14.2557 21.4932L14.261 21.4875C14.5527 21.175 14.5301 20.6955 14.2215 20.4066C13.9279 20.1279 13.4703 20.1307 13.1747 20.4056L13.1746 20.4055L13.1689 20.4112L8.19046 25.3896L6.04833 23.2137L11.0049 18.2571L11.005 18.2572L11.0103 18.2516C11.302 17.939 11.2794 17.4595 10.9708 17.1707C10.6773 16.8919 10.2196 16.8947 9.92402 17.1696L9.92392 17.1695L9.91812 17.1753L4.97973 22.1186L2.60113 19.68L12.6046 12.2698L18.9993 18.669L11.7015 28.9679L9.26663 26.4821ZM20.8992 14.6437C20.9078 15.656 20.5747 16.6408 19.9583 17.4402L13.808 11.2947C15.6032 9.97423 18.0447 10.0428 19.5693 11.527C20.4095 12.3485 20.8898 13.4683 20.8992 14.6436V14.6437Z" fill="white" stroke="white" stroke-width="0.448276"/>
<path d="M29.1511 11.5641C28.9703 11.2177 29.082 10.7814 29.4151 10.5658C29.4151 10.5657 29.4152 10.5657 29.4152 10.5657L29.52 10.7275M29.1511 11.5641L29.5363 10.7543C29.5365 10.7542 29.5367 10.7541 29.5369 10.754L29.52 10.7275M29.1511 11.5641V11.5759L29.1878 11.6319C29.747 12.4845 29.8711 13.553 29.5273 14.5118C28.8518 16.3627 26.6435 17.3922 24.5774 16.7568C24.1738 16.6316 23.7451 16.861 23.6206 17.2624C23.4953 17.6662 23.7247 18.0949 24.1262 18.2195L24.1265 18.2196C24.6721 18.3879 25.2438 18.4748 25.8165 18.4698C28.0657 18.4694 30.2019 17.1414 30.9684 15.0273L30.9685 15.027C31.4777 13.6179 31.2979 12.049 30.4748 10.7934L29.1511 11.5641ZM29.52 10.7275L29.4161 10.5651L29.4163 10.565L29.5375 10.7535C29.5373 10.7536 29.5372 10.7538 29.537 10.7539L29.52 10.7275Z" fill="white" stroke="white" stroke-width="0.448276"/>
<path d="M28.8982 22.428L28.8981 22.4279L28.8932 22.4298C26.9041 23.1927 24.6156 22.3744 23.784 20.6533C23.6159 20.2683 23.1676 20.0904 22.7809 20.2561C22.3946 20.4217 22.2142 20.8684 22.3763 21.2554C22.3882 21.2865 22.4043 21.3134 22.4144 21.3288C23.3038 23.159 25.2968 24.2456 27.3596 24.2459C28.0734 24.2509 28.777 24.1234 29.4447 23.8687C30.844 23.3506 31.9461 22.2483 32.4639 20.8487L32.464 20.8488L32.466 20.843C32.5972 20.4563 32.4042 20.028 32.017 19.8759L31.9188 19.8374L31.907 19.8439C31.5408 19.7664 31.1609 19.9707 31.0328 20.3367C30.6636 21.3128 29.88 22.0776 28.8982 22.428Z" fill="white" stroke="white" stroke-width="0.448276"/>
<path d="M20.6521 23.7472L20.4318 23.7058C20.1901 24.9917 20.4834 26.3185 21.2441 27.3877L21.2449 27.3887C22.0985 28.5746 23.3915 29.3669 24.8326 29.5922C25.1338 29.6432 25.4399 29.6686 25.7506 29.6686C26.975 29.6736 28.1735 29.2761 29.1531 28.5423C29.495 28.3004 29.5845 27.8313 29.344 27.4798C29.1681 27.2193 28.8678 27.1042 28.5839 27.1508V27.0409L28.2256 27.3087C28.2254 27.3088 28.2252 27.309 28.225 27.3091L27.9181 27.5178C27.0724 28.0394 26.0652 28.2423 25.0765 28.0809L25.074 28.0805C24.0362 27.923 23.1088 27.3532 22.4914 26.5043C21.9727 25.774 21.7713 24.8654 21.9363 23.9898L21.9365 23.9887C22.0122 23.5758 21.7441 23.1721 21.325 23.0953C20.9122 23.0196 20.5085 23.2878 20.4316 23.7068L20.6521 23.7472ZM20.6521 23.7472C20.706 23.453 20.9904 23.2618 21.2846 23.3157C21.5788 23.3697 21.77 23.6541 21.7161 23.9482L25.7511 29.4445C25.452 29.4445 25.1578 29.42 24.8686 29.371C23.486 29.1552 22.2456 28.3953 21.4268 27.2578C20.7011 26.2379 20.4217 24.973 20.6521 23.7472Z" fill="white" stroke="white" stroke-width="0.448276"/>
</g>
<defs>
<clipPath id="clip0_18_5760">
<rect width="31.3793" height="31.3793" fill="white" transform="translate(0.896484 0.310547)"/>
</clipPath>
</defs>
</svg>
