<svg width="27" height="34" viewBox="0 0 27 34" fill="none" xmlns="http://www.w3.org/2000/svg">
<path d="M25.9004 10.0271H22.5188C23.384 9.02344 23.908 7.71742 23.908 6.29145C23.908 3.13301 21.3385 0.563477 18.1801 0.563477C16.2171 0.563477 14.4808 1.55674 13.4483 3.06685C12.4158 1.5567 10.68 0.563477 8.71648 0.563477C5.55804 0.563477 2.98851 3.13301 2.98851 6.29145C2.98851 7.71742 3.51253 9.02344 4.3777 10.0271H0.996169C0.445702 10.0271 0 10.4728 0 11.0232V16.0041C0 16.5546 0.445702 17.0003 0.996169 17.0003V32.4409C0.996169 32.9913 1.44187 33.437 1.99234 33.437H24.9042C25.4547 33.437 25.9004 32.9913 25.9004 32.4409V17.0003C26.4508 17.0003 26.8966 16.5546 26.8966 16.0041V11.0232C26.8966 10.4728 26.4508 10.0271 25.9004 10.0271ZM8.71648 2.05773C11.0509 2.05773 12.9502 3.95701 12.9502 6.29145V6.31139C12.4206 5.83617 11.724 5.54434 10.9579 5.54434C9.30974 5.54434 7.96935 6.88473 7.96935 8.53284C7.96935 9.29894 8.26119 9.99564 8.7364 10.5252C6.34261 10.5252 4.48276 8.59461 4.48276 6.29146C4.48276 3.95703 6.38204 2.05773 8.71648 2.05773ZM18.1801 2.05773C20.5152 2.05773 22.4138 3.95701 22.4138 6.29145C22.4138 8.59509 20.5539 10.5252 18.1602 10.5252C18.6354 9.99562 18.9272 9.29892 18.9272 8.53283C18.9272 6.88471 17.5868 5.54432 15.9387 5.54432C15.1726 5.54432 14.4752 5.83616 13.9464 6.31137V6.29143C13.9464 3.95699 15.8456 2.05773 18.1801 2.05773ZM25.4023 14.5098H16.9349V11.5213H25.4023V14.5098ZM10.9579 15.506V15.0079H15.9387V15.506H10.9579ZM15.9387 16.5022V17.0202H10.9579V16.5022H15.9387ZM1.49425 15.0079H9.96169V15.506H1.49425V15.0079ZM10.9579 14.5098V11.5213H15.9387V14.5098H10.9579ZM15.9387 10.0271H14.4444V8.53283C14.4444 7.70899 15.1149 7.03857 15.9387 7.03857C16.7625 7.03857 17.433 7.70899 17.433 8.53283C17.433 9.35666 16.7625 10.0271 15.9387 10.0271ZM10.9579 10.0271C10.134 10.0271 9.4636 9.35666 9.4636 8.53283C9.4636 7.70899 10.134 7.03857 10.9579 7.03857C11.7817 7.03857 12.4521 7.70899 12.4521 8.53283V10.0271H10.9579ZM9.96169 11.5213V14.5098H1.49425V11.5213H9.96169ZM9.96169 16.5022V17.0202H2.49042V16.5022H9.96169ZM2.49042 17.5183H9.96169V31.9428H2.49042V17.5183ZM10.9579 31.9428V17.5183H15.9387V31.9428H10.9579ZM16.9349 17.5183H24.4061V31.9428H16.9349V17.5183ZM24.4061 17.0202H16.9349V16.5022H24.4061V17.0202ZM16.9349 15.506V15.0079H25.4023V15.506H16.9349Z" fill="white"/>
</svg>
