<?xml version="1.0" encoding="UTF-8"?>
<svg width="1200pt" height="1200pt" version="1.1" viewBox="0 0 1200 1200" xmlns="http://www.w3.org/2000/svg">
 <path d="m627.96 444.78v-142.77c0-16.57-13.43-30-30-30-16.57 0-30 13.43-30 30v144.27c-34.441 13.008-59.051 46.223-59.051 85.152 0 38.941 24.613 72.156 59.051 85.164v281.39c0 16.57 13.43 30 30 30 16.57 0 30-13.43 30-30v-279.89c36.59-11.832 63.133-46.199 63.133-86.664s-26.547-74.809-63.133-86.652zm-27.961 117.74c-17.148 0-31.094-13.945-31.094-31.094 0-17.137 13.945-31.078 31.094-31.078s31.094 13.945 31.094 31.078c0 17.148-13.945 31.094-31.094 31.094zm276.41 20.879v-281.39c0-16.57-13.43-30-30-30s-30 13.43-30 30v279.89c-36.59 11.832-63.133 46.199-63.133 86.664s26.543 74.809 63.133 86.652v142.77c0 16.57 13.43 30 30 30s30-13.43 30-30v-144.27c34.441-13.008 59.051-46.223 59.051-85.152 0.003907-38.938-24.609-72.156-59.051-85.164zm-32.039 116.25c-17.148 0-31.094-13.945-31.094-31.078 0-17.148 13.945-31.094 31.094-31.094 17.148 0 31.094 13.945 31.094 31.094 0 17.133-13.945 31.078-31.094 31.078zm-456.7-116.25v-281.39c0-16.57-13.43-30-30-30s-30 13.43-30 30v279.89c-36.59 11.832-63.133 46.199-63.133 86.664s26.543 74.809 63.133 86.652v142.77c0 16.57 13.43 30 30 30s30-13.43 30-30v-144.27c34.441-13.008 59.051-46.223 59.051-85.152 0-38.938-24.609-72.156-59.051-85.164zm-32.039 116.25c-17.148 0-31.094-13.945-31.094-31.078 0-17.148 13.945-31.094 31.094-31.094 17.148 0 31.094 13.945 31.094 31.094-0.003906 17.133-13.957 31.078-31.094 31.078z" fill="#fff"/>
</svg>
