<svg width="17" height="16" viewBox="0 0 17 16" fill="none" xmlns="http://www.w3.org/2000/svg">
<path d="M13.3936 9.66016L12.727 8.5535C12.587 8.30683 12.4603 7.84016 12.4603 7.56683V5.88016C12.4603 4.3135 11.5403 2.96016 10.2136 2.32683C9.86695 1.7135 9.22695 1.3335 8.49362 1.3335C7.76695 1.3335 7.11362 1.72683 6.76695 2.34683C5.46695 2.9935 4.56695 4.3335 4.56695 5.88016V7.56683C4.56695 7.84016 4.44029 8.30683 4.30029 8.54683L3.62695 9.66016C3.36029 10.1068 3.30029 10.6002 3.46695 11.0535C3.62695 11.5002 4.00695 11.8468 4.50029 12.0135C5.79362 12.4535 7.15362 12.6668 8.51362 12.6668C9.87362 12.6668 11.2336 12.4535 12.527 12.0202C12.9936 11.8668 13.3536 11.5135 13.527 11.0535C13.7003 10.5935 13.6536 10.0868 13.3936 9.66016Z" fill="#BDBEBF"/>
<path d="M10.3868 13.3402C10.1068 14.1135 9.36678 14.6668 8.50012 14.6668C7.97345 14.6668 7.45345 14.4535 7.08678 14.0735C6.87345 13.8735 6.71345 13.6068 6.62012 13.3335C6.70678 13.3468 6.79345 13.3535 6.88678 13.3668C7.04012 13.3868 7.20012 13.4068 7.36012 13.4202C7.74012 13.4535 8.12678 13.4735 8.51345 13.4735C8.89345 13.4735 9.27345 13.4535 9.64678 13.4202C9.78678 13.4068 9.92678 13.4002 10.0601 13.3802C10.1668 13.3668 10.2735 13.3535 10.3868 13.3402Z" fill="#BDBEBF"/>
</svg>
