<svg width="40" height="40" viewBox="0 0 40 40" fill="none" xmlns="http://www.w3.org/2000/svg">
<path d="M4 40C1.79083 40 0 38.2092 0 36C0 33.7908 1.79083 32 4 32C6.20917 32 8 33.7908 8 36C8 38.2092 6.20917 40 4 40Z" fill="#E3E3E3"/>
<path d="M14 40C11.7908 40 10 38.2092 10 36C10 33.7908 11.7908 32 14 32C16.2092 32 18 33.7908 18 36C18 38.2092 16.2092 40 14 40Z" fill="#E3E3E3"/>
<path d="M24 40C21.7908 40 20 38.2092 20 36C20 33.7908 21.7908 32 24 32C26.2092 32 28 33.7908 28 36C28 38.2092 26.2092 40 24 40Z" fill="#E3E3E3"/>
<path d="M4 30C1.79083 30 0 28.2092 0 26C0 23.7908 1.79083 22 4 22C6.20917 22 8 23.7908 8 26C8 28.2092 6.20917 30 4 30Z" fill="#E3E3E3"/>
<path d="M14 30C11.7908 30 10 28.2092 10 26C10 23.7908 11.7908 22 14 22C16.2092 22 18 23.7908 18 26C18 28.2092 16.2092 30 14 30Z" fill="#E3E3E3"/>
<path d="M4 20C1.79083 20 0 18.2092 0 16C0 13.7908 1.79083 12 4 12C6.20917 12 8 13.7908 8 16C8 18.2092 6.20917 20 4 20Z" fill="#E3E3E3"/>
<path d="M4 10C1.79083 10 0 8.20917 0 6C0 3.79083 1.79083 2 4 2C6.20917 2 8 3.79083 8 6C8 8.20917 6.20917 10 4 10Z" fill="#E3E3E3"/>
<path d="M14 20C11.7908 20 10 18.2092 10 16C10 13.7908 11.7908 12 14 12C16.2092 12 18 13.7908 18 16C18 18.2092 16.2092 20 14 20Z" fill="#E3E3E3"/>
<path d="M24 30C21.7908 30 20 28.2092 20 26C20 23.7908 21.7908 22 24 22C26.2092 22 28 23.7908 28 26C28 28.2092 26.2092 30 24 30Z" fill="#E3E3E3"/>
<path d="M34 40C31.7908 40 30 38.2092 30 36C30 33.7908 31.7908 32 34 32C36.2092 32 38 33.7908 38 36C38 38.2092 36.2092 40 34 40Z" fill="#E3E3E3"/>
<path d="M34.6563 14.8695H31.3913C30.8321 14.8695 30.3153 15.1679 30.0358 15.6522C29.7561 16.1364 29.7561 16.7331 30.0358 17.2174C30.3153 17.7016 30.8321 18 31.3913 18H38.4348C38.8499 18 39.248 17.835 39.5415 17.5415C39.835 17.2479 40 16.8499 40 16.4348V9.39122C40 8.83203 39.7016 8.31525 39.2174 8.0357C38.7331 7.75604 38.1364 7.75604 37.6522 8.0357C37.1679 8.31524 36.8696 8.83203 36.8696 9.39122V12.6563L24.6718 0.458442C24.2764 0.0630957 23.7001 -0.0913301 23.16 0.0533286C22.62 0.198113 22.1981 0.620005 22.0533 1.16001C21.9087 1.70014 22.0631 2.27646 22.4584 2.67181L34.6563 14.8695Z" fill="#E3E3E3"/>
</svg>
