<?xml version="1.0" encoding="UTF-8"?>
<svg width="95px" height="99px" viewBox="0 0 95 99" version="1.1" xmlns="http://www.w3.org/2000/svg" xmlns:xlink="http://www.w3.org/1999/xlink">
    <title>Artboard</title>
    <g id="Artboard" stroke="none" stroke-width="1" fill="none" fill-rule="evenodd">
        <g id="Group" transform="translate(48.000000, 49.000000) scale(-1, 1) translate(-48.000000, -49.000000) translate(5.000000, 6.000000)" fill="#FFFFFF" fill-rule="nonzero">
            <path d="M64.1696615,17.7953473 C65.4531576,16.9275799 66.5331764,15.7528159 67.2921235,14.3429409 C68.8873596,11.3739631 68.8376172,7.78593086 67.1521884,4.86653749 C65.4667992,1.94263644 62.3890975,0.108011704 59.0178445,0.00425603957 C55.6466706,-0.095213377 52.46553,1.5544226 50.6082962,4.36950674 L42.822149,16.1638053 L35.0360018,4.36950674 C33.178847,1.55869303 29.9973111,-0.0952291934 26.6217086,0.00425603957 C23.2505347,0.103725456 20.1731493,1.94303185 18.4873646,4.86653749 C16.8019754,7.7857727 16.7475672,11.3738049 18.3474295,14.3429409 C19.1067404,15.7528159 20.1867118,16.9279753 21.4698915,17.7953473 L4.44676415,17.7953473 C1.98843034,17.7953473 0,19.7881362 0,22.2421316 L0,29.6576565 C0,32.1160015 1.99277983,34.1044408 4.44676415,34.1044408 L4.69976233,34.1044408 C4.53263897,34.574299 4.44676415,35.0759639 4.44676415,35.5865968 L4.44676415,81.5309019 C4.44676415,82.7103318 4.91662018,83.8446849 5.74821173,84.6759955 C6.57983492,85.5076224 7.71378746,85.977449 8.89329105,85.977449 L35.3247686,85.977449 C35.4106434,85.9910408 35.4965261,86 35.5867267,86 L50.4129644,86 C50.5034734,86 50.5893561,85.9910416 50.6749225,85.977449 L77.1064001,85.977449 C78.2858246,85.977449 79.4201725,85.5075908 80.2514794,84.6759955 C81.087373,83.8400981 81.552927,82.7104108 81.552927,81.5309019 L81.5532359,35.5865968 C81.5532359,35.0759639 81.467361,34.5742674 81.3002377,34.1044408 L81.5532359,34.1044408 C84.0115697,34.1044408 86,32.111652 86,29.6576565 L86,22.2418944 C86,19.7835494 84.0069113,17.7953473 81.5485775,17.7953473 L64.1696615,17.7953473 Z M53.0760803,6.00500284 C54.3685916,4.04835448 56.5828793,2.90039928 58.9234604,2.97268029 C61.2687074,3.04033262 63.406444,4.32387639 64.5765369,6.35280575 C65.7470252,8.38173511 65.7831655,10.8762206 64.6760059,12.9412904 C63.5641962,15.0063603 61.4676612,16.3486201 59.1266846,16.4885163 L45.6195298,17.2975258 L53.0760803,6.00500284 Z M20.9507201,12.93702 C19.8389105,10.8719501 19.8750508,8.38173511 21.0501891,6.34853532 C22.2249478,4.31960595 24.3626844,3.04069086 26.7032655,2.96840986 C29.0485125,2.90075753 31.2585298,4.04408405 32.5506457,6.00073241 L40.0068641,17.2936507 L26.4997092,16.4846413 C24.1637148,16.3443971 22.062514,15.0021689 20.9507043,12.9370991 L20.9507201,12.93702 Z M34.1012165,83.0124252 L8.89471453,83.0124252 C8.50146494,83.0124252 8.12212583,82.8542611 7.84624931,82.5787076 C7.56606284,82.2985198 7.41253362,81.9234969 7.41253362,81.5302376 L7.41253362,35.5859325 C7.41253362,35.1926812 7.56606284,34.8133403 7.84624931,34.5374626 C8.12180159,34.2572748 8.50145703,34.1037449 8.89471453,34.1037449 L34.1012165,34.1037449 L34.1012165,83.0124252 Z M48.9282449,83.0124252 L37.0659895,83.0124252 L37.0659895,34.1033337 L48.9282449,34.1033337 L48.9282449,83.0124252 Z M78.586256,81.5302692 C78.586256,81.9235206 78.4327267,82.3028614 78.1525403,82.5787392 C77.876988,82.8542927 77.4973325,83.0124569 77.1040751,83.0124569 L51.8975731,83.0124569 L51.8975731,34.1033653 L77.1040751,34.1033653 C77.4973246,34.1033653 77.8766637,34.2615294 78.1525403,34.537083 C78.4327267,34.8126365 78.586256,35.1922937 78.586256,35.5855529 L78.586256,81.5302692 Z M83.0327829,29.657182 C83.0327829,30.4752069 82.3686231,31.139338 81.5506336,31.139338 L4.44834578,31.139338 C3.63032465,31.139338 2.96588762,30.4751752 2.96588762,29.657182 L2.96588762,22.2414199 C2.96588762,21.4233951 3.63004739,20.7592639 4.44803689,20.7592639 L81.5503247,20.7592639 C82.3683458,20.7592639 83.0327829,21.4234267 83.0327829,22.2414199 L83.0327829,29.657182 Z" id="Shape"></path>
        </g>
        <rect id="Rectangle" stroke="#FFFFFF" stroke-width="2" x="12" y="40" width="27" height="49" rx="2"></rect>
        <rect id="Rectangle" stroke="#FFFFFF" stroke-width="2" x="41" y="40" width="14" height="49" rx="2"></rect>
        <rect id="Rectangle" stroke="#FFFFFF" stroke-width="2.5" x="7.25" y="26.25" width="81.5" height="12.5" rx="3"></rect>
        <rect id="Rectangle" stroke="#FFFFFF" stroke-width="2" x="57" y="40" width="27" height="49" rx="2"></rect>
    </g>
</svg>