<svg width="46" height="46" viewBox="0 0 46 46" fill="none" xmlns="http://www.w3.org/2000/svg">
<path fill-rule="evenodd" clip-rule="evenodd" d="M45.85 7.2514L44.6759 6.07721C44.6757 6.07694 44.6756 6.07653 44.6754 6.07613C44.6752 6.07582 44.6749 6.07551 44.6745 6.0753L44.6738 6.0749L44.6732 6.07454L44.6726 6.07387L38.7438 0.143858C38.552 -0.0479526 38.2122 -0.0479526 38.02 0.143858L0.149913 38.0186C0.0537812 38.1147 0 38.2447 0 38.3803C0 38.516 0.0537776 38.6464 0.149913 38.742L7.25707 45.8501C7.3532 45.9462 7.4836 46 7.61876 46C7.75392 46 7.88479 45.9462 7.98045 45.8501L45.8505 7.97536C46.0499 7.77593 46.0499 7.4518 45.85 7.2519L45.85 7.2514ZM1 38.7073L38.7128 1L44 6.28645L42.4727 7.81354L41.2358 6.57683C41.0329 6.37393 40.7038 6.37393 40.5009 6.57683C40.298 6.77972 40.298 7.10871 40.5009 7.3116L41.7378 8.54832L40.211 10.0749L38.9746 8.83868C38.7717 8.63579 38.4426 8.63579 38.2397 8.83868C38.0368 9.04158 38.0368 9.37057 38.2397 9.57346L39.4761 10.8097L37.9488 12.3368L36.7124 11.1006C36.5095 10.8977 36.1804 10.8977 35.9775 11.1006C35.7746 11.3034 35.7746 11.6324 35.9775 11.8353L37.2139 13.0716L35.6871 14.5987L34.4502 13.3624C34.2473 13.1595 33.9182 13.1595 33.7153 13.3624C33.5124 13.5653 33.5124 13.8943 33.7153 14.0972L34.9522 15.3334L33.4249 16.8605L32.1885 15.6238C31.9856 15.4209 31.6565 15.4209 31.4536 15.6238C31.2507 15.8267 31.2507 16.1557 31.4536 16.3586L32.69 17.5953L31.1632 19.1219L29.9263 17.8852C29.7234 17.6823 29.3943 17.6823 29.1914 17.8852C28.9885 18.0881 28.9885 18.4171 29.1914 18.62L30.4283 19.8567L28.901 21.3838L27.6646 20.1471C27.4616 19.9442 27.1326 19.9442 26.9297 20.1471C26.7268 20.35 26.7268 20.6789 26.9297 20.8818L28.1661 22.1185L26.6393 23.6451L25.4029 22.4089C25.1999 22.206 24.8709 22.206 24.668 22.4089C24.4651 22.6118 24.4651 22.9408 24.668 23.1437L25.9044 24.3799L24.3771 25.907L23.1412 24.6703C22.9382 24.4674 22.6092 24.4674 22.4063 24.6703C22.2033 24.8732 22.2033 25.2022 22.4063 25.4051L23.6427 26.6418L22.1154 28.1684L20.879 26.9322C20.676 26.7293 20.347 26.7293 20.1441 26.9322C19.9411 27.1351 19.9411 27.464 20.1441 27.6669L21.3805 28.9032L19.8532 30.4303L18.6163 29.1936C18.4134 28.9907 18.0843 28.9907 17.8814 29.1936C17.6785 29.3964 17.6785 29.7254 17.8814 29.9283L19.1183 31.165L17.5915 32.6916L16.3546 31.4554C16.1516 31.2525 15.8226 31.2525 15.6197 31.4554C15.4168 31.6583 15.4168 31.9873 15.6197 32.1902L16.8566 33.4264L15.3293 34.9535L14.0929 33.7173C13.8899 33.5144 13.5609 33.5144 13.358 33.7173C13.155 33.9202 13.155 34.2492 13.358 34.4521L14.5944 35.6883L13.0671 37.2154L11.8302 35.9791C11.6273 35.7763 11.2982 35.7763 11.0953 35.9791C10.8924 36.182 10.8924 36.511 11.0953 36.7139L12.3322 37.9502L10.8049 39.4768L9.56846 38.24C9.36554 38.0371 9.0365 38.0371 8.83357 38.24C8.63065 38.4429 8.63065 38.7719 8.83357 38.9748L10.07 40.2115L8.54316 41.7381L7.30627 40.5014C7.10335 40.2985 6.77431 40.2985 6.57139 40.5014C6.36846 40.7043 6.36846 41.0333 6.57139 41.2362L7.80828 42.4729L6.28097 44L1 38.7073ZM7 44.5431L7.45693 45L45 7.45693L44.5431 7L7 44.5431ZM6.89774 39.1972C6.87291 39.1636 6.84349 39.1336 6.81222 39.1077C6.79199 39.0911 6.76947 39.0755 6.74556 39.063C6.57728 38.967 6.352 38.9823 6.19937 39.0981V39.0976C6.16396 39.1248 6.13224 39.1557 6.10511 39.1908C6.09914 39.1986 6.09316 39.2065 6.0881 39.2148V39.2152C6.03799 39.2881 6.00765 39.3735 6.00121 39.4625C5.99339 39.5737 6.02374 39.6849 6.08489 39.7767V39.7772C6.09408 39.7905 6.10328 39.8035 6.11385 39.8164C6.12442 39.8298 6.135 39.8413 6.14695 39.8533C6.23982 39.946 6.36718 40 6.49959 40C6.60855 40 6.71384 39.9636 6.79936 39.8994V39.8999C6.82189 39.8833 6.84212 39.8644 6.86142 39.8445C6.8812 39.8242 6.89913 39.8016 6.91476 39.7776V39.7772C6.97728 39.6826 7.00855 39.5686 6.99797 39.4538C6.98832 39.3587 6.95338 39.2706 6.89774 39.1972ZM16.4994 29C16.3915 29 16.2835 28.9644 16.1978 28.9001C16.1599 28.8719 16.1263 28.8381 16.099 28.8011C15.9865 28.6498 15.9685 28.4407 16.052 28.2723C16.0871 28.203 16.1364 28.1424 16.1987 28.0961C16.3707 27.968 16.629 27.968 16.801 28.0961C16.8467 28.1303 16.8859 28.1724 16.9168 28.2187C17.0478 28.4162 17.022 28.6859 16.8545 28.8538C16.8379 28.87 16.8195 28.8862 16.801 28.9001C16.7148 28.9635 16.6073 29 16.4994 29ZM28.1237 16.8265C28.1384 16.8436 28.1545 16.8603 28.1711 16.8751H28.1715C28.2612 16.9542 28.378 17 28.4999 17C28.6199 17 28.739 16.9551 28.8296 16.8751C28.8467 16.8598 28.8641 16.8427 28.8793 16.8242C28.9658 16.7234 29.009 16.5873 28.9984 16.4546C28.9874 16.326 28.9258 16.2038 28.8296 16.1192C28.6489 15.96 28.3518 15.9605 28.1711 16.1192C28.1623 16.127 28.1541 16.1349 28.1453 16.1437C28.1391 16.15 28.1337 16.1561 28.1282 16.1624L28.1214 16.1701C28.0451 16.2603 28 16.3778 28 16.4971C28 16.5966 28.0304 16.6942 28.0851 16.7766C28.0975 16.7937 28.1104 16.8103 28.1237 16.8265ZM39.8307 6.87519C39.7397 6.95516 39.6202 7 39.4998 7C39.3682 7 39.2381 6.94637 39.1453 6.85161C38.9621 6.66809 38.9506 6.36669 39.1195 6.16976C39.1347 6.15127 39.1523 6.13417 39.1693 6.11891C39.3502 5.96036 39.6507 5.96036 39.8311 6.11891C39.8639 6.14804 39.893 6.18132 39.917 6.21784C40.0397 6.40367 40.0254 6.65514 39.8805 6.82434C39.8653 6.84283 39.8477 6.85993 39.8307 6.87519Z" fill="white"/>
</svg>
