<?xml version="1.0" encoding="UTF-8"?>
<svg width="95px" height="99px" viewBox="0 0 95 99" version="1.1" xmlns="http://www.w3.org/2000/svg" xmlns:xlink="http://www.w3.org/1999/xlink">
    <title>Artboard</title>
    <g id="Artboard" stroke="none" stroke-width="1" fill="none" fill-rule="evenodd">
        <g id="noun-shovel-2669983-FFFFFF" transform="translate(6.000000, 12.000000)" fill="#FFFFFF" fill-rule="nonzero">
            <path d="M80.0365086,0.438075347 C79.5040485,0.141446149 78.9034413,-0.00926161033 78.2951158,0.000440514164 C77.8388488,0.00481983915 77.3852943,0.0689395171 76.9456602,0.192086043 C76.2370036,0.410814793 75.5661846,0.738002812 74.9563352,1.16223656 C74.2863694,1.6197598 73.6494715,2.12433318 73.0499844,2.67238232 C72.0499502,3.56406478 71.150491,4.56719796 70.1570094,5.4681616 C69.3998407,6.15340327 68.6090709,6.80357594 67.8396732,7.4750416 C67.0196833,8.1902438 66.2032745,8.90932722 65.3902182,9.63233788 C63.7625054,11.0771319 62.1392119,12.5272953 60.5201091,13.9822909 C57.4027455,16.7681754 54.2877439,19.5595059 51.0195943,22.1619914 C47.9173932,24.6290946 44.7572091,27.051863 42.1484343,30.065558 C42.0906945,30.1317749 42.0427774,30.2006872 41.9927719,30.2689996 C41.5555536,29.9990404 41.0888862,29.7800125 40.6022411,29.6161193 C40.2834797,29.5100532 39.9492435,29.4582167 39.6134835,29.4624124 C39.2075192,29.4681053 38.8036273,29.5199403 38.4092519,29.6161193 C38.064303,29.7125974 37.7294649,29.8423344 37.4092178,30.0029369 C37.1478984,30.1248807 36.8934287,30.260915 36.6469822,30.4107254 C35.46538,31.1681761 34.4171156,32.1186137 33.5453907,33.2223823 C33.2409155,33.5945188 32.9617364,33.9870279 32.7096288,34.3966419 C31.6655551,34.1806131 30.6021283,34.0730436 29.5360347,34.0754444 C27.0484832,34.1096014 24.5852372,34.5743187 22.2542624,35.4495175 C17.6383334,37.1264942 13.5804425,40.0655563 10.0168923,43.4136801 C6.56495784,46.7152447 3.51426323,50.4176637 0.928879742,54.4429293 C0.775304976,54.6793306 0.686311462,54.9519898 0.670539495,55.2338996 C0.506251983,55.3720279 0.366658646,55.5377159 0.25831971,55.7237841 C-0.00017044316,56.1555425 -0.0687771694,56.6772132 0.07111332,57.1619817 C0.366658646,57.9685995 0.762801692,58.7341041 1.25035357,59.4400098 C1.85602758,60.2918063 2.53161636,61.0909072 3.2706892,61.8289518 C4.69275679,63.280956 6.29281141,64.5486409 7.84791211,65.8486947 C8.95095929,66.7697548 9.97804196,67.755783 11.0010102,68.7652059 C12.215916,69.997837 13.4977883,71.1622018 14.8401579,72.252854 C16.1238589,73.3494892 17.5965187,74.2001351 19.1846872,74.7625279 C20.0004865,75.0106189 20.8618492,75.0651477 21.7020303,74.9222254 C21.9898344,74.8724875 22.2707964,74.788891 22.5392398,74.6732369 C23.0657492,74.4596013 23.5806468,74.2175086 24.0812353,73.9478485 C24.9532651,73.4594596 25.7905508,72.911119 26.586997,72.3062323 C27.5042855,71.6323735 28.3891157,70.9168951 29.2641932,70.1905862 C30.7978836,68.9183758 32.2755721,67.5823479 33.8357778,66.347569 L33.8360754,66.347569 C35.5849351,65.0564895 37.239163,63.6401526 38.7853491,62.1093735 C40.3357258,60.5423135 41.6060168,58.717912 42.5399153,56.7161711 C43.0006473,55.7052141 43.3557146,54.6490786 43.5991515,53.5641024 C43.8670159,52.3104544 43.9917211,51.0295765 43.9705928,49.7471645 C43.9524375,48.8171301 43.8711836,47.8891667 43.7277273,46.9699476 C43.8813021,46.8860489 44.022084,46.7802819 44.1461949,46.6565432 L44.1563141,46.6478542 C45.1399668,45.9014872 46.1563824,45.2045942 47.1120722,44.4186864 C48.2936744,43.5419612 49.1755331,42.3173839 49.6365774,40.9145469 C49.8038441,40.2442855 49.7791423,39.5398602 49.5651464,38.8831217 C54.1438932,35.6717608 58.3639229,31.9797735 62.5994961,28.3325046 C63.6337409,27.4414358 64.6817005,26.5650174 65.710307,25.6718009 C66.8454315,24.6845454 67.9374307,23.6505005 69.0154865,22.601882 C71.0962432,20.5811953 73.095702,18.4778218 75.1299809,16.4110361 C75.892826,15.6359435 76.6449279,14.836229 77.4699465,14.1264114 C78.2041963,13.4986976 78.9700358,12.9096579 79.7164232,12.2947997 L79.7164232,12.2950993 C80.4768682,11.6763752 81.1998262,11.0115368 81.8807638,10.3047106 C82.2411951,9.9086042 82.5807876,9.49364394 82.8977889,9.06157105 C83.231728,8.60614184 83.5028686,8.10729823 83.7034545,7.57873188 C84.0495997,6.7580772 84.0942412,5.84062223 83.8293484,4.98997634 C83.4343939,3.95447412 82.8438671,3.0061842 82.0900128,2.19780214 C81.5094503,1.49781599 80.8150494,0.902747379 80.0365086,0.438075347 Z M41.2243391,51.7618377 C41.0468579,52.8817501 40.7505284,53.9791389 40.3401142,55.0346155 C39.8137312,56.2086507 39.1621537,57.3215503 38.3971034,58.3528531 C36.8281752,60.2671988 35.042514,61.9888146 33.0768266,63.4823061 C31.5658951,64.6557638 30.4209706,65.5822863 29.3634899,66.4904929 L28.7625432,67.0064661 C27.625368,67.9816661 26.4508335,68.9904453 25.2563141,69.9363563 C23.9674254,70.9715369 22.5721609,71.8626651 21.0942654,72.5948901 C20.9550245,72.6451666 20.8167379,72.6893162 20.6720725,72.7263854 L20.5274153,72.7263854 C20.4464818,72.7263854 20.3674635,72.7263854 20.2865292,72.720262 C19.9605656,72.6509716 19.6400178,72.5555753 19.32872,72.4347231 C18.7035551,72.1317758 18.1035302,71.7782369 17.5344939,71.3773489 C17.4726789,71.3486655 17.4099112,71.317082 17.3509602,71.2829228 C16.5225295,70.7982104 15.733579,70.2467522 14.9917763,69.6347358 L14.9720208,69.6186219 C15.3260207,69.2712048 15.7246397,68.9170142 16.1879116,68.5357539 L16.3555146,68.4003974 L17.0138135,67.8960243 C17.9216123,67.1998949 18.8612236,66.4837994 19.7509138,65.7302883 C20.8335998,64.8276095 21.9042135,63.8684978 22.9350207,62.9380151 L23.7258718,62.229642 C24.2407859,61.7713558 24.7550475,61.3146701 25.2683711,60.8599068 C26.0095131,60.2047077 26.7487137,59.5494921 27.4861116,58.8869006 C28.6157007,57.8704485 29.8344465,56.7891481 31.102624,55.773026 L31.1023054,55.7723814 C32.0269893,55.0543389 32.601255,54.2935184 33.601147,53.6872773 C34.1093723,53.3881994 34.5154639,52.7668309 34.7440431,52.2299038 C34.9726223,51.6929767 34.8822372,51.2010695 34.4998743,50.7492764 C34.1175123,50.2977555 33.6554298,49.7676494 33.0677954,49.77538 C32.722393,49.7744131 32.2986944,49.9052652 32.0010923,50.0821955 C29.3343346,52.1531999 27.0128617,54.6802929 24.6103639,56.9855436 C22.1275565,59.2247912 20.679888,60.528757 20.2673585,60.8974409 C19.4108676,61.6653352 17.8362106,63.0204369 15.5433877,64.9627459 C14.4734266,65.7294577 13.6779669,66.6605732 12.7242439,67.5706774 L11.8099269,66.7269348 C11.496386,66.4104568 11.34237,66.2113501 11.0316678,65.8948474 L10.8704354,65.7308042 C10.7219525,65.5761088 10.5737877,65.4297958 10.4237061,65.2751004 L9.90510001,64.6559304 C12.4194716,62.5082221 15.7719669,59.5167712 18.4387246,57.2923591 C18.7283298,57.0070982 23.8690868,52.3033082 27.1247354,49.77538 C27.9679603,49.1206374 28.9584703,48.4303026 30.0962654,47.7043756 C30.2486516,47.6021038 30.37564,47.448696 30.4772308,47.2441524 L30.629617,46.9373369 C30.70581,46.4004098 30.7124382,46.1382918 30.4422373,45.6767631 C30.068481,45.0583031 29.4040888,44.679947 28.6871651,44.6777194 C28.3468609,44.6748188 28.0129354,44.7721455 27.725856,44.9574582 C24.3970429,47.2395252 21.2976878,49.8464939 18.4724914,52.7412373 C18.0375571,53.1666456 17.6041727,53.594001 17.1724197,54.0229405 C14.8632387,56.3852918 12.4330069,58.6235491 9.89159444,60.7279845 C9.16670132,61.2842445 8.43482576,61.8108525 7.71529182,62.2936673 C7.62798685,62.3539341 7.54386313,62.4158148 7.45974756,62.4838148 C7.37180634,62.4064671 7.28545574,62.3220322 7.19751452,62.2424239 C6.79763115,61.878242 5.87909613,60.7343982 5.48590154,60.3605138 C5.47103177,60.3471927 7.7060287,58.2250523 12.1908923,53.9940928 C14.6354805,51.3481821 17.5073369,48.8603883 20.2673585,46.5538176 C21.131517,45.8941055 22.0639214,45.2688382 22.9341162,44.7129247 C23.3833905,44.4396295 23.6390271,43.8453159 23.77224,43.3322551 C23.9054284,42.8191778 23.6940174,42.7293264 23.6198539,42.258401 C23.2476882,41.6415498 22.7396286,41.5612457 22.0255599,41.5595956 C21.683665,41.5570174 21.3481408,41.6524129 21.0582146,41.8351433 C17.7064802,44.0798359 14.6160162,46.7003352 11.8464509,49.6473038 C11.1706225,50.3308679 10.4992315,51.0208343 9.83296315,51.717005 C8.47872866,53.1231246 7.09366051,54.5601832 5.65149296,55.9402315 C4.8440749,56.7137087 4.01877657,57.4701075 3.16840346,58.1981248 L3.16298668,58.1920014 L3.16298668,58.1958688 L3.13016758,58.1565506 C2.85837447,57.7865681 2.61142774,57.3988642 2.39061623,56.9960538 C2.48684502,56.8909929 2.57415,56.7778714 2.65157678,56.6579762 C3.5418379,55.2895611 4.50543096,53.9175982 5.51323526,52.5811122 C8.29781723,48.9238647 11.5073742,45.6184977 15.0721709,42.7367074 C17.2755549,41.021857 19.6720165,39.5773729 22.2117975,38.4336168 C23.9792685,37.7020353 25.8251288,37.1805425 27.7117743,36.8798971 C28.4223273,36.7967494 29.137383,36.7542102 29.8530016,36.7522713 C30.4555389,36.7522713 31.0577988,36.7854661 31.6567714,36.8512104 C32.6237905,37.0094535 33.5720483,37.2688881 34.4862911,37.6246876 C35.2844754,37.9920872 36.0434732,38.4400604 36.7520766,38.9621636 C37.4361845,39.529702 38.0613657,40.1662304 38.6180033,40.8616585 C39.2173593,41.7002315 39.7297285,42.5987851 40.1474513,43.543376 C40.6340034,44.8054433 40.9813472,46.1180856 41.1829896,47.4572117 C41.3575996,48.885855 41.3716215,50.330339 41.224412,51.7622825 L41.2243391,51.7618377 Z M46.0114995,40.0733417 L46.0001894,40.1128925 C45.9165523,40.2695985 45.8248844,40.421802 45.7257724,40.56892 C45.2373596,41.1229291 44.6977754,41.6286607 44.1135269,42.0790658 C43.7900035,42.3229611 43.4635086,42.5614641 43.1370365,42.7981645 L42.8191666,43.025277 L42.7242224,43.0971869 C42.0515823,41.3710431 41.075328,39.7809719 39.842905,38.4029869 C38.9131208,37.3786067 37.8205121,36.5171456 36.6097279,35.8538105 C36.5112103,35.7992787 36.4097211,35.751641 36.3097177,35.6992062 L36.3147774,35.6935133 C36.818665,35.081079 37.3788137,34.5174896 37.9877488,34.0107839 C38.3383588,33.7510109 38.7100972,33.5211984 39.099101,33.3240465 C39.2297569,33.2773047 39.3604204,33.2377546 39.4955412,33.2038976 L39.5404829,33.2038976 C39.5854246,33.2146837 39.6291793,33.2290656 39.6910861,33.2491406 L39.6913838,33.2491406 C39.9735343,33.39925 40.2449722,33.5691414 40.503602,33.7576028 C41.4554059,34.5746524 42.3405408,35.4675622 43.1500923,36.4275878 C43.3423579,36.6433174 43.5322463,36.8677376 43.7215404,37.0876629 C43.8938663,37.2896088 44.0679827,37.4906574 44.2435849,37.6911076 C44.416505,37.8903612 44.5936006,38.084514 44.77158,38.2786745 C45.0302174,38.5621183 45.2986837,38.8539536 45.5480637,39.1595418 L45.547766,39.1595418 C45.7099734,39.3869534 45.8570032,39.6251573 45.9879562,39.8720517 C46.0037305,39.9202915 46.0180167,39.9685298 46.0308149,40.0158714 L46.0114995,40.0733417 Z M80.3075032,7.58825267 C80.2745026,7.60627424 77.4883593,10.3495919 77.4883593,10.3495919 C77.4506348,10.3580255 68.4975762,19.4006483 68.4975762,19.4006483 C68.4975762,19.4006483 63.346848,24.2614491 62.4783231,25.0000307 C61.9732469,25.4314899 60.3139826,26.864625 59.8115654,27.3011467 C56.3143032,30.1701271 53.6221478,32.3434033 51.7350993,33.8209755 C50.5957842,34.7003853 49.2382521,35.7541431 48.1540247,36.5056109 L47.2800122,35.5068529 C47.1020328,35.3132983 46.9228571,35.1206336 46.7493426,34.9237808 C46.54785,34.6930709 46.3487347,34.4620618 46.1487278,34.2298485 C45.9150894,33.9601884 45.6829367,33.6899223 45.4466239,33.4223869 C45.2323308,33.1778933 45.0114928,32.9390912 44.7888643,32.7032881 L43.6586331,31.5198595 C46.0462194,28.9119279 48.9025455,26.6483201 51.7350993,24.5398075 C53.0524014,23.4970951 54.8542153,22.1201073 56.1542977,21.0114296 C57.7073412,19.6882878 59.1678101,18.5613546 60.7258824,17.1762362 C61.8607783,16.1694979 63.7128796,14.7364395 64.8403085,13.7245621 C66.6540847,12.1024287 67.5517154,11.5210901 69.4118931,9.88936871 C69.7452379,9.5975335 70.6741305,8.87305013 71.0119478,8.58540295 C71.8221088,7.889975 73.0611606,6.81760891 73.8310916,6.05417531 C74.8241922,5.24996083 75.6115206,4.61076193 76.193077,4.13657861 C76.6070797,3.82347343 77.0243435,3.52446641 77.4883593,3.29283607 C77.6365777,3.2395031 77.6395568,3.17389138 77.7931316,3.13942833 L78.3264832,3.59965154 C78.4044591,3.64639334 78.5541709,3.77732838 78.6312555,3.82976314 C79.0622187,4.20519022 79.3388051,4.67485775 79.6974459,5.12104415 C79.9111446,5.41617762 80.1408308,5.65296039 80.3075032,5.97747144 C80.7809319,6.49262996 81.0095111,6.77387748 80.9932408,6.82121399 C80.9688354,6.89221876 80.3075032,7.58825267 80.3075032,7.58825267 Z" id="Shape"></path>
            <path d="M80.5226708,52.0298985 C79.7791896,51.8441177 79.0227191,51.7125901 78.2595462,51.6364535 C77.5093627,51.5391164 76.7582303,51.4657168 76.0059116,51.3722603 C75.3989083,51.3036459 74.8002088,51.1753103 74.2193623,50.9893019 L74.1954985,50.9783602 C74.1910964,50.9580723 74.1866942,50.9384689 74.183219,50.9181839 C74.1431369,50.1600283 74.1709396,49.4000053 74.2666242,48.6466348 C74.3060112,48.2324444 74.3516544,47.8178105 74.3817733,47.4031358 C74.4111976,47.0151646 74.3924311,46.6258395 74.3924311,46.2378333 L74.3921995,46.2378333 C74.4188438,45.141157 74.3817735,44.0440138 74.2809887,42.9514807 C74.2029098,41.7996584 73.8373021,40.6842499 73.2166274,39.7045181 C73.0206176,39.3892638 72.7127031,39.1565242 72.3526827,39.0514609 C72.1010675,38.9828464 71.8353183,38.9828464 71.5836972,39.0514609 C71.3425092,39.1166557 71.1228694,39.2427096 70.9463259,39.416866 C70.5927706,39.849059 70.2695713,40.3047461 69.9788218,40.7802273 C69.6553852,41.3457745 69.3708695,41.9320497 69.1269175,42.5352129 C68.6820744,43.5707909 68.3206245,44.634438 67.9230534,45.6875811 C67.6450264,46.4179595 67.4619943,47.1811337 67.2557887,47.9306527 C67.0166885,48.8376734 66.7268406,49.7308055 66.3873956,50.6063726 C66.2210421,50.982947 66.0204,51.343812 65.7878064,51.6846086 C65.7178355,51.7643923 65.643695,51.8403012 65.5653848,51.9123295 C65.4001879,52.0146794 65.2282767,52.1060875 65.0505708,52.1858713 C63.5478314,52.7179107 61.9876183,53.0769609 60.4007738,53.2558791 C59.7534381,53.3479701 59.0998153,53.3912816 58.4457772,53.3851251 C57.9291127,53.3851251 57.4518198,53.6561575 57.1937514,54.0963628 C56.9354162,54.5363113 56.9354162,55.0786039 57.1937514,55.51878 C57.4518553,55.9587285 57.9291068,56.2300177 58.4457772,56.2300177 L58.4930421,56.2300177 C58.5400751,56.2632985 58.5894248,56.2931585 58.6408605,56.3196052 C60.1743831,57.1160421 61.8587964,57.6118894 63.4613586,58.2601615 C64.1918504,58.5562694 64.8890085,58.9259987 65.5421569,59.3636655 C65.6962327,59.4920011 65.8415007,59.630368 65.9768042,59.7778558 C66.123466,59.9921317 66.2534432,60.2168882 66.3660419,60.4501121 C66.6572778,61.2584535 66.8567573,62.095681 66.9610048,62.9470888 C67.1053475,64.5502916 67.3363397,66.1447993 67.6532993,67.7236094 C67.8374941,68.4956537 68.1289553,69.2392788 68.5197944,69.9326597 C68.9655629,70.6912822 69.5906801,71.3329601 70.3418126,71.8036562 C70.6768329,71.9999436 71.079066,72.0516674 71.4539204,71.9470359 C71.9413973,71.8082138 72.3225508,71.4332325 72.463833,70.9536489 C72.8176197,69.7580599 73.0451421,68.5296166 73.1426636,67.2882185 C73.2872376,65.9893401 73.3766689,64.6845677 73.543485,63.3891323 L73.5437168,63.3891323 C73.6746193,62.3512784 73.9248465,61.331398 74.2892739,60.3489235 C74.4496013,60.0060845 74.6405161,59.6778344 74.8596932,59.3680246 C74.8796187,59.3445459 74.901397,59.3226625 74.923638,59.3000929 C75.12428,59.177908 75.3339613,59.0710006 75.5510447,58.9800476 C76.8566296,58.4598602 78.2201035,58.0866821 79.5356529,57.5954448 C80.2320993,57.3542729 80.9037531,57.0483613 81.5413616,56.6818299 C82.1998481,56.3239469 82.6984283,55.7371699 82.9398298,55.0362611 C83.1219367,54.279681 82.8842244,53.4845863 82.3142617,52.9457309 C81.8059365,52.4955293 81.1891645,52.1805142 80.5226115,52.0300736 L80.5226708,52.0298985 Z M79.107255,54.7574408 C78.3466973,55.0610883 77.5538283,55.3221105 76.7926196,55.5780846 C76.3400014,55.7269467 75.8866612,55.8767191 75.4384458,56.0349244 C74.851286,56.2353058 74.2780212,56.4728443 73.7220424,56.7462036 C73.4548175,56.8850337 73.2051567,57.054409 72.9779362,57.2506877 C72.7520887,57.4583639 72.5537472,57.6931654 72.3877702,57.9498282 L72.3089449,58.0592512 C71.8639547,58.7319551 71.5225263,59.4659942 71.2957556,60.237208 C71.0380051,61.0804367 70.8549256,61.943741 70.7483576,62.8180167 C70.6096558,63.775454 70.5169592,64.7548342 70.4270379,65.7017669 C70.4060019,65.916738 70.3858908,66.1317091 70.3620781,66.3469253 C70.3560679,66.4102973 70.3498264,66.4739027 70.3431227,66.5372747 L70.3431227,66.5274722 L70.3431227,66.5384145 C70.2733102,66.2007962 70.2104334,65.8271354 70.1429348,65.360497 C70.0918475,64.9615609 70.0470011,64.5628466 70.0010019,64.162329 C69.9039142,63.3247611 69.8045127,62.4585389 69.6602659,61.6123338 C69.5076987,60.4417112 69.094144,59.3187679 68.4491849,58.3246229 C67.591575,57.2532105 66.4565378,56.4297655 65.1643235,55.9407757 C64.9007973,55.8236025 64.6178487,55.70392 64.3027487,55.5742113 L64.1090349,55.4964772 L64.1051051,55.4964772 C64.6663745,55.3610668 65.2193115,55.194878 65.7616202,54.9986051 C66.5173253,54.758102 67.208467,54.3525713 67.7833829,53.8125174 C68.4065881,53.1010632 68.8855761,52.2783184 69.1949003,51.388811 C69.5298606,50.5305256 69.813253,49.6537988 70.0442253,48.7626574 L70.0530097,48.731426 L70.1783017,48.2750413 C70.3391953,47.6836899 70.5060955,47.0713876 70.7224627,46.4855219 L70.9624123,45.8164363 C71.1355558,45.338167 71.3103148,44.8617419 71.4927019,44.3873418 L71.4927019,44.3846062 L71.4959382,44.3884816 C71.5074963,44.755046 71.5109641,45.1227542 71.5109641,45.4897738 C71.5109641,45.67853 71.5109641,45.8684243 71.5142005,46.0571805 C71.5185926,46.5566516 71.5241406,47.0721014 71.4869229,47.5742803 C71.4624196,47.8986745 71.4314434,48.2221816 71.3993096,48.5465407 C71.3609361,48.9404638 71.3216383,49.3480428 71.296671,49.7501945 L71.2969022,49.7501945 C71.2287112,50.4894859 71.2851127,51.2349051 71.4633407,51.9562219 C71.6559006,52.587024 72.0907476,53.1188493 72.6751319,53.4377811 C73.1712106,53.6988033 73.7047136,53.8832234 74.2574376,53.9848964 C75.1811495,54.1659026 76.1139157,54.2990311 77.0517712,54.3831497 C77.4401278,54.4241831 77.8241053,54.4652141 78.2069289,54.5128642 C78.4526543,54.5479706 78.7617241,54.5937906 79.0846593,54.6589892 C79.1401389,54.6694758 79.1956184,54.6804181 79.2483225,54.6918162 L79.2522523,54.6918162 C79.2034764,54.7168924 79.1563185,54.7378649 79.1073131,54.75747 L79.107255,54.7574408 Z" id="Shape"></path>
            <path d="M16.0335973,25.7183988 C16.1209997,26.2518554 16.2916044,26.7667145 16.5383938,27.2421214 C16.7335338,27.5921243 17.0530079,27.8468514 17.4271346,27.9497141 C17.8010579,28.0528276 18.1987926,27.9960057 18.5329902,27.7917363 C18.7491657,27.6582499 18.9293489,27.468921 19.0562495,27.2421151 C19.7014915,26.2227052 20.1703015,25.0923753 20.4416202,23.9027292 C20.7377196,22.8198648 20.9732913,21.7201335 21.3642834,20.669686 C21.5005291,20.3581321 21.6606161,20.0588301 21.8426719,19.774238 C21.9405919,19.6561826 22.0452904,19.5444914 22.1563007,19.4399107 C22.3107759,19.3336119 22.4717963,19.2380853 22.6379618,19.153588 C23.5841971,18.8459592 24.5470644,18.5978409 25.5215982,18.4104433 C26.6758545,18.1652657 27.7377966,17.575252 28.5795726,16.7115939 C28.8490307,16.4228196 29,16.0348506 29,15.6309867 C29,15.2270977 28.8490307,14.8391225 28.5795726,14.5503795 C28.1691904,14.1264071 27.6875413,13.7861669 27.1586642,13.5461435 C26.5444728,13.2747627 25.903,13.0775898 25.2460317,12.9583117 C24.0873482,12.8216401 22.9414678,12.5843065 21.8201766,12.2482737 C21.6596229,12.1671999 21.5042145,12.0751094 21.3553451,11.9727295 C21.2728487,11.8955746 21.1945581,11.8142626 21.1202401,11.7287809 C21.0557399,11.6229712 20.9973121,11.5154497 20.9412236,11.4030249 C20.8589605,11.150994 20.7949269,10.8928372 20.7500561,10.6305357 C20.6659263,9.58761243 20.7664154,8.54324704 20.7500561,7.49982219 C20.7687523,6.168156 20.3967016,4.86263657 19.6844047,3.75995828 C19.4855254,3.42146752 19.1756357,3.17065931 18.8127148,3.05456019 C18.5593802,2.98181327 18.2917948,2.98181327 18.0382449,3.05456019 C17.7944948,3.12461092 17.5724741,3.26005363 17.3943789,3.44791525 C17.0284008,3.91842518 16.7012149,4.4210511 16.4167939,4.94981751 C16.1293397,5.52466992 15.8706326,6.11469623 15.6420847,6.71795268 C15.2045945,7.80495546 14.8444615,8.92230603 14.4210009,10.0152028 C14.1171897,10.7806068 13.7388452,11.5112111 13.2919919,12.1953532 C13.1076029,12.4285296 12.9056843,12.6457796 12.6878516,12.8448837 C12.5441274,12.9431002 12.3943248,13.0312781 12.2391436,13.1081822 C11.6848039,13.3073114 11.1136645,13.4508364 10.5335749,13.5373025 C9.84322281,13.6230287 9.1526314,13.6707889 8.45827084,13.713652 C8.07289655,13.7207549 7.70432187,13.8809411 7.42743917,14.1616268 C7.15447518,14.4484385 7.00069998,14.8369279 7,15.2419832 C7.00631003,15.5371217 7.09020824,15.8244288 7.24235014,16.0725346 C7.39472537,16.3208911 7.6092616,16.5202648 7.86258415,16.6488542 C7.97289451,16.9748547 8.19397589,17.2469754 8.48353609,17.4130668 C10.0292452,18.1449252 11.6621232,18.6521848 13.2330796,19.324727 C13.9327648,19.6269693 14.6016387,20.0026675 15.2293512,20.4455321 C15.3557851,20.5569724 15.4756739,20.6762568 15.5883175,20.8028836 C15.6294491,20.8709718 15.6682414,20.9410225 15.7044671,21.0127913 C15.7654615,21.2050608 15.8138382,21.4014938 15.8491305,21.600623 C15.9276544,22.4723069 15.8799789,23.3511389 15.8944686,24.2235753 C15.9106711,24.7244647 15.9571794,25.2236169 16.0335973,25.7183988 Z M11.8170548,15.7275811 L11.4599395,15.5267968 L11.4545314,15.5264003 C11.8608152,15.3686627 12.2592198,15.180592 12.6477106,14.9636126 C13.048333,14.7134575 13.4282112,14.4148085 13.7813428,14.0715247 L13.8525087,14.0062749 L13.8521906,14.0062516 C14.1565674,13.7181128 14.440353,13.3983281 14.7000838,13.0509732 C15.8356461,11.5115528 16.7765982,9.7745623 17.4904614,7.89995776 C17.8419049,7.04996608 18.1794183,6.17385798 18.5060891,5.32558798 L18.528334,5.27006205 L18.5333783,5.2759127 L18.5330602,5.27588938 C18.4578915,6.09132433 18.4249797,6.91067895 18.4346688,7.72878704 C18.4457494,8.28159342 18.4831737,8.83246255 18.5471603,9.37814328 C18.6480125,10.0228786 18.8036897,10.6509075 19.0122386,11.2529869 C19.1690672,11.6959029 19.3694741,12.1134308 19.6090098,12.4954729 L19.7051164,12.6649858 C19.9688065,13.092245 20.2787484,13.4731748 20.6270326,13.7974045 C22.0301623,15.2156616 23.8015907,15.6642266 25.5120208,16.0984982 L25.5645306,16.1164407 L25.6217542,16.1308142 L25.6118925,16.1300912 L25.6233447,16.1309308 C25.2407646,16.1968403 24.8581958,16.2721514 24.4767903,16.3541924 C22.9222889,16.6164487 21.4627993,17.4615571 20.2999833,18.772782 C19.5948969,19.6575315 19.0119052,20.6761465 18.5750596,21.7864336 C18.4832484,22.0126352 18.3911772,22.2427363 18.3075626,22.4707114 L18.3071987,22.4761666 L18.307517,22.4761889 C18.1251728,21.711168 17.8358013,20.9931215 17.4516304,20.3538136 C16.9821774,19.622946 16.4316336,18.9765726 15.8151734,18.4325826 C15.2372449,17.9188678 14.6282891,17.4580697 13.9934877,17.0540961 C13.2420291,16.554776 12.466949,16.0966821 11.8170548,15.7275811 Z" id="Shape"></path>
        </g>
    </g>
</svg>