<svg width="80" height="81" viewBox="0 0 80 81" fill="none" xmlns="http://www.w3.org/2000/svg">
<path d="M10.0352 37.8999V52.8666C10.0352 67.8332 16.0352 73.8332 31.0018 73.8332H48.9685C63.9352 73.8332 69.9352 67.8332 69.9352 52.8666V37.8999" stroke="white" stroke-width="4" stroke-linecap="round" stroke-linejoin="round"/>
<path d="M39.999 40.4998C46.099 40.4998 50.599 35.5332 49.999 29.4332L47.799 7.1665H32.2323L29.999 29.4332C29.399 35.5332 33.899 40.4998 39.999 40.4998Z" stroke="white" stroke-width="4" stroke-linecap="round" stroke-linejoin="round"/>
<path d="M61.0346 40.4998C67.768 40.4998 72.7013 35.0332 72.0346 28.3332L71.1013 19.1665C69.9013 10.4998 66.568 7.1665 57.8346 7.1665H47.668L50.0013 30.5332C50.568 36.0332 55.5346 40.4998 61.0346 40.4998Z" stroke="white" stroke-width="4" stroke-linecap="round" stroke-linejoin="round"/>
<path d="M18.7986 40.4998C24.2986 40.4998 29.2653 36.0332 29.7986 30.5332L30.532 23.1665L32.132 7.1665H21.9653C13.232 7.1665 9.89863 10.4998 8.69863 19.1665L7.79863 28.3332C7.13197 35.0332 12.0653 40.4998 18.7986 40.4998Z" stroke="white" stroke-width="4" stroke-linecap="round" stroke-linejoin="round"/>
<path d="M40.0013 57.1665C34.4346 57.1665 31.668 59.9332 31.668 65.4998V73.8332H48.3346V65.4998C48.3346 59.9332 45.568 57.1665 40.0013 57.1665Z" stroke="white" stroke-width="4" stroke-linecap="round" stroke-linejoin="round"/>
</svg>
