<svg width="36" height="31" viewBox="0 0 36 31" fill="none" xmlns="http://www.w3.org/2000/svg">
<path d="M0.656107 14.6445C4.27998 12.6483 8.32522 10.9824 12.1049 9.30784C18.6074 6.56511 25.1357 3.86992 31.73 1.36073C33.013 0.933185 35.3182 0.515073 35.5443 2.41641C35.4205 5.10772 34.9113 7.78328 34.5621 10.4588C33.6756 16.3426 32.6511 22.2063 31.6519 28.0707C31.3077 30.0241 28.8607 31.0353 27.2949 29.7853C23.532 27.2435 19.7402 24.7266 16.0254 22.1259C14.8085 20.8894 15.9369 19.1138 17.0237 18.2308C20.1229 15.1765 23.4097 12.5816 26.3469 9.36945C27.1392 7.4561 24.7982 9.06862 24.0261 9.56268C19.7832 12.4865 15.6442 15.5888 11.1709 18.1585C8.88593 19.4163 6.22278 18.3414 3.93885 17.6395C1.89102 16.7916 -1.10981 15.9374 0.6559 14.6446L0.656107 14.6445Z" fill="white"/>
</svg>
