<?xml version="1.0" encoding="UTF-8"?>
<svg width="95px" height="99px" viewBox="0 0 95 99" version="1.1" xmlns="http://www.w3.org/2000/svg" xmlns:xlink="http://www.w3.org/1999/xlink">
    <title>Artboard</title>
    <g id="Artboard" stroke="none" stroke-width="1" fill="none" fill-rule="evenodd">
        <g id="Group" transform="translate(6.000000, 21.000000)">
            <path d="M34.2202928,0.436276869 C29.5393572,1.60213843 25.9106463,4.94572083 24.1589667,9.12479909 C20.6866007,6.24679872 15.9361334,4.99024628 11.2551977,6.15610785 C3.31562692,8.13351336 -1.53061081,16.2717486 0.438718388,24.3482386 C1.19714128,27.4585421 2.3895653,30.21133 3.89307267,32.6647396 C11.1658693,44.7158024 25.6661089,49.3940085 32.4213122,49.9848932 C33.37715,50.079602 34.825389,49.7188885 35.6282083,49.1862231 C41.3382456,45.4906108 52.0273042,34.5386624 52.926835,20.4522208 C53.1301564,17.5736465 52.9205066,14.5761736 52.1620675,11.4657881 C50.1927058,3.3893227 42.1598879,-1.54117785 34.2202928,0.436276869 Z" id="Path" fill="#FFFFFF" fill-rule="nonzero"></path>
            <path d="M60.1777445,20.3541618 L60.6677411,22.3348815 L62.4421017,21.3087717 C66.038091,19.229077 70.5609789,18.7982837 74.6623925,20.5274085 C81.62279,23.4615968 84.8741158,31.4791298 81.8935971,38.4571008 C80.6848129,41.2879117 79.1141321,43.7085559 77.2901235,45.7992568 L77.2901235,45.7992568 L77.2833123,45.807165 C72.8495446,50.9590746 66.9191986,54.1238238 61.1940095,55.9372483 C55.4603679,57.7533633 50.0436527,58.1782051 46.7692673,57.9391654 L46.7605686,57.9385947 L46.75187,57.938024 C46.4867253,57.9216369 46.0623788,57.8191563 45.595606,57.622348 C45.1289152,57.4256213 44.759797,57.1936745 44.5637491,57.015536 L44.5573482,57.0097476 L44.5508652,57.0039591 C42.1026054,54.8305074 38.6466152,50.6650851 35.9773605,45.3065838 C33.3121268,39.9559908 31.482538,33.5197725 32.1313261,26.7722808 L32.1314081,26.7722808 L32.1323108,26.7619268 C32.3782528,24.0057138 33.0395144,21.2019701 34.2486268,18.3711592 C37.2290635,11.3931882 45.2923021,8.14568826 52.2523713,11.0798766 C56.353867,12.8090013 59.1846212,16.3398106 60.1777445,20.3541618 Z" id="Path" stroke="#FFFFFF" stroke-width="3.74347"></path>
        </g>
    </g>
</svg>