<svg width="115" height="91" viewBox="0 0 115 91" fill="none" xmlns="http://www.w3.org/2000/svg">
<path d="M46.8287 5.85871C41.0593 7.28051 36.5868 11.3581 34.4278 16.4546C30.148 12.9448 24.2929 11.4124 18.5235 12.8342C8.73773 15.2457 2.76459 25.1705 5.19185 35.02C6.12663 38.8131 7.59633 42.1702 9.44945 45.1622C18.4134 59.8588 36.2854 65.564 44.6114 66.2846C45.7895 66.4001 47.5745 65.9602 48.564 65.3106C55.6018 60.8037 68.7764 47.4475 69.8851 30.2687C70.1357 26.7582 69.8773 23.1027 68.9425 19.3095C66.5152 9.46003 56.6145 3.44715 46.8287 5.85871Z" fill="white"/>
<path d="M78.6305 30.5158L79.2276 32.9453L81.3898 31.6867C85.7718 29.1358 91.2833 28.6074 96.2812 30.7283C104.763 34.3273 108.725 44.1614 105.093 52.7204C103.62 56.1926 101.706 59.1617 99.4833 61.7261L99.4833 61.7261L99.475 61.7358C94.0721 68.055 86.8455 71.9368 79.8689 74.1611C72.882 76.3887 66.2813 76.9098 62.2912 76.6166L62.2806 76.6159L62.27 76.6152C61.9469 76.5951 61.4298 76.4694 60.861 76.228C60.2923 75.9867 59.8425 75.7022 59.6036 75.4837L59.5958 75.4766L59.5879 75.4695C56.6045 72.8036 52.3931 67.6944 49.1404 61.1218C45.8926 54.5589 43.6631 46.6644 44.4537 38.3881L44.4538 38.3881L44.4549 38.3754C44.7546 34.9947 45.5604 31.5557 47.0338 28.0835C50.6657 19.5245 60.4914 15.5412 68.9728 19.1402C73.9708 21.2611 77.4203 25.5919 78.6305 30.5158Z" stroke="white" stroke-width="3.74347"/>
</svg>
