<?xml version="1.0" encoding="UTF-8"?>
<svg width="95px" height="99px" viewBox="0 0 95 99" version="1.1" xmlns="http://www.w3.org/2000/svg" xmlns:xlink="http://www.w3.org/1999/xlink">
    <title>Artboard</title>
    <g id="Artboard" stroke="none" stroke-width="1" fill="none" fill-rule="evenodd">
        <g id="noun-egg-3889551-FFFFFF" transform="translate(17.000000, 10.000000)" fill="#FFFFFF">
            <path d="M31,0 C26.03944,0 21.9444308,1.7162406 18,5 C14.0580062,8.28161523 10.8593231,13.0614959 8,18 C2.30883692,27.8320499 0,37.8450924 0,47 C0,65.6224489 14.7745231,79 33,79 C51.2254769,79 63.84646,62.4646001 62,44 C61,34 58,25 52,16 C48.3732415,10.5598622 46,7 42,4 C38,1 35.9604923,0 31,0 Z M4.90326154,36.3008685 C6.37665231,30.6389519 8.68848,24.6983097 11.6455508,19.3979324 C14.2992923,14.6417301 17.3999385,10.5338301 20.7467815,7.64323712 C24.0911877,4.75450998 27.5491815,3.18750432 31.0001354,3.18750432 C34.4510892,3.18750432 37.9094892,4.75450998 41.2534892,7.64323712 C44.6002646,10.5341889 47.7009108,14.6417301 50.35472,19.3979324 C54.0428677,26.0087645 56.7273415,33.6147987 58.0330585,40.4351054 C57.7149588,40.5612495 57.4156302,40.7574768 57.15624,41.0240601 L53.1060738,45.1875043 L47.8924123,39.827923 C46.9076923,38.8157131 45.3428492,38.8157131 44.3581292,39.827923 L42.6348862,41.5995953 L38.58472,37.4357205 C37.6,36.4237259 36.0351569,36.4237259 35.0504369,37.4357205 L27.5101908,45.1875043 L18.8063138,36.2401575 C17.8215938,35.2281629 16.2567508,35.2281629 15.2720308,36.2401575 L10.0583692,41.5999541 L4.90326154,36.3008685 Z M3.61500923,40.3560947 C3.26147262,42.6110246 3.07717354,44.7532115 3.07717354,46.7099863 C3.07717354,62.7832669 15.5785889,75.8129107 31.0002505,75.8129107 C46.421912,75.8129107 58.9233274,62.7832669 58.9233274,46.7099863 C58.9233274,46.0231996 58.9008515,45.3135398 58.8558998,44.5840265 L54.8731551,48.6094019 C53.8884351,49.6043338 52.3235921,49.6043338 51.3388721,48.6094019 L46.1252105,43.3399735 L44.4019674,45.0817747 C43.4172474,46.0769183 41.8524044,46.0769183 40.8676844,45.0817747 L36.8175182,40.9883161 L29.2772721,48.6094019 C28.2928228,49.6043338 26.7274382,49.6043338 25.742989,48.6094019 L17.0391121,39.8129107 L11.8254505,45.0820569 C10.8407305,46.0772005 9.27588745,46.0772005 8.29116745,45.0820569 L3.61500923,40.3560947 Z" id="Shape"></path>
        </g>
    </g>
</svg>