<svg width="24" height="25" viewBox="0 0 24 25" fill="none" xmlns="http://www.w3.org/2000/svg">
<path fill-rule="evenodd" clip-rule="evenodd" d="M1.5 12.5C1.5 15.2848 2.60625 17.9555 4.57538 19.9246C6.54451 21.8938 9.21523 23 12 23C14.7848 23 17.4555 21.8938 19.4246 19.9246C21.3938 17.9555 22.5 15.2848 22.5 12.5C22.5 9.71523 21.3938 7.04451 19.4246 5.07538C17.4555 3.10625 14.7848 2 12 2C9.21523 2 6.54451 3.10625 4.57538 5.07538C2.60625 7.04451 1.5 9.71523 1.5 12.5ZM24 12.5C24 15.6826 22.7357 18.7348 20.4853 20.9853C18.2348 23.2357 15.1826 24.5 12 24.5C8.8174 24.5 5.76516 23.2357 3.51472 20.9853C1.26428 18.7348 0 15.6826 0 12.5C0 9.3174 1.26428 6.26516 3.51472 4.01472C5.76516 1.76428 8.8174 0.5 12 0.5C15.1826 0.5 18.2348 1.76428 20.4853 4.01472C22.7357 6.26516 24 9.3174 24 12.5ZM12.75 7.25C12.75 7.05109 12.671 6.86032 12.5303 6.71967C12.3897 6.57902 12.1989 6.5 12 6.5C11.8011 6.5 11.6103 6.57902 11.4697 6.71967C11.329 6.86032 11.25 7.05109 11.25 7.25V15.9395L8.031 12.719C7.89017 12.5782 7.69916 12.4991 7.5 12.4991C7.30084 12.4991 7.10983 12.5782 6.969 12.719C6.82817 12.8598 6.74905 13.0508 6.74905 13.25C6.74905 13.4492 6.82817 13.6402 6.969 13.781L11.469 18.281C11.5387 18.3508 11.6214 18.4063 11.7125 18.4441C11.8037 18.4819 11.9013 18.5013 12 18.5013C12.0987 18.5013 12.1963 18.4819 12.2874 18.4441C12.3786 18.4063 12.4613 18.3508 12.531 18.281L17.031 13.781C17.1718 13.6402 17.2509 13.4492 17.2509 13.25C17.2509 13.0508 17.1718 12.8598 17.031 12.719C16.8902 12.5782 16.6992 12.4991 16.5 12.4991C16.3008 12.4991 16.1098 12.5782 15.969 12.719L12.75 15.9395V7.25Z" fill="white"/>
</svg>
