<?xml version="1.0" encoding="UTF-8"?>
<svg width="95px" height="99px" viewBox="0 0 95 99" version="1.1" xmlns="http://www.w3.org/2000/svg" xmlns:xlink="http://www.w3.org/1999/xlink">
    <title>Artboard</title>
    <g id="Artboard" stroke="none" stroke-width="1" fill="none" fill-rule="evenodd">
        <g id="Group" transform="translate(15.000000, 11.000000)" fill="#FFFFFF" fill-rule="nonzero">
            <path d="M58.9135691,27.5293598 L48.9286875,27.5293598 C47.5479756,27.5293598 46.4286875,26.4100717 46.4286875,25.0293598 L46.4286875,2.5 C46.4286875,1.11928813 45.3093994,-2.53632657e-16 43.9286875,0 L21.0714344,0 C19.6907225,2.70626964e-15 18.5714344,1.11928813 18.5714344,2.5 L18.5714344,25.0293598 C18.5714344,26.4100717 17.4521462,27.5293598 16.0714344,27.5293598 L6.08643093,27.5293598 C4.70571906,27.5293598 3.58643093,28.6486479 3.58643093,30.0293598 C3.58643093,30.6975314 3.85390315,31.3378983 4.32916065,31.8075615 L30.7427297,57.9102138 C31.7165909,58.8726116 33.2834091,58.8726116 34.2572703,57.9102138 L60.6708393,31.8075615 C61.652913,30.8370479 61.6622843,29.2541632 60.6917707,28.2720895 C60.2221075,27.796832 59.5817406,27.5293598 58.9135691,27.5293598 Z M0,73.4118001 C3.10324619e-16,75.9457929 2.05420705,78 4.58819987,78 L60.4118001,78 C62.9457929,78 65,75.9457929 65,73.4118001 C65,70.8778073 62.9457929,68.8236003 60.4118001,68.8236003 L4.58819987,68.8236003 C2.05420705,68.8236003 -3.10324619e-16,70.8778073 0,73.4118001 Z" id="Shape"></path>
        </g>
    </g>
</svg>