<?xml version="1.0" encoding="UTF-8"?>
<svg width="1200pt" height="1200pt" version="1.1" viewBox="0 0 1200 1200" xmlns="http://www.w3.org/2000/svg">
 <g fill="#fff">
  <path d="m600 180c-231.6 0-420 188.4-420 420s188.4 420 420 420 420-188.4 420-420-188.4-420-420-420zm0 768c-192 0-348-156-348-348s156-348 348-348 348 156 348 348-156 348-348 348z"/>
  <path d="m685.2 516c20.398 0 36-15.602 36-36v-48c0-20.398-15.602-36-36-36-20.398 0-36 15.602-36 36v48c0 20.398 15.602 36 36 36z"/>
  <path d="m514.8 517.2c20.398 0 36-15.602 36-36v-48c0-20.398-15.602-36-36-36-20.398 0-36 15.602-36 36v48c0 19.199 16.801 36 36 36z"/>
  <path d="m811.2 675.6c-18-8.3984-39.602 0-48 18-28.801 63.602-93.602 105.6-163.2 105.6-69.602 0-134.4-40.801-163.2-105.6-8.3984-18-30-26.398-48-18-18 8.3984-26.398 30-18 48 40.801 88.801 130.8 146.4 229.2 146.4s188.4-57.602 229.2-146.4c8.4023-19.203 0-39.602-18-48z"/>
 </g>
</svg>
