<svg width="12" height="12" viewBox="0 0 12 12" fill="none" xmlns="http://www.w3.org/2000/svg">
<path d="M6.22749 0.500115V1.60008H1.69843C1.38579 1.60008 1.13232 1.84633 1.13232 2.15006V9.84998C1.13232 10.1538 1.38579 10.4 1.69843 10.4H9.62417C9.93687 10.4 10.1903 10.1538 10.1903 9.84998V5.44997H11.3226V9.84998C11.3226 10.7612 10.5622 11.5 9.62416 11.5H1.69842C0.760436 11.5 0 10.7612 0 9.84998V2.15006C0 1.23881 0.760362 0.500042 1.69842 0.500042L6.22749 0.500115ZM10.7566 0.500115L10.7675 0.500229C10.7807 0.500456 10.7939 0.501139 10.8071 0.502276L10.7565 0.500115C10.7852 0.500115 10.8134 0.502162 10.8409 0.506199C10.8505 0.50762 10.8604 0.509326 10.8701 0.511259C10.8826 0.513647 10.8949 0.516547 10.907 0.519788C10.9159 0.522176 10.9246 0.524734 10.9332 0.527464C10.9444 0.530989 10.9556 0.534912 10.9666 0.539233C10.9767 0.543099 10.9864 0.54725 10.9962 0.551628C11.0079 0.556973 11.0194 0.562715 11.0307 0.568799C11.0375 0.572438 11.0445 0.576361 11.0513 0.580398C11.0658 0.589041 11.0798 0.598309 11.0935 0.608088C11.1157 0.624008 11.1368 0.641747 11.1569 0.661192L11.1057 0.617128C11.1414 0.644363 11.1737 0.675691 11.2018 0.710374C11.205 0.714297 11.2083 0.718505 11.2115 0.722712C11.2216 0.736017 11.2311 0.749663 11.24 0.763763C11.2442 0.770359 11.2482 0.777068 11.2521 0.783891C11.2582 0.794751 11.2641 0.805951 11.2696 0.817381C11.2741 0.826762 11.2784 0.836258 11.2823 0.845866C11.2868 0.856726 11.2909 0.867642 11.2946 0.878673C11.2973 0.88686 11.3 0.895332 11.3024 0.903804C11.3058 0.915688 11.3087 0.927571 11.3113 0.939681C11.3132 0.949233 11.3149 0.958842 11.3164 0.968451C11.3182 0.979425 11.3195 0.990797 11.3206 1.00222C11.3214 1.01257 11.322 1.02247 11.3224 1.03236C11.3225 1.03787 11.3227 1.04401 11.3227 1.0501V3.80009H10.1904V2.37779L6.06171 6.38888C5.85763 6.58714 5.5365 6.60244 5.31446 6.43465L5.26108 6.38888C5.04003 6.17412 5.04003 5.82586 5.26108 5.61105L9.38876 1.59997H7.92592V0.5L10.7566 0.500115Z" fill="white"/>
</svg>
