<?xml version="1.0" encoding="UTF-8"?>
<svg width="1200pt" height="1200pt" version="1.1" viewBox="0 0 1200 1200" xmlns="http://www.w3.org/2000/svg">
 <path d="m1078.1 281.26h-219.77c16.23-10.973 29.887-25.828 39.484-43.656 20.172-37.543 19.543-82.914-1.7695-119.83-21.312-36.973-60.23-60.172-102.86-61.484-42.629-1.2578-82.855 19.602-106.34 55.199l-98.457 149.14-98.457-149.14c-23.484-35.543-63.715-56.457-106.4-55.199-42.629 1.2578-81.543 24.516-102.86 61.484-21.312 36.914-22 82.285-1.7695 119.83 9.6016 17.828 23.258 32.688 39.484 43.656h-215.26c-31.086 0-56.23 25.199-56.23 56.23v93.77c0 31.086 25.199 56.23 56.23 56.23h3.1992c-2.1133 5.9414-3.1992 12.285-3.1992 18.742v580.97c0 14.914 5.9414 29.258 16.457 39.77 10.516 10.516 24.855 16.457 39.77 16.457h334.23c1.0859 0.17187 2.1719 0.28516 3.3125 0.28516h187.48c1.1445 0 2.2305-0.11328 3.3125-0.28516h334.23c14.914 0 29.258-5.9414 39.77-16.457 10.57-10.57 16.457-24.855 16.457-39.77l0.003906-580.97c0-6.457-1.0859-12.801-3.1992-18.742h3.1992c31.086 0 56.23-25.199 56.23-56.23l-0.003906-93.773c0-31.086-25.199-56.227-56.285-56.227zm-360.05-149.09c16.344-24.742 44.344-39.258 73.941-38.344 29.656 0.85547 56.688 17.086 71.484 42.742 14.801 25.656 15.258 57.199 1.2578 83.312-14.059 26.113-40.57 43.086-70.172 44.855l-170.8 10.23zm-406.23 87.656c-14.059-26.113-13.602-57.602 1.2578-83.312 14.855-25.656 41.887-41.828 71.484-42.742 29.656-0.85547 57.602 13.602 73.941 38.344l94.285 142.8-170.8-10.23c-29.539-1.7734-56.109-18.746-70.168-44.859zm166.29 886.11h-318.74c-4.9727 0-9.7695-2-13.258-5.4844-3.543-3.543-5.4844-8.2852-5.4844-13.258v-580.97c0-4.9727 1.9414-9.7695 5.4844-13.258 3.4844-3.543 8.2852-5.4844 13.258-5.4844h318.74zm187.49 0h-150v-618.46h150zm375.03-18.742c0 4.9727-1.9414 9.7695-5.4844 13.258-3.4844 3.4844-8.2852 5.4844-13.258 5.4844h-318.74v-618.46h318.74c4.9727 0 9.7695 2 13.258 5.4844 3.543 3.4844 5.4844 8.2852 5.4844 13.258zm56.227-655.94c0 10.344-8.3984 18.742-18.742 18.742h-974.97c-10.344 0-18.742-8.3984-18.742-18.742l-0.003906-93.773c0-10.344 8.3984-18.742 18.742-18.742h974.97c10.344 0 18.742 8.3984 18.742 18.742z" fill="#fff"/>
</svg>
