<svg width="20" height="20" viewBox="0 0 20 20" fill="none" xmlns="http://www.w3.org/2000/svg">
<path d="M11.2812 9.85577C11.2812 12.998 8.75578 15.5453 5.6407 15.5453C2.52561 15.5453 0 12.9975 0 9.85577C0 6.71408 2.52542 4.16602 5.6407 4.16602C8.75598 4.16602 11.2812 6.7135 11.2812 9.85577Z" fill="#777E90"/>
<path d="M17.4689 9.85646C17.4689 12.8142 16.2062 15.2129 14.6486 15.2129C13.091 15.2129 11.8282 12.8142 11.8282 9.85646C11.8282 6.8987 13.0908 4.5 14.6484 4.5C16.206 4.5 17.4688 6.89793 17.4688 9.85646" fill="#777E90"/>
<path d="M20 9.85714C20 12.5066 19.556 14.6557 19.0081 14.6557C18.4602 14.6557 18.0164 12.5071 18.0164 9.85714C18.0164 7.20713 18.4604 5.05859 19.0081 5.05859C19.5558 5.05859 20 7.20694 20 9.85714Z" fill="#777E90"/>
</svg>
