<?xml version="1.0" encoding="UTF-8"?>
<svg width="1200pt" height="1200pt" version="1.1" viewBox="0 0 1200 1200" xmlns="http://www.w3.org/2000/svg">
 <g fill="#fff">
  <path d="m1126.6 740.57-170.36-250.22v-302.85c0-51.695-42.055-93.75-93.75-93.75h-35.926c-18.695-41.57-65.383-64.727-110.72-52.18l-54.883 15.414c-14.043-19.727-34.648-33.168-58.52-37.727-24.656-4.707-49.555 0.46875-70.219 14.551l-88.008 59.941h-106.73c-47.008 0-85.688 34.895-92.363 80.082l-34.594 9.6953c-49.125 13.836-77.926 64.5-65.27 113.57l-47.062 32.023c-42.75 28.988-53.906 87.43-24.844 130.33l170.38 250.2v302.85c0 51.695 42.055 93.75 93.75 93.75h35.68c15.207 33.957 49.164 55.594 85.82 55.594 8.3047 0 16.762-1.1055 25.125-3.4297l54.883-15.414c14.043 19.727 34.648 33.168 58.52 37.727 5.9258 1.125 11.867 1.6875 17.773 1.6875 18.602 0 36.75-5.5508 52.445-16.238l88.027-59.926h106.73c47.008 0 85.688-34.895 92.363-80.082l34.594-9.6953c49.086-13.82 77.867-64.406 65.25-113.55l47.062-32.043c42.77-28.965 53.926-87.41 24.844-130.31zm-400.67-662.87c21.109-5.8672 42.617 1.2578 56.473 16.051h-113.62zm-172.58-12.879c12.395-8.4375 27.336-11.492 42.074-8.7188 9.5078 1.8203 18.039 6.168 25.258 12.207l-90.598 25.441h-19.238zm-332.68 154.8 23.062-6.4688v297l-62.023-221.23c-8.3828-29.793 9.0938-60.879 38.961-69.301zm-101.4 140.52 36.488-24.844 85.07 303.49-136.45-200.42c-17.438-25.742-10.781-60.824 14.891-78.223zm354.77 762.17c-21.188 5.9258-42.918-1.332-56.738-16.051h113.87zm172.58 12.879c-12.375 8.457-27.32 11.551-42.074 8.7188-9.5078-1.8203-18.039-6.168-25.258-12.207l90.598-25.441h19.238zm272.12-122.68c0 31.012-25.238 56.25-56.25 56.25h-525c-31.012 0-56.25-25.238-56.25-56.25v-825c0-31.012 25.238-56.25 56.25-56.25h525c31.012 0 56.25 25.238 56.25 56.25zm60.562-32.117-23.062 6.4688v-296.89l58.855 210.17 3.1484 10.949c8.4023 29.797-9.0742 60.883-38.941 69.305zm101.4-140.52-36.488 24.844-85.07-303.49 136.46 200.42c17.426 25.746 10.77 60.828-14.902 78.227z"/>
  <path d="m600 375c-124.07 0-225 100.93-225 225s100.93 225 225 225 225-100.93 225-225-100.93-225-225-225zm0 37.5c97.07 0 177.11 74.137 186.54 168.75h-114.21c-8.3828-32.25-37.5-56.25-72.336-56.25s-63.957 24-72.336 56.25h-114.21c9.4297-94.613 89.473-168.75 186.54-168.75zm37.5 187.5c0 20.68-16.82 37.5-37.5 37.5s-37.5-16.82-37.5-37.5 16.82-37.5 37.5-37.5 37.5 16.82 37.5 37.5zm-37.5 187.5c-97.07 0-177.11-74.137-186.54-168.75h114.21c8.3828 32.25 37.5 56.25 72.336 56.25s63.957-24 72.336-56.25h114.21c-9.4297 94.613-89.473 168.75-186.54 168.75z"/>
  <path d="m318.75 168.75h37.5v37.5h-37.5z"/>
  <path d="m843.75 168.75h37.5v37.5h-37.5z"/>
  <path d="m318.75 993.75h37.5v37.5h-37.5z"/>
  <path d="m843.75 993.75h37.5v37.5h-37.5z"/>
 </g>
</svg>
