<?xml version="1.0" encoding="UTF-8"?>
<svg width="1131px" height="1195px" viewBox="0 0 1131 1195" version="1.1" xmlns="http://www.w3.org/2000/svg" xmlns:xlink="http://www.w3.org/1999/xlink">
    <title>Artboard</title>
    <g id="Artboard" stroke="none" stroke-width="1" fill="none" fill-rule="evenodd">
        <g id="noun-notification-1205419-FFFFFF" transform="translate(60.000000, 0.000000)" fill="#FFFFFF" fill-rule="nonzero">
            <path d="M966.13008,865.682229 C931.377332,842.062429 874.383985,765.637937 874.383985,516.908636 C874.383985,283.466549 732.592777,190.367621 628.334535,151.460607 C629.723718,143.124316 631.112901,133.39432 631.112901,125.058261 C631.112901,55.5814492 575.508506,0 506.003011,0 C436.497517,0 380.893121,55.5814492 380.893121,125.058261 C380.893121,133.394552 382.282305,143.124548 383.671488,151.460607 C279.413246,188.975769 137.622037,283.466549 137.622037,516.908636 C137.622037,767.025157 80.6286904,843.44965 45.8759432,865.682229 C16.6847939,885.136895 0,918.486922 0,951.83116 C0,1010.18937 47.2648946,1056.04638 104.258242,1056.04638 L336.406593,1056.04638 C353.090229,1136.64179 423.985833,1195 506,1195 C588.014166,1195 658.912087,1136.64179 675.593406,1057.43591 L907.741757,1057.43591 C964.735104,1057.43591 1012,1010.19052 1012,953.220696 C1012,918.48229 995.320997,885.132263 966.12869,865.682229 L966.13008,865.682229 Z M506.003706,55.5826072 C544.9291,55.5826072 575.509201,86.1500883 575.509201,125.059419 C575.509201,129.22988 575.509201,132.0071 574.120018,136.177561 C517.126671,123.670577 464.300178,130.61849 436.499139,136.177561 C436.499139,132.0071 435.109956,129.22988 435.109956,125.059419 C436.499139,86.1500883 467.080166,55.5826072 506.004402,55.5826072 L506.003706,55.5826072 Z M193.228982,516.908636 C193.228982,305.699129 323.899311,225.106027 432.327882,194.53623 L433.717066,194.53623 C433.717066,194.53623 464.297166,184.811329 507.395206,184.811329 C529.635806,184.811329 553.27115,187.588549 579.678604,195.929472 L581.067787,195.929472 C689.498675,226.496953 820.166688,307.09237 820.166688,518.301877 C820.166688,679.48808 842.407288,794.819587 888.283231,862.906862 L125.112902,862.906862 C169.598735,792.03715 193.229445,676.704485 193.229445,516.907818 L193.228982,516.908636 Z M506.003706,1139.42087 C454.571957,1139.42087 408.696014,1104.68246 393.405964,1057.43707 L618.603766,1057.43707 C603.313716,1104.68246 557.437772,1139.42087 506.006023,1139.42087 L506.003706,1139.42087 Z M907.745464,1001.85678 L104.261949,1001.85678 C77.8487023,1001.85678 55.6081025,979.625358 55.6081025,953.223012 C55.6081025,939.32765 61.1694688,926.820666 72.2871043,917.096228 L942.495895,917.096228 C952.22481,926.821129 959.174897,939.32765 959.174897,953.223012 C956.401048,979.625358 934.159869,1001.85678 907.746623,1001.85678 L907.745464,1001.85678 Z" id="Shape"></path>
        </g>
    </g>
</svg>