<svg width="40" height="33" viewBox="0 0 40 33" fill="none" xmlns="http://www.w3.org/2000/svg">
<path d="M19.0578 9.17949L19.1424 10.5636L17.7334 10.3941C12.6047 9.74443 8.12411 7.54118 4.31986 3.84086L2.46 2.00482L1.98095 3.36066C0.966483 6.38307 1.61462 9.57495 3.72809 11.7217C4.85528 12.9081 4.60166 13.0775 2.65726 12.3714C1.98095 12.1454 1.38918 11.9759 1.33282 12.0607C1.13556 12.2584 1.81187 14.8288 2.34729 15.8457C3.07996 17.2581 4.57348 18.6422 6.2079 19.4613L7.5887 20.111L5.95428 20.1392C4.37622 20.1392 4.31986 20.1675 4.48894 20.7607C5.05253 22.5967 7.27873 24.5457 9.75853 25.3931L11.5057 25.9863L9.98397 26.8902C7.7296 28.1895 5.08071 28.924 2.43183 28.9805C1.16374 29.0087 0.121094 29.1217 0.121094 29.2064C0.121094 29.4889 3.55901 31.0707 5.55977 31.6921C11.562 33.5282 18.6915 32.7373 24.0456 29.6019C27.8499 27.3704 31.6541 22.9357 33.4294 18.6422C34.3875 16.3542 35.3457 12.1736 35.3457 10.1681C35.3457 8.86878 35.4302 8.6993 37.0083 7.14573C37.9382 6.24183 38.8118 5.2532 38.9808 4.97073C39.2626 4.43404 39.2345 4.43404 37.7973 4.91424C35.402 5.76164 35.0639 5.64865 36.2474 4.37755C37.121 3.47365 38.1636 1.83534 38.1636 1.35515C38.1636 1.27041 37.7409 1.41164 37.2619 1.66586C36.7546 1.94833 35.6275 2.37203 34.7821 2.62625L33.2604 3.10644L31.8796 2.1743C31.1187 1.66586 30.0479 1.10093 29.4843 0.931445C28.0471 0.535991 25.8491 0.592484 24.5529 1.04443C21.0304 2.31554 18.8042 5.59216 19.0578 9.17949Z" fill="white"/>
</svg>
